<?xml version="1.0" encoding="UTF-8" standalone="no"?>
<!-- Created with Inkscape (http://www.inkscape.org/) -->

<svg
   version="1.1"
   id="svg2"
   xml:space="preserve"
   width="241.33798"
   height="128.67599"
   viewBox="0 0 241.33797 128.67599"
   sodipodi:docname="cloud2.svg"
   inkscape:version="1.1.1 (3bf5ae0d25, 2021-09-20)"
   xmlns:inkscape="http://www.inkscape.org/namespaces/inkscape"
   xmlns:sodipodi="http://sodipodi.sourceforge.net/DTD/sodipodi-0.dtd"
   xmlns="http://www.w3.org/2000/svg"
   xmlns:svg="http://www.w3.org/2000/svg"><defs
     id="defs6" /><sodipodi:namedview
     id="namedview4"
     pagecolor="#505050"
     bordercolor="#eeeeee"
     borderopacity="1"
     inkscape:pageshadow="0"
     inkscape:pageopacity="0"
     inkscape:pagecheckerboard="0"
     showgrid="false"
     inkscape:zoom="0.67406245"
     inkscape:cx="-303.38435"
     inkscape:cy="177.28328"
     inkscape:window-width="2534"
     inkscape:window-height="1374"
     inkscape:window-x="10"
     inkscape:window-y="50"
     inkscape:window-maximized="1"
     inkscape:current-layer="g8"
     fit-margin-top="0"
     fit-margin-left="0"
     fit-margin-right="0"
     fit-margin-bottom="0" /><g
     id="g8"
     inkscape:groupmode="layer"
     inkscape:label="ink_ext_XXXXXX"
     transform="matrix(1.3333333,0,0,-1.3333333,-766.74128,777.93198)"><g
       id="g673"><path
         d="m 731.291,506.912 c -0.085,-5.72 -5.68,-9.259 -10.543,-11.703 -0.145,-0.072 -0.298,-0.106 -0.448,-0.106 -0.366,0 -0.719,0.201 -0.895,0.55 -0.248,0.495 -0.049,1.095 0.445,1.343 4.359,2.19 9.372,5.301 9.441,9.945 0.008,0.548 0.454,0.986 1,0.986 0.005,0 0.01,0 0.015,0 0.552,-0.009 0.993,-0.463 0.985,-1.015 z m -68.267,-8.955 c -1.654,-0.875 -3.501,-1.287 -5.357,-1.287 -3.867,0 -7.776,1.787 -10.081,4.895 -2.693,-1.825 -6.275,-2.412 -9.806,-1.572 -3.935,0.939 -7.124,3.494 -8.526,6.835 -0.214,0.509 0.025,1.095 0.535,1.309 0.505,0.214 1.096,-0.026 1.309,-0.535 1.157,-2.754 3.829,-4.872 7.147,-5.663 3.316,-0.791 6.658,-0.109 8.937,1.827 0.224,0.19 0.519,0.27 0.813,0.224 0.291,-0.049 0.545,-0.223 0.695,-0.478 2.607,-4.416 8.871,-6.185 13.399,-3.787 0.49,0.259 1.093,0.071 1.351,-0.416 0.259,-0.489 0.073,-1.094 -0.416,-1.352 z m -21.129,71.928 c 4.408,3.476 11.124,3.563 15.621,0.209 0.443,-0.33 0.534,-0.957 0.204,-1.4 -0.33,-0.443 -0.959,-0.533 -1.4,-0.204 -3.798,2.833 -9.465,2.757 -13.186,-0.176 -0.184,-0.144 -0.402,-0.214 -0.618,-0.214 -0.296,0 -0.589,0.13 -0.787,0.38 -0.341,0.434 -0.267,1.063 0.166,1.405 z m 84.243,-36.119 c -3.339,1.645 -7.242,2.48 -11.599,2.48 -1.65,0 -3.365,-0.128 -5.11,-0.368 1.051,-0.477 2.05,-1.073 2.961,-1.795 4.006,-3.181 6.123,-8.508 5.388,-13.571 -0.071,-0.498 -0.499,-0.857 -0.988,-0.857 -0.048,0 -0.096,0.003 -0.145,0.011 -0.546,0.079 -0.925,0.586 -0.845,1.133 0.633,4.372 -1.194,8.972 -4.655,11.718 -3.459,2.747 -8.357,3.482 -12.467,1.871 -0.513,-0.202 -1.095,0.053 -1.296,0.567 -0.201,0.515 0.053,1.095 0.567,1.296 2.898,1.135 6.131,1.258 9.122,0.468 0.003,0.117 0.02,0.234 0.066,0.346 4.255,10.423 -5.19,21.613 -8.186,24.794 -11.552,12.267 -27.415,19.59 -42.435,19.59 -3.527,0 -7.008,-0.402 -10.348,-1.196 -19.346,-4.601 -33.343,-24.683 -29.764,-42.418 3.715,1.56 8.097,1.622 11.76,-0.043 0.503,-0.227 0.726,-0.82 0.497,-1.323 -0.227,-0.502 -0.818,-0.729 -1.323,-0.497 -4.355,1.975 -9.891,1.141 -13.466,-2.035 -3.576,-3.173 -5.061,-8.573 -3.613,-13.13 0.129,-0.407 -0.014,-0.85 -0.356,-1.105 -0.341,-0.254 -0.806,-0.266 -1.159,-0.025 -0.774,0.525 -1.821,0.629 -2.872,0.285 -1.216,-0.398 -2.209,-1.315 -2.592,-2.394 -0.76,-2.134 0.349,-4.846 2.522,-6.173 0.47,-0.289 0.62,-0.904 0.332,-1.375 -0.189,-0.309 -0.518,-0.479 -0.855,-0.479 -0.177,0 -0.357,0.047 -0.52,0.146 -2.95,1.802 -4.428,5.558 -3.364,8.551 0.595,1.674 2.037,3.03 3.854,3.624 0.896,0.294 1.804,0.369 2.65,0.237 -0.788,4.825 0.985,10.085 4.645,13.335 0.472,0.419 0.977,0.798 1.503,1.146 -2.496,1.19 -5.301,1.815 -8.183,1.815 -3.369,0 -6.627,-0.851 -9.422,-2.459 -5.641,-3.249 -9.353,-9.552 -9.456,-16.06 -0.008,-0.543 -0.449,-0.979 -0.992,-0.984 -2.311,-0.019 -4.528,-1.144 -6.242,-3.167 -2.065,-2.439 -3.054,-5.803 -2.582,-8.782 0.99,-6.242 6.46,-10.52 11.248,-12.442 5.649,-2.267 11.893,-2.503 17.932,-2.73 l 50.224,-1.894 c 12.188,-0.459 24.791,-0.935 37.221,-0.935 0.001,0 0.003,0 0.003,0 11.281,0 21.258,0.395 30.503,1.206 6.859,0.601 14.702,1.577 20.957,5.563 5.623,3.585 10.301,10.863 8.358,17.84 -1.207,4.331 -5.854,7.723 -10.58,7.723 -2.095,0 -3.931,-0.708 -5.31,-2.047 -0.282,-0.274 -0.703,-0.357 -1.065,-0.212 -0.365,0.144 -0.612,0.49 -0.631,0.883 -0.261,5.59 -4.144,11.034 -9.892,13.868"
         style="fill:#ffffff;fill-opacity:1;fill-rule:nonzero;stroke:none;stroke-width:0.1"
         id="path154" /><path
         d="m 603.532,514.089 c -0.011,-0.008 -0.022,-0.017 -0.033,-0.025 0.335,-0.772 0.843,-1.49 1.5,-2.07 -0.55,0.652 -1.047,1.35 -1.467,2.095"
         style="fill:#cceefc;fill-opacity:1;fill-rule:nonzero;stroke:none;stroke-width:0.1"
         id="path156" /><path
         d="m 720.748,495.209 c -0.145,-0.072 -0.298,-0.106 -0.448,-0.106 -0.366,0 -0.719,0.201 -0.895,0.55 -0.248,0.495 -0.049,1.095 0.445,1.343 4.359,2.19 9.372,5.301 9.441,9.945 0.008,0.548 0.454,0.986 1,0.986 0.005,0 0.01,0 0.015,0 0.552,-0.009 0.993,-0.463 0.985,-1.015 -0.085,-5.72 -5.68,-9.259 -10.543,-11.703 z m -57.724,2.748 c -1.654,-0.875 -3.501,-1.287 -5.357,-1.287 -3.867,0 -7.776,1.787 -10.081,4.895 -2.693,-1.825 -6.275,-2.412 -9.806,-1.572 -3.935,0.939 -7.124,3.494 -8.526,6.835 -0.214,0.509 0.025,1.095 0.535,1.309 0.505,0.214 1.096,-0.026 1.309,-0.535 1.157,-2.754 3.829,-4.872 7.147,-5.663 3.316,-0.791 6.658,-0.109 8.937,1.827 0.224,0.19 0.519,0.27 0.813,0.224 0.291,-0.049 0.545,-0.223 0.695,-0.478 2.607,-4.416 8.871,-6.185 13.399,-3.787 0.49,0.259 1.093,0.071 1.351,-0.416 0.259,-0.489 0.073,-1.094 -0.416,-1.352 z m 84.444,3.865 c -8,-1.024 -17.242,3.641 -18.547,11.601 -6.087,-5.698 -15.82,-7.078 -23.251,-3.297 -1.135,0.577 -2.293,1.28 -3.565,1.238 -1.308,-0.043 -2.44,-0.863 -3.537,-1.575 -10.307,-6.7 -25.08,-5.491 -34.16,2.796 -9.197,-9.893 -27.468,-8.78 -35.395,2.157 -2.322,-4.663 -7.337,-7.858 -12.545,-7.991 -3.743,-0.096 -7.463,1.399 -10.211,3.93 0.031,-0.222 0.003,-0.455 -0.123,-0.661 -0.189,-0.309 -0.518,-0.479 -0.855,-0.479 -0.177,0 -0.357,0.047 -0.52,0.146 -1.257,0.768 -2.243,1.892 -2.883,3.158 -5.411,-4.031 -11.273,-7.873 -17.947,-8.144 -2.231,-0.091 -4.519,0.436 -6.586,1.404 1.325,-5.785 6.506,-9.77 11.075,-11.604 5.649,-2.267 11.893,-2.503 17.932,-2.73 l 50.224,-1.894 c 12.188,-0.459 24.791,-0.935 37.221,-0.935 0.001,0 0.003,0 0.003,0 11.281,0 21.258,0.395 30.503,1.206 6.859,0.601 14.702,1.577 20.957,5.563 2.659,1.695 5.096,4.222 6.732,7.146 -1.465,-0.479 -2.97,-0.836 -4.522,-1.035"
         style="fill:#cceefc;fill-opacity:1;fill-rule:nonzero;stroke:none;stroke-width:0.1"
         id="path158" /><path
         d="m 736.661,519.015 c 0.362,-0.145 0.783,-0.062 1.065,0.212 1.379,1.339 3.215,2.047 5.31,2.047 4.726,0 9.373,-3.392 10.58,-7.723 1.943,-6.977 -2.735,-14.255 -8.358,-17.84 -6.255,-3.986 -14.098,-4.962 -20.957,-5.563 -9.245,-0.811 -19.222,-1.206 -30.503,-1.206 0,0 -0.002,0 -0.003,0 -12.43,0 -25.033,0.476 -37.221,0.935 l -50.224,1.894 c -6.039,0.227 -12.283,0.463 -17.932,2.73 -4.788,1.922 -10.258,6.2 -11.248,12.442 -0.472,2.979 0.517,6.343 2.582,8.782 1.714,2.023 3.931,3.148 6.242,3.167 0.543,0.005 0.984,0.441 0.992,0.984 0.103,6.508 3.815,12.811 9.456,16.06 2.795,1.608 6.053,2.459 9.422,2.459 2.882,0 5.687,-0.625 8.183,-1.815 -0.526,-0.348 -1.031,-0.727 -1.503,-1.146 -3.66,-3.25 -5.433,-8.51 -4.645,-13.335 -0.846,0.132 -1.754,0.057 -2.65,-0.237 -1.817,-0.594 -3.259,-1.95 -3.854,-3.624 -1.064,-2.993 0.414,-6.749 3.364,-8.551 0.163,-0.099 0.343,-0.146 0.52,-0.146 0.337,0 0.666,0.17 0.855,0.479 0.288,0.471 0.138,1.086 -0.332,1.375 -2.173,1.327 -3.282,4.039 -2.522,6.173 0.383,1.079 1.376,1.996 2.592,2.394 1.051,0.344 2.098,0.24 2.872,-0.285 0.353,-0.241 0.818,-0.229 1.159,0.025 0.342,0.255 0.485,0.698 0.356,1.105 -1.448,4.557 0.037,9.957 3.613,13.13 3.575,3.176 9.111,4.01 13.466,2.035 0.505,-0.232 1.096,-0.005 1.323,0.497 0.229,0.503 0.006,1.096 -0.497,1.323 -3.663,1.665 -8.045,1.603 -11.76,0.043 -3.579,17.735 10.418,37.817 29.764,42.418 3.34,0.794 6.821,1.196 10.348,1.196 15.02,0 30.883,-7.323 42.435,-19.59 2.996,-3.181 12.441,-14.371 8.186,-24.794 -0.046,-0.112 -0.063,-0.229 -0.066,-0.346 -2.991,0.79 -6.224,0.667 -9.122,-0.468 -0.514,-0.201 -0.768,-0.781 -0.567,-1.296 0.201,-0.514 0.783,-0.769 1.296,-0.567 4.11,1.611 9.008,0.876 12.467,-1.871 3.461,-2.746 5.288,-7.346 4.655,-11.718 -0.08,-0.547 0.299,-1.054 0.845,-1.133 0.049,-0.008 0.097,-0.011 0.145,-0.011 0.489,0 0.917,0.359 0.988,0.857 0.735,5.063 -1.382,10.39 -5.388,13.571 -0.911,0.722 -1.91,1.318 -2.961,1.795 1.745,0.24 3.46,0.368 5.11,0.368 4.357,0 8.26,-0.835 11.599,-2.48 5.748,-2.834 9.631,-8.278 9.892,-13.868 0.019,-0.393 0.266,-0.739 0.631,-0.883 z m -9.639,16.544 c -4.871,2.402 -10.868,3.209 -17.477,2.358 2.161,7.528 -1.167,16.85 -9.139,25.313 -11.922,12.661 -28.329,20.219 -43.89,20.219 -3.683,0 -7.32,-0.421 -10.811,-1.251 -9.645,-2.294 -18.64,-8.493 -24.678,-17.008 -5.87,-8.278 -8.258,-17.605 -6.828,-26.484 -2.581,1.109 -5.425,1.689 -8.335,1.689 -3.719,0 -7.322,-0.943 -10.42,-2.727 -5.97,-3.437 -9.986,-9.97 -10.421,-16.833 -2.547,-0.284 -4.933,-1.616 -6.797,-3.818 -2.43,-2.869 -3.592,-6.85 -3.031,-10.386 1.12,-7.07 7.181,-11.859 12.479,-13.985 5.971,-2.397 12.68,-2.651 18.599,-2.873 l 50.225,-1.894 c 12.207,-0.46 24.829,-0.937 37.297,-0.937 0.001,0 0.002,0 0.003,0 11.34,0 21.375,0.397 30.677,1.213 7.096,0.622 15.222,1.64 21.857,5.869 6.245,3.98 11.414,12.15 9.21,20.064 -1.435,5.151 -6.928,9.186 -12.506,9.186 -1.937,0 -3.707,-0.492 -5.209,-1.436 -0.961,5.63 -5.04,10.88 -10.805,13.721"
         style="fill:#7cbfeb;fill-opacity:1;fill-rule:nonzero;stroke:none;stroke-width:0.1"
         id="path160" /><path
         d="m 662.089,499.725 c -4.528,-2.398 -10.792,-0.629 -13.399,3.787 -0.15,0.255 -0.404,0.429 -0.695,0.478 -0.294,0.046 -0.589,-0.034 -0.813,-0.224 -2.279,-1.936 -5.621,-2.618 -8.937,-1.827 -3.318,0.791 -5.99,2.909 -7.147,5.663 -0.213,0.509 -0.804,0.749 -1.309,0.535 -0.51,-0.214 -0.749,-0.8 -0.535,-1.309 1.402,-3.341 4.591,-5.896 8.526,-6.835 3.531,-0.84 7.113,-0.253 9.806,1.572 2.305,-3.108 6.214,-4.895 10.081,-4.895 1.856,0 3.703,0.412 5.357,1.287 0.489,0.258 0.675,0.863 0.416,1.352 -0.258,0.487 -0.861,0.675 -1.351,0.416"
         style="fill:#7cbfeb;fill-opacity:1;fill-rule:nonzero;stroke:none;stroke-width:0.1"
         id="path162" /><path
         d="m 730.291,507.927 c -0.546,0 -0.992,-0.438 -1,-0.986 -0.069,-4.644 -5.082,-7.755 -9.441,-9.945 -0.494,-0.248 -0.693,-0.848 -0.445,-1.343 0.176,-0.349 0.529,-0.55 0.895,-0.55 0.15,0 0.303,0.034 0.448,0.106 4.863,2.444 10.458,5.983 10.543,11.703 0.008,0.552 -0.433,1.006 -0.985,1.015 -0.005,0 -0.01,0 -0.015,0"
         style="fill:#7cbfeb;fill-opacity:1;fill-rule:nonzero;stroke:none;stroke-width:0.1"
         id="path164" /><path
         d="m 642.516,568.1 c 0.216,0 0.434,0.07 0.618,0.214 3.721,2.933 9.388,3.009 13.186,0.176 0.441,-0.329 1.07,-0.239 1.4,0.204 0.33,0.443 0.239,1.07 -0.204,1.4 -4.497,3.354 -11.213,3.267 -15.621,-0.209 -0.433,-0.342 -0.507,-0.971 -0.166,-1.405 0.198,-0.25 0.491,-0.38 0.787,-0.38"
         style="fill:#7cbfeb;fill-opacity:1;fill-rule:nonzero;stroke:none;stroke-width:0.1"
         id="path166" /></g></g></svg>
