<?xml version="1.0" encoding="UTF-8" standalone="no"?>
<!-- Created with Inkscape (http://www.inkscape.org/) -->

<svg
   version="1.1"
   id="svg2"
   xml:space="preserve"
   width="362.94604"
   height="152.776"
   viewBox="0 0 362.94603 152.77599"
   sodipodi:docname="cloud1.svg"
   inkscape:version="1.1.1 (3bf5ae0d25, 2021-09-20)"
   xmlns:inkscape="http://www.inkscape.org/namespaces/inkscape"
   xmlns:sodipodi="http://sodipodi.sourceforge.net/DTD/sodipodi-0.dtd"
   xmlns="http://www.w3.org/2000/svg"
   xmlns:svg="http://www.w3.org/2000/svg"><defs
     id="defs6" /><sodipodi:namedview
     id="namedview4"
     pagecolor="#505050"
     bordercolor="#eeeeee"
     borderopacity="1"
     inkscape:pageshadow="0"
     inkscape:pageopacity="0"
     inkscape:pagecheckerboard="0"
     showgrid="false"
     fit-margin-top="0"
     fit-margin-left="0"
     fit-margin-right="0"
     fit-margin-bottom="0"
     inkscape:zoom="0.67406245"
     inkscape:cx="463.6069"
     inkscape:cy="466.57398"
     inkscape:window-width="2534"
     inkscape:window-height="1374"
     inkscape:window-x="10"
     inkscape:window-y="50"
     inkscape:window-maximized="1"
     inkscape:current-layer="g8" /><g
     id="g8"
     inkscape:groupmode="layer"
     inkscape:label="ink_ext_XXXXXX"
     transform="matrix(1.3333333,0,0,-1.3333333,-69.271825,999.44131)"><g
       id="g395"><path
         d="m 95.2902,687.084 c 0.5282,0.164 1.0868,-0.135 1.2489,-0.663 1.0265,-3.355 3.6489,-6.222 7.1929,-7.866 3.544,-1.644 7.428,-1.792 10.651,-0.409 0.508,0.217 1.095,-0.016 1.313,-0.525 0.218,-0.508 -0.016,-1.096 -0.524,-1.313 -1.714,-0.736 -3.581,-1.102 -5.491,-1.102 -2.265,0 -4.588,0.514 -6.79,1.535 -4.0597,1.882 -7.0715,5.197 -8.264,9.094 -0.1622,0.528 0.1359,1.088 0.6632,1.249 z m 70.2358,-16.703 c 0.002,0 0.005,0 0.007,0 0.549,0 0.996,-0.444 1,-0.993 0.019,-2.654 1.871,-5.342 4.722,-6.851 2.893,-1.531 6.369,-1.779 9.075,-1.824 7.082,-0.114 14.08,1.046 20.755,3.463 0.523,0.187 1.093,-0.081 1.281,-0.6 0.188,-0.519 -0.081,-1.093 -0.599,-1.281 -6.585,-2.384 -13.46,-3.591 -20.451,-3.591 -0.339,0 -0.679,0.003 -1.019,0.009 -2.929,0.049 -6.71,0.327 -9.978,2.057 -3.492,1.847 -5.762,5.225 -5.786,8.604 -0.004,0.552 0.441,1.003 0.993,1.007 z m -0.66,43.923 c 9.811,12.139 29.032,15.576 42.521,7.791 1.119,2.003 3.011,3.555 5.434,4.434 3.471,1.255 7.59,0.964 10.754,-0.761 4.708,-2.571 8.254,-7.779 10.253,-15.062 0.147,-0.532 -0.167,-1.083 -0.699,-1.229 -0.089,-0.024 -0.178,-0.036 -0.266,-0.036 -0.438,0 -0.841,0.291 -0.963,0.736 -1.292,4.705 -3.951,10.925 -9.284,13.835 -2.673,1.46 -6.167,1.705 -9.114,0.636 -2.288,-0.829 -3.978,-2.373 -4.758,-4.346 -0.109,-0.277 -0.336,-0.491 -0.619,-0.583 -0.283,-0.093 -0.593,-0.056 -0.844,0.104 -12.705,8.007 -31.418,4.906 -40.86,-6.777 -0.346,-0.429 -0.975,-0.498 -1.406,-0.148 -0.43,0.346 -0.496,0.976 -0.149,1.406 z m 96.493,-21.2 c 5.389,2.8 10.45,3.303 14.245,1.414 2.58,-1.284 4.455,-4.212 4.667,-7.287 0.104,-1.511 -0.211,-2.895 -0.891,-4.024 1.403,-0.277 2.758,-1.003 3.91,-2.128 2.008,-1.96 3.01,-4.76 2.615,-7.307 -0.722,-4.658 -5.348,-8.402 -10.531,-8.523 -0.008,0 -0.016,0 -0.023,0 -0.542,0 -0.988,0.433 -1,0.977 -0.013,0.552 0.424,1.01 0.976,1.023 4.174,0.097 8.032,3.161 8.602,6.83 0.298,1.919 -0.483,4.053 -2.036,5.569 -1.342,1.311 -3.016,1.901 -4.586,1.615 -0.459,-0.083 -0.925,0.168 -1.104,0.605 -0.179,0.437 -0.028,0.939 0.362,1.204 1.652,1.13 1.781,3.005 1.71,4.022 -0.162,2.353 -1.627,4.67 -3.561,5.633 -4.329,2.157 -9.648,0.05 -12.433,-1.398 -0.49,-0.254 -1.092,-0.063 -1.348,0.427 -0.254,0.49 -0.064,1.094 0.426,1.348 z M 72.5195,659.076 c 0.4746,-0.029 0.95,-0.043 1.4239,-0.043 7.3886,-10e-4 15.1574,3.535 21.3144,9.7 0.3535,0.351 0.9102,0.392 1.3078,0.094 0.3985,-0.299 0.5164,-0.845 0.2774,-1.28 -1.1035,-2.018 -1.2676,-4.205 -0.4864,-6.502 1.7137,-5.039 7.5174,-9.513 12.5104,-11.71 6.219,-2.738 13.03,-4.246 19.177,-4.246 6.208,0 14.644,1.545 19.573,8.905 0.187,0.277 0.498,0.443 0.831,0.443 0.01,0 0.019,0 0.029,0 0.343,-0.009 0.658,-0.195 0.833,-0.491 5.955,-10.078 17.366,-16.728 29.071,-16.941 11.634,-0.206 23.381,6.063 29.669,15.872 0.169,0.264 0.453,0.433 0.766,0.457 0.305,0.027 0.619,-0.101 0.826,-0.336 4.863,-5.512 12.408,-8.674 20.699,-8.674 10.969,0 20.692,5.234 25.376,13.658 0.142,0.257 0.391,0.438 0.68,0.495 0.289,0.061 0.586,-0.016 0.817,-0.199 7.792,-6.201 14.897,-9.3 21.724,-9.476 0.16,-0.005 0.32,-0.007 0.48,-0.007 7.103,0 15.627,4.237 17.436,12.09 0.107,0.464 0.503,0.83 1.005,0.774 1.556,-0.048 2.959,-0.089 4.388,-0.089 3.302,0 7.587,0.201 11.445,1.772 4.327,1.758 8.815,6.091 8.45,11.451 -0.245,3.589 -3.859,6.982 -7.436,6.982 -1.007,0 -1.93,-0.273 -2.743,-0.811 -0.368,-0.245 -0.854,-0.216 -1.192,0.065 -0.339,0.283 -0.453,0.755 -0.28,1.161 3.118,7.296 1.038,16.372 -4.946,21.583 -3.288,2.862 -7.836,4.504 -12.478,4.504 -3.469,0 -6.782,-0.891 -9.58,-2.575 -0.296,-0.179 -0.66,-0.191 -0.967,-0.035 -0.308,0.155 -0.513,0.459 -0.544,0.802 -1.005,11.145 -7.773,22.186 -18.104,29.534 -8.95,6.364 -20.318,10.186 -33.789,11.361 -1.653,0.144 -3.348,0.217 -5.033,0.217 -13.6,0 -30.922,-5.075 -34.984,-19.381 -0.099,-0.35 -0.381,-0.619 -0.736,-0.701 -0.355,-0.081 -0.726,0.035 -0.97,0.307 -4.387,4.89 -11.06,7.81 -17.849,7.81 -1.94,0 -3.847,-0.239 -5.669,-0.711 -8.326,-2.155 -15.207,-9.234 -17.123,-17.617 -0.081,-0.356 -0.35,-0.64 -0.701,-0.739 -0.352,-0.1 -0.73,0 -0.986,0.26 -4.246,4.302 -10.297,6.771 -16.598,6.771 -2.504,0 -4.929,-0.397 -7.209,-1.18 -8.171,-2.803 -14.343,-10.451 -15.358,-19.03 -0.049,-0.409 -0.343,-0.747 -0.741,-0.85 -0.394,-0.104 -0.819,0.045 -1.061,0.38 -3.792,5.225 -10.3228,8.471 -17.0435,8.471 -1.8809,0 -3.7188,-0.257 -5.4629,-0.765 -8.0906,-2.355 -14.3379,-10.169 -14.8523,-18.582 -0.0317,-0.512 -0.4473,-0.919 -0.9614,-0.937 -3.5222,-0.13 -6.9566,-2.024 -9.4226,-5.196 -2.8153,-3.621 -3.9637,-8.245 -3.0743,-12.368 1.6633,-7.7 9.5176,-13.911 18.2715,-14.447"
         style="fill:#ffffff;fill-opacity:1;fill-rule:nonzero;stroke:none;stroke-width:0.1"
         id="path40" /><path
         d="m 109.199,677.216 c -2.408,0.569 -4.771,1.314 -7.072,2.221 0.514,-0.32 1.043,-0.621 1.605,-0.882 1.779,-0.825 3.643,-1.272 5.467,-1.339"
         style="fill:#cceefc;fill-opacity:1;fill-rule:nonzero;stroke:none;stroke-width:0.1"
         id="path42" /><path
         d="m 201.767,662.295 c -6.585,-2.384 -13.46,-3.591 -20.451,-3.591 -0.339,0 -0.679,0.003 -1.019,0.009 -2.929,0.049 -6.71,0.327 -9.978,2.057 -3.492,1.847 -5.762,5.225 -5.786,8.604 -0.004,0.552 0.441,1.003 0.993,1.007 0.002,0 0.005,0 0.007,0 0.549,0 0.996,-0.444 1,-0.993 0.019,-2.654 1.871,-5.342 4.722,-6.851 2.893,-1.531 6.369,-1.779 9.075,-1.824 7.082,-0.114 14.08,1.046 20.755,3.463 0.523,0.187 1.093,-0.081 1.281,-0.6 0.188,-0.519 -0.081,-1.093 -0.599,-1.281 z m 120.375,12.482 c -5.979,-5.469 -17.119,-5.186 -21.944,1.666 -4.491,-1.824 -9.551,-2.057 -14.246,-0.872 0.053,-0.604 0.045,-1.208 -0.047,-1.799 -0.722,-4.658 -5.348,-8.402 -10.531,-8.523 -0.008,0 -0.016,0 -0.023,0 -0.542,0 -0.988,0.433 -1,0.977 -0.013,0.552 0.424,1.01 0.976,1.023 4.174,0.097 8.032,3.161 8.602,6.83 0.108,0.696 0.07,1.419 -0.091,2.131 -2.591,0.918 -5.021,2.28 -7.109,4.076 -2.731,-5.484 -8.958,-9.017 -15.067,-8.547 -6.109,0.47 -11.723,4.913 -13.584,10.75 -5.023,-8.866 -15.087,-14.634 -25.277,-14.486 -4.489,0.065 -10.222,3.341 -8.587,7.522 -6.922,-6.241 -15.136,-11.522 -24.355,-12.893 -9.219,-1.372 -19.525,1.88 -24.646,9.667 -5.217,-3.255 -11.152,-5.932 -17.285,-5.487 -6.132,0.445 -12.308,4.896 -12.904,11.016 -6.505,-1.954 -13.393,-2.44 -20.13,-1.622 -1.638,-0.66 -3.404,-1 -5.213,-1 -2.265,0 -4.588,0.514 -6.79,1.535 -2.669,1.238 -4.8719,3.102 -6.4156,5.337 -3.1781,1.733 -6.1777,3.789 -8.8926,6.195 -8.225,-4.372 -13.1785,-13.901 -21.991,-16.919 -3.5328,-1.209 -7.0824,-1.206 -10.5434,-0.366 2.6536,-6.488 9.7032,-11.436 17.4711,-11.912 0.4746,-0.029 0.95,-0.043 1.4239,-0.043 7.3886,-10e-4 15.1574,3.535 21.3144,9.7 0.3535,0.351 0.9102,0.392 1.3078,0.094 0.3985,-0.299 0.5164,-0.845 0.2774,-1.28 -1.1035,-2.018 -1.2676,-4.205 -0.4864,-6.502 1.7137,-5.039 7.5174,-9.513 12.5104,-11.71 6.219,-2.738 13.03,-4.246 19.177,-4.246 6.208,0 14.644,1.545 19.573,8.905 0.187,0.277 0.498,0.443 0.831,0.443 0.01,0 0.019,0 0.029,0 0.343,-0.009 0.658,-0.195 0.833,-0.491 5.955,-10.078 17.366,-16.728 29.071,-16.941 11.634,-0.206 23.381,6.063 29.669,15.872 0.169,0.264 0.453,0.433 0.766,0.457 0.305,0.027 0.619,-0.101 0.826,-0.336 4.863,-5.512 12.408,-8.674 20.699,-8.674 10.969,0 20.692,5.234 25.376,13.658 0.142,0.257 0.391,0.438 0.68,0.495 0.289,0.061 0.586,-0.016 0.817,-0.199 7.792,-6.201 14.897,-9.3 21.724,-9.476 0.16,-0.005 0.32,-0.007 0.48,-0.007 7.103,0 15.627,4.237 17.436,12.09 0.107,0.464 0.503,0.83 1.005,0.774 1.556,-0.048 2.959,-0.089 4.388,-0.089 3.302,0 7.587,0.201 11.445,1.772 4.322,1.756 8.805,6.082 8.45,11.435"
         style="fill:#cceefc;fill-opacity:1;fill-rule:nonzero;stroke:none;stroke-width:0.1"
         id="path44" /><path
         d="m 57.3223,685.891 c 2.466,3.172 5.9004,5.066 9.4226,5.196 0.5141,0.018 0.9297,0.425 0.9614,0.937 0.5144,8.413 6.7617,16.227 14.8523,18.582 1.7441,0.508 3.582,0.765 5.4629,0.765 6.7207,0 13.2515,-3.246 17.0435,-8.471 0.242,-0.335 0.667,-0.484 1.061,-0.38 0.398,0.103 0.692,0.441 0.741,0.85 1.015,8.579 7.187,16.227 15.358,19.03 2.28,0.783 4.705,1.18 7.209,1.18 6.301,0 12.352,-2.469 16.598,-6.771 0.256,-0.26 0.634,-0.36 0.986,-0.26 0.351,0.099 0.62,0.383 0.701,0.739 1.916,8.383 8.797,15.462 17.123,17.617 1.822,0.472 3.729,0.711 5.669,0.711 6.789,0 13.462,-2.92 17.849,-7.81 0.244,-0.272 0.615,-0.388 0.97,-0.307 0.355,0.082 0.637,0.351 0.736,0.701 4.062,14.306 21.384,19.381 34.984,19.381 1.685,0 3.38,-0.073 5.033,-0.217 13.471,-1.175 24.839,-4.997 33.789,-11.361 10.331,-7.348 17.099,-18.389 18.104,-29.534 0.031,-0.343 0.236,-0.647 0.544,-0.802 0.307,-0.156 0.671,-0.144 0.967,0.035 2.798,1.684 6.111,2.575 9.58,2.575 4.642,0 9.19,-1.642 12.478,-4.504 5.984,-5.211 8.064,-14.287 4.946,-21.583 -0.173,-0.406 -0.059,-0.878 0.28,-1.161 0.338,-0.281 0.824,-0.31 1.192,-0.065 0.813,0.538 1.736,0.811 2.743,0.811 3.577,0 7.191,-3.393 7.436,-6.982 0.365,-5.36 -4.123,-9.693 -8.45,-11.451 -3.858,-1.571 -8.143,-1.772 -11.445,-1.772 -1.429,0 -2.832,0.041 -4.388,0.089 -0.502,0.056 -0.898,-0.31 -1.005,-0.774 -1.809,-7.853 -10.333,-12.09 -17.436,-12.09 -0.16,0 -0.32,0.002 -0.48,0.007 -6.827,0.176 -13.932,3.275 -21.724,9.476 -0.231,0.183 -0.528,0.26 -0.817,0.199 -0.289,-0.057 -0.538,-0.238 -0.68,-0.495 -4.684,-8.424 -14.407,-13.658 -25.376,-13.658 -8.291,0 -15.836,3.162 -20.699,8.674 -0.207,0.235 -0.521,0.363 -0.826,0.336 -0.313,-0.024 -0.597,-0.193 -0.766,-0.457 -6.288,-9.809 -18.035,-16.078 -29.669,-15.872 -11.705,0.213 -23.116,6.863 -29.071,16.941 -0.175,0.296 -0.49,0.482 -0.833,0.491 -0.01,0 -0.019,0 -0.029,0 -0.333,0 -0.644,-0.166 -0.831,-0.443 -4.929,-7.36 -13.365,-8.905 -19.573,-8.905 -6.147,0 -12.958,1.508 -19.177,4.246 -4.993,2.197 -10.7967,6.671 -12.5104,11.71 -0.7812,2.297 -0.6171,4.484 0.4864,6.502 0.239,0.435 0.1211,0.981 -0.2774,1.28 -0.3976,0.298 -0.9543,0.257 -1.3078,-0.094 -6.157,-6.165 -13.9258,-9.701 -21.3144,-9.7 -0.4739,0 -0.9493,0.014 -1.4239,0.043 -8.7539,0.536 -16.6082,6.747 -18.2715,14.447 -0.8894,4.123 0.259,8.747 3.0743,12.368 z M 72.3965,657.08 c 0.5156,-0.031 1.032,-0.047 1.5461,-0.047 8e-4,0 8e-4,0 0.0019,0 6.8375,0 13.9508,2.798 19.9696,7.775 -0.1453,-1.428 0.0363,-2.901 0.5488,-4.407 2.0402,-5.999 8.6001,-10.696 13.5981,-12.896 6.467,-2.848 13.564,-4.416 19.983,-4.416 8.964,0 15.959,2.951 20.341,8.557 6.486,-9.941 18.08,-16.424 29.959,-16.641 0.206,-0.004 0.414,-0.006 0.621,-0.006 11.721,0 23.374,6.137 30.056,15.731 5.245,-5.357 12.936,-8.406 21.32,-8.406 11.255,0 21.305,5.213 26.534,13.68 7.795,-6.009 15.005,-9.022 22.012,-9.202 0.177,-0.004 0.354,-0.007 0.531,-0.007 7.634,0 16.768,4.494 19.178,12.841 1.262,-0.037 2.444,-0.066 3.651,-0.066 3.485,0 8.019,0.219 12.199,1.918 4.971,2.021 10.124,7.089 9.692,13.442 -0.316,4.629 -4.812,8.845 -9.432,8.845 -0.548,0 -1.079,-0.058 -1.591,-0.174 2.222,7.628 -0.225,16.429 -6.258,21.679 -3.646,3.175 -8.672,4.997 -13.79,4.997 -3.294,0 -6.467,-0.731 -9.268,-2.125 -1.501,11.2 -8.43,22.128 -18.769,29.481 -9.244,6.573 -20.943,10.519 -34.773,11.723 -1.711,0.15 -3.463,0.225 -5.207,0.225 -13.783,0 -31.234,-5.07 -36.384,-19.214 -4.729,4.565 -11.392,7.249 -18.155,7.249 -2.109,0 -4.185,-0.261 -6.171,-0.775 -8.477,-2.193 -15.573,-9.096 -18.129,-17.455 -4.517,3.954 -10.537,6.194 -16.777,6.194 -2.725,0 -5.368,-0.434 -7.858,-1.287 -8.168,-2.803 -14.499,-10.059 -16.322,-18.46 -4.259,4.694 -10.6661,7.538 -17.2325,7.538 -2.0692,0 -4.0957,-0.284 -6.0215,-0.844 -8.5937,-2.502 -15.2898,-10.618 -16.218,-19.506 -3.7949,-0.409 -7.4129,-2.524 -10.0386,-5.903 -3.1739,-4.082 -4.4641,-9.322 -3.4504,-14.016 1.8457,-8.545 10.4883,-15.433 20.1035,-16.022"
         style="fill:#7cbfeb;fill-opacity:1;fill-rule:nonzero;stroke:none;stroke-width:0.1"
         id="path46" /><path
         d="m 166.421,713.046 c 9.442,11.683 28.155,14.784 40.86,6.777 0.251,-0.16 0.561,-0.197 0.844,-0.104 0.283,0.092 0.51,0.306 0.619,0.583 0.78,1.973 2.47,3.517 4.758,4.346 2.947,1.069 6.441,0.824 9.114,-0.636 5.333,-2.91 7.992,-9.13 9.284,-13.835 0.122,-0.445 0.525,-0.736 0.963,-0.736 0.088,0 0.177,0.012 0.266,0.036 0.532,0.146 0.846,0.697 0.699,1.229 -1.999,7.283 -5.545,12.491 -10.253,15.062 -3.164,1.725 -7.283,2.016 -10.754,0.761 -2.423,-0.879 -4.315,-2.431 -5.434,-4.434 -13.489,7.785 -32.71,4.348 -42.521,-7.791 -0.347,-0.43 -0.281,-1.06 0.149,-1.406 0.431,-0.35 1.06,-0.281 1.406,0.148"
         style="fill:#7cbfeb;fill-opacity:1;fill-rule:nonzero;stroke:none;stroke-width:0.1"
         id="path48" /><path
         d="m 262.281,691.329 c 2.785,1.448 8.104,3.555 12.433,1.398 1.934,-0.963 3.399,-3.28 3.561,-5.633 0.071,-1.017 -0.058,-2.892 -1.71,-4.022 -0.39,-0.265 -0.541,-0.767 -0.362,-1.204 0.179,-0.437 0.645,-0.688 1.104,-0.605 1.57,0.286 3.244,-0.304 4.586,-1.615 1.553,-1.516 2.334,-3.65 2.036,-5.569 -0.57,-3.669 -4.428,-6.733 -8.602,-6.83 -0.552,-0.013 -0.989,-0.471 -0.976,-1.023 0.012,-0.544 0.458,-0.977 1,-0.977 0.007,0 0.015,0 0.023,0 5.183,0.121 9.809,3.865 10.531,8.523 0.395,2.547 -0.607,5.347 -2.615,7.307 -1.152,1.125 -2.507,1.851 -3.91,2.128 0.68,1.129 0.995,2.513 0.891,4.024 -0.212,3.075 -2.087,6.003 -4.667,7.287 -3.795,1.889 -8.856,1.386 -14.245,-1.414 -0.49,-0.254 -0.68,-0.858 -0.426,-1.348 0.256,-0.49 0.858,-0.681 1.348,-0.427"
         style="fill:#7cbfeb;fill-opacity:1;fill-rule:nonzero;stroke:none;stroke-width:0.1"
         id="path50" /><path
         d="m 102.891,676.741 c 2.202,-1.021 4.525,-1.535 6.79,-1.535 1.91,0 3.777,0.366 5.491,1.102 0.508,0.217 0.742,0.805 0.524,1.313 -0.218,0.509 -0.805,0.742 -1.313,0.525 -3.223,-1.383 -7.107,-1.235 -10.651,0.409 -3.544,1.644 -6.1664,4.511 -7.1929,7.866 -0.1621,0.528 -0.7207,0.827 -1.2489,0.663 -0.5273,-0.161 -0.8254,-0.721 -0.6632,-1.249 1.1925,-3.897 4.2043,-7.212 8.264,-9.094"
         style="fill:#7cbfeb;fill-opacity:1;fill-rule:nonzero;stroke:none;stroke-width:0.1"
         id="path52" /><path
         d="m 170.319,660.77 c 3.268,-1.73 7.049,-2.008 9.978,-2.057 0.34,-0.006 0.68,-0.009 1.019,-0.009 6.991,0 13.866,1.207 20.451,3.591 0.518,0.188 0.787,0.762 0.599,1.281 -0.188,0.519 -0.758,0.787 -1.281,0.6 -6.675,-2.417 -13.673,-3.577 -20.755,-3.463 -2.706,0.045 -6.182,0.293 -9.075,1.824 -2.851,1.509 -4.703,4.197 -4.722,6.851 -0.004,0.549 -0.451,0.993 -1,0.993 -0.002,0 -0.005,0 -0.007,0 -0.552,-0.004 -0.997,-0.455 -0.993,-1.007 0.024,-3.379 2.294,-6.757 5.786,-8.604"
         style="fill:#7cbfeb;fill-opacity:1;fill-rule:nonzero;stroke:none;stroke-width:0.1"
         id="path54" /></g></g></svg>
