<?xml version="1.0" encoding="UTF-8" standalone="no"?>
<!-- Created with Inkscape (http://www.inkscape.org/) -->

<svg
   width="500"
   height="500"
   viewBox="0 0 132.29166 132.29167"
   version="1.1"
   id="svg5"
   inkscape:version="1.1.1 (3bf5ae0d25, 2021-09-20)"
   sodipodi:docname="moon.svg"
   xmlns:inkscape="http://www.inkscape.org/namespaces/inkscape"
   xmlns:sodipodi="http://sodipodi.sourceforge.net/DTD/sodipodi-0.dtd"
   xmlns="http://www.w3.org/2000/svg"
   xmlns:svg="http://www.w3.org/2000/svg">
  <sodipodi:namedview
     id="namedview7"
     pagecolor="#505050"
     bordercolor="#eeeeee"
     borderopacity="1"
     inkscape:pageshadow="0"
     inkscape:pageopacity="0"
     inkscape:pagecheckerboard="0"
     inkscape:document-units="px"
     showgrid="false"
     units="px"
     inkscape:zoom="0.64052329"
     inkscape:cx="1031.1881"
     inkscape:cy="311.46409"
     inkscape:window-width="2534"
     inkscape:window-height="1374"
     inkscape:window-x="10"
     inkscape:window-y="50"
     inkscape:window-maximized="1"
     inkscape:current-layer="layer1" />
  <defs
     id="defs2">
    <clipPath
       clipPathUnits="userSpaceOnUse"
       id="clipPath537">
      <path
         d="m 16375.7,2265.9 c -122.6,0 -258,30.8 -385.8,91 -127.9,60.2 -248.1,149.6 -341.3,266 -56.8,71 -98.8,147.8 -128.6,226.8 16.4,-20.5 33.9,-40.1 52.6,-58.8 90.5,-90.5 203.4,-155.1 325.5,-188.6 82.7,-89.2 169.6,-164.1 255.6,-222 64,-43 127.6,-76.6 188.8,-99.6 14.6,-5.6 29.2,-10.5 43.6,-14.7 -3.4,-0.1 -6.7,-0.1 -10.1,-0.1 h -0.1 c -0.1,0 -0.2,0 -0.2,0"
         id="path535" />
    </clipPath>
    <clipPath
       clipPathUnits="userSpaceOnUse"
       id="clipPath665">
      <path
         d="m 6713.78,2281 h -85.03 v 72.9 h 85.03 V 2281 m -134.84,0 h -94.08 v 72.9 h 94.08 V 2281 m -143.89,0 h -93.95 v 72.9 h 93.95 V 2281 m -143.76,0 h -94 v 52.2 c 30.45,3.9 60.03,10.9 88.43,20.7 h 5.57 V 2281 m -143.81,0 h -93.86 v 57 c 28.09,-5.6 57.04,-8.5 86.56,-8.5 2.43,0 4.88,0 7.3,0.1 V 2281 m -143.67,0 h -94.08 v 72.9 h 84.96 c 3.03,-1 6.06,-2 9.12,-3 V 2281 m -143.89,0 h -85.12 v 72.9 h 85.12 V 2281"
         id="path663" />
    </clipPath>
  </defs>
  <g
     inkscape:label="Camada 1"
     inkscape:groupmode="layer"
     id="layer1">
    <g
       id="g3166"
       transform="matrix(1.4744042,0,0,1.4744042,-665.55905,311.95745)">
      <path
         d="m 540.2559,-166.71929 c 0,24.28875 -19.69205,43.98434 -43.98081,43.98434 -24.29228,0 -43.98786,-19.69559 -43.98786,-43.98434 0,-24.29228 19.69558,-43.98433 43.98786,-43.98433 24.28876,0 43.98081,19.69205 43.98081,43.98433"
         style="fill:#fbca7c;fill-opacity:1;fill-rule:nonzero;stroke:none;stroke-width:0.0352778"
         id="path1079" />
      <path
         d="m 540.2559,-166.71929 h -0.87841 c 0,11.90625 -4.82248,22.67656 -12.62592,30.48 -7.80345,7.79992 -18.57023,12.62239 -30.47648,12.62592 -11.90625,-0.004 -22.67655,-4.826 -30.48,-12.62592 -7.80344,-7.80344 -12.62592,-18.57375 -12.62944,-30.48 0.004,-11.90625 4.826,-22.67655 12.62944,-30.48 7.80345,-7.79992 18.57375,-12.62239 30.48,-12.62592 11.90625,0.004 22.67303,4.826 30.47648,12.62592 7.80344,7.80345 12.62592,18.57375 12.62592,30.48 h 0.87841 0.87842 c 0,-24.77911 -20.08364,-44.86275 -44.85923,-44.86275 -24.77911,0 -44.86628,20.08364 -44.86628,44.86275 0,24.77559 20.08717,44.85923 44.86628,44.86276 24.77559,-0.004 44.85923,-20.08717 44.85923,-44.86276 h -0.87842"
         style="fill:#5e2590;fill-opacity:1;fill-rule:nonzero;stroke:none;stroke-width:0.0352778"
         id="path1081" />
      <path
         d="m 488.32348,-172.93876 c 0,4.74133 -3.83822,8.57603 -8.57603,8.57603 -4.73427,0 -8.5725,-3.8347 -8.5725,-8.57603 0,-4.73428 3.83823,-8.5725 8.5725,-8.5725 4.73781,0 8.57603,3.83822 8.57603,8.5725"
         style="fill:#c76f2c;fill-opacity:1;fill-rule:nonzero;stroke:none;stroke-width:0.0352778"
         id="path1083" />
      <path
         d="m 518.01326,-137.80562 c 0,4.73781 -3.83469,8.57603 -8.56897,8.57603 -4.73781,0 -8.57603,-3.83822 -8.57603,-8.57603 0,-4.7378 3.83822,-8.56897 8.57603,-8.56897 4.73428,0 8.56897,3.83117 8.56897,8.56897"
         style="fill:#c76f2c;fill-opacity:1;fill-rule:nonzero;stroke:none;stroke-width:0.0352778"
         id="path1085" />
      <path
         d="m 512.99676,-157.8822 c 0,3.11855 -2.52941,5.64797 -5.64444,5.64797 -3.11856,0 -5.64798,-2.52942 -5.64798,-5.64797 0,-3.11856 2.52942,-5.64445 5.64798,-5.64445 3.11503,0 5.64444,2.52589 5.64444,5.64445"
         style="fill:#c76f2c;fill-opacity:1;fill-rule:nonzero;stroke:none;stroke-width:0.0352778"
         id="path1087" />
      <path
         d="m 496.16573,-161.85448 c 0,1.55928 -1.26294,2.82222 -2.82927,2.82222 -1.55575,0 -2.81517,-1.26294 -2.81517,-2.82222 0,-1.55575 1.25942,-2.82222 2.81517,-2.82222 1.56633,0 2.82927,1.26647 2.82927,2.82222"
         style="fill:#c76f2c;fill-opacity:1;fill-rule:nonzero;stroke:none;stroke-width:0.0352778"
         id="path1089" />
      <path
         d="m 466.33131,-174.96018 c 0,2.02142 -1.63688,3.66184 -3.66183,3.66184 -2.02142,0 -3.65478,-1.64042 -3.65478,-3.66184 0,-2.01436 1.63336,-3.66183 3.65478,-3.66183 2.02495,0 3.66183,1.64747 3.66183,3.66183"
         style="fill:#c76f2c;fill-opacity:1;fill-rule:nonzero;stroke:none;stroke-width:0.0352778"
         id="path1091" />
      <path
         d="m 527.11493,-146.24054 c 0,2.02495 -1.63689,3.65831 -3.66183,3.65831 -2.01789,0 -3.65831,-1.63336 -3.65831,-3.65831 0,-2.02141 1.64042,-3.66183 3.65831,-3.66183 2.02494,0 3.66183,1.64042 3.66183,3.66183"
         style="fill:#c76f2c;fill-opacity:1;fill-rule:nonzero;stroke:none;stroke-width:0.0352778"
         id="path1093" />
      <path
         d="m 477.44734,-148.05381 c 0,3.00566 -2.43416,5.43983 -5.4363,5.43983 -3.00214,0 -5.43984,-2.43417 -5.43984,-5.43983 0,-2.99862 2.4377,-5.43278 5.43984,-5.43278 3.00214,0 5.4363,2.43416 5.4363,5.43278"
         style="fill:#c76f2c;fill-opacity:1;fill-rule:nonzero;stroke:none;stroke-width:0.0352778"
         id="path1095" />
      <path
         d="m 496.26804,-150.14226 c 0,3.00567 -2.43417,5.43278 -5.43984,5.43278 -2.99508,0 -5.43277,-2.42711 -5.43277,-5.43278 0,-3.00567 2.43769,-5.43278 5.43277,-5.43278 3.00567,0 5.43984,2.42711 5.43984,5.43278"
         style="fill:#c76f2c;fill-opacity:1;fill-rule:nonzero;stroke:none;stroke-width:0.0352778"
         id="path1097" />
      <path
         d="m 490.8282,-133.82981 c 0,1.61219 -1.30527,2.921 -2.92452,2.921 -1.61925,0 -2.93159,-1.30881 -2.93159,-2.921 0,-1.62278 1.31234,-2.92806 2.93159,-2.92806 1.61925,0 2.92452,1.30528 2.92452,2.92806"
         style="fill:#c76f2c;fill-opacity:1;fill-rule:nonzero;stroke:none;stroke-width:0.0352778"
         id="path1099" />
      <path
         d="m 466.5712,-161.43115 c 0,1.60867 -1.30527,2.92453 -2.92452,2.92453 -1.61925,0 -2.92453,-1.31586 -2.92453,-2.92453 0,-1.61925 1.30528,-2.93158 2.92453,-2.93158 1.61925,0 2.92452,1.31233 2.92452,2.93158"
         style="fill:#c76f2c;fill-opacity:1;fill-rule:nonzero;stroke:none;stroke-width:0.0352778"
         id="path1101" />
      <path
         d="m 496.27509,-123.61337 c -4.09222,0 -8.05391,-0.5715 -11.80394,-1.63689 -17.78706,-5.3975 -30.734,-21.92161 -30.734,-41.46903 0,-19.4945 12.87639,-35.98333 30.58936,-41.42669 3.79236,-1.09362 7.79992,-1.67923 11.94858,-1.67923 0.15875,0 0.32103,0.004 0.47978,0.004 -11.14072,5.12233 -19.19111,16.12547 -19.98133,28.83959 -3.26673,1.21002 -5.59859,4.3568 -5.59859,8.04333 0,4.74133 3.83823,8.57603 8.5725,8.57603 0.10937,0 0.21873,0 0.32809,-0.007 1.82386,3.76061 4.32153,7.15081 7.33425,10.00478 -1.22767,0.99483 -2.01436,2.51531 -2.01436,4.22275 0,3.00567 2.43769,5.43278 5.43277,5.43278 2.39537,0 4.42384,-1.53811 5.15409,-3.683 2.94569,1.44639 6.12422,2.4765 9.45092,3.00919 -2.71639,1.43934 -4.56495,4.28978 -4.56495,7.57767 0,4.73781 3.83822,8.57603 8.57603,8.57603 4.73428,0 8.56897,-3.83822 8.56897,-8.57603 0,-3.10092 -1.64394,-5.81378 -4.10633,-7.32014 2.01436,-0.19755 3.98286,-0.57855 5.88786,-1.12536 0,0.004 0,0.007 0,0.0106 0,2.02495 1.64042,3.65831 3.65831,3.65831 2.02494,0 3.66183,-1.63336 3.66183,-3.65831 0,-0.98072 -0.38453,-1.87325 -1.016,-2.52941 5.15761,-2.69523 9.57439,-6.67456 12.79878,-11.49703 -1.397,9.32039 -5.78203,17.66006 -12.14614,24.02769 -7.80345,7.79992 -18.57023,12.62239 -30.47648,12.62592 m -8.37141,-13.1445 c -1.61925,0 -2.93159,1.30528 -2.93159,2.92806 0,1.61219 1.31234,2.921 2.93159,2.921 1.61925,0 2.92452,-1.30881 2.92452,-2.921 0,-1.62278 -1.30527,-2.92806 -2.92452,-2.92806 m -15.89264,-16.72872 c -3.00214,0 -5.43984,2.43416 -5.43984,5.43278 0,3.00566 2.4377,5.43983 5.43984,5.43983 3.00214,0 5.4363,-2.43417 5.4363,-5.43983 0,-2.99862 -2.43416,-5.43278 -5.4363,-5.43278 m -8.36436,-10.87614 c -1.61925,0 -2.92453,1.31233 -2.92453,2.93158 0,1.60867 1.30528,2.92453 2.92453,2.92453 1.61925,0 2.92452,-1.31586 2.92452,-2.92453 0,-1.61925 -1.30527,-2.93158 -2.92452,-2.93158 m -0.9772,-14.25928 c -2.02142,0 -3.65478,1.64747 -3.65478,3.66183 0,2.02142 1.63336,3.66184 3.65478,3.66184 2.02495,0 3.66183,-1.64042 3.66183,-3.66184 0,-2.01436 -1.63688,-3.66183 -3.66183,-3.66183"
         style="fill:#f8a443;fill-opacity:1;fill-rule:nonzero;stroke:none;stroke-width:0.0352778"
         id="path1103" />
      <path
         d="m 497.06884,-123.39112 c -4.3815,0 -8.6113,-0.64911 -12.59769,-1.85914 3.75003,1.06539 7.71172,1.63689 11.80394,1.63689 11.90625,-0.004 22.67303,-4.826 30.47648,-12.62592 6.36411,-6.36763 10.74914,-14.7073 12.14614,-24.02769 0.45155,-0.67381 0.87841,-1.36172 1.28058,-2.06728 -2.1978,21.87222 -20.66219,38.94314 -43.10945,38.94314 m -12.74233,-84.75486 c 4.02872,-1.23825 8.30792,-1.905 12.74233,-1.905 0.0635,0 0.11995,0.007 0.18345,0.007 -0.16581,0.0741 -0.33161,0.14817 -0.49742,0.22225 -0.15875,0 -0.32103,-0.004 -0.47978,-0.004 -4.14866,0 -8.15622,0.58561 -11.94858,1.67923"
         style="fill:#612a64;fill-opacity:1;fill-rule:nonzero;stroke:none;stroke-width:0.0352778"
         id="path1105" />
      <path
         d="m 479.74745,-164.36273 c -4.73427,0 -8.5725,-3.8347 -8.5725,-8.57603 0,-3.68653 2.33186,-6.83331 5.59859,-8.04333 -0.0423,0.68086 -0.0635,1.36525 -0.0635,2.05316 0,5.18584 1.21355,10.12825 3.3655,14.55914 -0.10936,0.007 -0.21872,0.007 -0.32809,0.007"
         style="fill:#c65d1f;fill-opacity:1;fill-rule:nonzero;stroke:none;stroke-width:0.0352778"
         id="path1107" />
      <path
         d="m 509.44429,-129.22959 c -4.73781,0 -8.57603,-3.83822 -8.57603,-8.57603 0,-3.28789 1.84856,-6.13833 4.56495,-7.57767 1.71097,0.27517 3.45722,0.41628 5.23522,0.41628 1.09008,0 2.16958,-0.0529 3.2385,-0.15875 2.46239,1.50636 4.10633,4.21922 4.10633,7.32014 0,4.73781 -3.83469,8.57603 -8.56897,8.57603"
         style="fill:#c65d1f;fill-opacity:1;fill-rule:nonzero;stroke:none;stroke-width:0.0352778"
         id="path1109" />
      <path
         d="m 462.66948,-171.29834 c -2.02142,0 -3.65478,-1.64042 -3.65478,-3.66184 0,-2.01436 1.63336,-3.66183 3.65478,-3.66183 2.02495,0 3.66183,1.64747 3.66183,3.66183 0,2.02142 -1.63688,3.66184 -3.66183,3.66184"
         style="fill:#c65d1f;fill-opacity:1;fill-rule:nonzero;stroke:none;stroke-width:0.0352778"
         id="path1111" />
      <path
         d="m 523.4531,-142.58223 c -2.01789,0 -3.65831,-1.63336 -3.65831,-3.65831 0,-0.004 0,-0.007 0,-0.0106 2.19428,-0.62794 4.30742,-1.47814 6.30414,-2.51883 0.63147,0.65616 1.016,1.54869 1.016,2.52941 0,2.02495 -1.63689,3.65831 -3.66183,3.65831"
         style="fill:#c65d1f;fill-opacity:1;fill-rule:nonzero;stroke:none;stroke-width:0.0352778"
         id="path1113" />
      <path
         d="m 472.01104,-142.61398 c -3.00214,0 -5.43984,-2.43417 -5.43984,-5.43983 0,-2.99862 2.4377,-5.43278 5.43984,-5.43278 3.00214,0 5.4363,2.43416 5.4363,5.43278 0,3.00566 -2.43416,5.43983 -5.4363,5.43983"
         style="fill:#c65d1f;fill-opacity:1;fill-rule:nonzero;stroke:none;stroke-width:0.0352778"
         id="path1115" />
      <path
         d="m 490.8282,-144.70948 c -2.99508,0 -5.43277,-2.42711 -5.43277,-5.43278 0,-1.70744 0.78669,-3.22792 2.01436,-4.22275 2.52941,2.40242 5.41867,4.42383 8.5725,5.97253 -0.73025,2.14489 -2.75872,3.683 -5.15409,3.683"
         style="fill:#c65d1f;fill-opacity:1;fill-rule:nonzero;stroke:none;stroke-width:0.0352778"
         id="path1117" />
      <path
         d="m 487.90368,-130.90881 c -1.61925,0 -2.93159,-1.30881 -2.93159,-2.921 0,-1.62278 1.31234,-2.92806 2.93159,-2.92806 1.61925,0 2.92452,1.30528 2.92452,2.92806 0,1.61219 -1.30527,2.921 -2.92452,2.921"
         style="fill:#c65d1f;fill-opacity:1;fill-rule:nonzero;stroke:none;stroke-width:0.0352778"
         id="path1119" />
      <path
         d="m 463.64668,-158.50662 c -1.61925,0 -2.92453,-1.31586 -2.92453,-2.92453 0,-1.61925 1.30528,-2.93158 2.92453,-2.93158 1.61925,0 2.92452,1.31233 2.92452,2.93158 0,1.60867 -1.30527,2.92453 -2.92452,2.92453"
         style="fill:#c65d1f;fill-opacity:1;fill-rule:nonzero;stroke:none;stroke-width:0.0352778"
         id="path1121" />
    </g>
  </g>
</svg>
