<?xml version="1.0" encoding="UTF-8" standalone="no"?>
<!-- Created with Inkscape (http://www.inkscape.org/) -->

<svg
   width="500"
   height="500"
   viewBox="0 0 132.29166 132.29167"
   version="1.1"
   id="svg5"
   inkscape:version="1.1.1 (3bf5ae0d25, 2021-09-20)"
   sodipodi:docname="moon.svg"
   xmlns:inkscape="http://www.inkscape.org/namespaces/inkscape"
   xmlns:sodipodi="http://sodipodi.sourceforge.net/DTD/sodipodi-0.dtd"
   xmlns="http://www.w3.org/2000/svg"
   xmlns:svg="http://www.w3.org/2000/svg">
  <sodipodi:namedview
     id="namedview7"
     pagecolor="#505050"
     bordercolor="#eeeeee"
     borderopacity="1"
     inkscape:pageshadow="0"
     inkscape:pageopacity="0"
     inkscape:pagecheckerboard="0"
     inkscape:document-units="px"
     showgrid="false"
     units="px"
     inkscape:zoom="0.32026165"
     inkscape:cx="-73.377504"
     inkscape:cy="-160.80602"
     inkscape:window-width="2534"
     inkscape:window-height="1374"
     inkscape:window-x="10"
     inkscape:window-y="50"
     inkscape:window-maximized="1"
     inkscape:current-layer="layer1" />
  <defs
     id="defs2">
    <clipPath
       clipPathUnits="userSpaceOnUse"
       id="clipPath537">
      <path
         d="m 16375.7,2265.9 c -122.6,0 -258,30.8 -385.8,91 -127.9,60.2 -248.1,149.6 -341.3,266 -56.8,71 -98.8,147.8 -128.6,226.8 16.4,-20.5 33.9,-40.1 52.6,-58.8 90.5,-90.5 203.4,-155.1 325.5,-188.6 82.7,-89.2 169.6,-164.1 255.6,-222 64,-43 127.6,-76.6 188.8,-99.6 14.6,-5.6 29.2,-10.5 43.6,-14.7 -3.4,-0.1 -6.7,-0.1 -10.1,-0.1 h -0.1 c -0.1,0 -0.2,0 -0.2,0"
         id="path535" />
    </clipPath>
    <clipPath
       clipPathUnits="userSpaceOnUse"
       id="clipPath665">
      <path
         d="m 6713.78,2281 h -85.03 v 72.9 h 85.03 V 2281 m -134.84,0 h -94.08 v 72.9 h 94.08 V 2281 m -143.89,0 h -93.95 v 72.9 h 93.95 V 2281 m -143.76,0 h -94 v 52.2 c 30.45,3.9 60.03,10.9 88.43,20.7 h 5.57 V 2281 m -143.81,0 h -93.86 v 57 c 28.09,-5.6 57.04,-8.5 86.56,-8.5 2.43,0 4.88,0 7.3,0.1 V 2281 m -143.67,0 h -94.08 v 72.9 h 84.96 c 3.03,-1 6.06,-2 9.12,-3 V 2281 m -143.89,0 h -85.12 v 72.9 h 85.12 V 2281"
         id="path663" />
    </clipPath>
  </defs>
  <g
     inkscape:label="Camada 1"
     inkscape:groupmode="layer"
     id="layer1">
    <path
       d="m 130.99652,66.145829 c 0,35.811431 -29.03404,64.850691 -64.845493,64.850691 -35.81664,0 -64.8558855,-29.03926 -64.8558855,-64.850691 0,-35.81664 29.0392455,-64.8506813 64.8558855,-64.8506813 35.811453,0 64.845493,29.0340413 64.845493,64.8506813"
       style="fill:#fbca7c;fill-opacity:1;fill-rule:nonzero;stroke:none;stroke-width:0.0520137"
       id="path1079" />
    <path
       d="m 130.99652,66.145829 h -1.29513 c 0,17.554625 -7.11029,33.434415 -18.61571,44.939841 -11.505442,11.50023 -27.380028,18.6105 -44.934653,18.61571 -17.554625,-0.006 -33.434401,-7.11548 -44.93984,-18.61571 C 9.7057623,99.580244 2.5954776,83.700454 2.5902877,66.145829 2.5961853,48.591204 9.7057623,32.711428 21.211187,21.205989 32.716626,9.7057538 48.596402,2.5954838 66.151027,2.5902791 c 17.554625,0.0059 33.429211,7.1154747 44.934653,18.6157099 11.50542,11.505439 18.61571,27.385215 18.61571,44.93984 h 1.29513 1.29514 C 132.29166,29.611405 102.68026,1.579432e-6 66.151027,1.579432e-6 29.616603,1.579432e-6 -4.618998e-6,29.611405 -4.618998e-6,66.145829 -4.618998e-6,102.67506 29.616603,132.28647 66.151027,132.29167 c 36.529233,-0.006 66.140633,-29.61661 66.140633,-66.145841 h -1.29514"
       style="fill:#f4d7d7;fill-opacity:1;fill-rule:nonzero;stroke:none;stroke-width:0.0520137"
       id="path1081" />
    <path
       d="m 54.42714,56.975816 c 0,6.990637 -5.659088,12.644535 -12.644535,12.644535 -6.980227,0 -12.63933,-5.653898 -12.63933,-12.644535 0,-6.980242 5.659103,-12.63933 12.63933,-12.63933 6.985447,0 12.644535,5.659088 12.644535,12.63933"
       style="fill:#c76f2c;fill-opacity:1;fill-rule:nonzero;stroke:none;stroke-width:0.0520137"
       id="path1083" />
    <path
       d="m 98.201876,108.77627 c 0,6.98544 -5.653883,12.64453 -12.634125,12.64453 -6.985447,0 -12.644535,-5.65909 -12.644535,-12.64453 0,-6.98544 5.659088,-12.63413 12.644535,-12.63413 6.980242,0 12.634125,5.64869 12.634125,12.63413"
       style="fill:#c76f2c;fill-opacity:1;fill-rule:nonzero;stroke:none;stroke-width:0.0520137"
       id="path1085" />
    <path
       d="m 90.805528,79.175271 c 0,4.598003 -3.729373,8.327391 -8.322187,8.327391 -4.598017,0 -8.327405,-3.729388 -8.327405,-8.327391 0,-4.598018 3.729388,-8.322201 8.327405,-8.322201 4.592814,0 8.322187,3.724183 8.322187,8.322201"
       style="fill:#c76f2c;fill-opacity:1;fill-rule:nonzero;stroke:none;stroke-width:0.0520137"
       id="path1087" />
    <path
       d="m 65.989786,73.318525 c 0,2.299009 -1.862084,4.161093 -4.171487,4.161093 -2.293805,0 -4.150699,-1.862084 -4.150699,-4.161093 0,-2.293804 1.856894,-4.161093 4.150699,-4.161093 2.309403,0 4.171487,1.867289 4.171487,4.161093"
       style="fill:#c76f2c;fill-opacity:1;fill-rule:nonzero;stroke:none;stroke-width:0.0520137"
       id="path1089" />
    <path
       d="m 22.001792,53.995426 c 0,2.98039 -2.413423,5.399032 -5.399017,5.399032 -2.980391,0 -5.388623,-2.418642 -5.388623,-5.399032 0,-2.969981 2.408232,-5.399018 5.388623,-5.399018 2.985594,0 5.399017,2.429037 5.399017,5.399018"
       style="fill:#c76f2c;fill-opacity:1;fill-rule:nonzero;stroke:none;stroke-width:0.0520137"
       id="path1091" />
    <path
       d="m 111.62142,96.339784 c 0,2.985594 -2.41344,5.393826 -5.39902,5.393826 -2.97519,0 -5.39383,-2.408232 -5.39383,-5.393826 0,-2.980376 2.41864,-5.399018 5.39383,-5.399018 2.98558,0 5.39902,2.418642 5.39902,5.399018"
       style="fill:#c76f2c;fill-opacity:1;fill-rule:nonzero;stroke:none;stroke-width:0.0520137"
       id="path1093" />
    <path
       d="m 38.391313,93.666291 c 0,4.431557 -3.588935,8.020509 -8.015303,8.020509 -4.426368,0 -8.020523,-3.588952 -8.020523,-8.020509 0,-4.421178 3.594155,-8.010114 8.020523,-8.010114 4.426368,0 8.015303,3.588936 8.015303,8.010114"
       style="fill:#c76f2c;fill-opacity:1;fill-rule:nonzero;stroke:none;stroke-width:0.0520137"
       id="path1095" />
    <path
       d="m 66.140633,90.587071 c 0,4.431573 -3.588951,8.010114 -8.020523,8.010114 -4.415959,0 -8.010099,-3.578541 -8.010099,-8.010114 0,-4.431572 3.59414,-8.010113 8.010099,-8.010113 4.431572,0 8.020523,3.578541 8.020523,8.010113"
       style="fill:#c76f2c;fill-opacity:1;fill-rule:nonzero;stroke:none;stroke-width:0.0520137"
       id="path1097" />
    <path
       d="m 58.12011,114.63822 c 0,2.37702 -1.924496,4.30673 -4.311925,4.30673 -2.387429,0 -4.322349,-1.92971 -4.322349,-4.30673 0,-2.39264 1.93492,-4.31715 4.322349,-4.31715 2.387429,0 4.311925,1.92451 4.311925,4.31715"
       style="fill:#c76f2c;fill-opacity:1;fill-rule:nonzero;stroke:none;stroke-width:0.0520137"
       id="path1099" />
    <path
       d="m 22.355487,73.942684 c 0,2.37183 -1.924496,4.31194 -4.311925,4.31194 -2.387429,0 -4.311939,-1.94011 -4.311939,-4.31194 0,-2.387429 1.92451,-4.322333 4.311939,-4.322333 2.387429,0 4.311925,1.934904 4.311925,4.322333"
       style="fill:#c76f2c;fill-opacity:1;fill-rule:nonzero;stroke:none;stroke-width:0.0520137"
       id="path1101" />
    <path
       d="m 66.151027,129.70138 c -6.033586,0 -11.874719,-0.84262 -17.403779,-2.41344 C 22.521932,119.32984 3.4329097,94.966627 3.4329097,66.145829 3.4329097,37.403056 22.417913,13.091856 48.533991,5.0661429 54.125462,3.453705 60.034225,2.5902791 66.151027,2.5902791 c 0.234062,0 0.473328,0.0059 0.70739,0.0059 C 50.432492,10.148562 38.562964,26.371637 37.39786,45.117389 c -4.816481,1.784059 -8.254585,6.423685 -8.254585,11.85912 0,6.990637 5.659103,12.644535 12.63933,12.644535 0.161256,0 0.322497,0 0.483737,-0.01032 2.689107,5.544659 6.371682,10.543184 10.813649,14.751089 -1.810081,1.466782 -2.96998,3.708584 -2.96998,6.226041 0,4.431572 3.59414,8.010113 8.010099,8.010113 3.531743,0 6.522528,-2.267796 7.599212,-5.43023 4.343137,2.132563 9.029575,3.651362 13.934476,4.436762 -4.005057,2.122169 -6.730582,6.324871 -6.730582,11.172551 0,6.98544 5.659088,12.64453 12.644535,12.64453 6.980242,0 12.634125,-5.65909 12.634125,-12.64453 0,-4.57201 -2.423832,-8.57187 -6.05439,-10.792848 2.969981,-0.291268 5.872346,-0.853016 8.681084,-1.659235 0,0.0059 0,0.01032 0,0.01563 0,2.985594 2.41864,5.393823 5.39383,5.393823 2.98558,0 5.39902,-2.408229 5.39902,-5.393823 0,-1.445978 -0.56696,-2.761928 -1.498,-3.729373 7.6044,-3.973859 14.11652,-9.840999 18.87058,-16.95127 -2.05975,13.742023 -8.52505,26.038066 -17.90832,35.426526 -11.505442,11.50023 -27.380028,18.6105 -44.934653,18.61571 M 53.808185,110.32188 c -2.387429,0 -4.322349,1.92451 -4.322349,4.31715 0,2.37702 1.93492,4.30673 4.322349,4.30673 2.387429,0 4.311925,-1.92971 4.311925,-4.30673 0,-2.39264 -1.924496,-4.31715 -4.311925,-4.31715 M 30.37601,85.656988 c -4.426368,0 -8.020523,3.588936 -8.020523,8.010114 0,4.431557 3.594155,8.020508 8.020523,8.020508 4.426368,0 8.015303,-3.588951 8.015303,-8.020508 0,-4.421178 -3.588935,-8.010114 -8.015303,-8.010114 M 18.043562,69.621161 c -2.387429,0 -4.311939,1.934905 -4.311939,4.322334 0,2.37183 1.92451,4.31194 4.311939,4.31194 2.387429,0 4.311925,-1.94011 4.311925,-4.31194 0,-2.387429 -1.924496,-4.322334 -4.311925,-4.322334 M 16.602775,48.597219 c -2.980391,0 -5.388623,2.429037 -5.388623,5.399018 0,2.98039 2.408232,5.399032 5.388623,5.399032 2.985594,0 5.399017,-2.418642 5.399017,-5.399032 0,-2.969981 -2.413423,-5.399018 -5.399017,-5.399018"
       style="fill:#f8a443;fill-opacity:1;fill-rule:nonzero;stroke:none;stroke-width:0.0520137"
       id="path1103" />
    <path
       d="m 67.321335,130.02906 c -6.460102,0 -12.696537,-0.95705 -18.574087,-2.74112 5.52906,1.57082 11.370193,2.41344 17.403779,2.41344 17.554625,-0.006 33.429211,-7.11548 44.934653,-18.61571 9.38327,-9.38846 15.84857,-21.684506 17.90832,-35.426528 0.66576,-0.993469 1.29513,-2.007726 1.88809,-3.048007 -3.24045,32.248495 -30.46442,57.417925 -63.560755,57.417925 M 48.533991,5.0661429 c 5.939961,-1.825681 12.249232,-2.80874 18.787344,-2.80874 0.09362,0 0.176855,0.010321 0.27048,0.010321 -0.244471,0.1092534 -0.488927,0.2184625 -0.733398,0.3276863 -0.234062,0 -0.473328,-0.0059 -0.70739,-0.0059 -6.116802,0 -12.025565,0.8634259 -17.617036,2.4758638"
       style="fill:#e3dbdb;fill-opacity:1;fill-rule:nonzero;stroke:none;stroke-width:0.0520137"
       id="path1105" />
    <path
       d="m 41.782605,69.620351 c -6.980227,0 -12.63933,-5.653898 -12.63933,-12.644535 0,-5.435435 3.438104,-10.075061 8.254585,-11.85912 -0.06237,1.003863 -0.09363,2.012931 -0.09363,3.027188 0,7.646024 1.789263,14.933134 4.962107,21.466057 -0.16124,0.01032 -0.322481,0.01032 -0.483737,0.01032"
       style="fill:#c65d1f;fill-opacity:1;fill-rule:nonzero;stroke:none;stroke-width:0.0520137"
       id="path1107" />
    <path
       d="m 85.567751,121.4208 c -6.985447,0 -12.644535,-5.65909 -12.644535,-12.64453 0,-4.84768 2.725525,-9.050384 6.730582,-11.172553 2.522661,0.405711 5.097339,0.613765 7.71883,0.613765 1.607219,0 3.198838,-0.078 4.774858,-0.234062 3.630558,2.22098 6.05439,6.22084 6.05439,10.79285 0,6.98544 -5.653883,12.64453 -12.634125,12.64453"
       style="fill:#c65d1f;fill-opacity:1;fill-rule:nonzero;stroke:none;stroke-width:0.0520137"
       id="path1109" />
    <path
       d="m 16.602775,59.394458 c -2.980391,0 -5.388623,-2.418642 -5.388623,-5.399032 0,-2.969981 2.408232,-5.399018 5.388623,-5.399018 2.985594,0 5.399017,2.429037 5.399017,5.399018 0,2.98039 -2.413423,5.399032 -5.399017,5.399032"
       style="fill:#c65d1f;fill-opacity:1;fill-rule:nonzero;stroke:none;stroke-width:0.0520137"
       id="path1111" />
    <path
       d="m 106.2224,101.73361 c -2.97519,0 -5.39383,-2.408232 -5.39383,-5.393826 0,-0.0059 0,-0.01032 0,-0.01563 3.23526,-0.925837 6.35088,-2.179376 9.29485,-3.713774 0.93104,0.967445 1.498,2.283395 1.498,3.729373 0,2.985595 -2.41344,5.393827 -5.39902,5.393827"
       style="fill:#c65d1f;fill-opacity:1;fill-rule:nonzero;stroke:none;stroke-width:0.0520137"
       id="path1113" />
    <path
       d="m 30.37601,101.6868 c -4.426368,0 -8.020523,-3.588952 -8.020523,-8.020509 0,-4.421178 3.594155,-8.010114 8.020523,-8.010114 4.426368,0 8.015303,3.588936 8.015303,8.010114 0,4.431557 -3.588935,8.020509 -8.015303,8.020509"
       style="fill:#c65d1f;fill-opacity:1;fill-rule:nonzero;stroke:none;stroke-width:0.0520137"
       id="path1115" />
    <path
       d="m 58.12011,98.597185 c -4.415959,0 -8.010099,-3.578541 -8.010099,-8.010114 0,-2.517456 1.159899,-4.759259 2.96998,-6.22604 3.729373,3.542138 7.98931,6.522513 12.639331,8.805923 -1.076684,3.162435 -4.067469,5.430231 -7.599212,5.430231"
       style="fill:#c65d1f;fill-opacity:1;fill-rule:nonzero;stroke:none;stroke-width:0.0520137"
       id="path1117" />
    <path
       d="m 53.808185,118.94495 c -2.387429,0 -4.322349,-1.92971 -4.322349,-4.30673 0,-2.39264 1.93492,-4.31715 4.322349,-4.31715 2.387429,0 4.311925,1.92451 4.311925,4.31715 0,2.37702 -1.924496,4.30673 -4.311925,4.30673"
       style="fill:#c65d1f;fill-opacity:1;fill-rule:nonzero;stroke:none;stroke-width:0.0520137"
       id="path1119" />
    <path
       d="m 18.043562,78.254624 c -2.387429,0 -4.311939,-1.94011 -4.311939,-4.31194 0,-2.387429 1.92451,-4.322333 4.311939,-4.322333 2.387429,0 4.311925,1.934904 4.311925,4.322333 0,2.37183 -1.924496,4.31194 -4.311925,4.31194"
       style="fill:#c65d1f;fill-opacity:1;fill-rule:nonzero;stroke:none;stroke-width:0.0520137"
       id="path1121" />
  </g>
</svg>
