<?xml version="1.0" encoding="UTF-8" standalone="no"?>
<!-- Created with Inkscape (http://www.inkscape.org/) -->

<svg
   version="1.1"
   id="svg2"
   xml:space="preserve"
   width="95.351997"
   height="94.629333"
   viewBox="0 0 95.351997 94.629334"
   sodipodi:docname="crescente_gibosa.svg"
   inkscape:version="1.1.1 (3bf5ae0d25, 2021-09-20)"
   xmlns:inkscape="http://www.inkscape.org/namespaces/inkscape"
   xmlns:sodipodi="http://sodipodi.sourceforge.net/DTD/sodipodi-0.dtd"
   xmlns="http://www.w3.org/2000/svg"
   xmlns:svg="http://www.w3.org/2000/svg"><defs
     id="defs6"><clipPath
       clipPathUnits="userSpaceOnUse"
       id="clipPath20"><path
         d="M 0,2000 H 5000 V 7000 H 0 Z"
         id="path18" /></clipPath><clipPath
       clipPathUnits="userSpaceOnUse"
       id="clipPath168"><path
         d="m 3092.47,2417.31 c -49.63,10.93 -101.15,16.78 -154.04,16.78 -62.8,0 -123.74,-8.19 -181.84,-23.48 214.56,-155.06 354.55,-407.2 354.55,-691.58 v -266.47 h 345.06 v 266.47 c 0,288.45 -143.95,543.8 -363.73,698.28"
         id="path166" /></clipPath><clipPath
       clipPathUnits="userSpaceOnUse"
       id="clipPath316"><path
         d="m 1413.01,5639.33 c -0.2,0 -0.39,0 -0.6,0 0.2,0 0.4,0 0.6,0 m -3.78,0.02 c -0.02,0 -0.03,0 -0.04,0 0.01,0 0.02,0 0.02,0 0.01,0 0.01,0 0.02,0 m -0.04,0 c -191.27,2.03 -346.2,155.39 -350.86,346.01 1.86,-76.02 27.64,-146.12 70.08,-203.07 15.67,0.14 30.65,3.21 44.41,8.68 14.49,-37.91 35.3,-72.69 61.12,-103.07 9.25,-5.42 18.76,-10.43 28.51,-15.02 l 0.01,-0.04 c 30.76,-14.43 63.91,-24.62 98.72,-29.73 0,0 0.01,0 0.02,-0.01 0.21,-0.03 0.43,-0.06 0.65,-0.09 0.05,-0.01 0.1,-0.02 0.15,-0.02 0.18,-0.03 0.36,-0.05 0.54,-0.08 0.06,-0.01 0.12,-0.02 0.17,-0.03 0.2,-0.02 0.39,-0.05 0.58,-0.08 0.04,0 0.08,-0.01 0.12,-0.01 0.22,-0.03 0.44,-0.07 0.66,-0.1 0.11,-0.01 0.22,-0.03 0.33,-0.04 0.11,-0.02 0.21,-0.03 0.32,-0.05 0.13,-0.01 0.27,-0.03 0.4,-0.05 0.08,-0.01 0.17,-0.02 0.26,-0.03 0.13,-0.02 0.27,-0.04 0.41,-0.06 0.08,-0.01 0.15,-0.02 0.22,-0.03 0.16,-0.02 0.31,-0.04 0.47,-0.06 v 0 c 0.59,-0.08 1.19,-0.16 1.78,-0.23 0.03,0 0.04,-0.01 0.07,-0.01 0.18,-0.02 0.38,-0.05 0.57,-0.07 0.01,0 0.03,0 0.04,-0.01 7.92,-0.98 15.92,-1.71 23.99,-2.16 0.01,0 0.03,0 0.04,0 0.2,-0.01 0.39,-0.02 0.59,-0.03 0.02,0 0.03,0 0.04,-0.01 0.82,-0.04 1.63,-0.08 2.45,-0.12 0.01,0 0.02,0 0.03,0 0.17,-0.01 0.35,-0.02 0.53,-0.03 0.05,0 0.1,0 0.15,0 0.16,-0.01 0.34,-0.02 0.5,-0.02 0.05,-0.01 0.11,-0.01 0.16,-0.01 0.17,-0.01 0.34,-0.02 0.51,-0.02 0.03,0 0.06,-0.01 0.1,-0.01 0.55,-0.02 1.09,-0.04 1.64,-0.06 0.07,0 0.14,-0.01 0.21,-0.01 0.14,-0.01 0.29,-0.01 0.44,-0.02 0.08,0 0.16,0 0.24,0 0.15,-0.01 0.29,-0.01 0.44,-0.02 0.08,0 0.16,0 0.24,-0.01 0.15,0 0.29,-0.01 0.43,-0.01 0.09,0 0.17,-0.01 0.26,-0.01 0.24,-0.01 0.49,-0.01 0.73,-0.02 0.11,0 0.22,-0.01 0.33,-0.01 0.12,0 0.25,-0.01 0.37,-0.01 0.11,0 0.21,-0.01 0.32,-0.01 0.12,0 0.26,-0.01 0.38,-0.01 0.11,0 0.21,0 0.33,-0.01 0.11,0 0.24,0 0.36,0 0.12,-0.01 0.24,-0.01 0.37,-0.01 0.1,-0.01 0.21,-0.01 0.31,-0.01 0.22,0 0.45,-0.01 0.67,-0.01 0.09,-0.01 0.17,-0.01 0.26,-0.01 0.14,0 0.29,0 0.44,-0.01 0.1,0 0.2,0 0.3,0 0.14,0 0.28,-0.01 0.42,-0.01 0.09,0 0.19,0 0.28,0 0.15,0 0.3,-0.01 0.45,-0.01 0.08,0 0.17,0 0.26,0 0.18,0 0.36,-0.01 0.54,-0.01 0.04,0 0.09,0 0.14,0 m -350.97,354.84 c 0,196 158.82,354.85 354.79,354.85 176.09,0 322.24,-128.28 350.04,-296.53 -0.5,3.04 -1.04,6.06 -1.62,9.07 -11.76,61.09 -39.19,116.56 -77.95,162.17 -52.57,30.8 -113.77,48.56 -179.06,48.56 -53.03,0 -103.37,-11.64 -148.56,-32.5 -6.73,8.81 -17.35,14.49 -29.31,14.49 -20.34,0 -36.83,-16.52 -36.83,-36.9 0,-5.34 1.13,-10.42 3.17,-15 -59.65,-44.36 -104.91,-107.02 -127.45,-179.66 -12.01,3.91 -24.84,6.03 -38.16,6.03 -25.44,0 -49.08,-7.7 -68.73,-20.92 -0.17,-4.55 -0.33,-9.07 -0.33,-13.66 m 426.04,347.68 c -0.24,-2.08 -0.62,-4.14 -0.62,-6.3 0,-30.69 24.88,-55.57 55.59,-55.57 19.13,0 36.02,9.68 45.96,24.43 -31.04,17.28 -64.98,30.1 -100.93,37.44 m 283.56,-347.13 c 0,0.06 0,0.11 0,0.16 0,-0.06 0,-0.1 0,-0.16 m 0,0.55 c 0,0.07 0,0.13 0,0.2 0,-0.06 0,-0.14 0,-0.2 m 0,0.55 c 0,0.07 0,0.14 0,0.21 0,-0.07 0,-0.14 0,-0.21 m 0,0.54 c 0,0.08 -0.01,0.16 -0.01,0.24 0,-0.08 0.01,-0.16 0.01,-0.24 m -0.01,0.54 c 0,0.08 0,0.16 0,0.24 0,-0.08 0,-0.16 0,-0.24 m 0,0.55 c 0,0.08 0,0.16 0,0.24 0,-0.08 0,-0.16 0,-0.24 m -0.01,0.55 c 0,0.08 0,0.16 0,0.23 0,-0.07 0,-0.15 0,-0.23 m 0,0.54 c -0.01,0.16 -0.01,0.31 -0.01,0.47 0,-0.15 0,-0.32 0.01,-0.47 m -0.01,0.76 c -0.01,0.09 -0.01,0.18 -0.01,0.27 0,-0.09 0,-0.17 0.01,-0.27 m -0.01,0.54 c 0,0.1 -0.01,0.19 -0.01,0.29 0,-0.1 0.01,-0.19 0.01,-0.29 m -0.01,0.54 c 0,0.1 0,0.2 -0.01,0.3 0.01,-0.11 0.01,-0.19 0.01,-0.3 m -0.01,0.53 c 0,0.11 0,0.21 -0.01,0.32 0.01,-0.11 0.01,-0.21 0.01,-0.32 m -0.01,0.54 c 0,0.1 -0.01,0.21 -0.01,0.32 0,-0.11 0.01,-0.21 0.01,-0.32 m -0.01,0.52 c 0,0.12 -0.01,0.23 -0.01,0.35 0,-0.11 0.01,-0.24 0.01,-0.35 m -0.01,0.51 c -0.01,0.13 -0.01,0.26 -0.01,0.39 0,-0.13 0,-0.26 0.01,-0.39 m -0.01,0.4 c -0.22,9.16 -0.79,18.23 -1.69,27.21 v 0 c 0.9,-8.98 1.47,-18.06 1.69,-27.21"
         id="path314" /></clipPath></defs><sodipodi:namedview
     id="namedview4"
     pagecolor="#505050"
     bordercolor="#eeeeee"
     borderopacity="1"
     inkscape:pageshadow="0"
     inkscape:pageopacity="0"
     inkscape:pagecheckerboard="0"
     showgrid="false"
     fit-margin-top="0"
     fit-margin-left="0"
     fit-margin-right="0"
     fit-margin-bottom="0"
     inkscape:zoom="2"
     inkscape:cx="-365.75"
     inkscape:cy="5.25"
     inkscape:window-width="2534"
     inkscape:window-height="1374"
     inkscape:window-x="10"
     inkscape:window-y="50"
     inkscape:window-maximized="1"
     inkscape:current-layer="g8" /><g
     id="g8"
     inkscape:groupmode="layer"
     inkscape:label="ink_ext_XXXXXX"
     transform="matrix(1.3333333,0,0,-1.3333333,-438.83199,717.07465)"><path
       d="m 400.084,502.322 c 0,-19.598 -15.887,-35.488 -35.482,-35.488 -19.597,0 -35.478,15.89 -35.478,35.488 0,19.599 15.881,35.484 35.478,35.484 19.595,0 35.482,-15.885 35.482,-35.484"
       style="fill:#fffffe;fill-opacity:1;fill-rule:nonzero;stroke:none;stroke-width:0.1"
       id="path860" /><path
       d="m 373.743,530.133 c -19.597,0 -35.485,-15.887 -35.485,-35.486 0,-8.756 3.179,-16.769 8.437,-22.955 5.261,-3.083 11.373,-4.858 17.907,-4.858 19.595,0 35.482,15.89 35.482,35.488 0,8.759 -3.175,16.764 -8.435,22.955 -5.256,3.08 -11.377,4.856 -17.906,4.856"
       style="fill:#fae0aa;fill-opacity:1;fill-rule:nonzero;stroke:none;stroke-width:0.1"
       id="path862" /><path
       d="m 370.097,492.993 c 0,-3.033 -2.459,-5.492 -5.492,-5.492 -3.033,0 -5.493,2.459 -5.493,5.492 0,3.033 2.46,5.491 5.493,5.491 3.033,0 5.492,-2.458 5.492,-5.491"
       style="fill:#b58982;fill-opacity:1;fill-rule:nonzero;stroke:none;stroke-width:0.1"
       id="path864" /><path
       d="m 359.646,524.643 c 0,-2.037 -1.651,-3.689 -3.691,-3.689 -2.034,0 -3.684,1.652 -3.684,3.689 0,2.037 1.65,3.689 3.684,3.689 2.04,0 3.691,-1.652 3.691,-3.689"
       style="fill:#b58982;fill-opacity:1;fill-rule:nonzero;stroke:none;stroke-width:0.1"
       id="path866" /><path
       d="m 395.982,491.009 c 0,-1.349 -1.095,-2.444 -2.449,-2.444 -1.347,0 -2.439,1.095 -2.439,2.444 0,1.347 1.092,2.443 2.439,2.443 1.354,0 2.449,-1.096 2.449,-2.443"
       style="fill:#b58982;fill-opacity:1;fill-rule:nonzero;stroke:none;stroke-width:0.1"
       id="path868" /><path
       d="m 391.094,505.942 c 0,-1.07 -0.867,-1.937 -1.937,-1.937 -1.068,0 -1.935,0.867 -1.935,1.937 0,1.068 0.867,1.936 1.935,1.936 1.07,0 1.937,-0.868 1.937,-1.936"
       style="fill:#b58982;fill-opacity:1;fill-rule:nonzero;stroke:none;stroke-width:0.1"
       id="path870" /><path
       d="m 397.077,516.619 c -2.26,-0.704 -3.909,-2.788 -3.909,-5.283 0,-3.069 2.485,-5.557 5.555,-5.557 0.409,0 0.8,0.051 1.18,0.134 -0.379,3.776 -1.356,7.373 -2.826,10.706"
       style="fill:#b58982;fill-opacity:1;fill-rule:nonzero;stroke:none;stroke-width:0.1"
       id="path872" /><path
       d="m 371.727,537.089 c -0.024,-0.21 -0.062,-0.414 -0.062,-0.63 0,-3.069 2.488,-5.558 5.559,-5.558 1.914,0 3.601,0.969 4.597,2.445 -3.104,1.728 -6.499,3.009 -10.094,3.743"
       style="fill:#b58982;fill-opacity:1;fill-rule:nonzero;stroke:none;stroke-width:0.1"
       id="path874" /><path
       d="m 359.07,479.946 c -5.264,0 -9.531,-4.27 -9.531,-9.536 l 0.008,-0.224 c 4.572,-2.145 9.669,-3.352 15.055,-3.352 1.134,0 2.255,0.059 3.359,0.163 0.409,1.062 0.641,2.208 0.641,3.413 0,5.266 -4.268,9.536 -9.532,9.536"
       style="fill:#b58982;fill-opacity:1;fill-rule:nonzero;stroke:none;stroke-width:0.1"
       id="path876" /><path
       d="m 336.028,505.779 c -2.544,0 -4.906,-0.771 -6.872,-2.092 -0.017,-0.455 -0.032,-0.908 -0.032,-1.365 0,-7.943 2.608,-15.277 7.017,-21.191 6.755,0.061 12.214,5.551 12.214,12.321 0,6.808 -5.518,12.327 -12.327,12.327"
       style="fill:#b58982;fill-opacity:1;fill-rule:nonzero;stroke:none;stroke-width:0.1"
       id="path878" /><path
       d="m 365.159,466.834 c -0.091,0 -0.183,0 -0.274,10e-4 19.465,0.152 35.199,15.984 35.199,35.487 v 0 0 0 c 0,0.018 0,0.036 0,0.055 0,0.006 0,0.009 0,0.015 0,0.013 0,0.026 0,0.039 0,0.006 0,0.014 0,0.02 0,0.012 0,0.023 0,0.035 -10e-4,0.007 -10e-4,0.014 -10e-4,0.021 0,0.011 0,0.022 0,0.033 0,0.008 0,0.016 0,0.024 0,0.01 0,0.02 0,0.03 0,0.008 0,0.016 0,0.025 0,0.01 0,0.02 -0.001,0.03 0,0.009 0,0.016 0,0.025 0,0.01 0,0.02 0,0.031 0,0.007 0,0.016 0,0.023 0,0.009 -10e-4,0.02 -10e-4,0.03 0,0.016 0,0.034 0,0.051 0,0.008 -0.001,0.017 -0.001,0.026 0,0.009 0,0.018 0,0.028 0,0.008 0,0.017 -10e-4,0.025 0,0.01 0,0.02 0,0.029 0,0.009 0,0.017 0,0.026 -0.001,0.01 -0.001,0.019 -0.001,0.03 0,0.007 0,0.015 0,0.022 -10e-4,0.011 -10e-4,0.022 -10e-4,0.032 0,0.008 0,0.014 0,0.022 -10e-4,0.011 -10e-4,0.022 -10e-4,0.033 0,0.006 0,0.012 0,0.019 -0.001,0.012 -0.001,0.023 -0.001,0.035 0,0.006 0,0.01 -10e-4,0.015 -0.439,19.121 -16.001,34.504 -35.189,34.654 0.091,0 0.183,0.001 0.274,0.001 19.596,0 35.479,-15.885 35.479,-35.484 0,-19.598 -15.883,-35.488 -35.479,-35.488"
       style="fill:#0e121a;fill-opacity:1;fill-rule:nonzero;stroke:none;stroke-width:0.1"
       id="path880" /><path
       d="m 400.084,502.377 c 0,0.005 0,0.01 0,0.015 0,-0.006 0,-0.009 0,-0.015 m 0,0.054 c 0,0.007 0,0.014 0,0.02 0,-0.006 0,-0.014 0,-0.02 m 0,0.055 c -10e-4,0.007 -10e-4,0.014 -10e-4,0.021 0,-0.007 0,-0.014 10e-4,-0.021 m -10e-4,0.054 c 0,0.008 0,0.016 0,0.024 0,-0.008 0,-0.016 0,-0.024 m 0,0.054 c 0,0.008 0,0.017 0,0.025 0,-0.009 0,-0.017 0,-0.025 m -0.001,0.055 c 0,0.009 0,0.016 0,0.025 0,-0.009 0,-0.016 0,-0.025 m 0,0.056 c 0,0.008 0,0.015 0,0.023 0,-0.007 0,-0.016 0,-0.023 m -10e-4,0.053 c 0,0.017 0,0.034 0,0.051 0,-0.017 0,-0.035 0,-0.051 m -0.001,0.077 c 0,0.009 0,0.018 0,0.028 0,-0.01 0,-0.019 0,-0.028 m -10e-4,0.053 c 0,0.01 0,0.02 0,0.029 0,-0.009 0,-0.019 0,-0.029 m 0,0.055 c -0.001,0.01 -0.001,0.02 -0.001,0.03 0,-0.011 0,-0.02 0.001,-0.03 m -0.001,0.052 c -10e-4,0.011 -10e-4,0.022 -10e-4,0.032 0,-0.01 0,-0.021 10e-4,-0.032 m -10e-4,0.054 c -10e-4,0.011 -10e-4,0.022 -10e-4,0.033 0,-0.011 0,-0.022 10e-4,-0.033 m -10e-4,0.052 c -0.001,0.012 -0.001,0.023 -0.001,0.035 0,-0.012 0,-0.023 0.001,-0.035 m -0.002,0.05 c -0.193,8.434 -3.331,16.131 -8.425,22.126 -4.907,2.875 -10.568,4.614 -16.61,4.832 -4.548,3.613 -10.002,6.133 -15.968,7.165 1.891,0.328 3.832,0.515 5.814,0.531 19.188,-0.15 34.75,-15.533 35.189,-34.654 m -28.347,33.938 c -0.024,-0.21 -0.062,-0.414 -0.062,-0.63 0,-3.069 2.488,-5.558 5.559,-5.558 1.914,0 3.601,0.969 4.597,2.445 -3.104,1.728 -6.499,3.009 -10.094,3.743"
       style="fill:#70718d;fill-opacity:1;fill-rule:nonzero;stroke:none;stroke-width:0.1"
       id="path882" /><path
       d="m 364.885,466.835 c -0.003,0 -0.005,0 -0.007,0 1.04,0.009 2.069,0.066 3.083,0.162 0.409,1.062 0.641,2.208 0.641,3.413 0,0.017 0,0.033 0,0.05 11.762,5.777 19.859,17.872 19.859,31.862 0,0.614 -0.016,1.225 -0.047,1.831 0.229,-0.095 0.48,-0.148 0.743,-0.148 1.07,0 1.937,0.867 1.937,1.937 0,1.068 -0.867,1.936 -1.937,1.936 -0.399,0 -0.77,-0.121 -1.078,-0.329 -1.345,9.109 -6.153,17.088 -13.04,22.56 6.042,-0.218 11.703,-1.957 16.61,-4.832 5.094,-5.995 8.232,-13.692 8.425,-22.126 10e-4,-0.005 10e-4,-0.009 10e-4,-0.015 0,-0.012 0,-0.023 0.001,-0.035 0,-0.007 0,-0.013 0,-0.019 0,-0.011 0,-0.022 10e-4,-0.033 0,-0.008 0,-0.014 0,-0.022 0,-0.01 0,-0.021 10e-4,-0.032 0,-0.007 0,-0.015 0,-0.022 0,-0.01 0,-0.02 0.001,-0.03 0,-0.009 0,-0.017 0,-0.026 0,-0.009 0,-0.019 0,-0.029 10e-4,-0.008 10e-4,-0.017 10e-4,-0.025 0,-0.01 0,-0.019 0,-0.028 0,-0.009 0.001,-0.018 0.001,-0.026 0,-0.017 0,-0.034 0,-0.051 0,-0.01 10e-4,-0.021 10e-4,-0.03 0,-0.008 0,-0.015 0,-0.023 0,-0.011 0,-0.021 0,-0.031 0,-0.009 0,-0.016 0,-0.025 0.001,-0.01 0.001,-0.02 0.001,-0.03 0,-0.008 0,-0.017 0,-0.025 0,-0.01 0,-0.02 0,-0.03 0,-0.008 0,-0.016 0,-0.024 0,-0.011 0,-0.022 0,-0.033 0,-0.007 0,-0.014 10e-4,-0.021 0,-0.012 0,-0.023 0,-0.035 0,-0.006 0,-0.013 0,-0.02 0,-0.013 0,-0.026 0,-0.039 0,-0.005 0,-0.01 0,-0.015 0,-0.019 0,-0.037 0,-0.055 v 0 0 c 0,-19.503 -15.734,-35.335 -35.199,-35.487 m 28.648,26.617 c -1.347,0 -2.439,-1.096 -2.439,-2.443 0,-1.349 1.092,-2.444 2.439,-2.444 1.354,0 2.449,1.095 2.449,2.444 0,1.347 -1.095,2.443 -2.449,2.443 m 3.544,23.167 c -2.26,-0.704 -3.909,-2.788 -3.909,-5.283 0,-3.069 2.485,-5.557 5.555,-5.557 0.409,0 0.8,0.051 1.18,0.134 -0.379,3.776 -1.356,7.373 -2.826,10.706"
       style="fill:#70676a;fill-opacity:1;fill-rule:nonzero;stroke:none;stroke-width:0.1"
       id="path884" /><path
       d="m 393.533,488.565 c -1.347,0 -2.439,1.095 -2.439,2.444 0,1.347 1.092,2.443 2.439,2.443 1.354,0 2.449,-1.096 2.449,-2.443 0,-1.349 -1.095,-2.444 -2.449,-2.444"
       style="fill:#5a4b59;fill-opacity:1;fill-rule:nonzero;stroke:none;stroke-width:0.1"
       id="path886" /><path
       d="m 389.157,504.005 c -0.263,0 -0.514,0.053 -0.743,0.148 -0.058,1.148 -0.171,2.28 -0.335,3.396 0.308,0.208 0.679,0.329 1.078,0.329 1.07,0 1.937,-0.868 1.937,-1.936 0,-1.07 -0.867,-1.937 -1.937,-1.937"
       style="fill:#5a4b59;fill-opacity:1;fill-rule:nonzero;stroke:none;stroke-width:0.1"
       id="path888" /><path
       d="m 398.723,505.779 c -3.07,0 -5.555,2.488 -5.555,5.557 0,2.495 1.649,4.579 3.909,5.283 1.47,-3.333 2.447,-6.93 2.826,-10.706 -0.38,-0.083 -0.771,-0.134 -1.18,-0.134"
       style="fill:#5a4b59;fill-opacity:1;fill-rule:nonzero;stroke:none;stroke-width:0.1"
       id="path890" /><path
       d="m 377.224,530.901 c -3.071,0 -5.559,2.489 -5.559,5.558 0,0.216 0.038,0.42 0.062,0.63 3.595,-0.734 6.99,-2.015 10.094,-3.743 -0.996,-1.476 -2.683,-2.445 -4.597,-2.445"
       style="fill:#5a4b59;fill-opacity:1;fill-rule:nonzero;stroke:none;stroke-width:0.1"
       id="path892" /><path
       d="m 364.878,466.835 c -1.979,0.016 -3.918,0.204 -5.807,0.531 3.364,0.582 6.564,1.637 9.531,3.094 0,-0.017 0,-0.033 0,-0.05 0,-1.205 -0.232,-2.351 -0.641,-3.413 -1.014,-0.096 -2.043,-0.153 -3.083,-0.162"
       style="fill:#5a4b59;fill-opacity:1;fill-rule:nonzero;stroke:none;stroke-width:0.1"
       id="path894" /></g></svg>
