<?xml version="1.0" encoding="UTF-8" standalone="no"?>
<!-- Created with Inkscape (http://www.inkscape.org/) -->

<svg
   version="1.1"
   id="svg2"
   xml:space="preserve"
   width="95.049332"
   height="94.626663"
   viewBox="0 0 95.049331 94.626663"
   sodipodi:docname="crescente.svg"
   inkscape:version="1.1.1 (3bf5ae0d25, 2021-09-20)"
   xmlns:inkscape="http://www.inkscape.org/namespaces/inkscape"
   xmlns:sodipodi="http://sodipodi.sourceforge.net/DTD/sodipodi-0.dtd"
   xmlns="http://www.w3.org/2000/svg"
   xmlns:svg="http://www.w3.org/2000/svg"><defs
     id="defs6"><clipPath
       clipPathUnits="userSpaceOnUse"
       id="clipPath20"><path
         d="M 0,2000 H 5000 V 7000 H 0 Z"
         id="path18" /></clipPath><clipPath
       clipPathUnits="userSpaceOnUse"
       id="clipPath168"><path
         d="m 3092.47,2417.31 c -49.63,10.93 -101.15,16.78 -154.04,16.78 -62.8,0 -123.74,-8.19 -181.84,-23.48 214.56,-155.06 354.55,-407.2 354.55,-691.58 v -266.47 h 345.06 v 266.47 c 0,288.45 -143.95,543.8 -363.73,698.28"
         id="path166" /></clipPath><clipPath
       clipPathUnits="userSpaceOnUse"
       id="clipPath316"><path
         d="m 1413.01,5639.33 c -0.2,0 -0.39,0 -0.6,0 0.2,0 0.4,0 0.6,0 m -3.78,0.02 c -0.02,0 -0.03,0 -0.04,0 0.01,0 0.02,0 0.02,0 0.01,0 0.01,0 0.02,0 m -0.04,0 c -191.27,2.03 -346.2,155.39 -350.86,346.01 1.86,-76.02 27.64,-146.12 70.08,-203.07 15.67,0.14 30.65,3.21 44.41,8.68 14.49,-37.91 35.3,-72.69 61.12,-103.07 9.25,-5.42 18.76,-10.43 28.51,-15.02 l 0.01,-0.04 c 30.76,-14.43 63.91,-24.62 98.72,-29.73 0,0 0.01,0 0.02,-0.01 0.21,-0.03 0.43,-0.06 0.65,-0.09 0.05,-0.01 0.1,-0.02 0.15,-0.02 0.18,-0.03 0.36,-0.05 0.54,-0.08 0.06,-0.01 0.12,-0.02 0.17,-0.03 0.2,-0.02 0.39,-0.05 0.58,-0.08 0.04,0 0.08,-0.01 0.12,-0.01 0.22,-0.03 0.44,-0.07 0.66,-0.1 0.11,-0.01 0.22,-0.03 0.33,-0.04 0.11,-0.02 0.21,-0.03 0.32,-0.05 0.13,-0.01 0.27,-0.03 0.4,-0.05 0.08,-0.01 0.17,-0.02 0.26,-0.03 0.13,-0.02 0.27,-0.04 0.41,-0.06 0.08,-0.01 0.15,-0.02 0.22,-0.03 0.16,-0.02 0.31,-0.04 0.47,-0.06 v 0 c 0.59,-0.08 1.19,-0.16 1.78,-0.23 0.03,0 0.04,-0.01 0.07,-0.01 0.18,-0.02 0.38,-0.05 0.57,-0.07 0.01,0 0.03,0 0.04,-0.01 7.92,-0.98 15.92,-1.71 23.99,-2.16 0.01,0 0.03,0 0.04,0 0.2,-0.01 0.39,-0.02 0.59,-0.03 0.02,0 0.03,0 0.04,-0.01 0.82,-0.04 1.63,-0.08 2.45,-0.12 0.01,0 0.02,0 0.03,0 0.17,-0.01 0.35,-0.02 0.53,-0.03 0.05,0 0.1,0 0.15,0 0.16,-0.01 0.34,-0.02 0.5,-0.02 0.05,-0.01 0.11,-0.01 0.16,-0.01 0.17,-0.01 0.34,-0.02 0.51,-0.02 0.03,0 0.06,-0.01 0.1,-0.01 0.55,-0.02 1.09,-0.04 1.64,-0.06 0.07,0 0.14,-0.01 0.21,-0.01 0.14,-0.01 0.29,-0.01 0.44,-0.02 0.08,0 0.16,0 0.24,0 0.15,-0.01 0.29,-0.01 0.44,-0.02 0.08,0 0.16,0 0.24,-0.01 0.15,0 0.29,-0.01 0.43,-0.01 0.09,0 0.17,-0.01 0.26,-0.01 0.24,-0.01 0.49,-0.01 0.73,-0.02 0.11,0 0.22,-0.01 0.33,-0.01 0.12,0 0.25,-0.01 0.37,-0.01 0.11,0 0.21,-0.01 0.32,-0.01 0.12,0 0.26,-0.01 0.38,-0.01 0.11,0 0.21,0 0.33,-0.01 0.11,0 0.24,0 0.36,0 0.12,-0.01 0.24,-0.01 0.37,-0.01 0.1,-0.01 0.21,-0.01 0.31,-0.01 0.22,0 0.45,-0.01 0.67,-0.01 0.09,-0.01 0.17,-0.01 0.26,-0.01 0.14,0 0.29,0 0.44,-0.01 0.1,0 0.2,0 0.3,0 0.14,0 0.28,-0.01 0.42,-0.01 0.09,0 0.19,0 0.28,0 0.15,0 0.3,-0.01 0.45,-0.01 0.08,0 0.17,0 0.26,0 0.18,0 0.36,-0.01 0.54,-0.01 0.04,0 0.09,0 0.14,0 m -350.97,354.84 c 0,196 158.82,354.85 354.79,354.85 176.09,0 322.24,-128.28 350.04,-296.53 -0.5,3.04 -1.04,6.06 -1.62,9.07 -11.76,61.09 -39.19,116.56 -77.95,162.17 -52.57,30.8 -113.77,48.56 -179.06,48.56 -53.03,0 -103.37,-11.64 -148.56,-32.5 -6.73,8.81 -17.35,14.49 -29.31,14.49 -20.34,0 -36.83,-16.52 -36.83,-36.9 0,-5.34 1.13,-10.42 3.17,-15 -59.65,-44.36 -104.91,-107.02 -127.45,-179.66 -12.01,3.91 -24.84,6.03 -38.16,6.03 -25.44,0 -49.08,-7.7 -68.73,-20.92 -0.17,-4.55 -0.33,-9.07 -0.33,-13.66 m 426.04,347.68 c -0.24,-2.08 -0.62,-4.14 -0.62,-6.3 0,-30.69 24.88,-55.57 55.59,-55.57 19.13,0 36.02,9.68 45.96,24.43 -31.04,17.28 -64.98,30.1 -100.93,37.44 m 283.56,-347.13 c 0,0.06 0,0.11 0,0.16 0,-0.06 0,-0.1 0,-0.16 m 0,0.55 c 0,0.07 0,0.13 0,0.2 0,-0.06 0,-0.14 0,-0.2 m 0,0.55 c 0,0.07 0,0.14 0,0.21 0,-0.07 0,-0.14 0,-0.21 m 0,0.54 c 0,0.08 -0.01,0.16 -0.01,0.24 0,-0.08 0.01,-0.16 0.01,-0.24 m -0.01,0.54 c 0,0.08 0,0.16 0,0.24 0,-0.08 0,-0.16 0,-0.24 m 0,0.55 c 0,0.08 0,0.16 0,0.24 0,-0.08 0,-0.16 0,-0.24 m -0.01,0.55 c 0,0.08 0,0.16 0,0.23 0,-0.07 0,-0.15 0,-0.23 m 0,0.54 c -0.01,0.16 -0.01,0.31 -0.01,0.47 0,-0.15 0,-0.32 0.01,-0.47 m -0.01,0.76 c -0.01,0.09 -0.01,0.18 -0.01,0.27 0,-0.09 0,-0.17 0.01,-0.27 m -0.01,0.54 c 0,0.1 -0.01,0.19 -0.01,0.29 0,-0.1 0.01,-0.19 0.01,-0.29 m -0.01,0.54 c 0,0.1 0,0.2 -0.01,0.3 0.01,-0.11 0.01,-0.19 0.01,-0.3 m -0.01,0.53 c 0,0.11 0,0.21 -0.01,0.32 0.01,-0.11 0.01,-0.21 0.01,-0.32 m -0.01,0.54 c 0,0.1 -0.01,0.21 -0.01,0.32 0,-0.11 0.01,-0.21 0.01,-0.32 m -0.01,0.52 c 0,0.12 -0.01,0.23 -0.01,0.35 0,-0.11 0.01,-0.24 0.01,-0.35 m -0.01,0.51 c -0.01,0.13 -0.01,0.26 -0.01,0.39 0,-0.13 0,-0.26 0.01,-0.39 m -0.01,0.4 c -0.22,9.16 -0.79,18.23 -1.69,27.21 v 0 c 0.9,-8.98 1.47,-18.06 1.69,-27.21"
         id="path314" /></clipPath></defs><sodipodi:namedview
     id="namedview4"
     pagecolor="#505050"
     bordercolor="#eeeeee"
     borderopacity="1"
     inkscape:pageshadow="0"
     inkscape:pageopacity="0"
     inkscape:pagecheckerboard="0"
     showgrid="false"
     fit-margin-top="0"
     fit-margin-left="0"
     fit-margin-right="0"
     fit-margin-bottom="0"
     inkscape:zoom="2"
     inkscape:cx="-217.25"
     inkscape:cy="-124.25"
     inkscape:window-width="2534"
     inkscape:window-height="1374"
     inkscape:window-x="10"
     inkscape:window-y="50"
     inkscape:window-maximized="1"
     inkscape:current-layer="g8" /><g
     id="g8"
     inkscape:groupmode="layer"
     inkscape:label="ink_ext_XXXXXX"
     transform="matrix(1.3333333,0,0,-1.3333333,-289.96399,587.60932)"><path
       d="m 288.434,405.224 c 0,-19.598 -15.889,-35.487 -35.483,-35.487 -19.596,0 -35.478,15.889 -35.478,35.487 0,19.598 15.882,35.483 35.478,35.483 19.594,0 35.483,-15.885 35.483,-35.483"
       style="fill:#fffffe;fill-opacity:1;fill-rule:nonzero;stroke:none;stroke-width:0.1"
       id="path988" /><path
       d="m 262.093,433.035 c -19.598,0 -35.486,-15.886 -35.486,-35.486 0,-8.757 3.18,-16.77 8.437,-22.955 5.263,-3.082 11.375,-4.857 17.907,-4.857 19.594,0 35.483,15.889 35.483,35.487 0,8.757 -3.176,16.765 -8.436,22.955 -5.257,3.08 -11.377,4.856 -17.905,4.856"
       style="fill:#fae0aa;fill-opacity:1;fill-rule:nonzero;stroke:none;stroke-width:0.1"
       id="path990" /><path
       d="m 258.446,395.896 c 0,-3.034 -2.459,-5.493 -5.49,-5.493 -3.034,0 -5.495,2.459 -5.495,5.493 0,3.032 2.461,5.491 5.495,5.491 3.031,0 5.49,-2.459 5.49,-5.491"
       style="fill:#b58982;fill-opacity:1;fill-rule:nonzero;stroke:none;stroke-width:0.1"
       id="path992" /><path
       d="m 247.995,427.545 c 0,-2.037 -1.651,-3.689 -3.689,-3.689 -2.034,0 -3.684,1.652 -3.684,3.689 0,2.037 1.65,3.687 3.684,3.687 2.038,0 3.689,-1.65 3.689,-3.687"
       style="fill:#b58982;fill-opacity:1;fill-rule:nonzero;stroke:none;stroke-width:0.1"
       id="path994" /><path
       d="m 284.331,393.911 c 0,-1.35 -1.094,-2.445 -2.447,-2.445 -1.348,0 -2.441,1.095 -2.441,2.445 0,1.347 1.093,2.442 2.441,2.442 1.353,0 2.447,-1.095 2.447,-2.442"
       style="fill:#b58982;fill-opacity:1;fill-rule:nonzero;stroke:none;stroke-width:0.1"
       id="path996" /><path
       d="m 279.443,408.845 c 0,-1.071 -0.868,-1.938 -1.938,-1.938 -1.066,0 -1.935,0.867 -1.935,1.938 0,1.067 0.869,1.935 1.935,1.935 1.07,0 1.938,-0.868 1.938,-1.935"
       style="fill:#b58982;fill-opacity:1;fill-rule:nonzero;stroke:none;stroke-width:0.1"
       id="path998" /><path
       d="m 285.43,419.521 c -2.264,-0.704 -3.915,-2.788 -3.915,-5.283 0,-3.069 2.488,-5.558 5.558,-5.558 0.408,0 0.8,0.052 1.181,0.134 -0.38,3.776 -1.358,7.374 -2.824,10.707"
       style="fill:#b58982;fill-opacity:1;fill-rule:nonzero;stroke:none;stroke-width:0.1"
       id="path1000" /><path
       d="m 260.077,439.99 c -0.023,-0.208 -0.062,-0.412 -0.062,-0.629 0,-3.07 2.488,-5.558 5.558,-5.558 1.914,0 3.603,0.97 4.598,2.444 -3.104,1.729 -6.5,3.01 -10.094,3.743"
       style="fill:#b58982;fill-opacity:1;fill-rule:nonzero;stroke:none;stroke-width:0.1"
       id="path1002" /><path
       d="m 247.418,382.847 c -5.263,0 -9.532,-4.268 -9.532,-9.535 l 0.011,-0.223 c 4.571,-2.147 9.669,-3.352 15.054,-3.352 1.136,0 2.255,0.058 3.359,0.162 0.41,1.061 0.643,2.208 0.643,3.413 0,5.267 -4.269,9.535 -9.535,9.535"
       style="fill:#b58982;fill-opacity:1;fill-rule:nonzero;stroke:none;stroke-width:0.1"
       id="path1004" /><path
       d="m 224.378,408.68 c -2.544,0 -4.907,-0.771 -6.872,-2.091 -0.017,-0.455 -0.033,-0.907 -0.033,-1.365 0,-7.943 2.61,-15.276 7.018,-21.19 6.754,0.06 12.215,5.55 12.215,12.319 0,6.81 -5.52,12.327 -12.328,12.327"
       style="fill:#b58982;fill-opacity:1;fill-rule:nonzero;stroke:none;stroke-width:0.1"
       id="path1006" /><path
       d="m 257.604,370.009 c -0.041,0.005 -0.082,0.01 -0.122,0.015 17.455,2.225 30.952,17.137 30.952,35.2 v 0 0 0 c 0,0.018 -0.001,0.036 -0.001,0.054 0,0.006 0,0.01 0,0.016 0,0.013 0,0.026 0,0.039 0,0.007 0,0.013 0,0.02 0,0.012 0,0.024 0,0.035 0,0.007 0,0.014 0,0.021 0,0.011 0,0.022 0,0.033 0,0.008 0,0.016 0,0.024 0,0.01 0,0.02 -10e-4,0.03 0,0.008 0,0.016 0,0.025 0,0.009 0,0.02 0,0.029 0,0.009 0,0.017 0,0.026 0,0.009 0,0.018 -0.001,0.028 0,0.01 0,0.017 0,0.027 0,0.007 0,0.014 0,0.022 -10e-4,0.042 -10e-4,0.083 -0.002,0.125 0,0.004 0,0.006 0,0.01 0,0.012 0,0.026 -10e-4,0.038 0,0.005 0,0.011 0,0.016 0,0.013 0,0.026 0,0.039 -10e-4,0.004 -10e-4,0.009 -10e-4,0.013 0,0.014 0,0.026 0,0.04 -0.001,0.004 -0.001,0.008 -0.001,0.012 0,0.014 0,0.028 -10e-4,0.042 0,0.003 0,0.005 0,0.008 0,0.015 0,0.031 -0.001,0.046 0,0.001 0,0.001 0,0.001 -0.401,17.693 -13.753,32.186 -30.942,34.378 0.041,0.005 0.081,0.01 0.122,0.015 17.555,-2.134 31.156,-17.077 31.156,-35.212 0,-18.133 -13.601,-33.081 -31.156,-35.215"
       style="fill:#0e121a;fill-opacity:1;fill-rule:nonzero;stroke:none;stroke-width:0.1"
       id="path1008" /><path
       d="m 288.433,405.278 c 0,0.006 0,0.011 0,0.016 0,-0.006 0,-0.01 0,-0.016 m 0,0.055 c 0,0.007 0,0.013 0,0.02 0,-0.007 0,-0.013 0,-0.02 m 0,0.055 c 0,0.007 0,0.014 0,0.021 0,-0.007 0,-0.014 0,-0.021 m 0,0.054 c 0,0.008 0,0.016 0,0.024 0,-0.008 0,-0.016 0,-0.024 m -10e-4,0.054 c 0,0.008 0,0.016 0,0.025 0,-0.009 0,-0.017 0,-0.025 m 0,0.054 c 0,0.009 0,0.017 0,0.026 0,-0.009 0,-0.017 0,-0.026 m -0.001,0.054 c 0,0.009 0,0.018 0,0.027 0,-0.01 0,-0.017 0,-0.027 m 0,0.049 c -10e-4,0.041 -10e-4,0.084 -0.002,0.125 0.001,-0.042 0.001,-0.083 0.002,-0.125 m -0.002,0.135 c 0,0.013 0,0.025 -10e-4,0.038 10e-4,-0.012 10e-4,-0.026 10e-4,-0.038 m -10e-4,0.054 c 0,0.013 0,0.025 0,0.039 0,-0.013 0,-0.026 0,-0.039 m -10e-4,0.052 c 0,0.013 0,0.027 0,0.04 0,-0.014 0,-0.026 0,-0.04 m -0.001,0.052 c 0,0.014 0,0.028 -10e-4,0.042 10e-4,-0.014 10e-4,-0.028 10e-4,-0.042 m -10e-4,0.05 c 0,0.015 0,0.031 -0.001,0.046 0.001,-0.015 0.001,-0.031 0.001,-0.046 m -0.001,0.047 c -0.021,0.933 -0.078,1.858 -0.17,2.771 v 0 c -0.015,0.151 -0.031,0.301 -0.048,0.451 -0.001,0.006 -0.002,0.013 -0.003,0.019 0,0.008 -10e-4,0.015 -0.002,0.023 -0.001,0.011 -0.003,0.023 -0.004,0.034 0,0.002 -10e-4,0.004 -10e-4,0.005 -0.827,7.14 -3.776,13.628 -8.198,18.833 -5.257,3.08 -11.377,4.856 -17.905,4.856 -5.304,0 -10.337,-1.164 -14.856,-3.25 -0.674,0.88 -1.736,1.447 -2.931,1.447 -2.034,0 -3.684,-1.65 -3.684,-3.687 0,-0.534 0.113,-1.042 0.318,-1.501 -5.966,-4.436 -10.492,-10.702 -12.746,-17.966 -0.52,0.169 -1.054,0.304 -1.603,0.404 1.511,16.599 14.457,29.884 30.891,31.939 17.189,-2.192 30.541,-16.685 30.942,-34.378 m -28.347,33.947 c -0.023,-0.208 -0.062,-0.412 -0.062,-0.629 0,-3.07 2.488,-5.558 5.558,-5.558 1.914,0 3.603,0.97 4.598,2.444 -3.104,1.729 -6.5,3.01 -10.094,3.743"
       style="fill:#70718d;fill-opacity:1;fill-rule:nonzero;stroke:none;stroke-width:0.1"
       id="path1010" /><path
       d="m 257.482,370.024 c -0.359,0.045 -0.716,0.095 -1.071,0.15 0.347,0.984 0.542,2.037 0.542,3.138 0,5.267 -4.269,9.535 -9.535,9.535 -3.547,0 -6.641,-1.938 -8.283,-4.813 -2.875,2.411 -5.361,5.269 -7.353,8.468 2.989,2.247 4.924,5.823 4.924,9.851 0,5.477 -3.572,10.118 -8.512,11.725 2.254,7.264 6.78,13.53 12.746,17.966 0.574,-1.289 1.865,-2.188 3.366,-2.188 2.038,0 3.689,1.652 3.689,3.689 0,0.843 -0.282,1.619 -0.758,2.24 4.519,2.086 9.552,3.25 14.856,3.25 6.528,0 12.648,-1.776 17.905,-4.856 4.422,-5.205 7.371,-11.693 8.198,-18.833 -0.415,3.582 -1.369,6.998 -2.766,10.175 -2.264,-0.704 -3.915,-2.788 -3.915,-5.283 0,-3.069 2.488,-5.558 5.558,-5.558 0.408,0 0.8,0.052 1.181,0.134 0.092,-0.913 0.149,-1.838 0.17,-2.771 0,0 0,0 0,-0.001 0.001,-0.015 0.001,-0.031 0.001,-0.046 0,-0.003 0,-0.005 0,-0.008 10e-4,-0.014 10e-4,-0.028 10e-4,-0.042 0,-0.004 0,-0.008 0.001,-0.012 0,-0.013 0,-0.027 0,-0.04 0,-0.004 0,-0.009 10e-4,-0.013 0,-0.014 0,-0.026 0,-0.039 0,-0.005 0,-0.011 0,-0.016 10e-4,-0.013 10e-4,-0.025 10e-4,-0.038 0,-0.004 0,-0.006 0,-0.01 0.001,-0.041 0.001,-0.084 0.002,-0.125 0,-0.008 0,-0.015 0,-0.022 0,-0.009 0,-0.018 0,-0.027 0.001,-0.01 0.001,-0.019 0.001,-0.028 0,-0.009 0,-0.017 0,-0.026 0,-0.009 0,-0.02 0,-0.029 0,-0.009 0,-0.017 0,-0.025 10e-4,-0.01 10e-4,-0.02 10e-4,-0.03 0,-0.008 0,-0.016 0,-0.024 0,-0.011 0,-0.022 0,-0.033 0,-0.007 0,-0.014 0,-0.021 0,-0.011 0,-0.023 0,-0.035 0,-0.007 0,-0.013 0,-0.02 0,-0.013 0,-0.026 0,-0.039 0,-0.005 0,-0.01 0,-0.016 0,-0.018 0.001,-0.036 0.001,-0.054 v 0 0 c 0,-18.063 -13.497,-32.975 -30.952,-35.2 m -4.526,31.363 c -3.034,0 -5.495,-2.459 -5.495,-5.491 0,-3.034 2.461,-5.493 5.495,-5.493 3.031,0 5.49,2.459 5.49,5.493 0,3.032 -2.459,5.491 -5.49,5.491 m 28.928,-5.034 c -1.348,0 -2.441,-1.095 -2.441,-2.442 0,-1.35 1.093,-2.445 2.441,-2.445 1.353,0 2.447,1.095 2.447,2.445 0,1.347 -1.094,2.442 -2.447,2.442 m -4.379,14.427 c -1.066,0 -1.935,-0.868 -1.935,-1.935 0,-1.071 0.869,-1.938 1.935,-1.938 1.07,0 1.938,0.867 1.938,1.938 0,1.067 -0.868,1.935 -1.938,1.935 m 10.701,-1.515 c -0.001,0.006 -0.002,0.013 -0.003,0.019 0.001,-0.006 0.002,-0.013 0.003,-0.019 m -0.005,0.042 c -0.001,0.011 -0.003,0.023 -0.004,0.034 10e-4,-0.011 0.003,-0.023 0.004,-0.034"
       style="fill:#70676a;fill-opacity:1;fill-rule:nonzero;stroke:none;stroke-width:0.1"
       id="path1012" /><path
       d="m 252.956,390.403 c -3.034,0 -5.495,2.459 -5.495,5.493 0,3.032 2.461,5.491 5.495,5.491 3.031,0 5.49,-2.459 5.49,-5.491 0,-3.034 -2.459,-5.493 -5.49,-5.493"
       style="fill:#5a4b59;fill-opacity:1;fill-rule:nonzero;stroke:none;stroke-width:0.1"
       id="path1014" /><path
       d="m 244.306,423.856 c -1.501,0 -2.792,0.899 -3.366,2.188 -0.205,0.459 -0.318,0.967 -0.318,1.501 0,2.037 1.65,3.687 3.684,3.687 1.195,0 2.257,-0.567 2.931,-1.447 0.476,-0.621 0.758,-1.397 0.758,-2.24 0,-2.037 -1.651,-3.689 -3.689,-3.689"
       style="fill:#5a4b59;fill-opacity:1;fill-rule:nonzero;stroke:none;stroke-width:0.1"
       id="path1016" /><path
       d="m 281.884,391.466 c -1.348,0 -2.441,1.095 -2.441,2.445 0,1.347 1.093,2.442 2.441,2.442 1.353,0 2.447,-1.095 2.447,-2.442 0,-1.35 -1.094,-2.445 -2.447,-2.445"
       style="fill:#5a4b59;fill-opacity:1;fill-rule:nonzero;stroke:none;stroke-width:0.1"
       id="path1018" /><path
       d="m 277.505,406.907 c -1.066,0 -1.935,0.867 -1.935,1.938 0,1.067 0.869,1.935 1.935,1.935 1.07,0 1.938,-0.868 1.938,-1.935 0,-1.071 -0.868,-1.938 -1.938,-1.938"
       style="fill:#5a4b59;fill-opacity:1;fill-rule:nonzero;stroke:none;stroke-width:0.1"
       id="path1020" /><path
       d="m 287.073,408.68 c -3.07,0 -5.558,2.489 -5.558,5.558 0,2.495 1.651,4.579 3.915,5.283 1.397,-3.177 2.351,-6.593 2.766,-10.175 0,-10e-4 10e-4,-0.003 10e-4,-0.005 10e-4,-0.011 0.003,-0.023 0.004,-0.034 10e-4,-0.008 0.002,-0.015 0.002,-0.023 0.001,-0.006 0.002,-0.013 0.003,-0.019 0.017,-0.15 0.033,-0.3 0.048,-0.451 v 0 c -0.381,-0.082 -0.773,-0.134 -1.181,-0.134"
       style="fill:#5a4b59;fill-opacity:1;fill-rule:nonzero;stroke:none;stroke-width:0.1"
       id="path1022" /><path
       d="m 265.573,433.803 c -3.07,0 -5.558,2.488 -5.558,5.558 0,0.217 0.039,0.421 0.062,0.629 3.594,-0.733 6.99,-2.014 10.094,-3.743 -0.995,-1.474 -2.684,-2.444 -4.598,-2.444"
       style="fill:#5a4b59;fill-opacity:1;fill-rule:nonzero;stroke:none;stroke-width:0.1"
       id="path1024" /><path
       d="m 256.411,370.174 c -6.515,1.018 -12.444,3.807 -17.276,7.86 1.642,2.875 4.736,4.813 8.283,4.813 5.266,0 9.535,-4.268 9.535,-9.535 0,-1.101 -0.195,-2.154 -0.542,-3.138"
       style="fill:#5a4b59;fill-opacity:1;fill-rule:nonzero;stroke:none;stroke-width:0.1"
       id="path1026" /><path
       d="m 231.782,386.502 c -3.383,5.433 -5.338,11.849 -5.338,18.722 0,1.098 0.05,2.185 0.147,3.258 0.549,-0.1 1.083,-0.235 1.603,-0.404 4.94,-1.607 8.512,-6.248 8.512,-11.725 0,-4.028 -1.935,-7.604 -4.924,-9.851"
       style="fill:#5a4b59;fill-opacity:1;fill-rule:nonzero;stroke:none;stroke-width:0.1"
       id="path1028" /></g></svg>
