<?xml version="1.0" encoding="UTF-8" standalone="no"?>
<!-- Created with Inkscape (http://www.inkscape.org/) -->

<svg
   version="1.1"
   id="svg2"
   xml:space="preserve"
   width="94.613335"
   height="94.629333"
   viewBox="0 0 94.613334 94.629334"
   sodipodi:docname="minguante_gibosa.svg"
   inkscape:version="1.1.1 (3bf5ae0d25, 2021-09-20)"
   xmlns:inkscape="http://www.inkscape.org/namespaces/inkscape"
   xmlns:sodipodi="http://sodipodi.sourceforge.net/DTD/sodipodi-0.dtd"
   xmlns="http://www.w3.org/2000/svg"
   xmlns:svg="http://www.w3.org/2000/svg"><defs
     id="defs6"><clipPath
       clipPathUnits="userSpaceOnUse"
       id="clipPath20"><path
         d="M 0,2000 H 5000 V 7000 H 0 Z"
         id="path18" /></clipPath><clipPath
       clipPathUnits="userSpaceOnUse"
       id="clipPath168"><path
         d="m 3092.47,2417.31 c -49.63,10.93 -101.15,16.78 -154.04,16.78 -62.8,0 -123.74,-8.19 -181.84,-23.48 214.56,-155.06 354.55,-407.2 354.55,-691.58 v -266.47 h 345.06 v 266.47 c 0,288.45 -143.95,543.8 -363.73,698.28"
         id="path166" /></clipPath><clipPath
       clipPathUnits="userSpaceOnUse"
       id="clipPath316"><path
         d="m 1413.01,5639.33 c -0.2,0 -0.39,0 -0.6,0 0.2,0 0.4,0 0.6,0 m -3.78,0.02 c -0.02,0 -0.03,0 -0.04,0 0.01,0 0.02,0 0.02,0 0.01,0 0.01,0 0.02,0 m -0.04,0 c -191.27,2.03 -346.2,155.39 -350.86,346.01 1.86,-76.02 27.64,-146.12 70.08,-203.07 15.67,0.14 30.65,3.21 44.41,8.68 14.49,-37.91 35.3,-72.69 61.12,-103.07 9.25,-5.42 18.76,-10.43 28.51,-15.02 l 0.01,-0.04 c 30.76,-14.43 63.91,-24.62 98.72,-29.73 0,0 0.01,0 0.02,-0.01 0.21,-0.03 0.43,-0.06 0.65,-0.09 0.05,-0.01 0.1,-0.02 0.15,-0.02 0.18,-0.03 0.36,-0.05 0.54,-0.08 0.06,-0.01 0.12,-0.02 0.17,-0.03 0.2,-0.02 0.39,-0.05 0.58,-0.08 0.04,0 0.08,-0.01 0.12,-0.01 0.22,-0.03 0.44,-0.07 0.66,-0.1 0.11,-0.01 0.22,-0.03 0.33,-0.04 0.11,-0.02 0.21,-0.03 0.32,-0.05 0.13,-0.01 0.27,-0.03 0.4,-0.05 0.08,-0.01 0.17,-0.02 0.26,-0.03 0.13,-0.02 0.27,-0.04 0.41,-0.06 0.08,-0.01 0.15,-0.02 0.22,-0.03 0.16,-0.02 0.31,-0.04 0.47,-0.06 v 0 c 0.59,-0.08 1.19,-0.16 1.78,-0.23 0.03,0 0.04,-0.01 0.07,-0.01 0.18,-0.02 0.38,-0.05 0.57,-0.07 0.01,0 0.03,0 0.04,-0.01 7.92,-0.98 15.92,-1.71 23.99,-2.16 0.01,0 0.03,0 0.04,0 0.2,-0.01 0.39,-0.02 0.59,-0.03 0.02,0 0.03,0 0.04,-0.01 0.82,-0.04 1.63,-0.08 2.45,-0.12 0.01,0 0.02,0 0.03,0 0.17,-0.01 0.35,-0.02 0.53,-0.03 0.05,0 0.1,0 0.15,0 0.16,-0.01 0.34,-0.02 0.5,-0.02 0.05,-0.01 0.11,-0.01 0.16,-0.01 0.17,-0.01 0.34,-0.02 0.51,-0.02 0.03,0 0.06,-0.01 0.1,-0.01 0.55,-0.02 1.09,-0.04 1.64,-0.06 0.07,0 0.14,-0.01 0.21,-0.01 0.14,-0.01 0.29,-0.01 0.44,-0.02 0.08,0 0.16,0 0.24,0 0.15,-0.01 0.29,-0.01 0.44,-0.02 0.08,0 0.16,0 0.24,-0.01 0.15,0 0.29,-0.01 0.43,-0.01 0.09,0 0.17,-0.01 0.26,-0.01 0.24,-0.01 0.49,-0.01 0.73,-0.02 0.11,0 0.22,-0.01 0.33,-0.01 0.12,0 0.25,-0.01 0.37,-0.01 0.11,0 0.21,-0.01 0.32,-0.01 0.12,0 0.26,-0.01 0.38,-0.01 0.11,0 0.21,0 0.33,-0.01 0.11,0 0.24,0 0.36,0 0.12,-0.01 0.24,-0.01 0.37,-0.01 0.1,-0.01 0.21,-0.01 0.31,-0.01 0.22,0 0.45,-0.01 0.67,-0.01 0.09,-0.01 0.17,-0.01 0.26,-0.01 0.14,0 0.29,0 0.44,-0.01 0.1,0 0.2,0 0.3,0 0.14,0 0.28,-0.01 0.42,-0.01 0.09,0 0.19,0 0.28,0 0.15,0 0.3,-0.01 0.45,-0.01 0.08,0 0.17,0 0.26,0 0.18,0 0.36,-0.01 0.54,-0.01 0.04,0 0.09,0 0.14,0 m -350.97,354.84 c 0,196 158.82,354.85 354.79,354.85 176.09,0 322.24,-128.28 350.04,-296.53 -0.5,3.04 -1.04,6.06 -1.62,9.07 -11.76,61.09 -39.19,116.56 -77.95,162.17 -52.57,30.8 -113.77,48.56 -179.06,48.56 -53.03,0 -103.37,-11.64 -148.56,-32.5 -6.73,8.81 -17.35,14.49 -29.31,14.49 -20.34,0 -36.83,-16.52 -36.83,-36.9 0,-5.34 1.13,-10.42 3.17,-15 -59.65,-44.36 -104.91,-107.02 -127.45,-179.66 -12.01,3.91 -24.84,6.03 -38.16,6.03 -25.44,0 -49.08,-7.7 -68.73,-20.92 -0.17,-4.55 -0.33,-9.07 -0.33,-13.66 m 426.04,347.68 c -0.24,-2.08 -0.62,-4.14 -0.62,-6.3 0,-30.69 24.88,-55.57 55.59,-55.57 19.13,0 36.02,9.68 45.96,24.43 -31.04,17.28 -64.98,30.1 -100.93,37.44 m 283.56,-347.13 c 0,0.06 0,0.11 0,0.16 0,-0.06 0,-0.1 0,-0.16 m 0,0.55 c 0,0.07 0,0.13 0,0.2 0,-0.06 0,-0.14 0,-0.2 m 0,0.55 c 0,0.07 0,0.14 0,0.21 0,-0.07 0,-0.14 0,-0.21 m 0,0.54 c 0,0.08 -0.01,0.16 -0.01,0.24 0,-0.08 0.01,-0.16 0.01,-0.24 m -0.01,0.54 c 0,0.08 0,0.16 0,0.24 0,-0.08 0,-0.16 0,-0.24 m 0,0.55 c 0,0.08 0,0.16 0,0.24 0,-0.08 0,-0.16 0,-0.24 m -0.01,0.55 c 0,0.08 0,0.16 0,0.23 0,-0.07 0,-0.15 0,-0.23 m 0,0.54 c -0.01,0.16 -0.01,0.31 -0.01,0.47 0,-0.15 0,-0.32 0.01,-0.47 m -0.01,0.76 c -0.01,0.09 -0.01,0.18 -0.01,0.27 0,-0.09 0,-0.17 0.01,-0.27 m -0.01,0.54 c 0,0.1 -0.01,0.19 -0.01,0.29 0,-0.1 0.01,-0.19 0.01,-0.29 m -0.01,0.54 c 0,0.1 0,0.2 -0.01,0.3 0.01,-0.11 0.01,-0.19 0.01,-0.3 m -0.01,0.53 c 0,0.11 0,0.21 -0.01,0.32 0.01,-0.11 0.01,-0.21 0.01,-0.32 m -0.01,0.54 c 0,0.1 -0.01,0.21 -0.01,0.32 0,-0.11 0.01,-0.21 0.01,-0.32 m -0.01,0.52 c 0,0.12 -0.01,0.23 -0.01,0.35 0,-0.11 0.01,-0.24 0.01,-0.35 m -0.01,0.51 c -0.01,0.13 -0.01,0.26 -0.01,0.39 0,-0.13 0,-0.26 0.01,-0.39 m -0.01,0.4 c -0.22,9.16 -0.79,18.23 -1.69,27.21 v 0 c 0.9,-8.98 1.47,-18.06 1.69,-27.21"
         id="path314" /></clipPath></defs><sodipodi:namedview
     id="namedview4"
     pagecolor="#505050"
     bordercolor="#eeeeee"
     borderopacity="1"
     inkscape:pageshadow="0"
     inkscape:pageopacity="0"
     inkscape:pagecheckerboard="0"
     showgrid="false"
     fit-margin-top="0"
     fit-margin-left="0"
     fit-margin-right="0"
     fit-margin-bottom="0"
     inkscape:zoom="2"
     inkscape:cx="-68.5"
     inkscape:cy="5.25"
     inkscape:window-width="1259"
     inkscape:window-height="1374"
     inkscape:window-x="10"
     inkscape:window-y="50"
     inkscape:window-maximized="1"
     inkscape:current-layer="g8" /><g
     id="g8"
     inkscape:groupmode="layer"
     inkscape:label="ink_ext_XXXXXX"
     transform="matrix(1.3333333,0,0,-1.3333333,-141.096,717.07465)"><path
       d="m 176.782,502.322 c 0,-19.598 -15.886,-35.488 -35.481,-35.488 -19.597,0 -35.479,15.89 -35.479,35.488 0,19.599 15.882,35.484 35.479,35.484 19.595,0 35.481,-15.885 35.481,-35.484"
       style="fill:#fffffe;fill-opacity:1;fill-rule:nonzero;stroke:none;stroke-width:0.1"
       id="path780" /><path
       d="m 150.442,530.133 c -19.597,0 -35.486,-15.887 -35.486,-35.486 0,-8.756 3.18,-16.769 8.438,-22.955 5.262,-3.083 11.373,-4.858 17.907,-4.858 19.595,0 35.481,15.89 35.481,35.488 0,8.759 -3.175,16.764 -8.434,22.955 -5.257,3.08 -11.377,4.856 -17.906,4.856"
       style="fill:#fae0aa;fill-opacity:1;fill-rule:nonzero;stroke:none;stroke-width:0.1"
       id="path782" /><path
       d="m 146.796,492.993 c 0,-3.033 -2.459,-5.492 -5.492,-5.492 -3.032,0 -5.493,2.459 -5.493,5.492 0,3.033 2.461,5.491 5.493,5.491 3.033,0 5.492,-2.458 5.492,-5.491"
       style="fill:#b58982;fill-opacity:1;fill-rule:nonzero;stroke:none;stroke-width:0.1"
       id="path784" /><path
       d="m 136.344,524.643 c 0,-2.037 -1.65,-3.689 -3.689,-3.689 -2.034,0 -3.683,1.652 -3.683,3.689 0,2.037 1.649,3.689 3.683,3.689 2.039,0 3.689,-1.652 3.689,-3.689"
       style="fill:#b58982;fill-opacity:1;fill-rule:nonzero;stroke:none;stroke-width:0.1"
       id="path786" /><path
       d="m 172.681,491.009 c 0,-1.349 -1.096,-2.444 -2.448,-2.444 -1.349,0 -2.44,1.095 -2.44,2.444 0,1.347 1.091,2.443 2.44,2.443 1.352,0 2.448,-1.096 2.448,-2.443"
       style="fill:#b58982;fill-opacity:1;fill-rule:nonzero;stroke:none;stroke-width:0.1"
       id="path788" /><path
       d="m 167.793,505.942 c 0,-1.07 -0.868,-1.937 -1.938,-1.937 -1.068,0 -1.935,0.867 -1.935,1.937 0,1.068 0.867,1.936 1.935,1.936 1.07,0 1.938,-0.868 1.938,-1.936"
       style="fill:#b58982;fill-opacity:1;fill-rule:nonzero;stroke:none;stroke-width:0.1"
       id="path790" /><path
       d="m 173.777,516.619 c -2.261,-0.703 -3.911,-2.788 -3.911,-5.283 0,-3.069 2.485,-5.557 5.555,-5.557 0.41,0 0.801,0.051 1.183,0.134 -0.38,3.775 -1.358,7.373 -2.827,10.706"
       style="fill:#b58982;fill-opacity:1;fill-rule:nonzero;stroke:none;stroke-width:0.1"
       id="path792" /><path
       d="m 148.426,537.089 c -0.024,-0.21 -0.062,-0.414 -0.062,-0.631 0,-3.068 2.488,-5.557 5.559,-5.557 1.913,0 3.602,0.969 4.597,2.445 -3.105,1.728 -6.499,3.009 -10.094,3.743"
       style="fill:#b58982;fill-opacity:1;fill-rule:nonzero;stroke:none;stroke-width:0.1"
       id="path794" /><path
       d="m 135.768,479.946 c -5.265,0 -9.532,-4.27 -9.532,-9.536 l 0.01,-0.224 c 4.571,-2.145 9.67,-3.352 15.055,-3.352 1.134,0 2.255,0.059 3.359,0.163 0.409,1.062 0.643,2.208 0.643,3.413 0,5.266 -4.27,9.536 -9.535,9.536"
       style="fill:#b58982;fill-opacity:1;fill-rule:nonzero;stroke:none;stroke-width:0.1"
       id="path796" /><path
       d="m 112.728,505.779 c -2.544,0 -4.908,-0.771 -6.873,-2.093 -0.017,-0.454 -0.033,-0.907 -0.033,-1.364 0,-7.943 2.611,-15.277 7.019,-21.191 6.753,0.061 12.214,5.551 12.214,12.321 0,6.808 -5.519,12.327 -12.327,12.327"
       style="fill:#b58982;fill-opacity:1;fill-rule:nonzero;stroke:none;stroke-width:0.1"
       id="path798" /><path
       d="m 141.301,466.834 c -0.02,0 -0.039,0 -0.06,0 v 0 c 0.021,0 0.04,0 0.06,0 v 0 0 c 0.018,0 0.034,0 0.052,0 -0.017,0 -0.034,0 -0.052,0"
       style="fill:#0e121a;fill-opacity:1;fill-rule:nonzero;stroke:none;stroke-width:0.1"
       id="path800" /><path
       d="m 141.301,466.834 c -0.02,0 -0.039,0 -0.06,0 0.02,0 0.04,0 0.06,0"
       style="fill:#70718d;fill-opacity:1;fill-rule:nonzero;stroke:none;stroke-width:0.1"
       id="path802" /><path
       d="m 141.212,466.834 c -0.01,0 -0.021,0 -0.032,0 0.009,0 0.019,0 0.028,0 0.002,0 0.003,0 0.004,0"
       style="fill:#70718d;fill-opacity:1;fill-rule:nonzero;stroke:none;stroke-width:0.1"
       id="path804" /><path
       d="m 141.391,466.834 c 0.004,0 0.005,0 0.009,0 -0.003,0 -0.006,0 -0.009,0"
       style="fill:#0e121a;fill-opacity:1;fill-rule:nonzero;stroke:none;stroke-width:0.1"
       id="path806" /><path
       d="m 141.141,466.834 c -0.007,0 -0.015,0 -0.022,0 0.004,0 0.009,0 0.014,0 0.003,0 0.005,0 0.008,0"
       style="fill:#70718d;fill-opacity:1;fill-rule:nonzero;stroke:none;stroke-width:0.1"
       id="path808" /><path
       d="m 141.1,466.835 c -0.016,0 -0.029,0 -0.045,0 0.002,0 0.004,0 0.006,0 0.009,0 0.018,0 0.027,0 0.004,0 0.008,0 0.012,0"
       style="fill:#70718d;fill-opacity:1;fill-rule:nonzero;stroke:none;stroke-width:0.1"
       id="path810" /><path
       d="m 141.041,466.835 c -0.013,0 -0.029,0 -0.042,0 0.005,0 0.011,0 0.016,0 0.009,0 0.017,0 0.026,0"
       style="fill:#70718d;fill-opacity:1;fill-rule:nonzero;stroke:none;stroke-width:0.1"
       id="path812" /><path
       d="m 140.983,466.835 c -0.022,0.001 -0.042,0.001 -0.064,0.001 10e-4,0 0.002,0 0.003,0 0.02,0 0.04,0 0.061,-0.001"
       style="fill:#70718d;fill-opacity:1;fill-rule:nonzero;stroke:none;stroke-width:0.1"
       id="path814" /><path
       d="m 140.919,466.836 c -19.125,0.203 -34.618,15.538 -35.086,34.598 0.187,-7.601 2.765,-14.61 7.008,-20.303 1.567,0.014 3.065,0.321 4.441,0.868 1.449,-3.791 3.53,-7.269 6.112,-10.307 0.925,-0.542 1.876,-1.044 2.851,-1.502 l 10e-4,-0.004 c 2.317,-1.088 4.771,-1.934 7.328,-2.504 10e-4,0 10e-4,0 0.002,-0.001 0.024,-0.005 0.047,-0.01 0.07,-0.015 0.008,-0.002 0.016,-0.004 0.024,-0.005 0.012,-0.003 0.025,-0.006 0.037,-0.009 0.017,-0.003 0.034,-0.007 0.051,-0.011 0.003,0 0.005,-0.001 0.009,-0.002 2.111,-0.458 4.293,-0.728 6.527,-0.791 h 10e-4 c 0.017,0 0.034,-0.001 0.051,-0.001 0.006,0 0.012,-10e-4 0.018,-10e-4 0.015,0 0.031,-10e-4 0.046,-10e-4 0.008,0 0.016,0 0.023,-0.001 0.015,0 0.03,0 0.044,-10e-4 0.009,0 0.017,0 0.026,0 0.014,0 0.028,-0.001 0.043,-0.001 0.007,0 0.015,0 0.023,-10e-4 0.025,0 0.049,-0.001 0.074,-0.001 0.012,0 0.024,0 0.035,-10e-4 0.012,0 0.023,0 0.035,0 0.012,0 0.024,-10e-4 0.036,-10e-4 0.011,0 0.022,0 0.033,0 0.013,0 0.027,-0.001 0.04,-0.001 0.01,0 0.02,0 0.03,0 0.016,0 0.033,-10e-4 0.05,-10e-4 0.005,0 0.011,0 0.017,0"
       style="fill:#70718d;fill-opacity:1;fill-rule:nonzero;stroke:none;stroke-width:0.1"
       id="path816" /><path
       d="m 141.301,466.834 c 0.018,0 0.035,0 0.052,0 v 0 c -0.018,0 -0.034,0 -0.052,0 m 0.059,0 c 1.114,0.002 2.215,0.06 3.3,0.163 0.11,0.287 0.208,0.58 0.292,0.879 0.802,-0.198 1.614,-0.368 2.436,-0.51 -1.948,-0.337 -3.946,-0.526 -5.988,-0.532 -0.004,0 -0.005,0 -0.009,0 -0.01,0 -0.02,0 -0.031,0 m -0.139,0 c -0.004,0 -0.005,0 -0.009,0 v 0 c -10e-4,0 -0.002,0 -0.004,0 0.004,0 0.009,0 0.013,0 m -0.061,0 c -0.006,0 -0.013,0 -0.019,0 v 0 c -0.003,0 -0.005,0 -0.008,0 0.009,0 0.018,0 0.027,0 m -0.072,10e-4 c -0.009,0 -0.018,0 -0.027,0 0.009,0 0.018,0 0.027,0 m -0.073,0 c -0.005,0 -0.011,0 -0.016,0 v 0 c -0.004,0 -0.005,0 -0.009,0 0.008,0 0.017,0 0.025,0 m -0.093,0.001 c -0.001,0 -0.002,0 -0.003,0 v 0 0 0 c -0.006,0 -0.012,0 -0.017,0 0.006,0 0.013,0 0.02,0 m -0.07,10e-4 c -0.01,0 -0.02,0 -0.03,0 0.01,0 0.02,0 0.03,0 m -0.07,0.001 c -0.011,0 -0.022,0 -0.033,0 0.011,0 0.022,0 0.033,0 m -0.069,10e-4 c -0.012,0 -0.023,0 -0.035,0 0.012,0 0.024,0 0.035,0 m -0.07,10e-4 c -0.025,0 -0.049,0.001 -0.074,0.001 0.025,0 0.05,-0.001 0.074,-0.001 m -0.097,0.002 c -0.015,0 -0.029,0.001 -0.043,0.001 0.014,0 0.028,-0.001 0.043,-0.001 m -0.069,0.001 c -0.014,10e-4 -0.029,10e-4 -0.044,10e-4 0.015,0 0.03,0 0.044,-10e-4 m -0.067,0.002 c -0.015,0 -0.031,10e-4 -0.046,10e-4 0.015,0 0.031,-10e-4 0.046,-10e-4 m -0.064,0.002 c -0.017,0 -0.034,0.001 -0.051,0.001 0.017,0 0.034,-0.001 0.051,-0.001 m -0.052,0.001 c -2.234,0.063 -4.416,0.333 -6.527,0.791 2.111,-0.458 4.293,-0.728 6.527,-0.791 m -6.536,0.793 c -0.017,0.004 -0.034,0.008 -0.051,0.011 0.017,-0.003 0.034,-0.007 0.051,-0.011 m -0.088,0.02 c -0.008,10e-4 -0.016,0.003 -0.024,0.005 0.008,-0.002 0.016,-0.004 0.024,-0.005 m -0.094,0.02 c -0.001,0.001 -0.001,0.001 -0.002,0.001 10e-4,0 0.002,0 0.002,-0.001 m -7.331,2.509 c -0.975,0.458 -1.926,0.96 -2.851,1.502 -2.582,3.038 -4.663,6.516 -6.112,10.307 1.924,0.765 3.61,2 4.915,3.564 1.734,-3.229 3.954,-6.159 6.562,-8.691 -1.566,-1.699 -2.523,-3.969 -2.523,-6.462 l 0.009,-0.22"
       style="fill:#70676a;fill-opacity:1;fill-rule:nonzero;stroke:none;stroke-width:0.1"
       id="path818" /><path
       d="m 141.301,466.834 v 0 c -0.02,0 -0.04,0 -0.06,0 v 0 c -0.006,0 -0.014,0 -0.02,0 -0.004,0 -0.009,0 -0.013,0 -0.009,0 -0.019,0 -0.028,0 v 0 c -0.007,0 -0.013,0 -0.02,0 -0.009,0 -0.018,0 -0.027,0 -0.005,0 -0.01,0 -0.014,0 v 0 c -0.006,10e-4 -0.013,10e-4 -0.019,10e-4 v 0 c -0.004,0 -0.008,0 -0.012,0 -0.009,0 -0.018,0 -0.027,0 -0.002,0 -0.004,0 -0.006,0 v 0 c -0.005,0 -0.009,0 -0.014,0 v 0 c -0.009,0 -0.017,0 -0.026,0 -0.008,0 -0.017,0 -0.025,0 -0.002,0 -0.005,0 -0.007,0 v 0 c -0.021,0.001 -0.041,0.001 -0.061,0.001 -0.007,0 -0.014,0 -0.02,0 -0.017,0 -0.034,10e-4 -0.05,10e-4 -0.01,0 -0.02,0 -0.03,0 -0.013,0 -0.027,0.001 -0.04,0.001 -0.011,0 -0.022,0 -0.033,0 -0.012,0 -0.024,10e-4 -0.036,10e-4 -0.011,0 -0.023,0 -0.035,0 -0.011,10e-4 -0.023,10e-4 -0.035,10e-4 -0.024,0 -0.049,0.001 -0.074,0.001 -0.008,10e-4 -0.016,10e-4 -0.023,10e-4 -0.015,0 -0.029,0.001 -0.043,0.001 -0.009,0 -0.017,0 -0.026,0 -0.014,10e-4 -0.029,10e-4 -0.044,10e-4 -0.007,0.001 -0.015,0.001 -0.023,0.001 -0.015,0 -0.031,10e-4 -0.046,10e-4 -0.006,0 -0.012,10e-4 -0.018,10e-4 -0.017,0 -0.034,0.001 -0.051,0.001 h -10e-4 c -2.234,0.063 -4.416,0.333 -6.527,0.791 -0.004,10e-4 -0.006,0.002 -0.009,0.002 -0.017,0.004 -0.034,0.008 -0.051,0.011 -0.012,0.003 -0.025,0.006 -0.037,0.009 -0.008,10e-4 -0.016,0.003 -0.024,0.005 -0.023,0.005 -0.046,0.01 -0.07,0.015 0,0.001 -0.001,0.001 -0.002,0.001 -2.557,0.57 -5.011,1.416 -7.328,2.504 l -10e-4,0.004 -0.009,0.22 c 0,2.493 0.957,4.763 2.523,6.462 4.435,-4.308 9.993,-7.466 16.193,-8.996 -0.084,-0.299 -0.182,-0.592 -0.292,-0.879 -1.085,-0.103 -2.186,-0.161 -3.3,-0.163 -0.002,0 -0.004,0 -0.007,0 -0.017,0 -0.034,0 -0.052,0 v 0"
       style="fill:#5a4b59;fill-opacity:1;fill-rule:nonzero;stroke:none;stroke-width:0.1"
       id="path820" /><path
       d="m 105.833,501.444 c 0,0.012 -0.001,0.026 -0.001,0.038 0,-0.013 0.001,-0.026 0.001,-0.038"
       style="fill:#70718d;fill-opacity:1;fill-rule:nonzero;stroke:none;stroke-width:0.1"
       id="path822" /><path
       d="m 105.832,501.494 c -10e-4,0.012 -10e-4,0.026 -10e-4,0.038 0,-0.012 0,-0.026 10e-4,-0.038"
       style="fill:#70718d;fill-opacity:1;fill-rule:nonzero;stroke:none;stroke-width:0.1"
       id="path824" /><path
       d="m 105.831,501.537 c -0.001,0.028 -0.001,0.056 -0.002,0.083 0.001,-0.028 0.001,-0.055 0.002,-0.083"
       style="fill:#70718d;fill-opacity:1;fill-rule:nonzero;stroke:none;stroke-width:0.1"
       id="path826" /><path
       d="m 105.829,501.626 c 0,0.009 -10e-4,0.022 -10e-4,0.031 0,-0.01 10e-4,-0.021 10e-4,-0.031"
       style="fill:#70718d;fill-opacity:1;fill-rule:nonzero;stroke:none;stroke-width:0.1"
       id="path828" /><path
       d="m 105.828,501.678 c 0,0.01 0,0.02 -0.001,0.029 0.001,-0.01 0.001,-0.019 0.001,-0.029"
       style="fill:#70718d;fill-opacity:1;fill-rule:nonzero;stroke:none;stroke-width:0.1"
       id="path830" /><path
       d="m 105.827,501.731 c 0,0.01 0,0.018 0,0.028 0,-0.009 0,-0.018 0,-0.028"
       style="fill:#70718d;fill-opacity:1;fill-rule:nonzero;stroke:none;stroke-width:0.1"
       id="path832" /><path
       d="m 105.826,501.785 c 0,0.008 0,0.017 0,0.025 0,-0.009 0,-0.016 0,-0.025"
       style="fill:#70718d;fill-opacity:1;fill-rule:nonzero;stroke:none;stroke-width:0.1"
       id="path834" /><path
       d="m 105.825,501.859 c 0,0.006 0,0.013 0,0.019 0,-0.006 0,-0.013 0,-0.019"
       style="fill:#70718d;fill-opacity:1;fill-rule:nonzero;stroke:none;stroke-width:0.1"
       id="path836" /><path
       d="m 105.825,501.912 c -0.001,0.007 -0.001,0.014 -0.001,0.022 0,-0.008 0,-0.015 0.001,-0.022"
       style="fill:#70718d;fill-opacity:1;fill-rule:nonzero;stroke:none;stroke-width:0.1"
       id="path838" /><path
       d="m 105.824,501.965 c 0,0.006 0,0.015 0,0.021 0,-0.007 0,-0.014 0,-0.021"
       style="fill:#70718d;fill-opacity:1;fill-rule:nonzero;stroke:none;stroke-width:0.1"
       id="path840" /><path
       d="m 105.823,502.023 c 0,0.005 0,0.011 0,0.015 0,-0.004 0,-0.01 0,-0.015"
       style="fill:#70718d;fill-opacity:1;fill-rule:nonzero;stroke:none;stroke-width:0.1"
       id="path842" /><path
       d="m 105.823,502.091 c 0,0.002 0,0.007 0,0.009 0,-0.003 0,-0.006 0,-0.009"
       style="fill:#70718d;fill-opacity:1;fill-rule:nonzero;stroke:none;stroke-width:0.1"
       id="path844" /><path
       d="m 105.823,502.143 c 0,0.007 0,0.012 0,0.019 0,-0.006 0,-0.013 0,-0.019"
       style="fill:#70718d;fill-opacity:1;fill-rule:nonzero;stroke:none;stroke-width:0.1"
       id="path846" /><path
       d="m 105.822,502.197 c 0,0.006 0,0.013 0,0.019 0,-0.007 0,-0.012 0,-0.019"
       style="fill:#70718d;fill-opacity:1;fill-rule:nonzero;stroke:none;stroke-width:0.1"
       id="path848" /><path
       d="m 105.822,502.253 c 0,0.004 0,0.011 0,0.016 0,-0.006 0,-0.011 0,-0.016"
       style="fill:#70718d;fill-opacity:1;fill-rule:nonzero;stroke:none;stroke-width:0.1"
       id="path850" /><path
       d="m 141.401,537.805 c -0.005,0 -0.007,0 -0.012,0 0.004,0 0.008,0 0.012,0 m -0.048,0.001 c -0.017,0 -0.034,0 -0.052,0 0.018,0 0.035,0 0.052,0"
       style="fill:#0e121a;fill-opacity:1;fill-rule:nonzero;stroke:none;stroke-width:0.1"
       id="path852" /><path
       d="m 105.822,502.322 c 0,19.599 15.882,35.484 35.479,35.484 v 0 c 0.018,0 0.035,0 0.052,0 0.012,0 0.024,0 0.036,-0.001 0.005,0 0.007,0 0.012,0 2.041,-0.005 4.039,-0.194 5.987,-0.531 -13.682,-2.367 -24.679,-12.561 -28.201,-25.809 -1.073,-1.99 -1.962,-4.094 -2.643,-6.288 -1.201,0.391 -2.484,0.602 -3.816,0.602 -2.544,0 -4.908,-0.771 -6.873,-2.093 -0.017,-0.454 -0.033,-0.907 -0.033,-1.364"
       style="fill:#70718d;fill-opacity:1;fill-rule:nonzero;stroke:none;stroke-width:0.1"
       id="path854" /><path
       d="m 118.067,504.565 c -0.49,0.237 -0.999,0.441 -1.523,0.612 0.681,2.194 1.57,4.298 2.643,6.288 -0.591,-2.221 -0.972,-4.53 -1.12,-6.9"
       style="fill:#70676a;fill-opacity:1;fill-rule:nonzero;stroke:none;stroke-width:0.1"
       id="path856" /><path
       d="m 112.841,481.131 c -4.243,5.693 -6.821,12.702 -7.008,20.303 v 0 c 0,0.003 0,0.006 0,0.01 v 0 c 0,0.012 -0.001,0.025 -0.001,0.038 v 0 c 0,0.004 0,0.008 0,0.012 v 0 c -10e-4,0.012 -10e-4,0.026 -10e-4,0.038 v 0 c 0,0.002 0,0.003 0,0.005 v 0 c -0.001,0.028 -0.001,0.055 -0.002,0.083 v 0 c 0,0.002 0,0.004 0,0.006 v 0 c 0,0.01 -10e-4,0.021 -10e-4,0.031 v 0 c 0,0.007 0,0.014 0,0.021 v 0 c 0,0.01 0,0.019 -0.001,0.029 v 0 c 0,0.008 0,0.016 0,0.024 v 0 c 0,0.01 0,0.019 0,0.028 v 0 c -0.001,0.008 -0.001,0.018 -0.001,0.026 v 0 c 0,0.009 0,0.016 0,0.025 v 0 c 0,0.017 -10e-4,0.033 -10e-4,0.049 v 0 c 0,0.006 0,0.013 0,0.019 v 0 c 0,0.012 0,0.022 0,0.034 v 0 c -0.001,0.007 -0.001,0.014 -0.001,0.022 v 0 c 0,0.01 0,0.021 0,0.031 v 0 c 0,0.007 0,0.014 0,0.021 v 0 c 0,0.013 0,0.024 -0.001,0.037 v 0 c 0,0.005 0,0.011 0,0.015 v 0 c 0,0.018 0,0.035 0,0.053 v 0 c 0,0.003 0,0.006 0,0.009 v 0 c 0,0.015 0,0.028 0,0.043 v 0 c 0,0.006 0,0.013 0,0.019 v 0 c -10e-4,0.011 -10e-4,0.025 -10e-4,0.035 v 0 c 0,0.007 0,0.012 0,0.019 v 0 c 0,0.013 0,0.024 0,0.037 v 0 c 0,0.005 0,0.01 0,0.016 v 0 c 0,0.018 0,0.035 0,0.053 v 0 0 c 0,0.457 0.016,0.91 0.033,1.364 1.965,1.322 4.329,2.093 6.873,2.093 1.332,0 2.615,-0.211 3.816,-0.602 0.524,-0.171 1.033,-0.375 1.523,-0.612 -0.046,-0.742 -0.069,-1.489 -0.069,-2.243 0,-6.062 1.52,-11.768 4.199,-16.759 -1.305,-1.564 -2.991,-2.799 -4.915,-3.564 -1.376,-0.547 -2.874,-0.854 -4.441,-0.868"
       style="fill:#5a4b59;fill-opacity:1;fill-rule:nonzero;stroke:none;stroke-width:0.1"
       id="path858" /></g></svg>
