<?xml version="1.0" encoding="UTF-8" standalone="no"?>
<!-- Created with Inkscape (http://www.inkscape.org/) -->

<svg
   version="1.1"
   id="svg2"
   xml:space="preserve"
   width="94.614662"
   height="94.627998"
   viewBox="0 0 94.614662 94.627998"
   sodipodi:docname="minguante.svg"
   inkscape:version="1.1.1 (3bf5ae0d25, 2021-09-20)"
   xmlns:inkscape="http://www.inkscape.org/namespaces/inkscape"
   xmlns:sodipodi="http://sodipodi.sourceforge.net/DTD/sodipodi-0.dtd"
   xmlns="http://www.w3.org/2000/svg"
   xmlns:svg="http://www.w3.org/2000/svg"><defs
     id="defs6"><clipPath
       clipPathUnits="userSpaceOnUse"
       id="clipPath20"><path
         d="M 0,2000 H 5000 V 7000 H 0 Z"
         id="path18" /></clipPath><clipPath
       clipPathUnits="userSpaceOnUse"
       id="clipPath168"><path
         d="m 3092.47,2417.31 c -49.63,10.93 -101.15,16.78 -154.04,16.78 -62.8,0 -123.74,-8.19 -181.84,-23.48 214.56,-155.06 354.55,-407.2 354.55,-691.58 v -266.47 h 345.06 v 266.47 c 0,288.45 -143.95,543.8 -363.73,698.28"
         id="path166" /></clipPath><clipPath
       clipPathUnits="userSpaceOnUse"
       id="clipPath316"><path
         d="m 1413.01,5639.33 c -0.2,0 -0.39,0 -0.6,0 0.2,0 0.4,0 0.6,0 m -3.78,0.02 c -0.02,0 -0.03,0 -0.04,0 0.01,0 0.02,0 0.02,0 0.01,0 0.01,0 0.02,0 m -0.04,0 c -191.27,2.03 -346.2,155.39 -350.86,346.01 1.86,-76.02 27.64,-146.12 70.08,-203.07 15.67,0.14 30.65,3.21 44.41,8.68 14.49,-37.91 35.3,-72.69 61.12,-103.07 9.25,-5.42 18.76,-10.43 28.51,-15.02 l 0.01,-0.04 c 30.76,-14.43 63.91,-24.62 98.72,-29.73 0,0 0.01,0 0.02,-0.01 0.21,-0.03 0.43,-0.06 0.65,-0.09 0.05,-0.01 0.1,-0.02 0.15,-0.02 0.18,-0.03 0.36,-0.05 0.54,-0.08 0.06,-0.01 0.12,-0.02 0.17,-0.03 0.2,-0.02 0.39,-0.05 0.58,-0.08 0.04,0 0.08,-0.01 0.12,-0.01 0.22,-0.03 0.44,-0.07 0.66,-0.1 0.11,-0.01 0.22,-0.03 0.33,-0.04 0.11,-0.02 0.21,-0.03 0.32,-0.05 0.13,-0.01 0.27,-0.03 0.4,-0.05 0.08,-0.01 0.17,-0.02 0.26,-0.03 0.13,-0.02 0.27,-0.04 0.41,-0.06 0.08,-0.01 0.15,-0.02 0.22,-0.03 0.16,-0.02 0.31,-0.04 0.47,-0.06 v 0 c 0.59,-0.08 1.19,-0.16 1.78,-0.23 0.03,0 0.04,-0.01 0.07,-0.01 0.18,-0.02 0.38,-0.05 0.57,-0.07 0.01,0 0.03,0 0.04,-0.01 7.92,-0.98 15.92,-1.71 23.99,-2.16 0.01,0 0.03,0 0.04,0 0.2,-0.01 0.39,-0.02 0.59,-0.03 0.02,0 0.03,0 0.04,-0.01 0.82,-0.04 1.63,-0.08 2.45,-0.12 0.01,0 0.02,0 0.03,0 0.17,-0.01 0.35,-0.02 0.53,-0.03 0.05,0 0.1,0 0.15,0 0.16,-0.01 0.34,-0.02 0.5,-0.02 0.05,-0.01 0.11,-0.01 0.16,-0.01 0.17,-0.01 0.34,-0.02 0.51,-0.02 0.03,0 0.06,-0.01 0.1,-0.01 0.55,-0.02 1.09,-0.04 1.64,-0.06 0.07,0 0.14,-0.01 0.21,-0.01 0.14,-0.01 0.29,-0.01 0.44,-0.02 0.08,0 0.16,0 0.24,0 0.15,-0.01 0.29,-0.01 0.44,-0.02 0.08,0 0.16,0 0.24,-0.01 0.15,0 0.29,-0.01 0.43,-0.01 0.09,0 0.17,-0.01 0.26,-0.01 0.24,-0.01 0.49,-0.01 0.73,-0.02 0.11,0 0.22,-0.01 0.33,-0.01 0.12,0 0.25,-0.01 0.37,-0.01 0.11,0 0.21,-0.01 0.32,-0.01 0.12,0 0.26,-0.01 0.38,-0.01 0.11,0 0.21,0 0.33,-0.01 0.11,0 0.24,0 0.36,0 0.12,-0.01 0.24,-0.01 0.37,-0.01 0.1,-0.01 0.21,-0.01 0.31,-0.01 0.22,0 0.45,-0.01 0.67,-0.01 0.09,-0.01 0.17,-0.01 0.26,-0.01 0.14,0 0.29,0 0.44,-0.01 0.1,0 0.2,0 0.3,0 0.14,0 0.28,-0.01 0.42,-0.01 0.09,0 0.19,0 0.28,0 0.15,0 0.3,-0.01 0.45,-0.01 0.08,0 0.17,0 0.26,0 0.18,0 0.36,-0.01 0.54,-0.01 0.04,0 0.09,0 0.14,0 m -350.97,354.84 c 0,196 158.82,354.85 354.79,354.85 176.09,0 322.24,-128.28 350.04,-296.53 -0.5,3.04 -1.04,6.06 -1.62,9.07 -11.76,61.09 -39.19,116.56 -77.95,162.17 -52.57,30.8 -113.77,48.56 -179.06,48.56 -53.03,0 -103.37,-11.64 -148.56,-32.5 -6.73,8.81 -17.35,14.49 -29.31,14.49 -20.34,0 -36.83,-16.52 -36.83,-36.9 0,-5.34 1.13,-10.42 3.17,-15 -59.65,-44.36 -104.91,-107.02 -127.45,-179.66 -12.01,3.91 -24.84,6.03 -38.16,6.03 -25.44,0 -49.08,-7.7 -68.73,-20.92 -0.17,-4.55 -0.33,-9.07 -0.33,-13.66 m 426.04,347.68 c -0.24,-2.08 -0.62,-4.14 -0.62,-6.3 0,-30.69 24.88,-55.57 55.59,-55.57 19.13,0 36.02,9.68 45.96,24.43 -31.04,17.28 -64.98,30.1 -100.93,37.44 m 283.56,-347.13 c 0,0.06 0,0.11 0,0.16 0,-0.06 0,-0.1 0,-0.16 m 0,0.55 c 0,0.07 0,0.13 0,0.2 0,-0.06 0,-0.14 0,-0.2 m 0,0.55 c 0,0.07 0,0.14 0,0.21 0,-0.07 0,-0.14 0,-0.21 m 0,0.54 c 0,0.08 -0.01,0.16 -0.01,0.24 0,-0.08 0.01,-0.16 0.01,-0.24 m -0.01,0.54 c 0,0.08 0,0.16 0,0.24 0,-0.08 0,-0.16 0,-0.24 m 0,0.55 c 0,0.08 0,0.16 0,0.24 0,-0.08 0,-0.16 0,-0.24 m -0.01,0.55 c 0,0.08 0,0.16 0,0.23 0,-0.07 0,-0.15 0,-0.23 m 0,0.54 c -0.01,0.16 -0.01,0.31 -0.01,0.47 0,-0.15 0,-0.32 0.01,-0.47 m -0.01,0.76 c -0.01,0.09 -0.01,0.18 -0.01,0.27 0,-0.09 0,-0.17 0.01,-0.27 m -0.01,0.54 c 0,0.1 -0.01,0.19 -0.01,0.29 0,-0.1 0.01,-0.19 0.01,-0.29 m -0.01,0.54 c 0,0.1 0,0.2 -0.01,0.3 0.01,-0.11 0.01,-0.19 0.01,-0.3 m -0.01,0.53 c 0,0.11 0,0.21 -0.01,0.32 0.01,-0.11 0.01,-0.21 0.01,-0.32 m -0.01,0.54 c 0,0.1 -0.01,0.21 -0.01,0.32 0,-0.11 0.01,-0.21 0.01,-0.32 m -0.01,0.52 c 0,0.12 -0.01,0.23 -0.01,0.35 0,-0.11 0.01,-0.24 0.01,-0.35 m -0.01,0.51 c -0.01,0.13 -0.01,0.26 -0.01,0.39 0,-0.13 0,-0.26 0.01,-0.39 m -0.01,0.4 c -0.22,9.16 -0.79,18.23 -1.69,27.21 v 0 c 0.9,-8.98 1.47,-18.06 1.69,-27.21"
         id="path314" /></clipPath></defs><sodipodi:namedview
     id="namedview4"
     pagecolor="#505050"
     bordercolor="#eeeeee"
     borderopacity="1"
     inkscape:pageshadow="0"
     inkscape:pageopacity="0"
     inkscape:pagecheckerboard="0"
     showgrid="false"
     fit-margin-top="0"
     fit-margin-left="0"
     fit-margin-right="0"
     fit-margin-bottom="0"
     inkscape:zoom="2"
     inkscape:cx="-26.75"
     inkscape:cy="145.25"
     inkscape:window-width="2534"
     inkscape:window-height="1374"
     inkscape:window-x="10"
     inkscape:window-y="50"
     inkscape:window-maximized="1"
     inkscape:current-layer="g8" /><g
     id="g8"
     inkscape:groupmode="layer"
     inkscape:label="ink_ext_XXXXXX"
     transform="matrix(1.3333333,0,0,-1.3333333,-289.96399,846.53865)"><path
       d="m 288.434,599.419 c 0,-19.597 -15.889,-35.486 -35.483,-35.486 -19.596,0 -35.478,15.889 -35.478,35.486 0,19.6 15.882,35.485 35.478,35.485 19.594,0 35.483,-15.885 35.483,-35.485"
       style="fill:#fffffe;fill-opacity:1;fill-rule:nonzero;stroke:none;stroke-width:0.1"
       id="path896" /><path
       d="m 262.093,627.231 c -19.598,0 -35.486,-15.887 -35.486,-35.486 0,-8.756 3.18,-16.768 8.437,-22.955 5.263,-3.083 11.375,-4.857 17.907,-4.857 19.594,0 35.483,15.889 35.483,35.486 0,8.76 -3.176,16.765 -8.436,22.956 -5.257,3.08 -11.377,4.856 -17.905,4.856"
       style="fill:#fae0aa;fill-opacity:1;fill-rule:nonzero;stroke:none;stroke-width:0.1"
       id="path898" /><path
       d="m 258.446,590.091 c 0,-3.032 -2.459,-5.492 -5.49,-5.492 -3.034,0 -5.495,2.46 -5.495,5.492 0,3.033 2.461,5.492 5.495,5.492 3.031,0 5.49,-2.459 5.49,-5.492"
       style="fill:#b58982;fill-opacity:1;fill-rule:nonzero;stroke:none;stroke-width:0.1"
       id="path900" /><path
       d="m 247.995,621.74 c 0,-2.036 -1.651,-3.688 -3.689,-3.688 -2.034,0 -3.684,1.652 -3.684,3.688 0,2.038 1.65,3.69 3.684,3.69 2.038,0 3.689,-1.652 3.689,-3.69"
       style="fill:#b58982;fill-opacity:1;fill-rule:nonzero;stroke:none;stroke-width:0.1"
       id="path902" /><path
       d="m 284.331,588.107 c 0,-1.349 -1.094,-2.444 -2.447,-2.444 -1.348,0 -2.441,1.095 -2.441,2.444 0,1.348 1.093,2.442 2.441,2.442 1.353,0 2.447,-1.094 2.447,-2.442"
       style="fill:#b58982;fill-opacity:1;fill-rule:nonzero;stroke:none;stroke-width:0.1"
       id="path904" /><path
       d="m 279.443,603.041 c 0,-1.07 -0.868,-1.937 -1.938,-1.937 -1.066,0 -1.935,0.867 -1.935,1.937 0,1.068 0.869,1.936 1.935,1.936 1.07,0 1.938,-0.868 1.938,-1.936"
       style="fill:#b58982;fill-opacity:1;fill-rule:nonzero;stroke:none;stroke-width:0.1"
       id="path906" /><path
       d="m 285.43,613.717 c -2.264,-0.704 -3.915,-2.788 -3.915,-5.282 0,-3.07 2.488,-5.558 5.558,-5.558 0.408,0 0.8,0.051 1.181,0.134 -0.38,3.776 -1.358,7.373 -2.824,10.706"
       style="fill:#b58982;fill-opacity:1;fill-rule:nonzero;stroke:none;stroke-width:0.1"
       id="path908" /><path
       d="m 260.077,634.187 c -0.023,-0.208 -0.062,-0.414 -0.062,-0.63 0,-3.069 2.488,-5.557 5.558,-5.557 1.914,0 3.603,0.968 4.598,2.443 -3.104,1.728 -6.5,3.01 -10.094,3.744"
       style="fill:#b58982;fill-opacity:1;fill-rule:nonzero;stroke:none;stroke-width:0.1"
       id="path910" /><path
       d="m 247.418,577.044 c -5.263,0 -9.532,-4.269 -9.532,-9.536 l 0.011,-0.224 c 4.571,-2.145 9.669,-3.351 15.054,-3.351 1.136,0 2.255,0.058 3.359,0.163 0.41,1.061 0.643,2.207 0.643,3.412 0,5.267 -4.269,9.536 -9.535,9.536"
       style="fill:#b58982;fill-opacity:1;fill-rule:nonzero;stroke:none;stroke-width:0.1"
       id="path912" /><path
       d="m 224.378,602.877 c -2.544,0 -4.907,-0.77 -6.872,-2.092 -0.017,-0.455 -0.033,-0.907 -0.033,-1.366 0,-7.941 2.61,-15.275 7.018,-21.19 6.754,0.061 12.215,5.551 12.215,12.32 0,6.809 -5.52,12.328 -12.328,12.328"
       style="fill:#b58982;fill-opacity:1;fill-rule:nonzero;stroke:none;stroke-width:0.1"
       id="path914" /><path
       d="m 217.473,599.419 c 0,0.019 0,0.038 0,0.056 0,-0.019 0,-0.037 0,-0.056 m 0,0.069 c 0,0.013 0,0.029 0,0.043 0,-0.015 0,-0.029 0,-0.043 m 0,0.062 c 0,0.012 0,0.023 0,0.035 0,-0.011 0,-0.023 0,-0.035 m 0,0.06 c 0,0.011 0,0.019 0,0.03 0,-0.01 0,-0.02 0,-0.03 m 0,0.055 c 0,0.01 10e-4,0.021 10e-4,0.031 0,-0.01 -10e-4,-0.021 -10e-4,-0.031 m 10e-4,0.056 c 0,0.01 0,0.021 0,0.031 0,-0.011 0,-0.02 0,-0.031 m 0,0.054 c 0,0.012 0.001,0.022 0.001,0.033 0,-0.011 -0.001,-0.022 -0.001,-0.033 m 0.001,0.057 c 0,0.011 0,0.019 0,0.031 0,-0.011 0,-0.021 0,-0.031 m 0.001,0.055 c 0,0.01 0,0.02 0,0.03 0,-0.011 0,-0.02 0,-0.03 m 0,0.056 c 0.001,0.01 0.001,0.019 0.001,0.029 0,-0.009 0,-0.019 -0.001,-0.029 m 0.001,0.055 c 0,0.009 0.001,0.02 0.001,0.029 0,-0.01 -0.001,-0.02 -0.001,-0.029 m 0.001,0.056 c 0,0.008 0,0.016 0.001,0.024 -0.001,-0.008 -0.001,-0.015 -0.001,-0.024 m 0.003,0.144 c 0,0.007 0,0.011 0,0.018 0,-0.006 0,-0.012 0,-0.018 m 0.001,0.053 c 0,0.007 0,0.012 0.001,0.019 -0.001,-0.007 -0.001,-0.011 -0.001,-0.019 m 0.001,0.053 c 0.001,0.008 0.001,0.014 0.001,0.022 0,-0.008 0,-0.015 -0.001,-0.022 m 0.002,0.054 c 0,0.007 0,0.015 0,0.021 0,-0.007 0,-0.014 0,-0.021 m 10e-4,0.055 c 0,0.008 0.001,0.014 0.001,0.021 0,-0.007 -0.001,-0.013 -0.001,-0.021 m 0.002,0.056 c 0,0.006 0,0.011 0,0.018 0,-0.007 0,-0.011 0,-0.018 m 0.001,0.054 c 0.001,0.006 0.001,0.013 0.001,0.018 0,-0.005 0,-0.012 -0.001,-0.018 m 0.002,0.056 c 0,0.005 0,0.009 10e-4,0.014 -10e-4,-0.005 -10e-4,-0.01 -10e-4,-0.014 m 0.002,0.055 c 0,0.003 0,0.007 0,0.01 0,-0.004 0,-0.007 0,-0.01 m 0.002,0.055 v 0 0"
       style="fill:#0e121a;fill-opacity:1;fill-rule:nonzero;stroke:none;stroke-width:0.1"
       id="path916" /><path
       d="m 237.896,567.287 c -5.322,2.497 -9.922,6.277 -13.402,10.942 1.566,0.015 3.063,0.321 4.438,0.868 1.449,-3.791 3.53,-7.269 6.112,-10.307 0.926,-0.542 1.877,-1.043 2.852,-1.502 v -10e-4 m -20.423,32.132 v 0 c 0,0.019 0,0.037 0,0.056 0,0.005 0,0.009 0,0.013 0,0.014 0,0.028 0,0.043 0,0.006 0,0.012 0,0.019 0,0.012 0,0.024 0,0.035 0,0.008 0,0.017 0,0.025 0,0.01 0,0.02 0,0.03 0,0.008 0,0.017 0,0.025 0,0.01 10e-4,0.021 10e-4,0.031 0,0.009 0,0.016 0,0.025 0,0.011 0,0.02 0,0.031 0,0.007 0,0.016 0,0.023 0,0.011 0.001,0.022 0.001,0.033 0,0.007 0,0.016 0,0.024 0,0.01 0,0.02 0,0.031 0,0.007 0.001,0.016 0.001,0.024 0,0.01 0,0.019 0,0.03 0,0.009 0,0.017 0,0.026 0.001,0.01 0.001,0.02 0.001,0.029 0,0.009 0,0.017 0,0.026 0,0.009 0.001,0.019 0.001,0.029 0,0.009 0,0.017 0,0.027 0,0.009 0,0.016 0.001,0.024 0,0.04 10e-4,0.081 0.002,0.12 0,0.006 0,0.012 0,0.018 0.001,0.011 0.001,0.024 0.001,0.035 0,0.008 0,0.012 0.001,0.019 0,0.011 0,0.023 0,0.034 0.001,0.007 0.001,0.014 0.001,0.022 0,0.011 0,0.021 0.001,0.032 0,0.007 0,0.014 0,0.021 10e-4,0.012 10e-4,0.023 10e-4,0.034 0,0.008 0.001,0.014 0.001,0.021 0,0.011 0,0.024 0.001,0.035 0,0.007 0,0.011 0,0.018 0.001,0.012 0.001,0.024 0.001,0.036 0.001,0.006 0.001,0.013 0.001,0.018 0,0.013 0.001,0.025 0.001,0.038 0,0.004 0,0.009 10e-4,0.014 0,0.013 0.001,0.027 0.001,0.041 0,0.003 0,0.006 0,0.01 0.001,0.015 0.001,0.029 0.002,0.045 v 0 c 0.617,17.559 13.989,31.859 31.134,33.943 4.307,-0.523 8.378,-1.818 12.067,-3.743 0.906,-1.652 2.628,-2.794 4.624,-2.884 0.471,-0.346 0.933,-0.704 1.386,-1.073 -1.51,0.197 -3.05,0.299 -4.613,0.299 -5.304,0 -10.337,-1.164 -14.856,-3.25 -0.674,0.881 -1.736,1.449 -2.931,1.449 -2.034,0 -3.684,-1.652 -3.684,-3.69 0,-0.534 0.113,-1.042 0.317,-1.5 -5.965,-4.436 -10.49,-10.702 -12.744,-17.966 -1.202,0.391 -2.485,0.603 -3.817,0.603 -2.544,0 -4.907,-0.77 -6.872,-2.092 -0.017,-0.455 -0.033,-0.907 -0.033,-1.366"
       style="fill:#70718d;fill-opacity:1;fill-rule:nonzero;stroke:none;stroke-width:0.1"
       id="path918" /><path
       d="m 256.865,566.231 c 0.058,0.417 0.088,0.843 0.088,1.277 0,5.267 -4.269,9.536 -9.535,9.536 -5.263,0 -9.532,-4.269 -9.532,-9.536 l 0.01,-0.22 c -0.975,0.459 -1.926,0.96 -2.852,1.502 -2.582,3.038 -4.663,6.516 -6.112,10.307 4.553,1.81 7.774,6.254 7.774,11.452 0,5.477 -3.571,10.119 -8.511,11.725 2.254,7.264 6.779,13.53 12.744,17.966 0.575,-1.289 1.866,-2.188 3.367,-2.188 2.038,0 3.689,1.652 3.689,3.688 0,0.843 -0.282,1.62 -0.758,2.241 4.519,2.086 9.552,3.25 14.856,3.25 1.563,0 3.103,-0.102 4.613,-0.299 7.983,-6.503 13.082,-16.41 13.082,-27.513 0,-15.173 -9.528,-28.117 -22.923,-33.188 m -3.909,29.352 c -3.034,0 -5.495,-2.459 -5.495,-5.492 0,-3.032 2.461,-5.492 5.495,-5.492 3.031,0 5.49,2.46 5.49,5.492 0,3.033 -2.459,5.492 -5.49,5.492 m 24.549,9.394 c -1.066,0 -1.935,-0.868 -1.935,-1.936 0,-1.07 0.869,-1.937 1.935,-1.937 1.07,0 1.938,0.867 1.938,1.937 0,1.068 -0.868,1.936 -1.938,1.936"
       style="fill:#70676a;fill-opacity:1;fill-rule:nonzero;stroke:none;stroke-width:0.1"
       id="path920" /><path
       d="m 252.956,584.599 c -3.034,0 -5.495,2.46 -5.495,5.492 0,3.033 2.461,5.492 5.495,5.492 3.031,0 5.49,-2.459 5.49,-5.492 0,-3.032 -2.459,-5.492 -5.49,-5.492"
       style="fill:#5a4b59;fill-opacity:1;fill-rule:nonzero;stroke:none;stroke-width:0.1"
       id="path922" /><path
       d="m 244.306,618.052 c -1.501,0 -2.792,0.899 -3.367,2.188 -0.204,0.458 -0.317,0.966 -0.317,1.5 0,2.038 1.65,3.69 3.684,3.69 1.195,0 2.257,-0.568 2.931,-1.449 0.476,-0.621 0.758,-1.398 0.758,-2.241 0,-2.036 -1.651,-3.688 -3.689,-3.688"
       style="fill:#5a4b59;fill-opacity:1;fill-rule:nonzero;stroke:none;stroke-width:0.1"
       id="path924" /><path
       d="m 277.505,601.104 c -1.066,0 -1.935,0.867 -1.935,1.937 0,1.068 0.869,1.936 1.935,1.936 1.07,0 1.938,-0.868 1.938,-1.936 0,-1.07 -0.868,-1.937 -1.938,-1.937"
       style="fill:#5a4b59;fill-opacity:1;fill-rule:nonzero;stroke:none;stroke-width:0.1"
       id="path926" /><path
       d="m 265.32,628.005 c -1.996,0.09 -3.718,1.232 -4.624,2.884 1.618,-0.844 3.164,-1.809 4.624,-2.884"
       style="fill:#5a4b59;fill-opacity:1;fill-rule:nonzero;stroke:none;stroke-width:0.1"
       id="path928" /><path
       d="m 248.629,564.205 c -3.794,0.461 -7.405,1.521 -10.733,3.082 v 10e-4 l -0.01,0.22 c 0,5.267 4.269,9.536 9.532,9.536 5.266,0 9.535,-4.269 9.535,-9.536 0,-0.434 -0.03,-0.86 -0.088,-1.277 -2.613,-0.989 -5.371,-1.678 -8.236,-2.026"
       style="fill:#5a4b59;fill-opacity:1;fill-rule:nonzero;stroke:none;stroke-width:0.1"
       id="path930" /><path
       d="m 220.734,584.54 c -0.002,0.004 -0.002,0.006 -0.004,0.009 0.001,-0.003 0.003,-0.006 0.004,-0.009 m -0.016,0.034 c -0.004,0.009 -0.007,0.017 -0.011,0.025 0.004,-0.008 0.007,-0.016 0.011,-0.025"
       style="fill:#70718d;fill-opacity:1;fill-rule:nonzero;stroke:none;stroke-width:0.1"
       id="path932" /><path
       d="m 217.52,597.571 v 10e-4 -10e-4 m -0.003,0.053 v 0 0 m -0.002,0.052 v 10e-4 c 0,-10e-4 0,0 0,-10e-4 m -0.02,0.47 c 0,0.002 0,0.003 0,0.005 0,-0.002 0,-0.003 0,-0.005 m -0.002,0.047 c 0,0.005 0,0.008 0,0.013 0,-0.004 0,-0.009 0,-0.013 m -0.001,0.052 c -10e-4,0.005 -10e-4,0.011 -10e-4,0.016 0,-0.006 0,-0.01 10e-4,-0.016 m -0.002,0.052 c 0,0.005 0,0.014 -0.001,0.019 0.001,-0.006 0.001,-0.013 0.001,-0.019 m -0.002,0.054 c 0,0.007 0,0.013 0,0.02 0,-0.007 0,-0.013 0,-0.02 m -0.001,0.053 c 0,0.008 -0.001,0.015 -0.001,0.022 0,-0.007 0.001,-0.015 0.001,-0.022 m -0.002,0.055 c 0,0.008 0,0.015 0,0.023 0,-0.008 0,-0.016 0,-0.023"
       style="fill:#0e121a;fill-opacity:1;fill-rule:nonzero;stroke:none;stroke-width:0.1"
       id="path934" /><path
       d="m 220.706,584.601 c -1.833,3.981 -2.95,8.359 -3.186,12.97 v 10e-4 c -0.001,0.017 -0.002,0.034 -0.003,0.052 v 0 c -0.001,0.018 -0.001,0.035 -0.002,0.052 0,10e-4 0,0 0,10e-4 -0.008,0.156 -0.014,0.313 -0.02,0.469 0,0.002 0,0.003 0,0.005 -0.001,0.014 -0.001,0.028 -0.002,0.042 0,0.004 0,0.009 0,0.013 0,0.013 -0.001,0.025 -0.001,0.039 -10e-4,0.006 -10e-4,0.01 -10e-4,0.016 0,0.012 -0.001,0.024 -0.001,0.036 0,0.006 0,0.013 -0.001,0.019 0,0.012 0,0.023 -0.001,0.035 0,0.007 0,0.013 0,0.02 -0.001,0.011 -0.001,0.022 -0.001,0.033 0,0.007 -0.001,0.015 -0.001,0.022 0,0.011 0,0.022 -10e-4,0.033 0,0.007 0,0.015 0,0.023 0,0.002 0,0.006 0,0.008 0.127,-4.947 1.268,-9.644 3.221,-13.889"
       style="fill:#70718d;fill-opacity:1;fill-rule:nonzero;stroke:none;stroke-width:0.1"
       id="path936" /><path
       d="m 217.484,598.513 c 0,0.008 0,0.015 -0.001,0.023 0.001,-0.007 0.001,-0.016 0.001,-0.023"
       style="fill:#0e121a;fill-opacity:1;fill-rule:nonzero;stroke:none;stroke-width:0.1"
       id="path938" /><path
       d="m 217.484,598.493 c 0,0.006 0,0.013 0,0.02 0,0.007 0,0.016 -0.001,0.023 v 0 c 0.001,-0.015 0.001,-0.029 0.001,-0.043"
       style="fill:#70718d;fill-opacity:1;fill-rule:nonzero;stroke:none;stroke-width:0.1"
       id="path940" /><path
       d="m 217.483,598.569 c -0.001,0.004 -0.001,0.01 -0.001,0.014 v -10e-4 c 0,-0.005 0,-0.009 0.001,-0.013"
       style="fill:#0e121a;fill-opacity:1;fill-rule:nonzero;stroke:none;stroke-width:0.1"
       id="path942" /><path
       d="m 217.483,598.542 c 0,0.009 0,0.018 0,0.027 -0.001,0.004 -0.001,0.008 -0.001,0.013 0.001,-0.013 0.001,-0.027 0.001,-0.04"
       style="fill:#70718d;fill-opacity:1;fill-rule:nonzero;stroke:none;stroke-width:0.1"
       id="path944" /><path
       d="m 217.482,598.587 v 0.002 -0.001 c 0,0 0,0 0,-10e-4 m -0.001,0.035 c 0,0.007 0,0.014 0,0.02 0,-0.007 0,-0.012 0,-0.02 m -0.002,0.105 c 0,0.002 0,0.002 0,0.003 0,-10e-4 0,-10e-4 0,-0.003"
       style="fill:#0e121a;fill-opacity:1;fill-rule:nonzero;stroke:none;stroke-width:0.1"
       id="path946" /><path
       d="m 217.482,598.588 v 0.001 c 0,0.011 0,0.022 -0.001,0.033 0,0.008 0,0.013 0,0.02 -0.001,0.029 -0.001,0.057 -0.002,0.085 0,0.002 0,0.002 0,0.003 0,0.009 0,0.019 0,0.027 10e-4,-0.056 0.002,-0.112 0.003,-0.169"
       style="fill:#70718d;fill-opacity:1;fill-rule:nonzero;stroke:none;stroke-width:0.1"
       id="path948" /><path
       d="m 217.478,598.773 c 0,0.004 0,0.009 0,0.012 0,-0.004 0,-0.007 0,-0.01 0,-10e-4 0,-10e-4 0,-0.002"
       style="fill:#0e121a;fill-opacity:1;fill-rule:nonzero;stroke:none;stroke-width:0.1"
       id="path950" /><path
       d="m 217.478,598.775 c 0,0.003 0,0.006 0,0.01 0,0.006 0,0.012 0,0.018 0,-0.009 0,-0.019 0,-0.028"
       style="fill:#70718d;fill-opacity:1;fill-rule:nonzero;stroke:none;stroke-width:0.1"
       id="path952" /><path
       d="m 217.478,598.823 c -0.001,0.006 -0.001,0.011 -0.001,0.018 0,-0.005 0,-0.009 0,-0.014 0,-10e-4 0,-0.003 0.001,-0.004"
       style="fill:#0e121a;fill-opacity:1;fill-rule:nonzero;stroke:none;stroke-width:0.1"
       id="path954" /><path
       d="m 217.477,598.827 c 0,0.005 0,0.009 0,0.014 0,0.003 0,0.009 0,0.012 0,-0.009 0,-0.017 0,-0.026"
       style="fill:#70718d;fill-opacity:1;fill-rule:nonzero;stroke:none;stroke-width:0.1"
       id="path956" /><path
       d="m 217.477,598.872 c 0,0.008 -0.001,0.016 -0.001,0.024 0,-0.006 0.001,-0.01 0.001,-0.016 0,-0.003 0,-0.005 0,-0.008"
       style="fill:#0e121a;fill-opacity:1;fill-rule:nonzero;stroke:none;stroke-width:0.1"
       id="path958" /><path
       d="m 217.477,598.88 c 0,0.006 -0.001,0.01 -0.001,0.016 0,0.001 0,0.003 0,0.005 0,-0.008 0.001,-0.014 0.001,-0.021"
       style="fill:#70718d;fill-opacity:1;fill-rule:nonzero;stroke:none;stroke-width:0.1"
       id="path960" /><path
       d="m 217.476,598.923 c 0,0.009 0,0.018 0,0.027 0,-0.009 0,-0.018 0,-0.027 m -0.001,0.053 c 0,0.008 0,0.015 0,0.023 0,-0.007 0,-0.015 0,-0.022 0,-10e-4 0,0 0,-10e-4"
       style="fill:#0e121a;fill-opacity:1;fill-rule:nonzero;stroke:none;stroke-width:0.1"
       id="path962" /><path
       d="m 217.475,598.975 v 10e-4 c 0,10e-4 0,0 0,10e-4 v -0.002"
       style="fill:#70718d;fill-opacity:1;fill-rule:nonzero;stroke:none;stroke-width:0.1"
       id="path964" /><path
       d="m 217.475,599.031 c 0,0.011 -0.001,0.021 -0.001,0.032 0,-10e-4 0,10e-4 0,-10e-4 0,-0.01 0.001,-0.02 0.001,-0.03 v -0.001"
       style="fill:#0e121a;fill-opacity:1;fill-rule:nonzero;stroke:none;stroke-width:0.1"
       id="path966" /><path
       d="m 217.475,599.026 c 0,0.002 0,0.003 0,0.005 v 0.001 c 0,-0.002 0,-0.004 0,-0.006 m -0.001,0.036 c 0,0.002 0,0 0,10e-4 0,10e-4 0,0.003 0,0.004 0,-10e-4 0,-0.003 0,-0.005"
       style="fill:#70718d;fill-opacity:1;fill-rule:nonzero;stroke:none;stroke-width:0.1"
       id="path968" /><path
       d="m 217.474,599.097 c 0,0.006 0,0.012 0,0.018 0,-0.006 0,-0.011 0,-0.018 m 0,0.051 c 0,0.006 0,0.012 -10e-4,0.019 10e-4,-0.006 10e-4,-0.013 10e-4,-0.019 m -10e-4,0.05 c 0,0.008 0,0.013 0,0.021 0,-0.007 0,-0.014 0,-0.02 v -10e-4"
       style="fill:#0e121a;fill-opacity:1;fill-rule:nonzero;stroke:none;stroke-width:0.1"
       id="path970" /><path
       d="m 217.473,599.198 v 0 10e-4 -10e-4"
       style="fill:#70718d;fill-opacity:1;fill-rule:nonzero;stroke:none;stroke-width:0.1"
       id="path972" /><path
       d="m 217.473,599.253 c 0,0.006 0,0.011 0,0.017 0,-0.004 0,-0.007 0,-0.01 0,-0.002 0,-0.004 0,-0.007"
       style="fill:#0e121a;fill-opacity:1;fill-rule:nonzero;stroke:none;stroke-width:0.1"
       id="path974" /><path
       d="m 217.473,599.247 c 0,0.002 0,0.004 0,0.006 0,0.003 0,0.005 0,0.007 0,-0.004 0,-0.009 0,-0.013"
       style="fill:#70718d;fill-opacity:1;fill-rule:nonzero;stroke:none;stroke-width:0.1"
       id="path976" /><path
       d="m 217.473,599.308 c 0,0.003 0,0.008 0,0.012 0,-0.002 0,-0.005 0,-0.007 0,-10e-4 0,-0.004 0,-0.005"
       style="fill:#0e121a;fill-opacity:1;fill-rule:nonzero;stroke:none;stroke-width:0.1"
       id="path978" /><path
       d="m 217.473,599.299 c 0,0.003 0,0.006 0,0.009 0,10e-4 0,0.004 0,0.005 0,-0.005 0,-0.009 0,-0.014"
       style="fill:#70718d;fill-opacity:1;fill-rule:nonzero;stroke:none;stroke-width:0.1"
       id="path980" /><path
       d="m 217.473,599.35 v 10e-4 -10e-4 m 0,0.013 c 0,0.003 0,0.005 0,0.007 0,-10e-4 0,-0.002 0,-0.003 0,-0.002 0,-0.002 0,-0.004"
       style="fill:#0e121a;fill-opacity:1;fill-rule:nonzero;stroke:none;stroke-width:0.1"
       id="path982" /><path
       d="m 217.473,599.35 v 10e-4 c 0,0.004 0,0.008 0,0.012 0,0.002 0,0.002 0,0.004 0,-0.006 0,-0.011 0,-0.017"
       style="fill:#70718d;fill-opacity:1;fill-rule:nonzero;stroke:none;stroke-width:0.1"
       id="path984" /><path
       d="m 224.494,578.229 c -1.461,1.958 -2.723,4.071 -3.76,6.311 -0.001,0.003 -0.003,0.006 -0.004,0.009 -0.004,0.008 -0.008,0.018 -0.012,0.025 -0.004,0.009 -0.007,0.017 -0.011,0.025 -0.001,10e-4 -0.001,10e-4 -0.001,0.002 -1.953,4.245 -3.094,8.942 -3.221,13.889 -0.001,10e-4 -0.001,0.002 -0.001,0.003 0,0.014 0,0.028 -0.001,0.043 0,0.002 0,0.004 0,0.006 0,0.013 0,0.027 -0.001,0.04 v 10e-4 c 0,0.002 0,0.002 0,0.004 0,10e-4 0,10e-4 0,10e-4 -0.001,0.057 -0.002,0.113 -0.003,0.169 0,0.006 -0.001,0.011 -0.001,0.016 0,10e-4 0,10e-4 0,0.002 0,0.009 0,0.019 0,0.028 0,0.007 0,0.013 0,0.02 -0.001,10e-4 -0.001,0.003 -0.001,0.004 0,0.009 0,0.017 0,0.026 0,0.007 0,0.013 0,0.019 0,0.003 0,0.005 0,0.008 0,0.007 -0.001,0.013 -0.001,0.021 0,0.007 0,0.014 0,0.022 0,0.009 0,0.018 0,0.027 0,0.009 -0.001,0.016 -0.001,0.025 v 0.002 c 0,0.007 0,0.015 0,0.022 0,0.009 0,0.018 0,0.027 0,0.002 0,0.004 0,0.006 0,0.01 -0.001,0.02 -0.001,0.03 0,0.002 0,0.004 0,0.005 0,0.01 0,0.021 0,0.03 0,0.007 0,0.012 0,0.018 0,0.011 0,0.022 0,0.033 0,0.006 0,0.013 -10e-4,0.019 0,0.01 0,0.021 0,0.031 v 10e-4 c 0,0.006 0,0.013 0,0.02 0,0.009 0,0.019 0,0.028 0,0.004 0,0.009 0,0.013 0,0.003 0,0.006 0,0.01 0,0.01 0,0.019 0,0.029 0,0.005 0,0.009 0,0.014 0,0.002 0,0.005 0,0.007 0,0.01 0,0.02 0,0.03 v 0 c 0,0.006 0,0.011 0,0.017 0,0.001 0,0.002 0,0.003 0,0.017 0,0.033 0,0.049 v 0 0 c 0,0.459 0.016,0.911 0.033,1.366 1.965,1.322 4.328,2.092 6.872,2.092 1.332,0 2.615,-0.212 3.817,-0.603 4.94,-1.606 8.511,-6.248 8.511,-11.725 0,-5.198 -3.221,-9.642 -7.774,-11.452 -1.375,-0.547 -2.872,-0.853 -4.438,-0.868"
       style="fill:#5a4b59;fill-opacity:1;fill-rule:nonzero;stroke:none;stroke-width:0.1"
       id="path986" /></g></svg>
