<?xml version="1.0" encoding="UTF-8" standalone="no"?>
<!-- Created with Inkscape (http://www.inkscape.org/) -->

<svg
   version="1.1"
   id="svg2"
   xml:space="preserve"
   width="94.613335"
   height="94.627998"
   viewBox="0 0 94.613334 94.627998"
   sodipodi:docname="nova.svg"
   inkscape:version="1.1.1 (3bf5ae0d25, 2021-09-20)"
   xmlns:inkscape="http://www.inkscape.org/namespaces/inkscape"
   xmlns:sodipodi="http://sodipodi.sourceforge.net/DTD/sodipodi-0.dtd"
   xmlns="http://www.w3.org/2000/svg"
   xmlns:svg="http://www.w3.org/2000/svg"><defs
     id="defs6"><clipPath
       clipPathUnits="userSpaceOnUse"
       id="clipPath20"><path
         d="M 0,2000 H 5000 V 7000 H 0 Z"
         id="path18" /></clipPath><clipPath
       clipPathUnits="userSpaceOnUse"
       id="clipPath168"><path
         d="m 3092.47,2417.31 c -49.63,10.93 -101.15,16.78 -154.04,16.78 -62.8,0 -123.74,-8.19 -181.84,-23.48 214.56,-155.06 354.55,-407.2 354.55,-691.58 v -266.47 h 345.06 v 266.47 c 0,288.45 -143.95,543.8 -363.73,698.28"
         id="path166" /></clipPath><clipPath
       clipPathUnits="userSpaceOnUse"
       id="clipPath316"><path
         d="m 1413.01,5639.33 c -0.2,0 -0.39,0 -0.6,0 0.2,0 0.4,0 0.6,0 m -3.78,0.02 c -0.02,0 -0.03,0 -0.04,0 0.01,0 0.02,0 0.02,0 0.01,0 0.01,0 0.02,0 m -0.04,0 c -191.27,2.03 -346.2,155.39 -350.86,346.01 1.86,-76.02 27.64,-146.12 70.08,-203.07 15.67,0.14 30.65,3.21 44.41,8.68 14.49,-37.91 35.3,-72.69 61.12,-103.07 9.25,-5.42 18.76,-10.43 28.51,-15.02 l 0.01,-0.04 c 30.76,-14.43 63.91,-24.62 98.72,-29.73 0,0 0.01,0 0.02,-0.01 0.21,-0.03 0.43,-0.06 0.65,-0.09 0.05,-0.01 0.1,-0.02 0.15,-0.02 0.18,-0.03 0.36,-0.05 0.54,-0.08 0.06,-0.01 0.12,-0.02 0.17,-0.03 0.2,-0.02 0.39,-0.05 0.58,-0.08 0.04,0 0.08,-0.01 0.12,-0.01 0.22,-0.03 0.44,-0.07 0.66,-0.1 0.11,-0.01 0.22,-0.03 0.33,-0.04 0.11,-0.02 0.21,-0.03 0.32,-0.05 0.13,-0.01 0.27,-0.03 0.4,-0.05 0.08,-0.01 0.17,-0.02 0.26,-0.03 0.13,-0.02 0.27,-0.04 0.41,-0.06 0.08,-0.01 0.15,-0.02 0.22,-0.03 0.16,-0.02 0.31,-0.04 0.47,-0.06 v 0 c 0.59,-0.08 1.19,-0.16 1.78,-0.23 0.03,0 0.04,-0.01 0.07,-0.01 0.18,-0.02 0.38,-0.05 0.57,-0.07 0.01,0 0.03,0 0.04,-0.01 7.92,-0.98 15.92,-1.71 23.99,-2.16 0.01,0 0.03,0 0.04,0 0.2,-0.01 0.39,-0.02 0.59,-0.03 0.02,0 0.03,0 0.04,-0.01 0.82,-0.04 1.63,-0.08 2.45,-0.12 0.01,0 0.02,0 0.03,0 0.17,-0.01 0.35,-0.02 0.53,-0.03 0.05,0 0.1,0 0.15,0 0.16,-0.01 0.34,-0.02 0.5,-0.02 0.05,-0.01 0.11,-0.01 0.16,-0.01 0.17,-0.01 0.34,-0.02 0.51,-0.02 0.03,0 0.06,-0.01 0.1,-0.01 0.55,-0.02 1.09,-0.04 1.64,-0.06 0.07,0 0.14,-0.01 0.21,-0.01 0.14,-0.01 0.29,-0.01 0.44,-0.02 0.08,0 0.16,0 0.24,0 0.15,-0.01 0.29,-0.01 0.44,-0.02 0.08,0 0.16,0 0.24,-0.01 0.15,0 0.29,-0.01 0.43,-0.01 0.09,0 0.17,-0.01 0.26,-0.01 0.24,-0.01 0.49,-0.01 0.73,-0.02 0.11,0 0.22,-0.01 0.33,-0.01 0.12,0 0.25,-0.01 0.37,-0.01 0.11,0 0.21,-0.01 0.32,-0.01 0.12,0 0.26,-0.01 0.38,-0.01 0.11,0 0.21,0 0.33,-0.01 0.11,0 0.24,0 0.36,0 0.12,-0.01 0.24,-0.01 0.37,-0.01 0.1,-0.01 0.21,-0.01 0.31,-0.01 0.22,0 0.45,-0.01 0.67,-0.01 0.09,-0.01 0.17,-0.01 0.26,-0.01 0.14,0 0.29,0 0.44,-0.01 0.1,0 0.2,0 0.3,0 0.14,0 0.28,-0.01 0.42,-0.01 0.09,0 0.19,0 0.28,0 0.15,0 0.3,-0.01 0.45,-0.01 0.08,0 0.17,0 0.26,0 0.18,0 0.36,-0.01 0.54,-0.01 0.04,0 0.09,0 0.14,0 m -350.97,354.84 c 0,196 158.82,354.85 354.79,354.85 176.09,0 322.24,-128.28 350.04,-296.53 -0.5,3.04 -1.04,6.06 -1.62,9.07 -11.76,61.09 -39.19,116.56 -77.95,162.17 -52.57,30.8 -113.77,48.56 -179.06,48.56 -53.03,0 -103.37,-11.64 -148.56,-32.5 -6.73,8.81 -17.35,14.49 -29.31,14.49 -20.34,0 -36.83,-16.52 -36.83,-36.9 0,-5.34 1.13,-10.42 3.17,-15 -59.65,-44.36 -104.91,-107.02 -127.45,-179.66 -12.01,3.91 -24.84,6.03 -38.16,6.03 -25.44,0 -49.08,-7.7 -68.73,-20.92 -0.17,-4.55 -0.33,-9.07 -0.33,-13.66 m 426.04,347.68 c -0.24,-2.08 -0.62,-4.14 -0.62,-6.3 0,-30.69 24.88,-55.57 55.59,-55.57 19.13,0 36.02,9.68 45.96,24.43 -31.04,17.28 -64.98,30.1 -100.93,37.44 m 283.56,-347.13 c 0,0.06 0,0.11 0,0.16 0,-0.06 0,-0.1 0,-0.16 m 0,0.55 c 0,0.07 0,0.13 0,0.2 0,-0.06 0,-0.14 0,-0.2 m 0,0.55 c 0,0.07 0,0.14 0,0.21 0,-0.07 0,-0.14 0,-0.21 m 0,0.54 c 0,0.08 -0.01,0.16 -0.01,0.24 0,-0.08 0.01,-0.16 0.01,-0.24 m -0.01,0.54 c 0,0.08 0,0.16 0,0.24 0,-0.08 0,-0.16 0,-0.24 m 0,0.55 c 0,0.08 0,0.16 0,0.24 0,-0.08 0,-0.16 0,-0.24 m -0.01,0.55 c 0,0.08 0,0.16 0,0.23 0,-0.07 0,-0.15 0,-0.23 m 0,0.54 c -0.01,0.16 -0.01,0.31 -0.01,0.47 0,-0.15 0,-0.32 0.01,-0.47 m -0.01,0.76 c -0.01,0.09 -0.01,0.18 -0.01,0.27 0,-0.09 0,-0.17 0.01,-0.27 m -0.01,0.54 c 0,0.1 -0.01,0.19 -0.01,0.29 0,-0.1 0.01,-0.19 0.01,-0.29 m -0.01,0.54 c 0,0.1 0,0.2 -0.01,0.3 0.01,-0.11 0.01,-0.19 0.01,-0.3 m -0.01,0.53 c 0,0.11 0,0.21 -0.01,0.32 0.01,-0.11 0.01,-0.21 0.01,-0.32 m -0.01,0.54 c 0,0.1 -0.01,0.21 -0.01,0.32 0,-0.11 0.01,-0.21 0.01,-0.32 m -0.01,0.52 c 0,0.12 -0.01,0.23 -0.01,0.35 0,-0.11 0.01,-0.24 0.01,-0.35 m -0.01,0.51 c -0.01,0.13 -0.01,0.26 -0.01,0.39 0,-0.13 0,-0.26 0.01,-0.39 m -0.01,0.4 c -0.22,9.16 -0.79,18.23 -1.69,27.21 v 0 c 0.9,-8.98 1.47,-18.06 1.69,-27.21"
         id="path314" /></clipPath></defs><sodipodi:namedview
     id="namedview4"
     pagecolor="#505050"
     bordercolor="#eeeeee"
     borderopacity="1"
     inkscape:pageshadow="0"
     inkscape:pageopacity="0"
     inkscape:pagecheckerboard="0"
     showgrid="false"
     fit-margin-top="0"
     fit-margin-left="0"
     fit-margin-right="0"
     fit-margin-bottom="0"
     inkscape:zoom="2"
     inkscape:cx="-68.25"
     inkscape:cy="119.25"
     inkscape:window-width="2534"
     inkscape:window-height="1374"
     inkscape:window-x="10"
     inkscape:window-y="50"
     inkscape:window-maximized="1"
     inkscape:current-layer="g8" /><g
     id="g8"
     inkscape:groupmode="layer"
     inkscape:label="ink_ext_XXXXXX"
     transform="matrix(1.3333333,0,0,-1.3333333,-141.096,846.53865)"><path
       d="m 176.782,599.419 c 0,-19.597 -15.886,-35.486 -35.481,-35.486 -19.597,0 -35.479,15.889 -35.479,35.486 0,19.6 15.882,35.485 35.479,35.485 19.595,0 35.481,-15.885 35.481,-35.485"
       style="fill:#fffffe;fill-opacity:1;fill-rule:nonzero;stroke:none;stroke-width:0.1"
       id="path290" /><path
       d="m 150.442,627.231 c -19.597,0 -35.486,-15.887 -35.486,-35.486 0,-8.756 3.18,-16.768 8.438,-22.955 5.262,-3.083 11.373,-4.857 17.907,-4.857 19.595,0 35.481,15.889 35.481,35.486 0,8.76 -3.175,16.765 -8.434,22.956 -5.257,3.08 -11.377,4.856 -17.906,4.856"
       style="fill:#fae0aa;fill-opacity:1;fill-rule:nonzero;stroke:none;stroke-width:0.1"
       id="path292" /><path
       d="m 146.796,590.091 c 0,-3.032 -2.459,-5.492 -5.492,-5.492 -3.032,0 -5.493,2.46 -5.493,5.492 0,3.033 2.461,5.492 5.493,5.492 3.033,0 5.492,-2.459 5.492,-5.492"
       style="fill:#b58982;fill-opacity:1;fill-rule:nonzero;stroke:none;stroke-width:0.1"
       id="path294" /><path
       d="m 136.344,621.74 c 0,-2.036 -1.65,-3.688 -3.689,-3.688 -2.034,0 -3.683,1.652 -3.683,3.688 0,2.038 1.649,3.69 3.683,3.69 2.039,0 3.689,-1.652 3.689,-3.69"
       style="fill:#b58982;fill-opacity:1;fill-rule:nonzero;stroke:none;stroke-width:0.1"
       id="path296" /><path
       d="m 172.681,588.107 c 0,-1.349 -1.096,-2.444 -2.448,-2.444 -1.349,0 -2.44,1.095 -2.44,2.444 0,1.348 1.091,2.442 2.44,2.442 1.352,0 2.448,-1.094 2.448,-2.442"
       style="fill:#b58982;fill-opacity:1;fill-rule:nonzero;stroke:none;stroke-width:0.1"
       id="path298" /><path
       d="m 167.793,603.041 c 0,-1.07 -0.868,-1.937 -1.938,-1.937 -1.068,0 -1.935,0.867 -1.935,1.937 0,1.068 0.867,1.936 1.935,1.936 1.07,0 1.938,-0.868 1.938,-1.936"
       style="fill:#b58982;fill-opacity:1;fill-rule:nonzero;stroke:none;stroke-width:0.1"
       id="path300" /><path
       d="m 173.777,613.717 c -2.261,-0.704 -3.911,-2.788 -3.911,-5.282 0,-3.07 2.485,-5.558 5.555,-5.558 0.41,0 0.801,0.051 1.182,0.134 -0.379,3.776 -1.357,7.373 -2.826,10.706"
       style="fill:#b58982;fill-opacity:1;fill-rule:nonzero;stroke:none;stroke-width:0.1"
       id="path302" /><path
       d="m 148.426,634.187 c -0.024,-0.208 -0.062,-0.414 -0.062,-0.63 0,-3.069 2.488,-5.557 5.559,-5.557 1.913,0 3.602,0.968 4.596,2.443 -3.104,1.728 -6.498,3.01 -10.093,3.744"
       style="fill:#b58982;fill-opacity:1;fill-rule:nonzero;stroke:none;stroke-width:0.1"
       id="path304" /><path
       d="m 135.768,577.044 c -5.265,0 -9.532,-4.269 -9.532,-9.536 l 0.01,-0.224 c 4.571,-2.145 9.67,-3.351 15.055,-3.351 1.134,0 2.255,0.058 3.359,0.163 0.409,1.061 0.643,2.207 0.643,3.412 0,5.267 -4.27,9.536 -9.535,9.536"
       style="fill:#b58982;fill-opacity:1;fill-rule:nonzero;stroke:none;stroke-width:0.1"
       id="path306" /><path
       d="m 112.728,602.877 c -2.544,0 -4.908,-0.77 -6.873,-2.092 -0.017,-0.455 -0.033,-0.907 -0.033,-1.366 0,-7.941 2.611,-15.275 7.019,-21.19 6.753,0.061 12.214,5.551 12.214,12.32 0,6.809 -5.519,12.328 -12.327,12.328"
       style="fill:#b58982;fill-opacity:1;fill-rule:nonzero;stroke:none;stroke-width:0.1"
       id="path308" /><g
       id="g310"
       transform="scale(0.1)"><g
         id="g312"
         clip-path="url(#clipPath316)"><path
           d="m 1058.22,5639.33 h 709.602 v 709.703 H 1058.22 Z"
           style="fill:#70718d;fill-opacity:1;fill-rule:nonzero;stroke:none"
           id="path318" /></g></g><path
       d="m 141.301,563.933 c 1.134,0 2.255,0.058 3.359,0.163 0.409,1.061 0.643,2.207 0.643,3.412 0,5.267 -4.27,9.536 -9.535,9.536 -5.265,0 -9.532,-4.269 -9.532,-9.536 l 0.009,-0.22 c -0.975,0.459 -1.926,0.96 -2.851,1.502 -2.582,3.038 -4.663,6.516 -6.112,10.307 4.553,1.81 7.773,6.254 7.773,11.452 0,5.477 -3.571,10.119 -8.511,11.725 2.254,7.264 6.78,13.53 12.745,17.966 0.575,-1.289 1.866,-2.188 3.366,-2.188 2.039,0 3.689,1.652 3.689,3.688 0,0.843 -0.282,1.62 -0.758,2.241 4.519,2.086 9.553,3.25 14.856,3.25 6.529,0 12.649,-1.776 17.906,-4.856 3.876,-4.561 6.619,-10.108 7.795,-16.217 -0.509,2.635 -1.311,5.165 -2.366,7.559 -2.261,-0.704 -3.911,-2.788 -3.911,-5.282 0,-3.07 2.485,-5.558 5.555,-5.558 0.41,0 0.8,0.051 1.182,0.134 0.09,-0.898 0.147,-1.805 0.169,-2.721 v -10e-4 c 0,-0.013 0,-0.026 0.001,-0.039 0,-0.007 0,-0.011 0,-0.016 0,-0.012 0.001,-0.023 0.001,-0.035 0,-0.007 0,-0.013 0,-0.02 0,-0.011 0.001,-0.022 0.001,-0.032 0,-0.007 0,-0.015 0,-0.022 0.001,-0.011 0.001,-0.021 0.001,-0.032 0,-0.007 0,-0.016 0,-0.023 10e-4,-0.01 10e-4,-0.02 10e-4,-0.03 0,-0.008 0,-0.017 0,-0.025 0,-0.01 0.001,-0.019 0.001,-0.029 0,-0.008 0,-0.018 0,-0.027 0,-0.009 0,-0.018 0.001,-0.027 0,-0.009 0,-0.019 0,-0.029 0,-0.016 0,-0.031 0.001,-0.047 0,-0.011 0,-0.02 0,-0.031 0,-0.007 0,-0.015 0,-0.023 0,-0.01 0,-0.02 0.001,-0.031 0,-0.008 0,-0.016 0,-0.024 0,-0.01 0,-0.021 0,-0.031 0,-0.008 0,-0.016 0,-0.024 0,-0.01 0,-0.021 0,-0.03 0,-0.008 0.001,-0.016 0.001,-0.024 0,-0.011 0,-0.022 0,-0.033 0,-0.007 0,-0.014 0,-0.021 0,-0.012 0,-0.023 0,-0.035 0,-0.007 0,-0.013 0,-0.02 0,-0.013 0,-0.026 0,-0.039 0,-0.005 0,-0.01 0,-0.016 0,-0.018 0,-0.037 0,-0.055 0,-19.597 -15.886,-35.486 -35.481,-35.486 m 0.003,31.65 c -3.032,0 -5.493,-2.459 -5.493,-5.492 0,-3.032 2.461,-5.492 5.493,-5.492 3.033,0 5.492,2.46 5.492,5.492 0,3.033 -2.459,5.492 -5.492,5.492 m 28.929,-5.034 c -1.349,0 -2.44,-1.094 -2.44,-2.442 0,-1.349 1.091,-2.444 2.44,-2.444 1.352,0 2.448,1.095 2.448,2.444 0,1.348 -1.096,2.442 -2.448,2.442 m -4.378,14.428 c -1.068,0 -1.935,-0.868 -1.935,-1.936 0,-1.07 0.867,-1.937 1.935,-1.937 1.07,0 1.938,0.867 1.938,1.937 0,1.068 -0.868,1.936 -1.938,1.936 m -24.934,-41.042 c 0,0 -0.001,0 -0.002,0 v 0 0 0 c -0.005,0 -0.01,0 -0.014,0 0.005,0 0.011,0 0.016,0 m -0.07,0.001 c -0.009,0 -0.018,0 -0.026,0 0.009,0 0.017,0 0.026,0 m -0.071,10e-4 c -0.009,0 -0.019,0 -0.028,0 0.009,0 0.019,0 0.028,0 m -0.07,10e-4 c -0.01,0 -0.02,0 -0.03,0 0.01,0 0.02,0 0.03,0 m -0.074,10e-4 c -0.009,0 -0.017,0 -0.026,0.001 0.008,-0.001 0.017,-0.001 0.026,-0.001 m -0.093,0.002 c -0.01,0 -0.021,0 -0.031,10e-4 0.01,-10e-4 0.021,-10e-4 0.031,-10e-4 m -0.068,0.002 c -0.012,0 -0.025,0 -0.036,0 0.011,0 0.024,0 0.036,0 m -0.069,10e-4 c -0.012,0 -0.026,0.001 -0.038,0.001 0.013,0 0.025,-0.001 0.038,-0.001 m -0.07,0.002 c -0.012,0 -0.025,10e-4 -0.037,10e-4 0.013,0 0.025,-10e-4 0.037,-10e-4 m -0.07,0.002 c -0.024,10e-4 -0.049,10e-4 -0.073,0.002 0.024,-0.001 0.049,-0.001 0.073,-0.002 m -0.099,0.003 c -0.014,0 -0.028,10e-4 -0.043,10e-4 0.015,0 0.029,-10e-4 0.043,-10e-4 m -0.067,0.002 c -0.015,10e-4 -0.029,10e-4 -0.044,0.002 0.015,-0.001 0.029,-0.001 0.044,-0.002 m -0.068,0.002 c -0.015,10e-4 -0.03,10e-4 -0.044,0.002 0.014,-10e-4 0.029,-10e-4 0.044,-0.002 m -0.065,0.003 c -0.055,0.002 -0.109,0.004 -0.164,0.006 0.054,-0.002 0.109,-0.004 0.164,-0.006 m -0.174,0.007 c -0.017,0 -0.034,10e-4 -0.051,0.002 0.017,-10e-4 0.034,-0.002 0.051,-0.002 m -0.067,0.003 c -0.016,0 -0.034,0.001 -0.05,0.002 0.017,-10e-4 0.033,-0.002 0.05,-0.002 m -0.065,0.002 c -0.018,10e-4 -0.036,0.002 -0.053,0.003 0.017,-10e-4 0.036,-0.002 0.053,-0.003 m -0.056,0.003 c -0.082,0.004 -0.163,0.008 -0.245,0.012 0.082,-0.004 0.164,-0.008 0.245,-0.012 m -0.249,0.013 c -0.02,10e-4 -0.039,0.002 -0.059,0.003 0.02,-10e-4 0.039,-0.002 0.059,-0.003 m -0.063,0.003 c -0.807,0.045 -1.607,0.118 -2.399,0.216 0.792,-0.098 1.592,-0.171 2.399,-0.216 m -2.403,0.217 c -0.019,0.002 -0.039,0.005 -0.057,0.007 0.019,-0.002 0.038,-0.005 0.057,-0.007 m -0.064,0.008 c -0.059,0.007 -0.119,0.015 -0.178,0.023 0.059,-0.008 0.119,-0.016 0.178,-0.023 m -0.178,0.023 c -0.016,0.002 -0.031,0.004 -0.047,0.006 0.016,-0.002 0.031,-0.004 0.047,-0.006 m -0.069,0.009 c -0.014,0.002 -0.028,0.004 -0.041,0.006 0.014,-0.002 0.027,-0.004 0.041,-0.006 m -0.067,0.009 c -0.013,0.002 -0.027,0.004 -0.04,0.005 0.013,-10e-4 0.027,-0.003 0.04,-0.005 m -0.072,0.01 c -0.011,10e-4 -0.022,0.003 -0.033,0.004 0.011,-10e-4 0.022,-0.003 0.033,-0.004 m -0.099,0.014 c -0.004,0 -0.008,10e-4 -0.012,10e-4 0.004,0 0.008,-10e-4 0.012,-10e-4 m -0.07,0.009 c -0.005,10e-4 -0.011,0.002 -0.017,0.003 0.006,-0.001 0.012,-0.002 0.017,-0.003 m -0.071,0.011 c -0.005,0 -0.01,10e-4 -0.015,0.002 0.005,-0.001 0.01,-0.002 0.015,-0.002 m -0.08,0.011 c -0.001,0.001 -0.002,0.001 -0.002,0.001 0,0 0.001,0 0.002,-0.001"
       style="fill:#70676a;fill-opacity:1;fill-rule:nonzero;stroke:none;stroke-width:0.1"
       id="path320" /><path
       d="m 141.212,563.933 c -0.01,0 -0.021,0 -0.032,0 0.009,0 0.019,0 0.028,0 0.002,0 0.003,0 0.004,0"
       style="fill:#70718d;fill-opacity:1;fill-rule:nonzero;stroke:none;stroke-width:0.1"
       id="path322" /><path
       d="m 141.221,563.933 c -0.004,0 -0.005,0 -0.009,0 v 0 c -10e-4,0 -0.002,0 -0.004,0 0.004,0 0.009,0 0.013,0"
       style="fill:#70676a;fill-opacity:1;fill-rule:nonzero;stroke:none;stroke-width:0.1"
       id="path324" /><path
       d="m 141.141,563.933 c -0.007,0 -0.015,0 -0.022,10e-4 0.004,-10e-4 0.009,-10e-4 0.014,-10e-4 0.003,0 0.005,0 0.008,0"
       style="fill:#70718d;fill-opacity:1;fill-rule:nonzero;stroke:none;stroke-width:0.1"
       id="path326" /><path
       d="m 141.16,563.933 c -0.006,0 -0.013,0 -0.019,0 v 0 c -0.003,0 -0.005,0 -0.008,0 0.009,0 0.018,0 0.027,0"
       style="fill:#70676a;fill-opacity:1;fill-rule:nonzero;stroke:none;stroke-width:0.1"
       id="path328" /><path
       d="m 141.099,563.934 c -0.014,0 -0.029,0 -0.043,0 0.002,0 0.004,0 0.006,0 0.008,0 0.017,0 0.026,0 0.004,0 0.008,0 0.011,0"
       style="fill:#70718d;fill-opacity:1;fill-rule:nonzero;stroke:none;stroke-width:0.1"
       id="path330" /><path
       d="m 141.088,563.934 c -0.009,0 -0.018,0 -0.026,0 0.009,0 0.017,0 0.026,0"
       style="fill:#70676a;fill-opacity:1;fill-rule:nonzero;stroke:none;stroke-width:0.1"
       id="path332" /><path
       d="m 141.04,563.934 c -0.013,0 -0.028,0 -0.041,0 0.005,0 0.01,0 0.014,0 0.009,0 0.018,0 0.027,0"
       style="fill:#70718d;fill-opacity:1;fill-rule:nonzero;stroke:none;stroke-width:0.1"
       id="path334" /><path
       d="m 141.013,563.934 c -0.004,0 -0.009,0 -0.014,0 v 0 c -0.004,0 -0.005,0 -0.008,0 0.007,0 0.015,0 0.022,0"
       style="fill:#70676a;fill-opacity:1;fill-rule:nonzero;stroke:none;stroke-width:0.1"
       id="path336" /><path
       d="m 140.982,563.934 c -0.019,10e-4 -0.039,10e-4 -0.058,10e-4 0.019,0 0.038,0 0.058,-10e-4"
       style="fill:#70718d;fill-opacity:1;fill-rule:nonzero;stroke:none;stroke-width:0.1"
       id="path338" /><path
       d="m 141.304,584.599 c -3.032,0 -5.493,2.46 -5.493,5.492 0,3.033 2.461,5.492 5.493,5.492 3.033,0 5.492,-2.459 5.492,-5.492 0,-3.032 -2.459,-5.492 -5.492,-5.492"
       style="fill:#5a4b59;fill-opacity:1;fill-rule:nonzero;stroke:none;stroke-width:0.1"
       id="path340" /><path
       d="m 132.655,618.052 c -1.5,0 -2.791,0.899 -3.366,2.188 -0.204,0.458 -0.317,0.966 -0.317,1.5 0,2.038 1.649,3.69 3.683,3.69 1.196,0 2.258,-0.568 2.931,-1.449 0.476,-0.621 0.758,-1.398 0.758,-2.241 0,-2.036 -1.65,-3.688 -3.689,-3.688"
       style="fill:#5a4b59;fill-opacity:1;fill-rule:nonzero;stroke:none;stroke-width:0.1"
       id="path342" /><path
       d="m 170.233,585.663 c -1.349,0 -2.44,1.095 -2.44,2.444 0,1.348 1.091,2.442 2.44,2.442 1.352,0 2.448,-1.094 2.448,-2.442 0,-1.349 -1.096,-2.444 -2.448,-2.444"
       style="fill:#5a4b59;fill-opacity:1;fill-rule:nonzero;stroke:none;stroke-width:0.1"
       id="path344" /><path
       d="m 165.855,601.104 c -1.068,0 -1.935,0.867 -1.935,1.937 0,1.068 0.867,1.936 1.935,1.936 1.07,0 1.938,-0.868 1.938,-1.936 0,-1.07 -0.868,-1.937 -1.938,-1.937"
       style="fill:#5a4b59;fill-opacity:1;fill-rule:nonzero;stroke:none;stroke-width:0.1"
       id="path346" /><path
       d="m 175.421,602.877 c -3.07,0 -5.555,2.488 -5.555,5.558 0,2.494 1.65,4.578 3.911,5.282 1.055,-2.394 1.857,-4.924 2.366,-7.559 0.058,-0.301 0.112,-0.603 0.162,-0.907 0.123,-0.739 0.222,-1.487 0.298,-2.24 v 0 c -0.382,-0.083 -0.772,-0.134 -1.182,-0.134"
       style="fill:#5a4b59;fill-opacity:1;fill-rule:nonzero;stroke:none;stroke-width:0.1"
       id="path348" /><path
       d="m 153.923,628 c -3.071,0 -5.559,2.488 -5.559,5.557 0,0.216 0.038,0.422 0.062,0.63 3.595,-0.734 6.989,-2.016 10.093,-3.744 -0.994,-1.475 -2.683,-2.443 -4.596,-2.443"
       style="fill:#5a4b59;fill-opacity:1;fill-rule:nonzero;stroke:none;stroke-width:0.1"
       id="path350" /><path
       d="m 141.301,563.933 v 0 c -0.02,0 -0.04,0 -0.06,0 v 0 c -0.006,0 -0.014,0 -0.02,0 -0.004,0 -0.009,0 -0.013,0 -0.009,0 -0.019,0 -0.028,0 v 0 c -0.007,0 -0.013,0 -0.02,0 -0.009,0 -0.018,0 -0.027,0 -0.005,0 -0.01,0 -0.014,10e-4 v 0 c -0.006,0 -0.014,0 -0.02,0 v 0 c -0.003,0 -0.007,0 -0.011,0 -0.009,0 -0.017,0 -0.026,0 -0.002,0 -0.004,0 -0.006,0 v 0 c -0.006,0 -0.01,0 -0.016,0 v 0 c -0.009,0 -0.018,0 -0.027,0 -0.007,0 -0.015,0 -0.022,0 -0.003,0 -0.007,0 -0.009,0 v 0 c -0.02,10e-4 -0.039,10e-4 -0.058,10e-4 v 0 c -0.001,0 0,0 -0.001,0 v 0 c -0.001,0 -0.001,0 -0.002,0 -0.005,0 -0.011,0 -0.016,0 -0.018,0 -0.036,0.001 -0.054,0.001 -0.009,0 -0.017,0 -0.026,0 -0.015,0 -0.03,10e-4 -0.045,10e-4 -0.009,0 -0.019,0 -0.028,0 -0.014,0 -0.028,10e-4 -0.042,10e-4 -0.01,0 -0.02,0 -0.03,0 -0.015,10e-4 -0.03,10e-4 -0.044,10e-4 -0.009,0 -0.018,0 -0.026,0.001 -0.022,0 -0.045,10e-4 -0.067,10e-4 -0.01,0 -0.021,0 -0.031,10e-4 -0.013,0 -0.025,0 -0.037,10e-4 -0.012,0 -0.025,0 -0.036,0 -0.012,10e-4 -0.022,10e-4 -0.033,10e-4 -0.013,0 -0.025,0.001 -0.038,0.001 -0.011,0 -0.021,10e-4 -0.032,10e-4 -0.012,0 -0.024,10e-4 -0.037,10e-4 -0.011,0 -0.022,10e-4 -0.033,10e-4 -0.024,10e-4 -0.049,10e-4 -0.073,0.002 -0.009,0 -0.017,10e-4 -0.026,10e-4 -0.014,0 -0.028,10e-4 -0.043,10e-4 -0.008,10e-4 -0.016,10e-4 -0.024,10e-4 -0.015,10e-4 -0.029,10e-4 -0.044,0.002 -0.008,0 -0.016,0 -0.024,0 -0.015,10e-4 -0.03,10e-4 -0.044,0.002 -0.007,0 -0.014,10e-4 -0.021,10e-4 -0.055,0.002 -0.11,0.004 -0.164,0.006 -0.004,0 -0.007,10e-4 -0.01,10e-4 -0.017,0 -0.034,10e-4 -0.051,0.002 -0.005,0 -0.011,0 -0.016,10e-4 -0.017,0 -0.033,0.001 -0.05,0.002 -0.005,0 -0.01,0 -0.015,0 -0.017,10e-4 -0.036,0.002 -0.053,0.003 -0.001,0 -0.002,0 -0.003,0 -0.081,0.004 -0.163,0.008 -0.245,0.012 -0.001,10e-4 -0.002,10e-4 -0.004,10e-4 -0.02,10e-4 -0.039,0.002 -0.059,0.003 -0.001,0 -0.003,0 -0.004,0 -0.807,0.045 -1.607,0.118 -2.399,0.216 -0.001,10e-4 -0.003,10e-4 -0.004,10e-4 -0.019,0.002 -0.038,0.005 -0.057,0.007 -0.003,0 -0.004,0.001 -0.007,0.001 -0.059,0.007 -0.119,0.015 -0.178,0.023 v 0 c -0.016,0.002 -0.031,0.004 -0.047,0.006 -0.007,10e-4 -0.014,0.002 -0.022,0.003 -0.014,0.002 -0.027,0.004 -0.041,0.006 -0.009,0.001 -0.018,0.002 -0.026,0.003 -0.013,0.002 -0.027,0.004 -0.04,0.005 -0.011,0.002 -0.021,0.003 -0.032,0.005 -0.011,10e-4 -0.022,0.003 -0.033,0.004 -0.022,0.003 -0.044,0.007 -0.066,0.01 -0.004,0 -0.008,10e-4 -0.012,10e-4 -0.019,0.003 -0.038,0.006 -0.058,0.008 -0.005,10e-4 -0.011,0.002 -0.017,0.003 -0.018,0.003 -0.036,0.005 -0.054,0.008 -0.005,0 -0.01,10e-4 -0.015,0.002 -0.022,0.003 -0.044,0.006 -0.065,0.009 -0.001,0.001 -0.002,0.001 -0.002,0.001 -3.481,0.511 -6.796,1.53 -9.872,2.973 l -10e-4,0.004 -0.009,0.22 c 0,5.267 4.267,9.536 9.532,9.536 5.265,0 9.535,-4.269 9.535,-9.536 0,-1.205 -0.234,-2.351 -0.643,-3.412 -1.104,-0.105 -2.225,-0.163 -3.359,-0.163 v 0"
       style="fill:#5a4b59;fill-opacity:1;fill-rule:nonzero;stroke:none;stroke-width:0.1"
       id="path352" /><path
       d="m 105.833,598.539 c 0,0.014 -0.001,0.028 -0.001,0.043 0,-0.014 0.001,-0.029 0.001,-0.043"
       style="fill:#70718d;fill-opacity:1;fill-rule:nonzero;stroke:none;stroke-width:0.1"
       id="path354" /><path
       d="m 105.832,598.588 c -0.002,0.056 -0.003,0.114 -0.004,0.17 10e-4,-0.057 0.002,-0.113 0.004,-0.17"
       style="fill:#70718d;fill-opacity:1;fill-rule:nonzero;stroke:none;stroke-width:0.1"
       id="path356" /><path
       d="m 105.828,598.775 c 0,0.011 0,0.021 -0.001,0.031 0.001,-0.01 0.001,-0.021 0.001,-0.031"
       style="fill:#70718d;fill-opacity:1;fill-rule:nonzero;stroke:none;stroke-width:0.1"
       id="path358" /><path
       d="m 105.827,598.827 c 0,0.01 0,0.021 0,0.03 0,-0.01 0,-0.019 0,-0.03"
       style="fill:#70718d;fill-opacity:1;fill-rule:nonzero;stroke:none;stroke-width:0.1"
       id="path360" /><path
       d="m 105.826,598.88 c 0,0.009 0,0.019 0,0.028 0,-0.009 0,-0.019 0,-0.028"
       style="fill:#70718d;fill-opacity:1;fill-rule:nonzero;stroke:none;stroke-width:0.1"
       id="path362" /><path
       d="m 105.825,598.956 c 0,0.008 0,0.014 0,0.021 0,-0.007 0,-0.014 0,-0.021"
       style="fill:#70718d;fill-opacity:1;fill-rule:nonzero;stroke:none;stroke-width:0.1"
       id="path364" /><path
       d="m 105.825,599.009 c -0.001,0.007 -0.001,0.016 -0.001,0.023 0,-0.007 0,-0.015 0.001,-0.023"
       style="fill:#70718d;fill-opacity:1;fill-rule:nonzero;stroke:none;stroke-width:0.1"
       id="path366" /><path
       d="m 105.824,599.062 c 0,0.008 0,0.015 0,0.022 0,-0.007 0,-0.014 0,-0.022"
       style="fill:#70718d;fill-opacity:1;fill-rule:nonzero;stroke:none;stroke-width:0.1"
       id="path368" /><path
       d="m 105.823,599.12 c 0,0.005 0,0.011 0,0.016 0,-0.005 0,-0.01 0,-0.016"
       style="fill:#70718d;fill-opacity:1;fill-rule:nonzero;stroke:none;stroke-width:0.1"
       id="path370" /><path
       d="m 105.823,599.189 c 0,0.002 0,0.007 0,0.01 0,-0.004 0,-0.007 0,-0.01"
       style="fill:#70718d;fill-opacity:1;fill-rule:nonzero;stroke:none;stroke-width:0.1"
       id="path372" /><path
       d="m 105.823,599.24 c 0,0.007 0,0.013 0,0.02 0,-0.006 0,-0.013 0,-0.02"
       style="fill:#70718d;fill-opacity:1;fill-rule:nonzero;stroke:none;stroke-width:0.1"
       id="path374" /><path
       d="m 105.822,599.295 c 0,0.006 0,0.012 0,0.018 0,-0.006 0,-0.012 0,-0.018"
       style="fill:#70718d;fill-opacity:1;fill-rule:nonzero;stroke:none;stroke-width:0.1"
       id="path376" /><path
       d="m 105.822,599.35 c 0,0.005 0,0.012 0,0.017 0,-0.006 0,-0.011 0,-0.017"
       style="fill:#70718d;fill-opacity:1;fill-rule:nonzero;stroke:none;stroke-width:0.1"
       id="path378" /><path
       d="m 112.841,578.229 c -4.244,5.695 -6.822,12.705 -7.008,20.307 v 0 c 0,0.001 0,0.002 0,0.003 v 0 c 0,0.014 -0.001,0.029 -0.001,0.043 v 0 c 0,0.002 0,0.004 0,0.006 v 0 c -0.002,0.057 -0.003,0.113 -0.004,0.17 v 0 c 0,0.006 0,0.011 0,0.017 v 0 c 0,0.01 0,0.021 -0.001,0.031 v 0 c 0,0.007 0,0.014 0,0.021 v 0 c 0,0.011 0,0.02 0,0.03 v 0 c -0.001,0.007 -0.001,0.015 -0.001,0.023 v 0 c 0,0.009 0,0.019 0,0.028 v 0 c 0,0.017 -10e-4,0.032 -10e-4,0.048 v 0 c 0,0.007 0,0.014 0,0.021 v 0 c 0,0.011 0,0.022 0,0.032 v 0 c -0.001,0.008 -0.001,0.016 -0.001,0.023 v 0 c 0,0.01 0,0.021 0,0.03 v 0 c 0,0.008 0,0.015 0,0.022 v 0 c 0,0.013 0,0.023 -0.001,0.036 v 0 c 0,0.006 0,0.011 0,0.016 v 0 c 0,0.018 0,0.035 0,0.053 v 0 c 0,0.003 0,0.006 0,0.01 v 0 c 0,0.014 0,0.027 0,0.041 v 0 c 0,0.007 0,0.014 0,0.02 v 0 c -10e-4,0.011 -10e-4,0.024 -10e-4,0.035 v 0 c 0,0.006 0,0.012 0,0.018 v 0 c 0,0.013 0,0.024 0,0.037 v 0 c 0,0.006 0,0.011 0,0.017 v 0 c 0,0.017 0,0.034 0,0.052 v 0 0 c 0,0.459 0.016,0.911 0.033,1.366 1.965,1.322 4.329,2.092 6.873,2.092 1.332,0 2.615,-0.212 3.816,-0.603 4.94,-1.606 8.511,-6.248 8.511,-11.725 0,-5.198 -3.22,-9.642 -7.773,-11.452 -1.376,-0.547 -2.874,-0.854 -4.441,-0.868"
       style="fill:#5a4b59;fill-opacity:1;fill-rule:nonzero;stroke:none;stroke-width:0.1"
       id="path380" /></g></svg>
