<?xml version="1.0" encoding="UTF-8" standalone="no"?>
<!-- Created with Inkscape (http://www.inkscape.org/) -->

<svg
   version="1.1"
   id="svg2"
   xml:space="preserve"
   width="95.152"
   height="94.626663"
   viewBox="0 0 95.152 94.626663"
   sodipodi:docname="quarto_crescente.svg"
   inkscape:version="1.1.1 (3bf5ae0d25, 2021-09-20)"
   xmlns:inkscape="http://www.inkscape.org/namespaces/inkscape"
   xmlns:sodipodi="http://sodipodi.sourceforge.net/DTD/sodipodi-0.dtd"
   xmlns="http://www.w3.org/2000/svg"
   xmlns:svg="http://www.w3.org/2000/svg"><defs
     id="defs6"><clipPath
       clipPathUnits="userSpaceOnUse"
       id="clipPath20"><path
         d="M 0,2000 H 5000 V 7000 H 0 Z"
         id="path18" /></clipPath><clipPath
       clipPathUnits="userSpaceOnUse"
       id="clipPath168"><path
         d="m 3092.47,2417.31 c -49.63,10.93 -101.15,16.78 -154.04,16.78 -62.8,0 -123.74,-8.19 -181.84,-23.48 214.56,-155.06 354.55,-407.2 354.55,-691.58 v -266.47 h 345.06 v 266.47 c 0,288.45 -143.95,543.8 -363.73,698.28"
         id="path166" /></clipPath><clipPath
       clipPathUnits="userSpaceOnUse"
       id="clipPath316"><path
         d="m 1413.01,5639.33 c -0.2,0 -0.39,0 -0.6,0 0.2,0 0.4,0 0.6,0 m -3.78,0.02 c -0.02,0 -0.03,0 -0.04,0 0.01,0 0.02,0 0.02,0 0.01,0 0.01,0 0.02,0 m -0.04,0 c -191.27,2.03 -346.2,155.39 -350.86,346.01 1.86,-76.02 27.64,-146.12 70.08,-203.07 15.67,0.14 30.65,3.21 44.41,8.68 14.49,-37.91 35.3,-72.69 61.12,-103.07 9.25,-5.42 18.76,-10.43 28.51,-15.02 l 0.01,-0.04 c 30.76,-14.43 63.91,-24.62 98.72,-29.73 0,0 0.01,0 0.02,-0.01 0.21,-0.03 0.43,-0.06 0.65,-0.09 0.05,-0.01 0.1,-0.02 0.15,-0.02 0.18,-0.03 0.36,-0.05 0.54,-0.08 0.06,-0.01 0.12,-0.02 0.17,-0.03 0.2,-0.02 0.39,-0.05 0.58,-0.08 0.04,0 0.08,-0.01 0.12,-0.01 0.22,-0.03 0.44,-0.07 0.66,-0.1 0.11,-0.01 0.22,-0.03 0.33,-0.04 0.11,-0.02 0.21,-0.03 0.32,-0.05 0.13,-0.01 0.27,-0.03 0.4,-0.05 0.08,-0.01 0.17,-0.02 0.26,-0.03 0.13,-0.02 0.27,-0.04 0.41,-0.06 0.08,-0.01 0.15,-0.02 0.22,-0.03 0.16,-0.02 0.31,-0.04 0.47,-0.06 v 0 c 0.59,-0.08 1.19,-0.16 1.78,-0.23 0.03,0 0.04,-0.01 0.07,-0.01 0.18,-0.02 0.38,-0.05 0.57,-0.07 0.01,0 0.03,0 0.04,-0.01 7.92,-0.98 15.92,-1.71 23.99,-2.16 0.01,0 0.03,0 0.04,0 0.2,-0.01 0.39,-0.02 0.59,-0.03 0.02,0 0.03,0 0.04,-0.01 0.82,-0.04 1.63,-0.08 2.45,-0.12 0.01,0 0.02,0 0.03,0 0.17,-0.01 0.35,-0.02 0.53,-0.03 0.05,0 0.1,0 0.15,0 0.16,-0.01 0.34,-0.02 0.5,-0.02 0.05,-0.01 0.11,-0.01 0.16,-0.01 0.17,-0.01 0.34,-0.02 0.51,-0.02 0.03,0 0.06,-0.01 0.1,-0.01 0.55,-0.02 1.09,-0.04 1.64,-0.06 0.07,0 0.14,-0.01 0.21,-0.01 0.14,-0.01 0.29,-0.01 0.44,-0.02 0.08,0 0.16,0 0.24,0 0.15,-0.01 0.29,-0.01 0.44,-0.02 0.08,0 0.16,0 0.24,-0.01 0.15,0 0.29,-0.01 0.43,-0.01 0.09,0 0.17,-0.01 0.26,-0.01 0.24,-0.01 0.49,-0.01 0.73,-0.02 0.11,0 0.22,-0.01 0.33,-0.01 0.12,0 0.25,-0.01 0.37,-0.01 0.11,0 0.21,-0.01 0.32,-0.01 0.12,0 0.26,-0.01 0.38,-0.01 0.11,0 0.21,0 0.33,-0.01 0.11,0 0.24,0 0.36,0 0.12,-0.01 0.24,-0.01 0.37,-0.01 0.1,-0.01 0.21,-0.01 0.31,-0.01 0.22,0 0.45,-0.01 0.67,-0.01 0.09,-0.01 0.17,-0.01 0.26,-0.01 0.14,0 0.29,0 0.44,-0.01 0.1,0 0.2,0 0.3,0 0.14,0 0.28,-0.01 0.42,-0.01 0.09,0 0.19,0 0.28,0 0.15,0 0.3,-0.01 0.45,-0.01 0.08,0 0.17,0 0.26,0 0.18,0 0.36,-0.01 0.54,-0.01 0.04,0 0.09,0 0.14,0 m -350.97,354.84 c 0,196 158.82,354.85 354.79,354.85 176.09,0 322.24,-128.28 350.04,-296.53 -0.5,3.04 -1.04,6.06 -1.62,9.07 -11.76,61.09 -39.19,116.56 -77.95,162.17 -52.57,30.8 -113.77,48.56 -179.06,48.56 -53.03,0 -103.37,-11.64 -148.56,-32.5 -6.73,8.81 -17.35,14.49 -29.31,14.49 -20.34,0 -36.83,-16.52 -36.83,-36.9 0,-5.34 1.13,-10.42 3.17,-15 -59.65,-44.36 -104.91,-107.02 -127.45,-179.66 -12.01,3.91 -24.84,6.03 -38.16,6.03 -25.44,0 -49.08,-7.7 -68.73,-20.92 -0.17,-4.55 -0.33,-9.07 -0.33,-13.66 m 426.04,347.68 c -0.24,-2.08 -0.62,-4.14 -0.62,-6.3 0,-30.69 24.88,-55.57 55.59,-55.57 19.13,0 36.02,9.68 45.96,24.43 -31.04,17.28 -64.98,30.1 -100.93,37.44 m 283.56,-347.13 c 0,0.06 0,0.11 0,0.16 0,-0.06 0,-0.1 0,-0.16 m 0,0.55 c 0,0.07 0,0.13 0,0.2 0,-0.06 0,-0.14 0,-0.2 m 0,0.55 c 0,0.07 0,0.14 0,0.21 0,-0.07 0,-0.14 0,-0.21 m 0,0.54 c 0,0.08 -0.01,0.16 -0.01,0.24 0,-0.08 0.01,-0.16 0.01,-0.24 m -0.01,0.54 c 0,0.08 0,0.16 0,0.24 0,-0.08 0,-0.16 0,-0.24 m 0,0.55 c 0,0.08 0,0.16 0,0.24 0,-0.08 0,-0.16 0,-0.24 m -0.01,0.55 c 0,0.08 0,0.16 0,0.23 0,-0.07 0,-0.15 0,-0.23 m 0,0.54 c -0.01,0.16 -0.01,0.31 -0.01,0.47 0,-0.15 0,-0.32 0.01,-0.47 m -0.01,0.76 c -0.01,0.09 -0.01,0.18 -0.01,0.27 0,-0.09 0,-0.17 0.01,-0.27 m -0.01,0.54 c 0,0.1 -0.01,0.19 -0.01,0.29 0,-0.1 0.01,-0.19 0.01,-0.29 m -0.01,0.54 c 0,0.1 0,0.2 -0.01,0.3 0.01,-0.11 0.01,-0.19 0.01,-0.3 m -0.01,0.53 c 0,0.11 0,0.21 -0.01,0.32 0.01,-0.11 0.01,-0.21 0.01,-0.32 m -0.01,0.54 c 0,0.1 -0.01,0.21 -0.01,0.32 0,-0.11 0.01,-0.21 0.01,-0.32 m -0.01,0.52 c 0,0.12 -0.01,0.23 -0.01,0.35 0,-0.11 0.01,-0.24 0.01,-0.35 m -0.01,0.51 c -0.01,0.13 -0.01,0.26 -0.01,0.39 0,-0.13 0,-0.26 0.01,-0.39 m -0.01,0.4 c -0.22,9.16 -0.79,18.23 -1.69,27.21 v 0 c 0.9,-8.98 1.47,-18.06 1.69,-27.21"
         id="path314" /></clipPath></defs><sodipodi:namedview
     id="namedview4"
     pagecolor="#505050"
     bordercolor="#eeeeee"
     borderopacity="1"
     inkscape:pageshadow="0"
     inkscape:pageopacity="0"
     inkscape:pagecheckerboard="0"
     showgrid="false"
     fit-margin-top="0"
     fit-margin-left="0"
     fit-margin-right="0"
     fit-margin-bottom="0"
     inkscape:zoom="2"
     inkscape:cx="-68.25"
     inkscape:cy="-124.25"
     inkscape:window-width="2534"
     inkscape:window-height="1374"
     inkscape:window-x="10"
     inkscape:window-y="50"
     inkscape:window-maximized="1"
     inkscape:current-layer="g8" /><g
     id="g8"
     inkscape:groupmode="layer"
     inkscape:label="ink_ext_XXXXXX"
     transform="matrix(1.3333333,0,0,-1.3333333,-141.096,587.60932)"><path
       d="m 176.782,405.224 c 0,-19.598 -15.886,-35.487 -35.481,-35.487 -19.597,0 -35.479,15.889 -35.479,35.487 0,19.598 15.882,35.483 35.479,35.483 19.595,0 35.481,-15.885 35.481,-35.483"
       style="fill:#fffffe;fill-opacity:1;fill-rule:nonzero;stroke:none;stroke-width:0.1"
       id="path646" /><path
       d="m 150.442,433.035 c -19.597,0 -35.486,-15.886 -35.486,-35.486 0,-8.757 3.18,-16.77 8.438,-22.955 5.262,-3.082 11.373,-4.857 17.907,-4.857 19.595,0 35.481,15.889 35.481,35.487 0,8.757 -3.175,16.765 -8.434,22.955 -5.257,3.08 -11.377,4.856 -17.906,4.856"
       style="fill:#fae0aa;fill-opacity:1;fill-rule:nonzero;stroke:none;stroke-width:0.1"
       id="path648" /><path
       d="m 146.796,395.896 c 0,-3.034 -2.459,-5.493 -5.492,-5.493 -3.032,0 -5.493,2.459 -5.493,5.493 0,3.032 2.461,5.491 5.493,5.491 3.033,0 5.492,-2.459 5.492,-5.491"
       style="fill:#b58982;fill-opacity:1;fill-rule:nonzero;stroke:none;stroke-width:0.1"
       id="path650" /><path
       d="m 136.344,427.545 c 0,-2.037 -1.65,-3.689 -3.689,-3.689 -2.034,0 -3.683,1.652 -3.683,3.689 0,2.037 1.649,3.687 3.683,3.687 2.039,0 3.689,-1.65 3.689,-3.687"
       style="fill:#b58982;fill-opacity:1;fill-rule:nonzero;stroke:none;stroke-width:0.1"
       id="path652" /><path
       d="m 172.681,393.911 c 0,-1.35 -1.096,-2.445 -2.448,-2.445 -1.349,0 -2.44,1.095 -2.44,2.445 0,1.347 1.091,2.442 2.44,2.442 1.352,0 2.448,-1.095 2.448,-2.442"
       style="fill:#b58982;fill-opacity:1;fill-rule:nonzero;stroke:none;stroke-width:0.1"
       id="path654" /><path
       d="m 167.793,408.845 c 0,-1.071 -0.868,-1.938 -1.938,-1.938 -1.068,0 -1.935,0.867 -1.935,1.938 0,1.067 0.867,1.935 1.935,1.935 1.07,0 1.938,-0.868 1.938,-1.935"
       style="fill:#b58982;fill-opacity:1;fill-rule:nonzero;stroke:none;stroke-width:0.1"
       id="path656" /><path
       d="m 173.777,419.521 c -2.261,-0.704 -3.911,-2.788 -3.911,-5.283 0,-3.069 2.485,-5.558 5.555,-5.558 0.41,0 0.801,0.052 1.182,0.134 -0.379,3.776 -1.357,7.374 -2.826,10.707"
       style="fill:#b58982;fill-opacity:1;fill-rule:nonzero;stroke:none;stroke-width:0.1"
       id="path658" /><path
       d="m 148.426,439.99 c -0.024,-0.208 -0.062,-0.412 -0.062,-0.629 0,-3.07 2.488,-5.558 5.559,-5.558 1.913,0 3.602,0.97 4.596,2.444 -3.104,1.729 -6.498,3.01 -10.093,3.743"
       style="fill:#b58982;fill-opacity:1;fill-rule:nonzero;stroke:none;stroke-width:0.1"
       id="path660" /><path
       d="m 135.768,382.847 c -5.265,0 -9.532,-4.268 -9.532,-9.535 l 0.01,-0.223 c 4.571,-2.147 9.67,-3.352 15.055,-3.352 1.134,0 2.255,0.058 3.359,0.162 0.409,1.061 0.643,2.208 0.643,3.413 0,5.267 -4.27,9.535 -9.535,9.535"
       style="fill:#b58982;fill-opacity:1;fill-rule:nonzero;stroke:none;stroke-width:0.1"
       id="path662" /><path
       d="m 112.728,408.68 c -2.544,0 -4.908,-0.771 -6.873,-2.091 -0.017,-0.455 -0.033,-0.907 -0.033,-1.365 0,-7.943 2.611,-15.276 7.019,-21.19 6.753,0.06 12.214,5.55 12.214,12.319 0,6.81 -5.519,12.327 -12.327,12.327"
       style="fill:#b58982;fill-opacity:1;fill-rule:nonzero;stroke:none;stroke-width:0.1"
       id="path664" /><path
       d="m 141.708,369.737 v 0.003 c 19.407,0.217 35.074,16.022 35.074,35.484 v 0 0 0 c 0,0.018 0,0.036 0,0.054 0,0.006 0,0.01 0,0.016 0,0.013 0,0.026 0,0.039 0,0.007 0,0.013 0,0.02 0,0.012 0,0.024 0,0.035 0,0.007 0,0.014 0,0.021 0,0.011 0,0.022 0,0.033 0,0.008 -0.001,0.016 -0.001,0.024 0,0.01 0,0.02 0,0.03 0,0.008 0,0.016 0,0.025 0,0.009 0,0.02 0,0.029 0,0.009 0,0.017 0,0.026 -0.001,0.009 -0.001,0.019 -0.001,0.029 0,0.008 0,0.017 0,0.025 0,0.009 0,0.018 0,0.026 -0.001,0.037 -0.001,0.077 -0.002,0.114 0,0.006 0,0.013 0,0.019 0,0.011 -0.001,0.023 -0.001,0.033 0,0.007 0,0.014 0,0.021 0,0.012 0,0.023 -10e-4,0.034 0,0.006 0,0.013 0,0.019 0,0.011 0,0.024 -0.001,0.036 0,0.005 0,0.011 0,0.017 0,0.013 -0.001,0.024 -0.001,0.037 0,0.005 0,0.009 0,0.013 0,0.014 -0.001,0.028 -0.001,0.041 0,0.003 0,0.005 0,0.008 -0.021,0.932 -0.079,1.854 -0.17,2.766 v 0 c -0.071,0.716 -0.165,1.424 -0.279,2.126 -2.713,16.751 -17.149,29.57 -34.616,29.765 v 0.002 c 19.596,0 35.478,-15.885 35.478,-35.483 0,-19.598 -15.882,-35.487 -35.478,-35.487"
       style="fill:#0e121a;fill-opacity:1;fill-rule:nonzero;stroke:none;stroke-width:0.1"
       id="path666" /><path
       d="m 176.782,405.278 c 0,0.006 0,0.011 0,0.016 0,-0.006 0,-0.01 0,-0.016 m 0,0.055 c 0,0.007 0,0.013 0,0.02 0,-0.007 0,-0.013 0,-0.02 m 0,0.055 c 0,0.007 0,0.014 0,0.021 0,-0.007 0,-0.014 0,-0.021 m 0,0.054 c 0,0.008 -0.001,0.016 -0.001,0.024 0,-0.008 0.001,-0.016 0.001,-0.024 m -0.001,0.054 c 0,0.008 0,0.016 0,0.025 0,-0.009 0,-0.017 0,-0.025 m 0,0.054 c 0,0.009 0,0.017 0,0.026 0,-0.009 0,-0.017 0,-0.026 m -0.001,0.055 c 0,0.008 0,0.017 0,0.025 0,-0.008 0,-0.017 0,-0.025 m 0,0.051 c -0.001,0.038 -0.001,0.076 -0.002,0.114 0.001,-0.037 0.001,-0.077 0.002,-0.114 m -0.002,0.133 c 0,0.012 -0.001,0.022 -0.001,0.033 0,-0.01 0.001,-0.022 0.001,-0.033 m -0.001,0.054 c 0,0.012 0,0.023 -10e-4,0.034 10e-4,-0.011 10e-4,-0.022 10e-4,-0.034 m -10e-4,0.053 c 0,0.011 0,0.024 -0.001,0.036 0.001,-0.012 0.001,-0.025 0.001,-0.036 m -0.001,0.053 c 0,0.012 -0.001,0.025 -0.001,0.037 0,-0.013 0.001,-0.024 0.001,-0.037 m -0.001,0.05 c 0,0.014 -0.001,0.028 -0.001,0.041 0,-0.013 0.001,-0.027 0.001,-0.041 m -0.001,0.049 c -0.021,0.931 -0.079,1.854 -0.17,2.766 v 0 c 0.091,-0.912 0.149,-1.834 0.17,-2.766 m -0.449,4.892 c -0.056,0.343 -0.116,0.685 -0.182,1.024 -1.176,6.107 -3.919,11.654 -7.794,16.215 -5.257,3.08 -11.377,4.856 -17.906,4.856 -3.014,0 -5.94,-0.376 -8.734,-1.083 v 8.753 c 17.467,-0.195 31.903,-13.014 34.616,-29.765 m -27.898,29.05 c -0.024,-0.208 -0.062,-0.412 -0.062,-0.629 0,-3.07 2.488,-5.558 5.559,-5.558 1.913,0 3.602,0.97 4.596,2.444 -3.104,1.729 -6.498,3.01 -10.093,3.743"
       style="fill:#70718d;fill-opacity:1;fill-rule:nonzero;stroke:none;stroke-width:0.1"
       id="path668" /><path
       d="m 141.708,369.74 v 0 c 0.995,0.012 1.98,0.067 2.952,0.159 0.409,1.061 0.643,2.208 0.643,3.413 0,3.021 -1.404,5.713 -3.595,7.46 v 9.645 c 2.844,0.207 5.088,2.581 5.088,5.479 0,2.896 -2.244,5.27 -5.088,5.477 v 30.579 c 2.794,0.707 5.72,1.083 8.734,1.083 6.529,0 12.649,-1.776 17.906,-4.856 3.875,-4.561 6.618,-10.108 7.794,-16.215 -0.509,2.634 -1.31,5.163 -2.365,7.557 -2.261,-0.704 -3.911,-2.788 -3.911,-5.283 0,-3.069 2.485,-5.558 5.555,-5.558 0.41,0 0.8,0.051 1.182,0.134 0.091,-0.912 0.149,-1.835 0.17,-2.766 0,-0.003 0,-0.005 0,-0.008 0,-0.013 0.001,-0.027 0.001,-0.041 0,-0.004 0,-0.008 0,-0.013 0,-0.012 0.001,-0.025 0.001,-0.037 0,-0.006 0,-0.012 0,-0.017 0.001,-0.012 0.001,-0.025 0.001,-0.036 0,-0.006 0,-0.013 0,-0.019 10e-4,-0.011 10e-4,-0.022 10e-4,-0.034 0,-0.007 0,-0.014 0,-0.021 0,-0.011 0.001,-0.021 0.001,-0.033 0,-0.006 0,-0.013 0,-0.019 0.001,-0.038 0.001,-0.076 0.002,-0.114 0,-0.008 0,-0.017 0,-0.026 0,-0.008 0,-0.017 0,-0.025 0,-0.01 0,-0.02 0.001,-0.029 0,-0.009 0,-0.017 0,-0.026 0,-0.009 0,-0.02 0,-0.029 0,-0.009 0,-0.017 0,-0.025 0,-0.01 0,-0.02 0,-0.03 0,-0.008 0.001,-0.016 0.001,-0.024 0,-0.011 0,-0.022 0,-0.033 0,-0.007 0,-0.014 0,-0.021 0,-0.011 0,-0.023 0,-0.035 0,-0.007 0,-0.013 0,-0.02 0,-0.013 0,-0.026 0,-0.039 0,-0.005 0,-0.01 0,-0.016 0,-0.018 0,-0.036 0,-0.054 v 0 0 c 0,-19.462 -15.667,-35.267 -35.074,-35.484 m 28.525,26.613 c -1.349,0 -2.44,-1.095 -2.44,-2.442 0,-1.35 1.091,-2.445 2.44,-2.445 1.352,0 2.448,1.095 2.448,2.445 0,1.347 -1.096,2.442 -2.448,2.442 m -4.378,14.427 c -1.068,0 -1.935,-0.868 -1.935,-1.935 0,-1.071 0.867,-1.938 1.935,-1.938 1.07,0 1.938,0.867 1.938,1.938 0,1.067 -0.868,1.935 -1.938,1.935"
       style="fill:#70676a;fill-opacity:1;fill-rule:nonzero;stroke:none;stroke-width:0.1"
       id="path670" /><path
       d="m 141.708,390.417 v 10.956 c 2.844,-0.207 5.088,-2.581 5.088,-5.477 0,-2.898 -2.244,-5.272 -5.088,-5.479"
       style="fill:#5a4b59;fill-opacity:1;fill-rule:nonzero;stroke:none;stroke-width:0.1"
       id="path672" /><path
       d="m 170.233,391.466 c -1.349,0 -2.44,1.095 -2.44,2.445 0,1.347 1.091,2.442 2.44,2.442 1.352,0 2.448,-1.095 2.448,-2.442 0,-1.35 -1.096,-2.445 -2.448,-2.445"
       style="fill:#5a4b59;fill-opacity:1;fill-rule:nonzero;stroke:none;stroke-width:0.1"
       id="path674" /><path
       d="m 165.855,406.907 c -1.068,0 -1.935,0.867 -1.935,1.938 0,1.067 0.867,1.935 1.935,1.935 1.07,0 1.938,-0.868 1.938,-1.935 0,-1.071 -0.868,-1.938 -1.938,-1.938"
       style="fill:#5a4b59;fill-opacity:1;fill-rule:nonzero;stroke:none;stroke-width:0.1"
       id="path676" /><path
       d="m 175.421,408.68 c -3.07,0 -5.555,2.489 -5.555,5.558 0,2.495 1.65,4.579 3.911,5.283 1.055,-2.394 1.856,-4.923 2.365,-7.557 0.066,-0.339 0.126,-0.681 0.182,-1.024 0.114,-0.702 0.208,-1.41 0.279,-2.126 v 0 0 c -0.382,-0.083 -0.772,-0.134 -1.182,-0.134"
       style="fill:#5a4b59;fill-opacity:1;fill-rule:nonzero;stroke:none;stroke-width:0.1"
       id="path678" /><path
       d="m 153.923,433.803 c -3.071,0 -5.559,2.488 -5.559,5.558 0,0.217 0.038,0.421 0.062,0.629 3.595,-0.733 6.989,-2.014 10.093,-3.743 -0.994,-1.474 -2.683,-2.444 -4.596,-2.444"
       style="fill:#5a4b59;fill-opacity:1;fill-rule:nonzero;stroke:none;stroke-width:0.1"
       id="path680" /><path
       d="m 141.708,369.74 v 11.032 c 2.191,-1.747 3.595,-4.439 3.595,-7.46 0,-1.205 -0.234,-2.352 -0.643,-3.413 -0.972,-0.092 -1.957,-0.147 -2.952,-0.159"
       style="fill:#5a4b59;fill-opacity:1;fill-rule:nonzero;stroke:none;stroke-width:0.1"
       id="path682" /></g></svg>
