<?xml version="1.0" encoding="UTF-8" standalone="no"?>
<!-- Created with Inkscape (http://www.inkscape.org/) -->

<svg
   version="1.1"
   id="svg2"
   xml:space="preserve"
   width="94.613335"
   height="94.627998"
   viewBox="0 0 94.613334 94.627998"
   sodipodi:docname="quarto_minguante.svg"
   inkscape:version="1.1.1 (3bf5ae0d25, 2021-09-20)"
   xmlns:inkscape="http://www.inkscape.org/namespaces/inkscape"
   xmlns:sodipodi="http://sodipodi.sourceforge.net/DTD/sodipodi-0.dtd"
   xmlns="http://www.w3.org/2000/svg"
   xmlns:svg="http://www.w3.org/2000/svg"><defs
     id="defs6"><clipPath
       clipPathUnits="userSpaceOnUse"
       id="clipPath20"><path
         d="M 0,2000 H 5000 V 7000 H 0 Z"
         id="path18" /></clipPath><clipPath
       clipPathUnits="userSpaceOnUse"
       id="clipPath168"><path
         d="m 3092.47,2417.31 c -49.63,10.93 -101.15,16.78 -154.04,16.78 -62.8,0 -123.74,-8.19 -181.84,-23.48 214.56,-155.06 354.55,-407.2 354.55,-691.58 v -266.47 h 345.06 v 266.47 c 0,288.45 -143.95,543.8 -363.73,698.28"
         id="path166" /></clipPath><clipPath
       clipPathUnits="userSpaceOnUse"
       id="clipPath316"><path
         d="m 1413.01,5639.33 c -0.2,0 -0.39,0 -0.6,0 0.2,0 0.4,0 0.6,0 m -3.78,0.02 c -0.02,0 -0.03,0 -0.04,0 0.01,0 0.02,0 0.02,0 0.01,0 0.01,0 0.02,0 m -0.04,0 c -191.27,2.03 -346.2,155.39 -350.86,346.01 1.86,-76.02 27.64,-146.12 70.08,-203.07 15.67,0.14 30.65,3.21 44.41,8.68 14.49,-37.91 35.3,-72.69 61.12,-103.07 9.25,-5.42 18.76,-10.43 28.51,-15.02 l 0.01,-0.04 c 30.76,-14.43 63.91,-24.62 98.72,-29.73 0,0 0.01,0 0.02,-0.01 0.21,-0.03 0.43,-0.06 0.65,-0.09 0.05,-0.01 0.1,-0.02 0.15,-0.02 0.18,-0.03 0.36,-0.05 0.54,-0.08 0.06,-0.01 0.12,-0.02 0.17,-0.03 0.2,-0.02 0.39,-0.05 0.58,-0.08 0.04,0 0.08,-0.01 0.12,-0.01 0.22,-0.03 0.44,-0.07 0.66,-0.1 0.11,-0.01 0.22,-0.03 0.33,-0.04 0.11,-0.02 0.21,-0.03 0.32,-0.05 0.13,-0.01 0.27,-0.03 0.4,-0.05 0.08,-0.01 0.17,-0.02 0.26,-0.03 0.13,-0.02 0.27,-0.04 0.41,-0.06 0.08,-0.01 0.15,-0.02 0.22,-0.03 0.16,-0.02 0.31,-0.04 0.47,-0.06 v 0 c 0.59,-0.08 1.19,-0.16 1.78,-0.23 0.03,0 0.04,-0.01 0.07,-0.01 0.18,-0.02 0.38,-0.05 0.57,-0.07 0.01,0 0.03,0 0.04,-0.01 7.92,-0.98 15.92,-1.71 23.99,-2.16 0.01,0 0.03,0 0.04,0 0.2,-0.01 0.39,-0.02 0.59,-0.03 0.02,0 0.03,0 0.04,-0.01 0.82,-0.04 1.63,-0.08 2.45,-0.12 0.01,0 0.02,0 0.03,0 0.17,-0.01 0.35,-0.02 0.53,-0.03 0.05,0 0.1,0 0.15,0 0.16,-0.01 0.34,-0.02 0.5,-0.02 0.05,-0.01 0.11,-0.01 0.16,-0.01 0.17,-0.01 0.34,-0.02 0.51,-0.02 0.03,0 0.06,-0.01 0.1,-0.01 0.55,-0.02 1.09,-0.04 1.64,-0.06 0.07,0 0.14,-0.01 0.21,-0.01 0.14,-0.01 0.29,-0.01 0.44,-0.02 0.08,0 0.16,0 0.24,0 0.15,-0.01 0.29,-0.01 0.44,-0.02 0.08,0 0.16,0 0.24,-0.01 0.15,0 0.29,-0.01 0.43,-0.01 0.09,0 0.17,-0.01 0.26,-0.01 0.24,-0.01 0.49,-0.01 0.73,-0.02 0.11,0 0.22,-0.01 0.33,-0.01 0.12,0 0.25,-0.01 0.37,-0.01 0.11,0 0.21,-0.01 0.32,-0.01 0.12,0 0.26,-0.01 0.38,-0.01 0.11,0 0.21,0 0.33,-0.01 0.11,0 0.24,0 0.36,0 0.12,-0.01 0.24,-0.01 0.37,-0.01 0.1,-0.01 0.21,-0.01 0.31,-0.01 0.22,0 0.45,-0.01 0.67,-0.01 0.09,-0.01 0.17,-0.01 0.26,-0.01 0.14,0 0.29,0 0.44,-0.01 0.1,0 0.2,0 0.3,0 0.14,0 0.28,-0.01 0.42,-0.01 0.09,0 0.19,0 0.28,0 0.15,0 0.3,-0.01 0.45,-0.01 0.08,0 0.17,0 0.26,0 0.18,0 0.36,-0.01 0.54,-0.01 0.04,0 0.09,0 0.14,0 m -350.97,354.84 c 0,196 158.82,354.85 354.79,354.85 176.09,0 322.24,-128.28 350.04,-296.53 -0.5,3.04 -1.04,6.06 -1.62,9.07 -11.76,61.09 -39.19,116.56 -77.95,162.17 -52.57,30.8 -113.77,48.56 -179.06,48.56 -53.03,0 -103.37,-11.64 -148.56,-32.5 -6.73,8.81 -17.35,14.49 -29.31,14.49 -20.34,0 -36.83,-16.52 -36.83,-36.9 0,-5.34 1.13,-10.42 3.17,-15 -59.65,-44.36 -104.91,-107.02 -127.45,-179.66 -12.01,3.91 -24.84,6.03 -38.16,6.03 -25.44,0 -49.08,-7.7 -68.73,-20.92 -0.17,-4.55 -0.33,-9.07 -0.33,-13.66 m 426.04,347.68 c -0.24,-2.08 -0.62,-4.14 -0.62,-6.3 0,-30.69 24.88,-55.57 55.59,-55.57 19.13,0 36.02,9.68 45.96,24.43 -31.04,17.28 -64.98,30.1 -100.93,37.44 m 283.56,-347.13 c 0,0.06 0,0.11 0,0.16 0,-0.06 0,-0.1 0,-0.16 m 0,0.55 c 0,0.07 0,0.13 0,0.2 0,-0.06 0,-0.14 0,-0.2 m 0,0.55 c 0,0.07 0,0.14 0,0.21 0,-0.07 0,-0.14 0,-0.21 m 0,0.54 c 0,0.08 -0.01,0.16 -0.01,0.24 0,-0.08 0.01,-0.16 0.01,-0.24 m -0.01,0.54 c 0,0.08 0,0.16 0,0.24 0,-0.08 0,-0.16 0,-0.24 m 0,0.55 c 0,0.08 0,0.16 0,0.24 0,-0.08 0,-0.16 0,-0.24 m -0.01,0.55 c 0,0.08 0,0.16 0,0.23 0,-0.07 0,-0.15 0,-0.23 m 0,0.54 c -0.01,0.16 -0.01,0.31 -0.01,0.47 0,-0.15 0,-0.32 0.01,-0.47 m -0.01,0.76 c -0.01,0.09 -0.01,0.18 -0.01,0.27 0,-0.09 0,-0.17 0.01,-0.27 m -0.01,0.54 c 0,0.1 -0.01,0.19 -0.01,0.29 0,-0.1 0.01,-0.19 0.01,-0.29 m -0.01,0.54 c 0,0.1 0,0.2 -0.01,0.3 0.01,-0.11 0.01,-0.19 0.01,-0.3 m -0.01,0.53 c 0,0.11 0,0.21 -0.01,0.32 0.01,-0.11 0.01,-0.21 0.01,-0.32 m -0.01,0.54 c 0,0.1 -0.01,0.21 -0.01,0.32 0,-0.11 0.01,-0.21 0.01,-0.32 m -0.01,0.52 c 0,0.12 -0.01,0.23 -0.01,0.35 0,-0.11 0.01,-0.24 0.01,-0.35 m -0.01,0.51 c -0.01,0.13 -0.01,0.26 -0.01,0.39 0,-0.13 0,-0.26 0.01,-0.39 m -0.01,0.4 c -0.22,9.16 -0.79,18.23 -1.69,27.21 v 0 c 0.9,-8.98 1.47,-18.06 1.69,-27.21"
         id="path314" /></clipPath></defs><sodipodi:namedview
     id="namedview4"
     pagecolor="#505050"
     bordercolor="#eeeeee"
     borderopacity="1"
     inkscape:pageshadow="0"
     inkscape:pageopacity="0"
     inkscape:pagecheckerboard="0"
     showgrid="false"
     fit-margin-top="0"
     fit-margin-left="0"
     fit-margin-right="0"
     fit-margin-bottom="0"
     inkscape:zoom="2"
     inkscape:cx="-175.25"
     inkscape:cy="145.25"
     inkscape:window-width="2534"
     inkscape:window-height="1374"
     inkscape:window-x="10"
     inkscape:window-y="50"
     inkscape:window-maximized="1"
     inkscape:current-layer="g8" /><g
     id="g8"
     inkscape:groupmode="layer"
     inkscape:label="ink_ext_XXXXXX"
     transform="matrix(1.3333333,0,0,-1.3333333,-438.83199,846.53865)"><path
       d="m 400.084,599.419 c 0,-19.597 -15.887,-35.486 -35.482,-35.486 -19.597,0 -35.478,15.889 -35.478,35.486 0,19.6 15.881,35.485 35.478,35.485 19.595,0 35.482,-15.885 35.482,-35.485"
       style="fill:#fffffe;fill-opacity:1;fill-rule:nonzero;stroke:none;stroke-width:0.1"
       id="path684" /><path
       d="m 373.743,627.231 c -19.597,0 -35.485,-15.887 -35.485,-35.486 0,-8.756 3.179,-16.768 8.437,-22.955 5.261,-3.083 11.373,-4.857 17.907,-4.857 19.595,0 35.482,15.889 35.482,35.486 0,8.76 -3.175,16.765 -8.435,22.956 -5.256,3.08 -11.377,4.856 -17.906,4.856"
       style="fill:#fae0aa;fill-opacity:1;fill-rule:nonzero;stroke:none;stroke-width:0.1"
       id="path686" /><path
       d="m 370.097,590.091 c 0,-3.032 -2.459,-5.492 -5.492,-5.492 -3.033,0 -5.493,2.46 -5.493,5.492 0,3.033 2.46,5.492 5.493,5.492 3.033,0 5.492,-2.459 5.492,-5.492"
       style="fill:#b58982;fill-opacity:1;fill-rule:nonzero;stroke:none;stroke-width:0.1"
       id="path688" /><path
       d="m 359.646,621.74 c 0,-2.036 -1.651,-3.688 -3.691,-3.688 -2.034,0 -3.683,1.652 -3.683,3.688 0,2.038 1.649,3.69 3.683,3.69 2.04,0 3.691,-1.652 3.691,-3.69"
       style="fill:#b58982;fill-opacity:1;fill-rule:nonzero;stroke:none;stroke-width:0.1"
       id="path690" /><path
       d="m 395.982,588.107 c 0,-1.349 -1.095,-2.444 -2.449,-2.444 -1.347,0 -2.439,1.095 -2.439,2.444 0,1.348 1.092,2.442 2.439,2.442 1.354,0 2.449,-1.094 2.449,-2.442"
       style="fill:#b58982;fill-opacity:1;fill-rule:nonzero;stroke:none;stroke-width:0.1"
       id="path692" /><path
       d="m 391.094,603.041 c 0,-1.07 -0.867,-1.937 -1.937,-1.937 -1.068,0 -1.935,0.867 -1.935,1.937 0,1.068 0.867,1.936 1.935,1.936 1.07,0 1.937,-0.868 1.937,-1.936"
       style="fill:#b58982;fill-opacity:1;fill-rule:nonzero;stroke:none;stroke-width:0.1"
       id="path694" /><path
       d="m 397.077,613.717 c -2.26,-0.704 -3.909,-2.788 -3.909,-5.282 0,-3.07 2.485,-5.558 5.555,-5.558 0.409,0 0.8,0.051 1.18,0.134 -0.379,3.776 -1.356,7.373 -2.826,10.706"
       style="fill:#b58982;fill-opacity:1;fill-rule:nonzero;stroke:none;stroke-width:0.1"
       id="path696" /><path
       d="m 371.728,634.187 c -0.025,-0.208 -0.063,-0.414 -0.063,-0.63 0,-3.069 2.488,-5.557 5.559,-5.557 1.914,0 3.601,0.968 4.597,2.443 -3.104,1.728 -6.499,3.01 -10.093,3.744"
       style="fill:#b58982;fill-opacity:1;fill-rule:nonzero;stroke:none;stroke-width:0.1"
       id="path698" /><path
       d="m 359.07,577.044 c -5.264,0 -9.531,-4.269 -9.531,-9.536 l 0.008,-0.224 c 4.572,-2.145 9.669,-3.351 15.055,-3.351 1.134,0 2.255,0.058 3.359,0.163 0.409,1.061 0.641,2.207 0.641,3.412 0,5.267 -4.268,9.536 -9.532,9.536"
       style="fill:#b58982;fill-opacity:1;fill-rule:nonzero;stroke:none;stroke-width:0.1"
       id="path700" /><path
       d="m 336.028,602.877 c -2.544,0 -4.906,-0.77 -6.872,-2.092 -0.017,-0.455 -0.032,-0.907 -0.032,-1.366 0,-7.941 2.608,-15.275 7.017,-21.19 6.754,0.061 12.214,5.551 12.214,12.32 0,6.809 -5.518,12.328 -12.327,12.328"
       style="fill:#b58982;fill-opacity:1;fill-rule:nonzero;stroke:none;stroke-width:0.1"
       id="path702" /><path
       d="m 364.602,563.933 v 0 0 0"
       style="fill:#0e121a;fill-opacity:1;fill-rule:nonzero;stroke:none;stroke-width:0.1"
       id="path704" /><path
       d="m 364.591,563.933 c -0.017,0 -0.031,0 -0.048,0 0.016,0 0.032,0 0.048,0 m -0.081,0 c -0.008,0 -0.019,0 -0.027,0 0.009,0 0.017,0 0.026,0 10e-4,0 0,0 10e-4,0"
       style="fill:#70718d;fill-opacity:1;fill-rule:nonzero;stroke:none;stroke-width:0.1"
       id="path706" /><path
       d="m 364.513,563.933 c -10e-4,0 -0.002,0 -0.003,0 -10e-4,0 0,0 -10e-4,0 10e-4,0 0.003,0 0.004,0"
       style="fill:#70676a;fill-opacity:1;fill-rule:nonzero;stroke:none;stroke-width:0.1"
       id="path708" /><path
       d="m 364.439,563.933 c -0.005,0 -0.011,0 -0.016,0 0.003,0 0.007,0 0.01,0 0.002,0 0.004,0 0.006,0"
       style="fill:#70718d;fill-opacity:1;fill-rule:nonzero;stroke:none;stroke-width:0.1"
       id="path710" /><path
       d="m 364.451,563.933 c -0.005,0 -0.008,0 -0.012,0 -0.002,0 -0.004,0 -0.006,0 0.006,0 0.012,0 0.018,0"
       style="fill:#70676a;fill-opacity:1;fill-rule:nonzero;stroke:none;stroke-width:0.1"
       id="path712" /><path
       d="m 364.391,563.934 c -0.003,0 -0.008,0 -0.012,0 0.003,0 0.006,0 0.009,0 0.001,0 0.002,0 0.003,0"
       style="fill:#70718d;fill-opacity:1;fill-rule:nonzero;stroke:none;stroke-width:0.1"
       id="path714" /><path
       d="m 364.388,563.934 c -0.003,0 -0.006,0 -0.009,0 -0.006,0 -0.011,0 -0.017,0 0.009,0 0.018,0 0.026,0"
       style="fill:#70676a;fill-opacity:1;fill-rule:nonzero;stroke:none;stroke-width:0.1"
       id="path716" /><path
       d="m 364.332,563.934 c -0.01,0 -0.017,0 -0.027,0 0.003,0 0.005,0 0.008,0 0.006,0 0.013,0 0.019,0"
       style="fill:#70718d;fill-opacity:1;fill-rule:nonzero;stroke:none;stroke-width:0.1"
       id="path718" /><path
       d="m 364.313,563.934 c -0.003,0 -0.005,0 -0.008,0 -0.001,0 -0.003,0 -0.004,0 0.004,0 0.008,0 0.012,0"
       style="fill:#70676a;fill-opacity:1;fill-rule:nonzero;stroke:none;stroke-width:0.1"
       id="path720" /><path
       d="m 364.274,563.935 c -0.012,0 -0.024,0 -0.036,0 0.012,0 0.024,0 0.036,0 m -0.061,0 c -0.013,0 -0.027,0 -0.04,0.001 0.011,-0.001 0.023,-0.001 0.034,-0.001 0.002,0 0.004,0 0.006,0"
       style="fill:#70718d;fill-opacity:1;fill-rule:nonzero;stroke:none;stroke-width:0.1"
       id="path722" /><path
       d="m 364.214,563.935 c -10e-4,0 0,0 -10e-4,0 -0.002,0 -0.004,0 -0.006,0 0.003,0 0.005,0 0.007,0"
       style="fill:#70676a;fill-opacity:1;fill-rule:nonzero;stroke:none;stroke-width:0.1"
       id="path724" /><path
       d="m 364.155,563.936 c -0.016,0 -0.033,0 -0.05,0 0.007,0 0.015,0 0.021,0 0.009,0 0.016,0 0.025,0 10e-4,0 0.003,0 0.004,0"
       style="fill:#70718d;fill-opacity:1;fill-rule:nonzero;stroke:none;stroke-width:0.1"
       id="path726" /><path
       d="m 364.151,563.936 c -0.009,0 -0.016,0 -0.025,0 0.009,0 0.017,0 0.025,0"
       style="fill:#70676a;fill-opacity:1;fill-rule:nonzero;stroke:none;stroke-width:0.1"
       id="path728" /><path
       d="m 364.095,563.937 c -0.008,0 -0.016,0 -0.025,0 0.003,0 0.006,0 0.009,0 0.006,0 0.011,0 0.016,0 m -0.034,0 c -0.022,0 -0.046,10e-4 -0.069,10e-4 0.005,0 0.012,0 0.017,0 0.014,0 0.029,-10e-4 0.044,-10e-4 0.003,0 0.006,0 0.008,0 m -0.072,10e-4 c -11.402,0.193 -21.494,5.767 -27.848,14.291 1.567,0.014 3.066,0.321 4.442,0.868 1.449,-3.79 3.53,-7.269 6.112,-10.307 0.925,-0.542 1.876,-1.043 2.852,-1.502 v -0.004 c 3.272,-1.535 6.812,-2.589 10.535,-3.064 0.001,-10e-4 0.001,-10e-4 0.003,-10e-4 0.022,-0.003 0.044,-0.005 0.067,-0.008 0.004,-10e-4 0.008,-10e-4 0.012,-0.002 0.019,-0.002 0.039,-0.005 0.058,-0.007 0.005,-10e-4 0.01,-10e-4 0.015,-0.002 0.02,-0.002 0.041,-0.005 0.061,-0.007 0.003,-10e-4 0.006,-10e-4 0.009,-10e-4 0.024,-0.003 0.048,-0.006 0.071,-0.009 0.002,0 0.004,0 0.006,-10e-4 0.021,-0.002 0.042,-0.005 0.063,-0.007 0.007,-10e-4 0.014,-0.002 0.021,-0.003 0.016,-10e-4 0.032,-0.003 0.047,-0.005 0.009,-10e-4 0.017,-0.002 0.025,-0.003 0.015,-0.002 0.031,-0.003 0.046,-0.005 0.008,-10e-4 0.016,-0.002 0.024,-0.003 0.017,-0.002 0.032,-0.003 0.049,-0.005 0.007,-10e-4 0.014,-0.002 0.021,-0.003 0.022,-0.002 0.043,-0.004 0.065,-0.007 0.01,-10e-4 0.02,-0.002 0.03,-0.003 0.012,-0.001 0.025,-0.003 0.037,-0.004 0.012,-10e-4 0.023,-0.002 0.035,-0.004 0.011,-10e-4 0.022,-0.002 0.033,-0.003 0.012,-10e-4 0.024,-0.003 0.036,-0.004 0.01,-0.001 0.02,-0.002 0.031,-0.003 0.012,-10e-4 0.025,-0.003 0.038,-0.004 0.009,-10e-4 0.017,-0.002 0.026,-0.003 0.025,-0.002 0.051,-0.005 0.076,-0.007 0.009,-10e-4 0.018,-0.002 0.027,-0.003 0.012,-10e-4 0.026,-0.002 0.039,-0.004 0.009,-0.001 0.018,-0.001 0.028,-0.002 0.013,-0.002 0.027,-0.003 0.04,-0.004 0.009,-10e-4 0.018,-0.002 0.027,-0.003 0.014,-10e-4 0.027,-0.002 0.041,-0.004 0.009,0 0.017,-10e-4 0.026,-0.002 0.014,-10e-4 0.027,-0.003 0.041,-0.004 0.007,0 0.014,-0.001 0.021,-0.002 0.027,-0.002 0.055,-0.005 0.082,-0.007 0.009,-10e-4 0.017,-0.002 0.026,-0.002 0.013,-10e-4 0.027,-0.003 0.04,-0.004 0.009,-0.001 0.018,-0.001 0.027,-0.002 0.013,-10e-4 0.028,-0.002 0.041,-0.004 0.009,0 0.018,-10e-4 0.026,-0.002 0.014,-10e-4 0.028,-0.002 0.042,-0.003 0.008,-10e-4 0.014,-10e-4 0.021,-0.002 0.051,-0.004 0.101,-0.008 0.152,-0.012 0.007,-10e-4 0.015,-10e-4 0.022,-0.002 0.015,-10e-4 0.029,-0.002 0.043,-0.003 0.009,-10e-4 0.017,-10e-4 0.025,-0.002 0.014,-10e-4 0.028,-0.002 0.043,-0.003 0.008,-10e-4 0.016,-10e-4 0.024,-0.002 0.014,-10e-4 0.029,-0.002 0.044,-0.003 0.006,-10e-4 0.011,-10e-4 0.017,-10e-4 0.051,-0.004 0.103,-0.008 0.155,-0.011 0.007,-0.001 0.015,-0.001 0.023,-0.002 0.014,-10e-4 0.028,-10e-4 0.042,-0.002 0.009,-10e-4 0.018,-10e-4 0.027,-0.002 0.013,-10e-4 0.027,-0.002 0.04,-0.003 0.009,0 0.019,-10e-4 0.028,-10e-4 0.014,-0.001 0.028,-0.002 0.041,-0.003 0.006,0 0.012,-10e-4 0.018,-10e-4 0.028,-0.002 0.056,-0.003 0.084,-0.005 0.009,-10e-4 0.019,-10e-4 0.028,-0.002 0.012,0 0.025,-10e-4 0.037,-0.002 0.011,0 0.022,-10e-4 0.032,-0.002 0.013,0 0.025,-0.001 0.038,-0.002 0.01,0 0.02,-10e-4 0.03,-10e-4 0.013,-10e-4 0.026,-0.002 0.039,-0.002 0.01,-10e-4 0.019,-10e-4 0.03,-0.002 0.033,-0.002 0.067,-0.003 0.1,-0.005 h 0.001 c 0.012,-10e-4 0.024,-10e-4 0.036,-0.002 0.011,0 0.022,-0.001 0.033,-0.001 0.013,-10e-4 0.024,-10e-4 0.036,-0.002 0.012,-10e-4 0.023,-10e-4 0.034,-0.002 0.012,0 0.024,-0.001 0.036,-0.001 0.011,-10e-4 0.023,-10e-4 0.034,-0.002 0.012,0 0.023,-10e-4 0.034,-10e-4 0.014,-10e-4 0.028,-10e-4 0.041,-0.002 0.014,0 0.027,-10e-4 0.041,-10e-4 0.018,-10e-4 0.035,-0.002 0.053,-0.003 0.01,0 0.021,0 0.032,-10e-4 0.013,0 0.025,-10e-4 0.037,-10e-4 0.012,-10e-4 0.023,-10e-4 0.034,-10e-4 0.012,-10e-4 0.024,-10e-4 0.036,-0.002 0.012,0 0.023,0 0.034,-10e-4 0.013,0 0.026,-10e-4 0.038,-10e-4 0.01,0 0.021,-10e-4 0.031,-10e-4 0.018,-10e-4 0.036,-10e-4 0.055,-0.002 0.01,0 0.02,0 0.031,-10e-4 0.017,0 0.034,-10e-4 0.051,-10e-4 0.009,0 0.019,-10e-4 0.028,-10e-4 0.014,0 0.028,-10e-4 0.041,-10e-4 0.011,0 0.021,0 0.032,-0.001 0.013,0 0.026,0 0.04,-10e-4 0.009,0 0.02,0 0.03,0 0.015,-10e-4 0.03,-10e-4 0.045,-10e-4 0.008,-10e-4 0.016,-10e-4 0.025,-10e-4 0.022,0 0.045,-10e-4 0.068,-10e-4 0.007,0 0.013,-0.001 0.02,-0.001 0.017,0 0.033,0 0.05,-10e-4 0.003,0 0.006,0 0.008,0 m -34.865,35.481 c 0,19.6 15.882,35.485 35.478,35.485 v 0 -8.861 c -1.978,-0.526 -3.888,-1.219 -5.714,-2.062 -0.674,0.881 -1.737,1.449 -2.933,1.449 -2.034,0 -3.683,-1.652 -3.683,-3.69 0,-0.534 0.113,-1.042 0.318,-1.501 -5.965,-4.435 -10.49,-10.701 -12.744,-17.965 -1.202,0.391 -2.485,0.603 -3.818,0.603 -2.544,0 -4.906,-0.77 -6.872,-2.092 -0.017,-0.455 -0.032,-0.907 -0.032,-1.366"
       style="fill:#70718d;fill-opacity:1;fill-rule:nonzero;stroke:none;stroke-width:0.1"
       id="path730" /><path
       d="m 364.079,563.937 c -0.003,0 -0.006,0 -0.009,0 -0.002,0 -0.006,0 -0.009,0 -0.002,0 -0.005,0 -0.008,0 0.009,0 0.018,0 0.026,0 m -0.07,10e-4 c -0.005,0 -0.012,0 -0.017,0 -0.001,0 -0.001,0 -0.003,0 -0.002,0 -0.005,0 -0.008,0 0.009,0 0.018,0 0.028,0 m -0.078,10e-4 c -0.007,0 -0.013,0.001 -0.02,0.001 0.007,0 0.013,-0.001 0.02,-0.001 m -0.088,0.002 c -0.009,0 -0.017,0 -0.025,10e-4 0.008,-10e-4 0.016,-10e-4 0.025,-10e-4 m -0.07,0.002 c -0.01,0 -0.021,0 -0.03,0 0.01,0 0.02,0 0.03,0 m -0.07,10e-4 c -0.011,0.001 -0.021,0.001 -0.032,0.001 0.011,0 0.022,0 0.032,-0.001 m -0.073,0.002 c -0.009,0 -0.019,10e-4 -0.028,10e-4 0.01,0 0.019,-10e-4 0.028,-10e-4 m -0.079,0.002 c -0.011,10e-4 -0.021,10e-4 -0.031,10e-4 0.01,0 0.02,0 0.031,-10e-4 m -0.086,0.003 c -0.01,0 -0.021,10e-4 -0.031,10e-4 0.011,0 0.02,-10e-4 0.031,-10e-4 m -0.069,0.002 c -0.011,10e-4 -0.022,10e-4 -0.034,10e-4 0.012,0 0.023,0 0.034,-10e-4 m -0.07,0.003 c -0.011,0 -0.022,0 -0.034,10e-4 0.012,-10e-4 0.023,-10e-4 0.034,-10e-4 m -0.071,0.002 c -0.011,10e-4 -0.022,10e-4 -0.032,10e-4 0.01,0 0.021,0 0.032,-10e-4 m -0.085,0.004 c -0.014,0 -0.027,10e-4 -0.041,10e-4 0.014,0 0.028,-10e-4 0.041,-10e-4 m -0.082,0.003 c -0.011,0 -0.022,10e-4 -0.034,10e-4 0.012,0 0.023,-10e-4 0.034,-10e-4 m -0.068,0.003 c -0.012,0 -0.024,0.001 -0.036,0.001 0.012,0 0.024,-0.001 0.036,-0.001 m -0.07,0.003 c -0.012,10e-4 -0.023,10e-4 -0.036,0.002 0.012,-10e-4 0.024,-10e-4 0.036,-0.002 m -0.069,0.003 c -0.012,10e-4 -0.024,10e-4 -0.036,0.002 0.012,-10e-4 0.024,-10e-4 0.036,-0.002 m -0.037,0.002 c -0.033,0.002 -0.067,0.003 -0.1,0.005 0.033,-0.002 0.067,-0.003 0.1,-0.005 m -0.13,0.007 c -0.013,0 -0.026,0.001 -0.039,0.002 0.013,-10e-4 0.026,-0.002 0.039,-0.002 m -0.069,0.003 c -0.013,10e-4 -0.025,0.002 -0.038,0.002 0.013,0 0.025,-0.001 0.038,-0.002 m -0.07,0.004 c -0.012,10e-4 -0.025,0.002 -0.037,0.002 0.012,0 0.025,-10e-4 0.037,-0.002 m -0.065,0.004 c -0.028,0.002 -0.056,0.003 -0.084,0.005 0.028,-0.002 0.056,-0.003 0.084,-0.005 M 362.408,564 c -0.013,10e-4 -0.027,0.002 -0.041,0.003 0.014,-0.001 0.027,-0.002 0.041,-0.003 m -0.069,0.004 c -0.013,10e-4 -0.027,0.002 -0.04,0.003 0.013,-10e-4 0.027,-0.002 0.04,-0.003 m -0.067,0.005 c -0.014,10e-4 -0.028,10e-4 -0.042,0.002 0.014,-10e-4 0.028,-10e-4 0.042,-0.002 m -0.065,0.004 c -0.052,0.003 -0.104,0.007 -0.155,0.011 0.051,-0.004 0.103,-0.008 0.155,-0.011 m -0.172,0.012 c -0.015,10e-4 -0.03,0.002 -0.044,0.003 0.014,-10e-4 0.029,-0.002 0.044,-0.003 m -0.068,0.005 c -0.015,10e-4 -0.029,0.002 -0.043,0.003 0.014,-10e-4 0.028,-0.002 0.043,-0.003 m -0.068,0.005 c -0.014,10e-4 -0.028,0.002 -0.043,0.003 0.015,-10e-4 0.029,-0.002 0.043,-0.003 m -0.065,0.005 c -0.051,0.004 -0.101,0.008 -0.152,0.012 0.051,-0.004 0.101,-0.008 0.152,-0.012 m -0.173,0.014 c -0.014,10e-4 -0.028,0.002 -0.042,0.003 0.014,-10e-4 0.029,-0.002 0.042,-0.003 m -0.068,0.005 c -0.013,0.002 -0.028,0.003 -0.041,0.004 0.014,-10e-4 0.027,-0.002 0.041,-0.004 m -0.068,0.006 c -0.013,10e-4 -0.027,0.003 -0.04,0.004 0.013,-10e-4 0.027,-0.003 0.04,-0.004 m -0.066,0.006 c -0.027,0.002 -0.055,0.005 -0.082,0.007 0.028,-0.002 0.055,-0.005 0.082,-0.007 m -0.103,0.009 c -0.014,10e-4 -0.027,0.003 -0.041,0.004 0.014,-10e-4 0.027,-0.003 0.041,-0.004 m -0.067,0.006 c -0.014,0.002 -0.027,0.003 -0.041,0.004 0.014,-10e-4 0.027,-0.002 0.041,-0.004 m -0.068,0.007 c -0.013,0.001 -0.027,0.002 -0.04,0.004 0.013,-0.002 0.027,-0.003 0.04,-0.004 m -0.068,0.006 c -0.013,0.002 -0.027,0.003 -0.039,0.004 0.012,-10e-4 0.026,-0.002 0.039,-0.004 m -0.066,0.007 c -0.025,0.002 -0.051,0.005 -0.076,0.007 0.025,-0.002 0.051,-0.005 0.076,-0.007 m -0.102,0.01 c -0.013,10e-4 -0.026,0.003 -0.038,0.004 0.012,-10e-4 0.025,-0.003 0.038,-0.004 m -0.069,0.007 c -0.012,10e-4 -0.024,0.003 -0.036,0.004 0.012,-10e-4 0.024,-0.003 0.036,-0.004 m -0.069,0.007 c -0.012,0.002 -0.023,0.003 -0.035,0.004 0.012,-10e-4 0.023,-0.002 0.035,-0.004 m -0.072,0.008 c -0.01,10e-4 -0.02,0.002 -0.03,0.003 0.01,-10e-4 0.02,-0.002 0.03,-0.003 m -0.095,0.01 c -0.007,10e-4 -0.014,0.002 -0.021,0.003 0.007,-10e-4 0.014,-0.002 0.021,-0.003 m -0.07,0.008 c -0.008,0.001 -0.016,0.002 -0.024,0.003 0.008,-10e-4 0.016,-0.002 0.024,-0.003 m -0.07,0.008 c -0.008,10e-4 -0.016,0.002 -0.025,0.003 0.009,-10e-4 0.017,-0.002 0.025,-0.003 m -0.072,0.008 c -0.007,10e-4 -0.014,0.002 -0.021,0.003 0.007,-10e-4 0.014,-0.002 0.021,-0.003 m -0.084,0.01 c -0.002,10e-4 -0.004,10e-4 -0.006,10e-4 0.002,0 0.004,0 0.006,-10e-4 m -0.077,0.01 c -0.003,0 -0.006,0 -0.009,10e-4 0.003,-10e-4 0.006,-10e-4 0.009,-10e-4 m -0.07,0.008 c -0.005,10e-4 -0.01,10e-4 -0.015,0.002 0.005,-10e-4 0.01,-10e-4 0.015,-0.002 m -0.073,0.009 c -0.004,0.001 -0.008,0.001 -0.012,0.002 0.004,-10e-4 0.008,-10e-4 0.012,-0.002 m -0.079,0.01 c -0.002,0 -0.002,0 -0.003,10e-4 0.001,-10e-4 0.002,-10e-4 0.003,-10e-4 m -10.538,3.069 c -0.976,0.459 -1.927,0.96 -2.852,1.502 -2.582,3.038 -4.663,6.517 -6.112,10.307 4.553,1.811 7.772,6.254 7.772,11.452 0,5.477 -3.569,10.118 -8.509,11.725 2.254,7.264 6.779,13.53 12.744,17.965 0.574,-1.288 1.865,-2.187 3.365,-2.187 2.04,0 3.691,1.652 3.691,3.688 0,0.843 -0.282,1.62 -0.758,2.241 1.826,0.843 3.736,1.536 5.714,2.062 v -30.46 c -3.031,-10e-4 -5.49,-2.46 -5.49,-5.492 0,-3.031 2.459,-5.491 5.49,-5.492 v -9.324 c -1.56,1.114 -3.469,1.769 -5.532,1.769 -5.264,0 -9.531,-4.269 -9.531,-9.536 l 0.008,-0.22"
       style="fill:#70676a;fill-opacity:1;fill-rule:nonzero;stroke:none;stroke-width:0.1"
       id="path732" /><path
       d="m 364.602,584.599 c -3.031,10e-4 -5.49,2.461 -5.49,5.492 0,3.032 2.459,5.491 5.49,5.492 v -10.984"
       style="fill:#5a4b59;fill-opacity:1;fill-rule:nonzero;stroke:none;stroke-width:0.1"
       id="path734" /><path
       d="m 355.955,618.052 c -1.5,0 -2.791,0.899 -3.365,2.187 -0.205,0.459 -0.318,0.967 -0.318,1.501 0,2.038 1.649,3.69 3.683,3.69 1.196,0 2.259,-0.568 2.933,-1.449 0.476,-0.621 0.758,-1.398 0.758,-2.241 0,-2.036 -1.651,-3.688 -3.691,-3.688"
       style="fill:#5a4b59;fill-opacity:1;fill-rule:nonzero;stroke:none;stroke-width:0.1"
       id="path736" /><path
       d="m 364.602,563.933 c -0.003,0 -0.007,0 -0.011,0 -0.016,0 -0.032,0 -0.048,0 -0.01,0 -0.02,0 -0.03,0 -10e-4,0 -0.003,0 -0.004,0 -0.009,0 -0.017,0 -0.026,0 -0.011,0 -0.021,0 -0.032,0 -0.006,0 -0.012,0 -0.018,0 -0.003,0 -0.007,0 -0.01,0 -0.011,10e-4 -0.021,10e-4 -0.032,10e-4 -0.001,0 -0.002,0 -0.003,0 -0.008,0 -0.017,0 -0.026,0 -0.009,0 -0.02,0 -0.03,0 -0.006,0 -0.013,0 -0.019,0 -0.004,0 -0.008,0 -0.012,0 -0.01,0 -0.018,0 -0.027,10e-4 -0.012,0 -0.024,0 -0.036,0 -0.007,0 -0.016,0 -0.024,0 -0.002,0 -0.004,0 -0.007,0 -0.011,0 -0.023,0 -0.034,0.001 -0.006,0 -0.012,0 -0.018,0 -10e-4,0 -0.003,0 -0.004,0 -0.008,0 -0.016,0 -0.025,0 -0.006,0 -0.014,0 -0.021,0 -0.003,0 -0.006,10e-4 -0.01,10e-4 -0.005,0 -0.01,0 -0.016,0 -0.008,0 -0.017,0 -0.026,0 -0.015,0 -0.03,10e-4 -0.044,10e-4 -0.01,0 -0.019,0 -0.028,0 -0.017,10e-4 -0.033,10e-4 -0.05,10e-4 -0.007,0 -0.013,0.001 -0.02,0.001 -0.023,0 -0.046,10e-4 -0.068,10e-4 -0.009,0 -0.017,0 -0.025,10e-4 -0.015,0 -0.03,0 -0.045,10e-4 -0.01,0 -0.02,0 -0.03,0 -0.014,10e-4 -0.027,10e-4 -0.04,10e-4 -0.01,0.001 -0.021,0.001 -0.032,0.001 -0.013,0 -0.027,10e-4 -0.041,10e-4 -0.009,0 -0.018,10e-4 -0.028,10e-4 -0.017,0 -0.034,10e-4 -0.051,10e-4 -0.011,10e-4 -0.021,10e-4 -0.031,10e-4 -0.019,0.001 -0.037,0.001 -0.055,0.002 -0.011,0 -0.02,10e-4 -0.031,10e-4 -0.012,0 -0.025,10e-4 -0.038,10e-4 -0.011,10e-4 -0.022,10e-4 -0.034,10e-4 -0.012,0.001 -0.024,0.001 -0.036,0.002 -0.011,0 -0.022,0 -0.034,10e-4 -0.012,0 -0.024,10e-4 -0.037,10e-4 -0.011,10e-4 -0.022,10e-4 -0.032,10e-4 -0.018,0.001 -0.035,0.002 -0.053,0.003 -0.013,0 -0.027,10e-4 -0.041,10e-4 -0.013,0.001 -0.027,0.001 -0.041,0.002 -0.011,0 -0.022,10e-4 -0.034,10e-4 -0.011,10e-4 -0.023,10e-4 -0.034,0.002 -0.012,0 -0.024,0.001 -0.036,0.001 -0.011,10e-4 -0.022,10e-4 -0.034,0.002 -0.012,10e-4 -0.024,10e-4 -0.036,0.002 -0.011,0 -0.022,0.001 -0.033,0.001 -0.012,10e-4 -0.024,10e-4 -0.036,0.002 h -0.001 c -0.033,0.002 -0.067,0.003 -0.1,0.005 -0.011,10e-4 -0.02,10e-4 -0.03,0.002 -0.013,0 -0.026,0.001 -0.039,0.002 -0.01,0 -0.02,10e-4 -0.03,10e-4 -0.013,10e-4 -0.025,0.002 -0.038,0.002 -0.01,10e-4 -0.021,0.002 -0.032,0.002 -0.012,10e-4 -0.025,0.002 -0.037,0.002 -0.009,0.001 -0.019,0.001 -0.028,0.002 -0.028,0.002 -0.056,0.003 -0.084,0.005 -0.006,0 -0.012,10e-4 -0.018,10e-4 -0.014,10e-4 -0.027,0.002 -0.041,0.003 -0.009,0 -0.019,10e-4 -0.028,10e-4 -0.013,10e-4 -0.027,0.002 -0.04,0.003 -0.009,0.001 -0.018,0.001 -0.027,0.002 -0.014,10e-4 -0.028,10e-4 -0.042,0.002 -0.008,10e-4 -0.016,10e-4 -0.023,0.002 -0.052,0.003 -0.104,0.007 -0.155,0.011 -0.006,0 -0.011,0 -0.017,10e-4 -0.015,10e-4 -0.03,0.002 -0.044,0.003 -0.008,10e-4 -0.016,10e-4 -0.024,0.002 -0.015,10e-4 -0.029,0.002 -0.043,0.003 -0.008,10e-4 -0.016,10e-4 -0.025,0.002 -0.014,10e-4 -0.028,0.002 -0.043,0.003 -0.007,10e-4 -0.015,10e-4 -0.022,0.002 -0.051,0.004 -0.101,0.008 -0.152,0.012 -0.007,10e-4 -0.013,10e-4 -0.021,0.002 -0.013,10e-4 -0.028,0.002 -0.042,0.003 -0.008,10e-4 -0.017,0.002 -0.026,0.002 -0.014,0.002 -0.027,0.003 -0.041,0.004 -0.009,10e-4 -0.018,10e-4 -0.027,0.002 -0.013,10e-4 -0.027,0.003 -0.04,0.004 -0.009,0 -0.017,0.001 -0.026,0.002 -0.027,0.002 -0.054,0.005 -0.082,0.007 -0.007,10e-4 -0.014,0.002 -0.021,0.002 -0.014,10e-4 -0.027,0.003 -0.041,0.004 -0.009,0.001 -0.017,0.002 -0.026,0.002 -0.014,0.002 -0.027,0.003 -0.041,0.004 -0.009,10e-4 -0.018,0.002 -0.027,0.003 -0.013,0.001 -0.027,0.002 -0.04,0.004 -0.01,10e-4 -0.019,10e-4 -0.028,0.002 -0.013,0.002 -0.027,0.003 -0.039,0.004 -0.009,0.001 -0.018,0.002 -0.027,0.003 -0.025,0.002 -0.051,0.005 -0.076,0.007 -0.009,10e-4 -0.017,0.002 -0.026,0.003 -0.013,10e-4 -0.026,0.003 -0.038,0.004 -0.011,10e-4 -0.021,0.002 -0.031,0.003 -0.012,10e-4 -0.024,0.003 -0.036,0.004 -0.011,0.001 -0.022,0.002 -0.033,0.003 -0.012,0.002 -0.023,0.003 -0.035,0.004 -0.012,10e-4 -0.025,0.003 -0.037,0.004 -0.01,10e-4 -0.02,0.002 -0.03,0.003 -0.022,0.003 -0.043,0.005 -0.065,0.007 -0.007,10e-4 -0.014,0.002 -0.021,0.003 -0.017,0.002 -0.032,0.003 -0.049,0.005 -0.008,0.001 -0.016,0.002 -0.024,0.003 -0.015,0.002 -0.031,0.003 -0.046,0.005 -0.008,10e-4 -0.016,0.002 -0.025,0.003 -0.015,0.002 -0.031,0.004 -0.047,0.005 -0.007,10e-4 -0.014,0.002 -0.021,0.003 -0.021,0.002 -0.042,0.005 -0.063,0.007 -0.002,10e-4 -0.004,10e-4 -0.006,10e-4 -0.023,0.003 -0.047,0.006 -0.071,0.009 -0.003,0 -0.006,0 -0.009,10e-4 -0.02,0.002 -0.041,0.005 -0.061,0.007 -0.005,10e-4 -0.01,10e-4 -0.015,0.002 -0.019,0.002 -0.039,0.005 -0.058,0.007 -0.004,0.001 -0.008,0.001 -0.012,0.002 -0.023,0.003 -0.045,0.005 -0.067,0.008 -10e-4,0 -0.002,0 -0.003,10e-4 -3.723,0.475 -7.263,1.529 -10.535,3.064 v 0.004 l -0.008,0.22 c 0,5.267 4.267,9.536 9.531,9.536 2.063,0 3.972,-0.655 5.532,-1.769 v -11.342 0"
       style="fill:#5a4b59;fill-opacity:1;fill-rule:nonzero;stroke:none;stroke-width:0.1"
       id="path738" /><path
       d="m 330.425,589.863 v 0 0 m -0.043,0.158 -0.001,0.001 c 0,0 0.001,0 0.001,-0.001 m -0.014,0.051 c -10e-4,0.002 -10e-4,0.003 -0.002,0.005 0.001,-0.002 0.001,-0.003 0.002,-0.005 m -0.015,0.054 v 0.002 c 0,-0.001 0,-0.001 0,-0.002 m -0.029,0.107 v 0.001 -0.001 m -0.013,0.049 c 0,0.002 -10e-4,0.007 -0.002,0.009 10e-4,-0.003 10e-4,-0.006 0.002,-0.009 m -0.014,0.053 c 0,0.002 -0.001,0.004 -0.002,0.007 10e-4,-0.003 0.002,-0.005 0.002,-0.007 m -0.014,0.056 -0.001,0.001 c 0,0 0,-0.001 0.001,-0.001 m -0.014,0.053 c -0.001,0.001 -0.002,0.005 -0.002,0.006 10e-4,-0.003 10e-4,-0.004 0.002,-0.006 m -0.013,0.049 c -10e-4,0.004 -0.002,0.009 -0.003,0.012 0.001,-0.004 0.002,-0.007 0.003,-0.012 m -0.013,0.051 c -10e-4,0.004 -0.003,0.009 -0.003,0.012 10e-4,-0.004 0.002,-0.007 0.003,-0.012 m -0.014,0.053 c -10e-4,0.003 -0.002,0.007 -0.002,0.01 0,-0.004 0.001,-0.007 0.002,-0.01 m -0.015,0.06 c 0,10e-4 -10e-4,0.004 -10e-4,0.005 0,-0.002 10e-4,-0.004 10e-4,-0.005 m -0.012,0.048 c -0.002,0.006 -0.003,0.011 -0.004,0.016 0.001,-0.005 0.002,-0.01 0.004,-0.016 m -0.013,0.05 c -0.002,0.007 -0.003,0.011 -0.004,0.018 10e-4,-0.006 0.003,-0.012 0.004,-0.018 m -0.012,0.05 c -0.002,0.005 -0.003,0.012 -0.005,0.017 0.002,-0.006 0.003,-0.011 0.005,-0.017 m -0.016,0.062 c -10e-4,0.004 -10e-4,0.006 -0.002,0.009 0.001,-0.003 0.001,-0.006 0.002,-0.009 m -0.013,0.052 c -0.001,0.006 -0.003,0.012 -0.004,0.018 10e-4,-0.006 0.003,-0.012 0.004,-0.018 m -0.012,0.049 c -0.001,0.007 -0.003,0.013 -0.004,0.019 10e-4,-0.006 0.003,-0.012 0.004,-0.019 m -0.012,0.05 c -0.001,0.007 -0.003,0.013 -0.005,0.02 0.002,-0.007 0.004,-0.013 0.005,-0.02 m -0.012,0.052 c -0.002,0.005 -0.003,0.012 -0.005,0.017 0.002,-0.006 0.003,-0.011 0.005,-0.017 m -0.015,0.062 c -0.002,0.008 -0.004,0.014 -0.006,0.022 0.002,-0.007 0.004,-0.014 0.006,-0.022 m -0.012,0.05 c -0.002,0.008 -0.004,0.015 -0.006,0.022 0.002,-0.007 0.004,-0.014 0.006,-0.022 m -0.012,0.048 c -10e-4,0.008 -0.003,0.016 -0.005,0.024 0.002,-0.008 0.004,-0.016 0.005,-0.024 m -0.011,0.05 c -0.002,0.007 -0.004,0.017 -0.006,0.023 0.002,-0.007 0.004,-0.015 0.006,-0.023 m -0.016,0.067 c -0.002,0.008 -0.004,0.016 -0.006,0.024 0.002,-0.008 0.004,-0.015 0.006,-0.024 m -0.012,0.05 c -10e-4,0.008 -0.003,0.016 -0.005,0.024 0.002,-0.008 0.004,-0.016 0.005,-0.024 m -0.011,0.048 c -0.002,0.009 -0.004,0.017 -0.006,0.026 0.002,-0.008 0.004,-0.017 0.006,-0.026 m -0.011,0.048 c -0.002,0.009 -0.004,0.017 -0.006,0.026 0.002,-0.008 0.004,-0.017 0.006,-0.026 M 330,591.547 c -0.003,0.014 -0.006,0.028 -0.009,0.042 0.003,-0.014 0.006,-0.028 0.009,-0.042 m -0.015,0.065 c -0.001,0.008 -0.004,0.019 -0.006,0.027 0.002,-0.009 0.004,-0.018 0.006,-0.027 m -0.01,0.048 c -0.002,0.009 -0.005,0.019 -0.007,0.028 0.003,-0.009 0.005,-0.018 0.007,-0.028 m -0.011,0.049 c -0.002,0.009 -0.004,0.018 -0.006,0.027 0.002,-0.009 0.004,-0.018 0.006,-0.027 m -0.011,0.048 c -0.004,0.017 -0.008,0.036 -0.011,0.053 0.003,-0.018 0.007,-0.035 0.011,-0.053 m -0.015,0.071 c -0.002,0.009 -0.005,0.02 -0.007,0.029 0.003,-0.01 0.005,-0.019 0.007,-0.029 m -0.011,0.049 c -0.002,0.01 -0.004,0.019 -0.006,0.029 0.002,-0.009 0.004,-0.02 0.006,-0.029 m -0.01,0.047 c -0.002,0.01 -0.004,0.02 -0.007,0.031 0.003,-0.011 0.005,-0.02 0.007,-0.031 m -0.01,0.045 c -0.007,0.035 -0.015,0.072 -0.022,0.107 0.007,-0.036 0.015,-0.071 0.022,-0.107 m -0.026,0.125 c -0.002,0.01 -0.004,0.02 -0.006,0.03 0.002,-0.01 0.004,-0.02 0.006,-0.03 m -0.01,0.048 c -0.002,0.01 -0.005,0.021 -0.007,0.031 0.003,-0.011 0.005,-0.021 0.007,-0.031 m -0.01,0.045 c -0.007,0.037 -0.014,0.071 -0.022,0.107 0.008,-0.035 0.015,-0.071 0.022,-0.107 m -0.025,0.125 c -0.002,0.01 -0.004,0.021 -0.006,0.031 0.002,-0.011 0.004,-0.021 0.006,-0.031 m -0.01,0.047 c -0.002,0.011 -0.004,0.022 -0.006,0.032 0.002,-0.011 0.004,-0.021 0.006,-0.032 m -0.009,0.048 c -0.003,0.012 -0.005,0.021 -0.007,0.032 0.002,-0.01 0.004,-0.021 0.007,-0.032 m -0.009,0.041 c -0.005,0.025 -0.01,0.05 -0.014,0.075 0.004,-0.025 0.009,-0.05 0.014,-0.075 m -0.016,0.081 c -0.002,0.011 -0.004,0.021 -0.006,0.033 0.002,-0.011 0.004,-0.023 0.006,-0.033 m -0.009,0.05 c -0.002,0.01 -0.004,0.02 -0.006,0.03 0.002,-0.01 0.004,-0.02 0.006,-0.03 m -0.01,0.048 c -0.002,0.01 -0.004,0.021 -0.006,0.031 0.002,-0.01 0.004,-0.021 0.006,-0.031 m -0.008,0.044 c -0.005,0.024 -0.01,0.05 -0.014,0.074 0.004,-0.025 0.009,-0.05 0.014,-0.074 m -0.015,0.078 c -0.002,0.01 -0.004,0.023 -0.006,0.033 0.002,-0.011 0.004,-0.022 0.006,-0.033 m -0.009,0.048 c -0.002,0.01 -0.004,0.022 -0.006,0.032 0.002,-0.011 0.004,-0.021 0.006,-0.032 m -0.009,0.047 c -0.002,0.012 -0.004,0.023 -0.007,0.035 0.003,-0.012 0.005,-0.023 0.007,-0.035 m -0.008,0.044 c -0.007,0.038 -0.015,0.078 -0.022,0.117 0.007,-0.039 0.014,-0.078 0.022,-0.117 m -0.024,0.128 c -0.002,0.011 -0.004,0.023 -0.006,0.034 0.002,-0.011 0.004,-0.022 0.006,-0.034 m -0.009,0.048 c -0.002,0.012 -0.004,0.022 -0.006,0.034 0.002,-0.011 0.004,-0.023 0.006,-0.034 m -0.008,0.047 c -0.007,0.041 -0.015,0.081 -0.022,0.122 0.007,-0.041 0.015,-0.081 0.022,-0.122 m -0.022,0.124 c -0.002,0.012 -0.004,0.024 -0.007,0.037 0.003,-0.012 0.005,-0.025 0.007,-0.037 m -0.009,0.049 c -0.002,0.011 -0.004,0.024 -0.006,0.035 0.002,-0.012 0.004,-0.023 0.006,-0.035 m -0.008,0.047 c -0.002,0.012 -0.004,0.024 -0.006,0.037 0.002,-0.013 0.004,-0.025 0.006,-0.037 m -0.006,0.037 c -0.007,0.042 -0.015,0.085 -0.022,0.127 0.007,-0.043 0.015,-0.084 0.022,-0.127 m -0.023,0.136 c -0.002,0.012 -0.004,0.024 -0.006,0.036 0.002,-0.012 0.004,-0.024 0.006,-0.036 m -0.008,0.048 c -0.002,0.012 -0.004,0.025 -0.006,0.037 0.002,-0.012 0.004,-0.025 0.006,-0.037 m -0.007,0.04 c -0.007,0.041 -0.014,0.083 -0.02,0.124 0.007,-0.042 0.013,-0.083 0.02,-0.124 m -0.022,0.134 c -0.002,0.011 -0.004,0.024 -0.006,0.036 0.002,-0.012 0.004,-0.024 0.006,-0.036 m -0.007,0.048 c -0.002,0.011 -0.004,0.024 -0.006,0.035 0.002,-0.012 0.004,-0.023 0.006,-0.035 m -0.008,0.046 c -0.006,0.04 -0.012,0.081 -0.019,0.121 0.006,-0.04 0.013,-0.081 0.019,-0.121 m -0.02,0.127 c -0.002,0.013 -0.003,0.023 -0.005,0.036 0.002,-0.012 0.003,-0.024 0.005,-0.036 m -0.007,0.05 c -0.002,0.01 -0.004,0.024 -0.006,0.034 0.002,-0.011 0.004,-0.023 0.006,-0.034 m -0.008,0.047 c -0.006,0.041 -0.012,0.08 -0.018,0.122 0.006,-0.041 0.012,-0.081 0.018,-0.122 m -0.018,0.126 c -0.002,0.011 -0.004,0.024 -0.006,0.036 0.002,-0.013 0.004,-0.024 0.006,-0.036 m -0.008,0.049 c -0.001,0.012 -0.003,0.023 -0.005,0.034 0.002,-0.011 0.004,-0.023 0.005,-0.034 m -0.007,0.047 c -0.007,0.054 -0.015,0.109 -0.023,0.163 0.008,-0.054 0.016,-0.109 0.023,-0.163 m -0.025,0.176 c -0.001,0.011 -0.003,0.023 -0.005,0.034 0.002,-0.011 0.004,-0.022 0.005,-0.034 m -0.006,0.048 c -0.002,0.012 -0.003,0.022 -0.005,0.035 10e-4,-0.012 0.003,-0.024 0.005,-0.035 m -0.007,0.046 c -0.005,0.04 -0.011,0.079 -0.016,0.118 0.006,-0.039 0.011,-0.078 0.016,-0.118 m -0.017,0.128 c -0.002,0.012 -0.003,0.024 -0.005,0.035 0.002,-0.011 0.003,-0.023 0.005,-0.035 m -0.007,0.05 c -10e-4,0.011 -0.003,0.023 -0.004,0.034 0.001,-0.011 0.003,-0.023 0.004,-0.034 m -0.006,0.047 c -0.005,0.038 -0.01,0.077 -0.015,0.115 0.005,-0.039 0.01,-0.077 0.015,-0.115 m -0.017,0.128 c -0.001,0.01 -0.002,0.023 -0.004,0.033 0.002,-0.011 0.003,-0.022 0.004,-0.033 m -0.006,0.049 c -10e-4,0.011 -0.003,0.022 -0.004,0.034 0.001,-0.012 0.003,-0.023 0.004,-0.034 m -0.006,0.048 c -0.005,0.04 -0.01,0.08 -0.015,0.121 0.005,-0.041 0.01,-0.081 0.015,-0.121 m -0.015,0.126 c -0.002,0.012 -0.003,0.022 -0.004,0.034 10e-4,-0.011 0.002,-0.023 0.004,-0.034 m -0.006,0.05 c -0.002,0.011 -0.003,0.023 -0.004,0.034 0.001,-0.012 0.002,-0.022 0.004,-0.034 m -0.006,0.049 c -10e-4,0.011 -0.003,0.022 -0.004,0.033 10e-4,-0.011 0.003,-0.022 0.004,-0.033 m -0.006,0.048 c -0.002,0.022 -0.005,0.042 -0.007,0.064 0.002,-0.022 0.005,-0.042 0.007,-0.064 m -0.009,0.079 c -10e-4,0.011 -0.002,0.021 -0.003,0.032 10e-4,-0.01 0.002,-0.021 0.003,-0.032 m -0.005,0.049 c -0.002,0.01 -0.003,0.021 -0.004,0.032 0.001,-0.011 0.002,-0.021 0.004,-0.032 m -0.006,0.05 c -0.001,0.011 -0.002,0.022 -0.004,0.032 0.002,-0.01 0.003,-0.021 0.004,-0.032 m -0.005,0.047 c -0.004,0.036 -0.008,0.074 -0.012,0.11 0.004,-0.037 0.008,-0.074 0.012,-0.11 m -0.014,0.129 c -0.001,0.01 -0.002,0.02 -0.003,0.03 0.001,-0.01 0.002,-0.02 0.003,-0.03 m -0.006,0.05 c -10e-4,0.01 -0.002,0.019 -0.003,0.029 10e-4,-0.009 0.002,-0.019 0.003,-0.029 m -0.005,0.049 c -10e-4,0.011 -0.002,0.021 -0.003,0.032 10e-4,-0.011 0.002,-0.021 0.003,-0.032 m -0.004,0.04 c -0.002,0.022 -0.004,0.044 -0.007,0.067 0.003,-0.023 0.005,-0.045 0.007,-0.067 m -0.008,0.086 c -0.002,0.01 -0.002,0.019 -0.003,0.029 10e-4,-0.01 0.002,-0.019 0.003,-0.029 m -0.006,0.051 c 0,0.009 -0.002,0.02 -0.002,0.029 10e-4,-0.01 10e-4,-0.019 0.002,-0.029 m -0.004,0.049 c -0.001,0.011 -0.002,0.02 -0.003,0.03 10e-4,-0.01 0.002,-0.02 0.003,-0.03 m -0.005,0.049 c -0.002,0.02 -0.004,0.039 -0.006,0.059 0.002,-0.02 0.004,-0.039 0.006,-0.059 m -0.007,0.076 c -0.001,0.011 -0.002,0.021 -0.003,0.031 10e-4,-0.01 0.002,-0.02 0.003,-0.031 m -0.005,0.05 c -0.001,0.011 -0.002,0.02 -0.003,0.031 10e-4,-0.011 0.002,-0.02 0.003,-0.031 m -0.005,0.051 c -0.001,0.011 -0.001,0.02 -0.002,0.03 10e-4,-0.01 10e-4,-0.02 0.002,-0.03 m -0.004,0.05 c -0.003,0.034 -0.006,0.07 -0.009,0.104 0.003,-0.035 0.006,-0.07 0.009,-0.104 m -0.011,0.127 c -10e-4,0.009 -0.002,0.018 -0.003,0.027 0.001,-0.009 0.002,-0.017 0.003,-0.027 m -0.005,0.051 c 0,0.009 -10e-4,0.018 -0.002,0.027 10e-4,-0.009 0.002,-0.018 0.002,-0.027 m -0.004,0.049 c -0.001,0.01 -0.001,0.021 -0.002,0.03 10e-4,-0.01 10e-4,-0.02 0.002,-0.03 m -0.002,0.031 c -0.002,0.025 -0.004,0.047 -0.006,0.072 0.002,-0.024 0.004,-0.048 0.006,-0.072 m -0.008,0.096 c -0.001,0.009 -0.001,0.015 -0.002,0.025 10e-4,-0.008 10e-4,-0.017 0.002,-0.025 m -0.004,0.051 c -10e-4,0.01 -10e-4,0.017 -0.002,0.026 0.001,-0.008 0.001,-0.017 0.002,-0.026 m -0.004,0.052 c -10e-4,0.008 -10e-4,0.016 -0.002,0.025 0.001,-0.008 0.001,-0.017 0.002,-0.025 m -0.004,0.053 c -0.001,0.015 -0.002,0.03 -0.004,0.045 0.002,-0.015 0.003,-0.03 0.004,-0.045 m -0.005,0.07 c -0.001,0.01 -0.002,0.018 -0.002,0.028 0,-0.01 10e-4,-0.018 0.002,-0.028 m -0.004,0.051 c -0.001,0.009 -0.001,0.017 -0.002,0.027 10e-4,-0.009 10e-4,-0.018 0.002,-0.027 m -0.004,0.053 c 0,0.008 -10e-4,0.017 -0.002,0.025 0.001,-0.008 0.002,-0.017 0.002,-0.025 m -0.003,0.05 c -10e-4,0.017 -0.002,0.032 -0.004,0.05 0.001,-0.017 0.003,-0.034 0.004,-0.05 m -0.005,0.073 c -0.001,0.009 -0.001,0.018 -0.002,0.027 10e-4,-0.009 10e-4,-0.018 0.002,-0.027 m -0.004,0.051 c 0,0.009 -10e-4,0.019 -10e-4,0.027 0,-0.009 10e-4,-0.018 10e-4,-0.027 m -0.003,0.053 c -10e-4,0.009 -10e-4,0.016 -0.002,0.025 0.001,-0.008 0.002,-0.017 0.002,-0.025 m -0.003,0.05 c -0.002,0.033 -0.004,0.068 -0.006,0.101 0.002,-0.033 0.004,-0.067 0.006,-0.101 m -0.008,0.125 c 0,0.009 -10e-4,0.017 -10e-4,0.027 0,-0.009 10e-4,-0.018 10e-4,-0.027 m -0.003,0.052 c 0,0.008 -10e-4,0.018 -10e-4,0.026 0,-0.009 10e-4,-0.017 10e-4,-0.026 m -0.003,0.052 c 0,0.008 -0.001,0.017 -0.001,0.025 0,-0.008 0.001,-0.017 0.001,-0.025 m -0.004,0.072 c 0,0.006 0,0.014 -10e-4,0.02 10e-4,-0.007 10e-4,-0.014 10e-4,-0.02 m -0.002,0.053 c -10e-4,0.007 -10e-4,0.016 -0.002,0.024 10e-4,-0.008 10e-4,-0.016 0.002,-0.024 m -0.003,0.052 c -10e-4,0.008 -10e-4,0.016 -10e-4,0.023 0,-0.008 0,-0.015 10e-4,-0.023 m -0.003,0.054 c 0,0.007 -0.001,0.014 -0.001,0.021 0,-0.007 0.001,-0.014 0.001,-0.021 m -0.003,0.061 c 0,0.006 0,0.013 -0.001,0.019 0.001,-0.006 0.001,-0.012 0.001,-0.019 m -0.003,0.061 c 0,0.008 0,0.015 -10e-4,0.023 10e-4,-0.008 10e-4,-0.015 10e-4,-0.023 m -0.002,0.053 c 0,0.007 -0.001,0.015 -0.001,0.022 0,-0.007 0.001,-0.015 0.001,-0.022 m -0.002,0.053 c -0.001,0.007 -0.001,0.015 -0.001,0.022 0,-0.007 0,-0.015 0.001,-0.022 m -0.003,0.054 c 0,0.007 0,0.013 -10e-4,0.02 10e-4,-0.006 10e-4,-0.013 10e-4,-0.02 m -0.003,0.069 c 0,0.006 0,0.014 0,0.02 0,-0.006 0,-0.013 0,-0.02 m -0.002,0.053 c 0,0.006 0,0.015 0,0.021 0,-0.007 0,-0.014 0,-0.021 m -0.002,0.053 c 0,0.008 0,0.013 0,0.022 0,-0.007 0,-0.015 0,-0.022 m -0.002,0.055 c 0,0.006 0,0.012 0,0.018 0,-0.006 0,-0.012 0,-0.018 m -0.002,0.068 c 0,0.006 0,0.012 -0.001,0.018 0.001,-0.006 0.001,-0.012 0.001,-0.018 m -0.002,0.053 c 0,0.007 0,0.014 0,0.021 0,-0.007 0,-0.013 0,-0.021 m -10e-4,0.052 c 0,0.007 -0.001,0.015 -0.001,0.022 0,-0.007 0.001,-0.014 0.001,-0.022"
       style="fill:#70718d;fill-opacity:1;fill-rule:nonzero;stroke:none;stroke-width:0.1"
       id="path740" /><path
       d="m 329.139,598.376 c 0,0.005 0,0.009 0,0.013 0,0.002 0,0.004 0,0.005 0,-0.006 0,-0.011 0,-0.018"
       style="fill:#70718d;fill-opacity:1;fill-rule:nonzero;stroke:none;stroke-width:0.1"
       id="path742" /><path
       d="m 329.137,598.445 c 0,0.003 0,0.008 0,0.01 0,-0.003 0,-0.006 0,-0.01"
       style="fill:#70718d;fill-opacity:1;fill-rule:nonzero;stroke:none;stroke-width:0.1"
       id="path744" /><path
       d="m 329.136,598.498 c 0,0.006 -0.001,0.012 -0.001,0.018 0,-0.006 0.001,-0.012 0.001,-0.018"
       style="fill:#70718d;fill-opacity:1;fill-rule:nonzero;stroke:none;stroke-width:0.1"
       id="path746" /><path
       d="m 329.134,598.551 c 0,0.007 0,0.013 0,0.02 0,-0.007 0,-0.014 0,-0.02"
       style="fill:#70718d;fill-opacity:1;fill-rule:nonzero;stroke:none;stroke-width:0.1"
       id="path748" /><path
       d="m 329.133,598.605 c 0,0.006 0,0.012 0,0.018 0,-0.006 0,-0.012 0,-0.018"
       style="fill:#70718d;fill-opacity:1;fill-rule:nonzero;stroke:none;stroke-width:0.1"
       id="path750" /><path
       d="m 329.132,598.661 c 0,0.007 0,0.015 0,0.022 0,-0.007 0,-0.014 0,-0.022"
       style="fill:#70718d;fill-opacity:1;fill-rule:nonzero;stroke:none;stroke-width:0.1"
       id="path752" /><path
       d="m 329.131,598.728 c 0,0.005 -10e-4,0.012 -10e-4,0.016 0,-0.005 10e-4,-0.01 10e-4,-0.016"
       style="fill:#70718d;fill-opacity:1;fill-rule:nonzero;stroke:none;stroke-width:0.1"
       id="path754" /><path
       d="m 329.13,598.78 c 0,0.007 -10e-4,0.013 -10e-4,0.02 0,-0.006 10e-4,-0.014 10e-4,-0.02"
       style="fill:#70718d;fill-opacity:1;fill-rule:nonzero;stroke:none;stroke-width:0.1"
       id="path756" /><path
       d="m 329.129,598.834 c 0,0.006 0,0.014 -0.001,0.02 0.001,-0.007 0.001,-0.014 0.001,-0.02"
       style="fill:#70718d;fill-opacity:1;fill-rule:nonzero;stroke:none;stroke-width:0.1"
       id="path758" /><path
       d="m 329.128,598.891 c 0,0.006 0,0.009 0,0.015 0,-0.005 0,-0.01 0,-0.015"
       style="fill:#70718d;fill-opacity:1;fill-rule:nonzero;stroke:none;stroke-width:0.1"
       id="path760" /><path
       d="m 329.127,598.959 c 0,0.003 0,0.007 0,0.01 0,-0.003 0,-0.007 0,-0.01"
       style="fill:#70718d;fill-opacity:1;fill-rule:nonzero;stroke:none;stroke-width:0.1"
       id="path762" /><path
       d="m 329.126,599.011 c 0,0.006 0,0.012 0,0.018 0,-0.006 0,-0.012 0,-0.018"
       style="fill:#70718d;fill-opacity:1;fill-rule:nonzero;stroke:none;stroke-width:0.1"
       id="path764" /><path
       d="m 329.126,599.064 c 0,0.006 0,0.013 0,0.019 0,-0.006 0,-0.013 0,-0.019"
       style="fill:#70718d;fill-opacity:1;fill-rule:nonzero;stroke:none;stroke-width:0.1"
       id="path766" /><path
       d="m 329.125,599.122 c 0,0.005 0,0.009 0,0.014 0,-0.005 0,-0.009 0,-0.014"
       style="fill:#70718d;fill-opacity:1;fill-rule:nonzero;stroke:none;stroke-width:0.1"
       id="path768" /><path
       d="m 329.125,599.189 c 0,0.002 0,0.004 0,0.006 0,-0.002 0,-0.004 0,-0.006"
       style="fill:#70718d;fill-opacity:1;fill-rule:nonzero;stroke:none;stroke-width:0.1"
       id="path770" /><path
       d="m 329.124,599.241 c 0,0.006 0,0.013 0,0.018 0,-0.006 0,-0.012 0,-0.018"
       style="fill:#70718d;fill-opacity:1;fill-rule:nonzero;stroke:none;stroke-width:0.1"
       id="path772" /><path
       d="m 329.124,599.295 c 0,0.006 0,0.012 0,0.018 0,-0.006 0,-0.012 0,-0.018"
       style="fill:#70718d;fill-opacity:1;fill-rule:nonzero;stroke:none;stroke-width:0.1"
       id="path774" /><path
       d="m 329.124,599.35 c 0,0.005 0,0.012 0,0.017 0,-0.006 0,-0.011 0,-0.017"
       style="fill:#70718d;fill-opacity:1;fill-rule:nonzero;stroke:none;stroke-width:0.1"
       id="path776" /><path
       d="m 336.141,578.229 c -2.571,3.449 -4.529,7.38 -5.716,11.634 v 0 c -0.015,0.053 -0.029,0.105 -0.043,0.158 0,0.001 -0.001,0.001 -0.001,0.001 -0.004,0.017 -0.009,0.033 -0.013,0.05 -10e-4,0.002 -10e-4,0.003 -0.002,0.005 -0.004,0.016 -0.008,0.033 -0.013,0.049 0,10e-4 0,10e-4 0,0.002 -0.01,0.035 -0.019,0.069 -0.029,0.105 v 0.001 c -0.004,0.017 -0.008,0.031 -0.013,0.048 -10e-4,0.003 -10e-4,0.006 -0.002,0.009 -0.004,0.015 -0.008,0.028 -0.012,0.044 0,0.002 -0.001,0.004 -0.002,0.007 -0.004,0.016 -0.008,0.032 -0.012,0.049 -0.001,0 -0.001,0.001 -0.001,0.001 -0.005,0.018 -0.009,0.034 -0.013,0.052 -0.001,0.002 -0.001,0.003 -0.002,0.006 -0.004,0.015 -0.007,0.028 -0.011,0.043 -10e-4,0.005 -0.002,0.008 -0.003,0.012 -0.004,0.014 -0.007,0.026 -0.01,0.039 -10e-4,0.005 -0.002,0.008 -0.003,0.012 -0.004,0.014 -0.007,0.026 -0.011,0.041 -10e-4,0.003 -0.002,0.006 -0.002,0.01 -0.005,0.017 -0.009,0.033 -0.013,0.05 0,10e-4 -10e-4,0.003 -10e-4,0.005 -0.004,0.014 -0.008,0.029 -0.011,0.043 -0.002,0.006 -0.003,0.011 -0.004,0.016 -0.003,0.011 -0.006,0.023 -0.009,0.034 -0.001,0.006 -0.003,0.012 -0.004,0.018 -0.003,0.01 -0.006,0.022 -0.008,0.032 -0.002,0.006 -0.003,0.011 -0.005,0.017 -0.004,0.016 -0.007,0.03 -0.011,0.045 -10e-4,0.003 -10e-4,0.006 -0.002,0.009 -0.004,0.014 -0.007,0.029 -0.011,0.043 -0.001,0.006 -0.003,0.012 -0.004,0.018 -0.002,0.01 -0.005,0.021 -0.008,0.031 -0.001,0.007 -0.003,0.013 -0.004,0.019 -0.003,0.01 -0.005,0.021 -0.008,0.031 -0.001,0.007 -0.003,0.013 -0.005,0.02 -0.002,0.011 -0.005,0.021 -0.007,0.032 -0.002,0.006 -0.003,0.011 -0.005,0.017 -0.003,0.015 -0.007,0.031 -0.01,0.045 -0.002,0.008 -0.004,0.015 -0.006,0.022 -0.002,0.009 -0.004,0.019 -0.006,0.028 -0.002,0.008 -0.004,0.015 -0.006,0.022 -0.002,0.009 -0.003,0.017 -0.006,0.026 -10e-4,0.008 -0.003,0.016 -0.005,0.024 -0.002,0.009 -0.004,0.017 -0.006,0.026 -0.002,0.008 -0.004,0.016 -0.006,0.023 -0.003,0.016 -0.006,0.029 -0.01,0.044 -0.002,0.009 -0.004,0.016 -0.006,0.024 -0.001,0.008 -0.004,0.018 -0.006,0.026 -10e-4,0.008 -0.003,0.016 -0.005,0.024 -0.002,0.009 -0.004,0.015 -0.006,0.024 -0.002,0.009 -0.004,0.018 -0.006,0.026 -10e-4,0.007 -0.003,0.016 -0.005,0.022 -0.002,0.009 -0.004,0.018 -0.006,0.026 -0.002,0.009 -0.004,0.019 -0.006,0.028 -0.003,0.014 -0.006,0.028 -0.009,0.042 -0.002,0.008 -0.004,0.015 -0.006,0.023 -0.002,0.009 -0.004,0.018 -0.006,0.027 -10e-4,0.008 -0.003,0.013 -0.004,0.021 -0.002,0.01 -0.004,0.019 -0.007,0.028 -0.001,0.007 -0.003,0.014 -0.004,0.021 -0.002,0.009 -0.004,0.018 -0.006,0.027 -0.002,0.008 -0.003,0.014 -0.005,0.021 -0.004,0.018 -0.008,0.035 -0.011,0.053 -0.002,0.006 -0.003,0.012 -0.004,0.018 -0.002,0.01 -0.004,0.019 -0.007,0.029 -10e-4,0.007 -0.002,0.013 -0.004,0.02 -0.002,0.009 -0.004,0.02 -0.006,0.029 -10e-4,0.006 -0.003,0.013 -0.004,0.018 -0.002,0.011 -0.004,0.02 -0.007,0.031 -0.001,0.005 -0.002,0.009 -0.003,0.014 -0.007,0.036 -0.015,0.071 -0.022,0.107 -0.002,0.006 -0.003,0.012 -0.004,0.018 -0.002,0.01 -0.004,0.02 -0.006,0.03 -0.002,0.007 -0.003,0.011 -0.004,0.018 -0.002,0.01 -0.004,0.02 -0.007,0.031 -10e-4,0.004 -0.002,0.01 -0.003,0.014 -0.007,0.036 -0.014,0.072 -0.022,0.107 -10e-4,0.006 -0.002,0.012 -0.003,0.018 -0.002,0.01 -0.004,0.02 -0.006,0.031 -0.002,0.005 -0.003,0.011 -0.004,0.016 -0.002,0.011 -0.004,0.021 -0.006,0.032 -10e-4,0.005 -0.002,0.011 -0.003,0.016 -0.003,0.011 -0.005,0.022 -0.007,0.032 0,0.002 -10e-4,0.007 -0.002,0.009 -0.005,0.025 -0.01,0.05 -0.014,0.075 -10e-4,0.002 -10e-4,0.004 -0.002,0.006 -0.002,0.01 -0.004,0.022 -0.006,0.033 -10e-4,0.005 -0.002,0.011 -0.003,0.017 -0.002,0.01 -0.004,0.02 -0.006,0.03 -10e-4,0.005 -0.003,0.012 -0.004,0.018 -0.002,0.01 -0.004,0.021 -0.006,0.031 -10e-4,0.005 -10e-4,0.008 -0.002,0.013 -0.005,0.024 -0.01,0.049 -0.014,0.074 -10e-4,0.002 -10e-4,10e-4 -10e-4,0.004 -0.002,0.011 -0.004,0.022 -0.006,0.033 -0.001,0.005 -0.002,0.009 -0.003,0.015 -0.002,0.011 -0.004,0.021 -0.006,0.032 -0.001,0.006 -0.002,0.01 -0.003,0.015 -0.002,0.012 -0.004,0.023 -0.007,0.035 0,0.003 -0.001,0.005 -0.001,0.009 -0.008,0.039 -0.015,0.078 -0.022,0.117 0,0.003 -10e-4,0.008 -0.002,0.011 -0.002,0.012 -0.004,0.023 -0.006,0.034 -0.001,0.005 -0.002,0.01 -0.003,0.014 -0.002,0.011 -0.004,0.023 -0.006,0.034 0,0.004 -10e-4,0.009 -0.002,0.013 -0.007,0.041 -0.015,0.081 -0.022,0.122 v 0.002 c -0.002,0.012 -0.004,0.025 -0.007,0.037 0,0.005 -10e-4,0.007 -0.002,0.012 -0.002,0.012 -0.004,0.023 -0.006,0.035 0,0.004 -0.001,0.008 -0.002,0.012 -0.002,0.012 -0.004,0.024 -0.006,0.037 v 0 c -0.007,0.043 -0.015,0.084 -0.022,0.127 0,0.003 -10e-4,0.005 -10e-4,0.009 -0.002,0.012 -0.004,0.024 -0.006,0.036 -10e-4,0.004 -0.002,0.008 -0.002,0.012 -0.002,0.012 -0.004,0.025 -0.006,0.037 -10e-4,10e-4 -10e-4,10e-4 -10e-4,0.003 -0.007,0.041 -0.013,0.082 -0.02,0.124 -10e-4,0.003 -10e-4,0.006 -0.002,0.01 -0.002,0.012 -0.004,0.024 -0.006,0.036 0,0.005 -10e-4,0.007 -10e-4,0.012 -0.002,0.012 -0.004,0.023 -0.006,0.035 -10e-4,0.004 -10e-4,0.008 -0.002,0.011 -0.006,0.04 -0.013,0.081 -0.019,0.121 0,0.002 0,0.004 -10e-4,0.006 -0.002,0.012 -0.003,0.024 -0.005,0.036 -0.001,0.004 -0.002,0.009 -0.002,0.014 -0.002,0.011 -0.004,0.023 -0.006,0.034 0,0.004 -10e-4,0.008 -0.002,0.013 -0.006,0.041 -0.012,0.081 -0.018,0.122 0,10e-4 0,0.003 0,0.004 -0.002,0.012 -0.004,0.023 -0.006,0.036 0,0.004 -0.001,0.009 -0.002,0.013 -0.001,0.011 -0.003,0.023 -0.005,0.034 0,0.005 -0.001,0.009 -0.002,0.013 -0.007,0.054 -0.015,0.109 -0.023,0.163 -10e-4,0.005 -10e-4,0.008 -0.002,0.013 -0.001,0.012 -0.003,0.023 -0.005,0.034 0,0.004 -10e-4,0.01 -10e-4,0.014 -0.002,0.011 -0.004,0.023 -0.005,0.035 -10e-4,0.003 -10e-4,0.008 -0.002,0.011 -0.005,0.04 -0.01,0.079 -0.016,0.118 0,0.003 -10e-4,0.007 -10e-4,0.01 -0.002,0.012 -0.003,0.024 -0.005,0.035 0,0.005 -10e-4,0.01 -0.002,0.015 -10e-4,0.011 -0.003,0.023 -0.004,0.034 -10e-4,0.005 -10e-4,0.008 -0.002,0.013 -0.005,0.038 -0.01,0.076 -0.015,0.115 -10e-4,0.005 -10e-4,0.008 -0.002,0.013 -0.001,0.011 -0.002,0.022 -0.004,0.033 -0.001,0.006 -0.001,0.01 -0.002,0.016 -10e-4,0.011 -0.003,0.022 -0.004,0.034 -10e-4,0.004 -10e-4,0.009 -0.002,0.014 -0.005,0.04 -0.01,0.08 -0.015,0.121 0,10e-4 0,0.004 0,0.005 -0.002,0.011 -0.003,0.023 -0.004,0.034 -0.001,0.006 -0.002,0.011 -0.002,0.016 -0.002,0.012 -0.003,0.022 -0.004,0.034 -10e-4,0.004 -10e-4,0.01 -0.002,0.015 -10e-4,0.011 -0.003,0.022 -0.004,0.033 -0.001,0.005 -0.001,0.01 -0.002,0.015 -0.002,0.022 -0.005,0.042 -0.007,0.064 -10e-4,0.004 -10e-4,0.011 -0.002,0.015 -10e-4,0.011 -0.002,0.022 -0.003,0.032 -0.001,0.006 -0.002,0.011 -0.002,0.017 -0.002,0.011 -0.003,0.021 -0.004,0.032 -10e-4,0.007 -10e-4,0.011 -0.002,0.018 -0.001,0.011 -0.002,0.022 -0.004,0.032 0,0.005 -0.001,0.01 -0.001,0.015 -0.004,0.036 -0.008,0.073 -0.012,0.11 -10e-4,0.007 -10e-4,0.012 -0.002,0.019 -0.001,0.01 -0.002,0.02 -0.003,0.03 -10e-4,0.006 -0.002,0.014 -0.003,0.02 -10e-4,0.01 -0.002,0.02 -0.003,0.029 0,0.006 -0.001,0.015 -0.002,0.02 -10e-4,0.011 -0.002,0.021 -0.003,0.032 0,0.003 0,0.005 -0.001,0.008 -0.002,0.022 -0.004,0.044 -0.007,0.067 0,0.005 -10e-4,0.013 -10e-4,0.019 -10e-4,0.01 -0.002,0.019 -0.003,0.029 -0.001,0.007 -0.002,0.015 -0.003,0.022 -0.001,0.01 -0.001,0.019 -0.002,0.029 -0.001,0.007 -0.002,0.013 -0.002,0.02 -0.001,0.01 -0.002,0.02 -0.003,0.03 -0.001,0.006 -0.002,0.014 -0.002,0.019 -0.002,0.02 -0.004,0.039 -0.006,0.059 0,0.005 -10e-4,0.012 -10e-4,0.017 -0.001,0.011 -0.002,0.021 -0.003,0.031 -0.001,0.006 -0.001,0.013 -0.002,0.019 -0.001,0.011 -0.002,0.02 -0.003,0.031 0,0.005 -0.001,0.014 -0.002,0.02 -0.001,0.01 -0.001,0.02 -0.002,0.03 -0.001,0.007 -0.002,0.013 -0.002,0.02 -0.003,0.034 -0.006,0.069 -0.009,0.104 -10e-4,0.008 -0.002,0.015 -0.002,0.023 -10e-4,0.01 -0.002,0.018 -0.003,0.027 0,0.007 -10e-4,0.017 -0.002,0.024 0,0.009 -10e-4,0.018 -0.002,0.027 -0.001,0.009 -0.001,0.014 -0.002,0.022 -0.001,0.01 -0.001,0.02 -0.002,0.03 v 10e-4 c -0.002,0.024 -0.004,0.048 -0.006,0.072 -10e-4,0.007 -10e-4,0.017 -0.002,0.024 -0.001,0.008 -0.001,0.017 -0.002,0.025 -0.001,0.008 -0.001,0.018 -0.002,0.026 -10e-4,0.009 -10e-4,0.018 -0.002,0.026 -10e-4,0.009 -10e-4,0.018 -0.002,0.026 -10e-4,0.008 -10e-4,0.017 -0.002,0.025 -10e-4,0.009 -10e-4,0.019 -0.002,0.028 -0.001,0.015 -0.002,0.03 -0.004,0.045 0,0.008 -10e-4,0.017 -10e-4,0.025 -0.001,0.01 -0.002,0.018 -0.002,0.028 -0.001,0.007 -0.001,0.016 -0.002,0.023 -0.001,0.009 -0.001,0.018 -0.002,0.027 -10e-4,0.008 -10e-4,0.017 -0.002,0.026 0,0.008 -10e-4,0.017 -0.002,0.025 0,0.008 -10e-4,0.017 -10e-4,0.025 -10e-4,0.016 -0.003,0.033 -0.004,0.05 0,0.007 -10e-4,0.016 -10e-4,0.023 -0.001,0.009 -0.001,0.018 -0.002,0.027 -10e-4,0.008 -10e-4,0.016 -0.002,0.024 0,0.009 -10e-4,0.018 -10e-4,0.027 -0.001,0.008 -0.001,0.017 -0.002,0.026 0,0.008 -10e-4,0.017 -0.002,0.025 0,0.009 -10e-4,0.017 -10e-4,0.025 -0.002,0.034 -0.004,0.068 -0.006,0.101 -10e-4,0.009 -10e-4,0.015 -0.002,0.024 0,0.009 -10e-4,0.018 -10e-4,0.027 -10e-4,0.008 -10e-4,0.017 -0.002,0.025 0,0.009 -10e-4,0.017 -10e-4,0.026 -0.001,0.009 -0.001,0.017 -0.002,0.026 0,0.008 -0.001,0.017 -0.001,0.025 -10e-4,0.016 -0.002,0.032 -0.003,0.047 0,0.006 0,0.013 -10e-4,0.02 0,0.011 -0.001,0.021 -0.001,0.033 -10e-4,0.008 -10e-4,0.016 -0.002,0.024 0,0.01 -0.001,0.018 -0.001,0.028 -10e-4,0.008 -10e-4,0.015 -10e-4,0.023 -0.001,0.011 -0.001,0.02 -0.002,0.031 0,0.007 -0.001,0.014 -0.001,0.021 -10e-4,0.013 -10e-4,0.027 -0.002,0.04 0,0.007 0,0.013 -0.001,0.019 0,0.014 -10e-4,0.028 -0.002,0.042 0,0.008 0,0.015 -10e-4,0.023 0,0.01 -10e-4,0.02 -10e-4,0.03 0,0.007 -0.001,0.015 -0.001,0.022 -10e-4,0.011 -10e-4,0.02 -10e-4,0.031 -0.001,0.007 -0.001,0.015 -0.001,0.022 -10e-4,0.011 -10e-4,0.021 -0.002,0.032 0,0.007 0,0.014 -10e-4,0.02 0,0.017 -10e-4,0.033 -0.002,0.049 0,0.007 0,0.014 0,0.02 -10e-4,0.012 -10e-4,0.021 -0.002,0.033 0,0.007 0,0.014 0,0.021 -10e-4,0.01 -10e-4,0.021 -0.002,0.032 0,0.007 0,0.015 0,0.022 -0.001,0.01 -0.001,0.022 -0.002,0.033 0,0.006 0,0.012 0,0.018 -0.001,0.017 -0.001,0.034 -0.002,0.05 0,0.006 0,0.012 -0.001,0.018 0,0.012 0,0.023 -10e-4,0.035 0,0.008 0,0.014 0,0.021 -10e-4,0.01 -10e-4,0.02 -10e-4,0.031 0,0.008 -0.001,0.015 -0.001,0.022 0,0.011 -10e-4,0.024 -10e-4,0.034 0,0.007 0,0.012 0,0.018 v 0 c -0.001,0.018 -0.001,0.033 -0.002,0.051 v 0 c 0,0.004 0,0.007 0,0.01 v 0 c 0,0.014 -10e-4,0.029 -10e-4,0.043 v 0 c 0,0.006 -0.001,0.012 -0.001,0.018 v 0 c 0,0.011 0,0.023 -10e-4,0.035 v 0 c 0,0.006 0,0.013 0,0.02 v 0 c 0,0.012 -0.001,0.022 -0.001,0.034 v 0 c 0,0.006 0,0.012 0,0.018 v 0 c 0,0.012 -10e-4,0.026 -10e-4,0.038 v 0 c 0,0.008 0,0.015 0,0.022 v 0 c -0.001,0.016 -0.001,0.029 -0.001,0.045 v 0 c 0,0.006 -10e-4,0.011 -10e-4,0.016 v 0 c 0,0.012 0,0.024 0,0.036 v 0 c 0,0.006 -10e-4,0.014 -10e-4,0.02 v 0 c 0,0.012 0,0.022 0,0.034 v 0 c 0,0.006 0,0.013 -0.001,0.02 v 0 c 0,0.012 0,0.025 0,0.037 v 0 c 0,0.005 0,0.01 0,0.015 v 0 c -10e-4,0.017 -10e-4,0.036 -10e-4,0.053 v 0 c 0,0.003 0,0.007 0,0.01 v 0 c 0,0.015 -0.001,0.028 -0.001,0.042 v 0 c 0,0.006 0,0.012 0,0.018 v 0 c 0,0.012 0,0.023 0,0.035 v 0 c 0,0.006 0,0.013 0,0.019 v 0 c -10e-4,0.013 -10e-4,0.026 -10e-4,0.039 v 0 c 0,0.005 0,0.009 0,0.014 v 0 c 0,0.018 0,0.035 0,0.053 v 0 c 0,0.002 0,0.004 0,0.006 v 0 c 0,0.015 0,0.031 -10e-4,0.046 v 0 c 0,0.006 0,0.012 0,0.018 v 0 c 0,0.012 0,0.024 0,0.036 v 0 c 0,0.006 0,0.012 0,0.018 v 0 c 0,0.013 0,0.024 0,0.037 v 0 c 0,0.006 0,0.011 0,0.017 v 0 c 0,0.017 0,0.034 0,0.052 v 0 0 c 0,0.459 0.015,0.911 0.032,1.366 1.966,1.322 4.328,2.092 6.872,2.092 1.333,0 2.616,-0.212 3.818,-0.603 4.94,-1.607 8.509,-6.248 8.509,-11.725 0,-5.198 -3.219,-9.641 -7.772,-11.452 -1.376,-0.547 -2.875,-0.854 -4.442,-0.868"
       style="fill:#5a4b59;fill-opacity:1;fill-rule:nonzero;stroke:none;stroke-width:0.1"
       id="path778" /></g></svg>
