<?xml version="1.0" encoding="UTF-8" standalone="no"?>
<svg
   xmlns:dc="http://purl.org/dc/elements/1.1/"
   xmlns:cc="http://creativecommons.org/ns#"
   xmlns:rdf="http://www.w3.org/1999/02/22-rdf-syntax-ns#"
   xmlns:svg="http://www.w3.org/2000/svg"
   xmlns="http://www.w3.org/2000/svg"
   xmlns:sodipodi="http://sodipodi.sourceforge.net/DTD/sodipodi-0.dtd"
   xmlns:inkscape="http://www.inkscape.org/namespaces/inkscape"
   version="1.1"
   id="svg2"
   xml:space="preserve"
   width="512"
   height="512"
   viewBox="0 0 512 512"
   sodipodi:docname="logo.svg"
   inkscape:version="1.0.1 (3bc2e813f5, 2020-09-07)"
   inkscape:export-filename="/home/lucas/github/moon-phase/src/assets/logo.png"
   inkscape:export-xdpi="96"
   inkscape:export-ydpi="96"><metadata
     id="metadata8"><rdf:RDF><cc:Work
         rdf:about=""><dc:format>image/svg+xml</dc:format><dc:type
           rdf:resource="http://purl.org/dc/dcmitype/StillImage" /><dc:title></dc:title></cc:Work></rdf:RDF></metadata><defs
     id="defs6" /><sodipodi:namedview
     pagecolor="#ffffff"
     bordercolor="#666666"
     borderopacity="1"
     objecttolerance="10"
     gridtolerance="10"
     guidetolerance="10"
     inkscape:pageopacity="0"
     inkscape:pageshadow="2"
     inkscape:window-width="1920"
     inkscape:window-height="1016"
     id="namedview4"
     showgrid="false"
     inkscape:zoom="1.2685536"
     inkscape:cx="287.94"
     inkscape:cy="289.70001"
     inkscape:window-x="0"
     inkscape:window-y="27"
     inkscape:window-maximized="1"
     inkscape:current-layer="g10"
     inkscape:document-rotation="0" /><g
     id="g10"
     inkscape:groupmode="layer"
     inkscape:label="ink_ext_XXXXXX"
     transform="matrix(1.3333333,0,0,-1.3333333,0,579.4)"><g
       id="g1304"
       transform="matrix(4.643626,0,0,4.643626,-1012.0458,-1570.7859)"
       style="fill:#d3d3d3;fill-opacity:1"><path
         d="m 276.045,370.906 c -0.02,0.018 -0.036,0.036 -0.057,0.054 -0.472,0.408 -1.088,0.787 -1.829,1.049 -0.741,0.259 -1.601,0.404 -2.522,0.389 -0.064,-0.002 -0.102,0.005 -0.189,-0.005 l -0.164,-0.013 c -0.11,-0.009 -0.221,-0.017 -0.333,-0.026 -0.23,-0.028 -0.485,-0.074 -0.73,-0.12 -0.476,-0.115 -0.97,-0.246 -1.44,-0.471 -0.477,-0.206 -0.935,-0.488 -1.377,-0.813 -0.436,-0.334 -0.833,-0.741 -1.183,-1.204 -0.336,-0.474 -0.612,-1.011 -0.787,-1.599 -0.076,-0.297 -0.147,-0.599 -0.16,-0.912 -0.02,-0.155 -0.023,-0.311 -0.013,-0.467 l 0.009,-0.235 0.005,-0.117 0.001,-0.015 0.01,-0.071 0.004,-0.023 0.007,-0.047 0.067,-0.373 c 0.035,-0.146 0.093,-0.327 0.144,-0.487 0.049,-0.174 0.119,-0.308 0.185,-0.452 0.066,-0.143 0.136,-0.283 0.226,-0.41 0.322,-0.538 0.763,-0.979 1.243,-1.322 0.235,-0.174 0.48,-0.32 0.731,-0.445 -0.146,-0.098 -0.289,-0.196 -0.438,-0.293 -3.402,-2.208 -7.262,-3.337 -11.114,-3.8 10e-4,0.12 -0.012,0.224 -0.032,0.304 -0.041,0.171 -0.078,0.258 -0.078,0.258 0,0 0.036,-0.088 0.073,-0.259 0.018,-0.08 0.03,-0.185 0.027,-0.304 -2.903,-0.349 -5.801,-0.32 -8.494,-0.086 -0.08,0.086 -0.147,0.177 -0.215,0.264 -0.054,0.06 -0.047,0.095 -0.08,0.139 -0.023,0.048 -0.054,0.058 -0.081,0.17 l -0.074,0.238 -0.001,0.012 -0.003,0.041 -0.009,0.081 c -0.017,0.057 0.006,0.102 0.007,0.152 0.002,0.025 -0.001,0.05 0.003,0.075 l 0.025,0.069 c 0.06,0.184 0.19,0.39 0.419,0.566 0.444,0.356 1.086,0.61 1.718,0.766 0.635,0.159 1.302,0.233 1.912,0.238 0.153,0.007 0.319,-0.008 0.474,-0.01 0.161,-0.003 0.293,-0.016 0.448,-0.03 0.295,-0.032 0.578,-0.081 0.849,-0.139 1.085,-0.237 1.924,-0.712 2.399,-1.159 0.241,-0.221 0.394,-0.432 0.482,-0.584 0.086,-0.152 0.121,-0.24 0.121,-0.24 0,0 -0.033,0.088 -0.117,0.242 -0.083,0.156 -0.239,0.364 -0.469,0.6 -0.461,0.47 -1.26,1.004 -2.329,1.426 -0.528,0.209 -1.154,0.378 -1.79,0.501 -0.672,0.118 -1.375,0.182 -2.129,0.128 -0.747,-0.07 -1.551,-0.205 -2.32,-0.702 -0.38,-0.238 -0.754,-0.631 -0.948,-1.146 l -0.071,-0.193 c -0.017,-0.066 -0.025,-0.135 -0.037,-0.203 -0.016,-0.136 -0.045,-0.276 -0.026,-0.406 l 0.016,-0.198 0.01,-0.1 0.005,-0.049 0.002,-0.012 c -0.015,0.056 0.021,-0.09 0.018,-0.078 l 0.005,-0.017 0.078,-0.265 c -6.571,0.791 -11.543,2.639 -11.664,2.684 -2.131,1.823 -4.059,3.875 -5.746,6.121 0.428,-0.105 0.963,0.003 1.264,0.384 0.311,0.405 0.31,0.845 0.292,1.203 -0.025,0.368 -0.12,0.692 -0.22,0.98 -0.206,0.576 -0.476,1.003 -0.677,1.287 -0.205,0.282 -0.342,0.425 -0.342,0.425 0,0 0.092,-0.177 0.225,-0.491 0.13,-0.315 0.303,-0.771 0.416,-1.327 0.056,-0.277 0.093,-0.581 0.087,-0.888 -0.004,-0.258 -0.065,-0.523 -0.182,-0.706 -0.13,0.335 -0.695,0.762 -1.485,1.592 -0.829,0.871 -1.169,1.648 -1.244,2.348 -0.044,0.41 -0.122,0.591 -0.205,0.656 h 0.001 c 0.063,0.069 0.146,0.119 0.216,0.15 0.104,0.037 0.164,0.051 0.251,0.06 0.158,0.014 0.291,-0.009 0.38,-0.029 0.089,-0.021 0.134,-0.042 0.134,-0.042 0,0 -0.035,0.035 -0.115,0.087 -0.079,0.052 -0.204,0.122 -0.389,0.157 -0.046,0.01 -0.096,0.015 -0.149,0.018 -0.059,0.002 -0.115,-0.003 -0.163,-0.008 -0.129,-0.025 -0.251,-0.074 -0.37,-0.161 -0.233,-0.176 -0.38,-0.471 -0.454,-0.787 -0.047,-0.197 -0.064,-0.406 -0.061,-0.621 -3.088,5.514 -4.851,11.871 -4.851,18.64 0,21.104 17.108,38.211 38.212,38.211 2.153,0 4.264,-0.181 6.321,-0.523 -0.05,-0.023 -0.098,-0.047 -0.152,-0.068 -0.157,-0.071 -0.328,-0.139 -0.512,-0.199 -0.362,-0.132 -0.767,-0.242 -1.176,-0.344 -1.642,-0.402 -3.363,-0.533 -3.363,-0.533 0,0 1.412,-0.137 2.976,-0.073 -0.012,-0.014 -0.052,-0.061 -0.101,-0.16 -0.025,-0.059 -0.056,-0.131 -0.073,-0.218 -0.014,-0.043 -0.018,-0.091 -0.021,-0.141 -0.004,-0.05 -0.01,-0.103 10e-4,-0.158 0.009,-0.056 0.011,-0.115 0.026,-0.174 0.021,-0.06 0.042,-0.122 0.063,-0.185 0.023,-0.063 0.066,-0.124 0.1,-0.188 0.018,-0.032 0.035,-0.065 0.057,-0.097 l 0.075,-0.091 c 0.052,-0.06 0.1,-0.126 0.159,-0.185 0.064,-0.057 0.128,-0.115 0.193,-0.172 0.034,-0.029 0.066,-0.059 0.101,-0.086 l 0.111,-0.077 0.226,-0.155 c 0.156,-0.097 0.327,-0.177 0.487,-0.265 0.162,-0.086 0.339,-0.146 0.5,-0.216 0.161,-0.073 0.326,-0.124 0.482,-0.173 0.156,-0.05 0.303,-0.096 0.439,-0.138 0.277,-0.074 0.512,-0.12 0.674,-0.159 0.163,-0.037 0.256,-0.055 0.256,-0.055 0,0 -0.087,0.035 -0.242,0.091 -0.154,0.054 -0.374,0.133 -0.638,0.227 -0.128,0.051 -0.268,0.107 -0.415,0.166 -0.148,0.056 -0.303,0.117 -0.456,0.192 -0.152,0.072 -0.317,0.139 -0.471,0.221 -0.151,0.086 -0.313,0.165 -0.458,0.258 l -0.214,0.142 -0.107,0.071 c -0.033,0.025 -0.062,0.052 -0.093,0.078 -0.063,0.052 -0.125,0.104 -0.186,0.155 -0.057,0.053 -0.103,0.11 -0.155,0.164 l -0.075,0.081 -0.058,0.085 c -0.036,0.056 -0.081,0.11 -0.108,0.166 -0.026,0.056 -0.052,0.111 -0.076,0.164 -0.022,0.054 -0.032,0.108 -0.048,0.159 -0.018,0.051 -0.017,0.1 -0.024,0.147 -0.007,0.048 -0.012,0.093 -0.008,0.135 -0.001,0.085 0.013,0.158 0.025,0.218 0.022,0.09 0.046,0.149 0.057,0.173 0.132,0.006 0.265,0.012 0.399,0.021 -0.005,-0.017 -0.013,-0.036 -0.019,-0.054 l -0.012,-0.034 -0.008,-0.028 v -0.005 l -0.002,-0.012 -0.003,-0.022 -0.01,-0.09 c -0.01,-0.059 -0.008,-0.12 0.002,-0.18 0.007,-0.06 0.009,-0.121 0.031,-0.179 0.058,-0.238 0.2,-0.453 0.363,-0.645 0.339,-0.383 0.786,-0.67 1.249,-0.902 0.467,-0.235 0.954,-0.394 1.453,-0.52 0.129,-0.035 0.239,-0.055 0.354,-0.08 0.063,-0.012 0.102,-0.023 0.184,-0.036 l 0.18,-0.027 c 0.119,-0.02 0.238,-0.034 0.355,-0.045 0.118,-0.013 0.233,-0.025 0.348,-0.029 0.458,-0.032 0.891,-0.013 1.279,0.04 0.779,0.102 1.353,0.393 1.597,0.677 0.123,0.142 0.174,0.275 0.194,0.361 0.015,0.088 0.023,0.135 0.023,0.135 0,0 -0.022,-0.043 -0.064,-0.125 -0.046,-0.08 -0.136,-0.181 -0.276,-0.292 -0.147,-0.106 -0.359,-0.204 -0.622,-0.28 -0.265,-0.075 -0.586,-0.123 -0.942,-0.138 -0.358,-0.014 -0.751,0.009 -1.162,0.061 -0.103,0.011 -0.207,0.028 -0.312,0.047 -0.027,0.005 -0.055,0.012 -0.082,0.016 -0.538,0.44 -2.058,1.426 -1.75,2.528 0.08,0.287 0.428,0.42 0.82,0.479 0.261,-0.005 0.517,-0.018 0.757,-0.044 0.366,-0.045 0.702,-0.101 0.996,-0.169 0.293,-0.07 0.548,-0.141 0.754,-0.21 0.414,-0.137 0.64,-0.243 0.64,-0.243 0,0 -0.05,0.033 -0.143,0.096 -0.094,0.061 -0.234,0.151 -0.429,0.249 -0.041,0.021 -0.095,0.045 -0.141,0.067 8.92,-2.438 16.539,-8.025 21.585,-15.495 -10.779,-17.827 -8.517,-30.761 -14.93,-40.958 z m -6.887,-15.726 c 0.075,-0.048 0.124,-0.098 0.146,-0.139 0.021,-0.04 0.027,-0.063 0.027,-0.063 -0.005,0.004 0.041,-0.107 -0.07,-0.255 -0.104,-0.147 -0.32,-0.305 -0.611,-0.463 -0.586,-0.316 -1.482,-0.645 -2.579,-0.956 -1.098,-0.311 -2.401,-0.599 -3.818,-0.797 -0.709,-0.098 -1.447,-0.172 -2.204,-0.184 -0.379,-0.007 -0.762,0.003 -1.151,0.05 -0.194,0.025 -0.39,0.057 -0.589,0.118 -0.1,0.034 -0.201,0.067 -0.304,0.13 -0.051,0.033 -0.104,0.067 -0.153,0.122 -0.043,0.028 -0.118,0.183 -0.114,0.199 -0.048,0.197 0.035,0.34 0.106,0.435 0.075,0.097 0.157,0.172 0.24,0.235 0.167,0.129 0.341,0.225 0.516,0.314 0.35,0.176 0.709,0.312 1.068,0.432 0.717,0.242 1.438,0.417 2.139,0.561 1.402,0.285 2.727,0.449 3.865,0.52 1.139,0.073 2.092,0.059 2.751,-0.038 0.328,-0.051 0.583,-0.125 0.735,-0.221 z m 17.911,12.674 c -0.321,-0.663 -0.8,-1.389 -1.439,-2.066 -0.321,-0.338 -0.683,-0.665 -1.114,-0.924 -0.215,-0.132 -0.45,-0.243 -0.714,-0.31 -0.131,-0.032 -0.273,-0.054 -0.423,-0.039 l -0.113,0.012 c -0.043,0.011 -0.087,0.026 -0.129,0.041 -0.1,0.033 -0.132,0.066 -0.187,0.099 -0.302,0.236 -0.334,0.558 -0.341,0.824 0.002,0.273 0.06,0.527 0.141,0.765 0.153,0.481 0.393,0.905 0.649,1.294 0.517,0.777 1.116,1.404 1.69,1.866 0.574,0.46 1.126,0.755 1.548,0.836 0.21,0.039 0.385,0.028 0.49,-0.02 0.106,-0.041 0.152,-0.086 0.154,-0.082 -0.004,-0.003 0.051,-0.036 0.117,-0.129 0.073,-0.09 0.125,-0.258 0.136,-0.47 0.018,-0.43 -0.144,-1.035 -0.465,-1.697 z m 4.02,36.124 c 0.033,0.538 0.195,1.068 0.553,1.367 0.181,0.148 0.412,0.182 0.59,0.134 0.178,-0.047 0.304,-0.144 0.399,-0.226 0.094,-0.084 0.155,-0.162 0.195,-0.215 0.039,-0.054 0.06,-0.083 0.06,-0.083 0,0 -0.088,0.116 -0.282,0.265 -0.098,0.071 -0.228,0.151 -0.389,0.178 -0.159,0.029 -0.348,-0.021 -0.493,-0.149 -0.299,-0.27 -0.42,-0.772 -0.441,-1.281 -0.019,-0.515 0.075,-1.074 0.283,-1.581 0.101,-0.254 0.231,-0.499 0.399,-0.703 0.168,-0.2 0.382,-0.362 0.611,-0.385 0.232,-0.017 0.431,0.115 0.567,0.299 0.132,0.186 0.209,0.4 0.26,0.6 0.096,0.404 0.101,0.761 0.088,1.006 -0.01,0.247 -0.032,0.387 -0.032,0.387 0,0 0.007,-0.034 0.022,-0.099 0.016,-0.065 0.037,-0.16 0.053,-0.284 0.031,-0.246 0.072,-0.607 -0.009,-1.037 -0.042,-0.213 -0.11,-0.444 -0.249,-0.665 -0.076,-0.105 -0.162,-0.215 -0.287,-0.291 -0.136,-0.082 -0.269,-0.114 -0.428,-0.108 -0.311,0.027 -0.563,0.225 -0.754,0.443 -0.191,0.224 -0.335,0.484 -0.447,0.754 -0.212,0.544 -0.299,1.129 -0.269,1.674 z m 4.154,-16.205 c -0.125,-0.657 -0.307,-1.33 -0.605,-1.979 -0.152,-0.322 -0.329,-0.641 -0.568,-0.931 -0.122,-0.142 -0.26,-0.28 -0.432,-0.386 -0.147,-0.111 -0.448,-0.185 -0.591,-0.167 -0.254,0.026 -0.438,0.126 -0.588,0.268 -0.079,0.067 -0.145,0.141 -0.199,0.221 -0.063,0.076 -0.112,0.157 -0.155,0.24 -0.18,0.331 -0.3,0.677 -0.378,1.024 -0.172,0.694 -0.21,1.391 -0.206,2.059 0.016,1.339 0.226,2.571 0.531,3.59 0.306,1.015 0.699,1.829 1.127,2.283 0.209,0.228 0.426,0.36 0.59,0.394 0.159,0.043 0.251,0.02 0.25,0.029 -0.003,-0.008 0.092,-0.001 0.243,-0.07 0.155,-0.06 0.346,-0.23 0.508,-0.493 0.336,-0.526 0.561,-1.403 0.662,-2.458 0.096,-1.058 0.059,-2.309 -0.189,-3.624 z m -26,-23.892 c -0.195,0.081 -0.368,0.198 -0.55,0.299 -0.164,0.124 -0.34,0.233 -0.486,0.372 -0.301,0.266 -0.565,0.566 -0.743,0.905 -0.055,0.08 -0.086,0.17 -0.124,0.257 -0.038,0.086 -0.087,0.176 -0.1,0.248 -0.021,0.082 -0.049,0.138 -0.074,0.238 l -0.062,0.373 -0.007,0.039 -0.003,0.064 -0.007,0.144 c -0.01,0.096 -0.011,0.193 0.002,0.289 0.004,0.193 0.047,0.384 0.078,0.578 0.099,0.382 0.254,0.759 0.458,1.12 0.436,0.707 1.048,1.35 1.773,1.815 0.356,0.242 0.74,0.436 1.129,0.608 0.194,0.073 0.375,0.145 0.58,0.211 0.108,0.029 0.215,0.057 0.322,0.086 l 0.16,0.042 c 0.02,0.011 0.092,0.019 0.136,0.029 0.805,0.171 1.608,0.173 2.329,0.032 0.725,-0.128 1.358,-0.423 1.849,-0.778 0.025,-0.018 0.046,-0.039 0.071,-0.057 -1.576,-2.477 -3.671,-4.792 -6.597,-6.976 -0.044,0.021 -0.09,0.039 -0.134,0.062 z m 29.278,26.937 c -0.003,-0.231 -0.006,-0.517 -0.011,-0.853 -0.002,-0.168 -0.005,-0.348 -0.008,-0.541 -0.012,-0.192 -0.025,-0.397 -0.039,-0.613 -0.027,-0.432 -0.058,-0.91 -0.092,-1.431 -0.059,-0.519 -0.123,-1.08 -0.191,-1.679 -0.067,-0.6 -0.195,-1.23 -0.299,-1.9 -0.103,-0.67 -0.29,-1.358 -0.442,-2.086 -0.171,-0.724 -0.395,-1.466 -0.606,-2.239 -0.126,-0.381 -0.254,-0.768 -0.384,-1.161 -0.127,-0.394 -0.26,-0.794 -0.42,-1.188 -0.154,-0.398 -0.31,-0.801 -0.467,-1.209 -0.166,-0.405 -0.354,-0.807 -0.533,-1.217 -0.342,-0.829 -0.794,-1.627 -1.207,-2.461 -0.902,-1.628 -1.922,-3.263 -3.08,-4.839 -1.174,-1.563 -2.468,-3.074 -3.861,-4.493 -1.417,-1.392 -2.929,-2.686 -4.492,-3.86 -1.576,-1.159 -3.211,-2.179 -4.839,-3.08 -1.649,-0.863 -3.282,-1.627 -4.887,-2.207 -0.395,-0.161 -0.794,-0.294 -1.188,-0.421 -0.393,-0.13 -0.78,-0.258 -1.161,-0.384 -0.773,-0.211 -1.516,-0.434 -2.239,-0.606 -0.728,-0.152 -1.416,-0.339 -2.086,-0.442 -0.67,-0.104 -1.3,-0.231 -1.9,-0.298 -0.599,-0.069 -1.16,-0.133 -1.679,-0.192 -0.521,-0.033 -0.999,-0.064 -1.431,-0.092 -0.216,-0.013 -0.42,-0.026 -0.613,-0.038 -0.192,-0.003 -0.373,-0.006 -0.541,-0.009 -0.336,-0.004 -0.622,-0.008 -0.854,-0.011 -0.463,-0.005 -0.71,-0.008 -0.71,-0.008 0,0 0.247,0.009 0.71,0.027 0.232,0.009 0.517,0.019 0.853,0.032 0.167,0.007 0.347,0.015 0.54,0.022 0.191,0.018 0.395,0.036 0.61,0.055 0.431,0.038 0.907,0.081 1.425,0.128 0.516,0.072 1.073,0.15 1.669,0.233 1.187,0.193 2.517,0.459 3.951,0.819 0.716,0.181 1.451,0.413 2.216,0.634 0.376,0.13 0.759,0.263 1.148,0.398 0.389,0.131 0.783,0.269 1.173,0.434 0.392,0.158 0.79,0.318 1.193,0.481 0.399,0.169 0.795,0.362 1.199,0.545 0.815,0.355 1.607,0.799 2.431,1.214 1.61,0.902 3.224,1.92 4.78,3.075 1.543,1.17 3.033,2.459 4.431,3.843 1.384,1.398 2.673,2.888 3.843,4.431 1.155,1.556 2.173,3.17 3.075,4.78 0.415,0.824 0.86,1.616 1.215,2.43 0.183,0.405 0.375,0.8 0.545,1.2 0.162,0.402 0.322,0.8 0.48,1.193 0.166,0.389 0.303,0.784 0.435,1.173 0.134,0.389 0.267,0.771 0.397,1.148 0.221,0.765 0.454,1.499 0.634,2.216 0.36,1.434 0.627,2.764 0.819,3.951 0.083,0.596 0.161,1.153 0.233,1.668 0.047,0.519 0.09,0.995 0.128,1.425 0.019,0.215 0.038,0.419 0.055,0.61 0.008,0.193 0.015,0.373 0.022,0.541 0.012,0.336 0.023,0.621 0.032,0.853 0.018,0.463 0.027,0.71 0.027,0.71 0,0 -0.003,-0.247 -0.009,-0.711 z m -39.231,41.029 c -22.799,0 -41.347,-18.549 -41.347,-41.347 0,-22.799 18.548,-41.347 41.347,-41.347 22.799,0 41.347,18.548 41.347,41.347 0,22.798 -18.548,41.347 -41.347,41.347"
         style="fill:#d3d3d3;fill-opacity:1;fill-rule:nonzero;stroke:none;stroke-width:0.1"
         id="path94" /><path
         d="m 269.156,355.178 c -0.151,0.094 -0.407,0.165 -0.735,0.213 -0.657,0.094 -1.612,0.085 -2.741,-0.038 -1.13,-0.125 -2.439,-0.351 -3.812,-0.699 -0.685,-0.177 -1.388,-0.383 -2.081,-0.634 -0.345,-0.129 -0.689,-0.268 -1.014,-0.433 -0.161,-0.083 -0.319,-0.175 -0.451,-0.279 -0.068,-0.051 -0.124,-0.108 -0.166,-0.162 -0.043,-0.052 -0.043,-0.102 -0.042,-0.093 -0.003,-0.051 0.151,-0.147 0.311,-0.194 0.163,-0.05 0.342,-0.084 0.522,-0.108 0.362,-0.046 0.733,-0.061 1.101,-0.068 0.738,-0.004 1.468,0.037 2.173,0.097 1.411,0.128 2.721,0.351 3.828,0.608 1.106,0.261 2.01,0.569 2.596,0.881 0.292,0.155 0.509,0.31 0.613,0.456 0.113,0.146 0.068,0.257 0.073,0.253 0,0 -0.006,0.023 -0.028,0.063 -0.022,0.041 -0.072,0.09 -0.147,0.137"
         style="fill:#d3d3d3;fill-opacity:1;fill-rule:nonzero;stroke:none;stroke-width:0.1"
         id="path96" /><path
         d="m 286.639,370.242 c -0.418,-0.083 -0.96,-0.4 -1.492,-0.893 -0.529,-0.495 -1.071,-1.163 -1.509,-1.945 -0.215,-0.392 -0.413,-0.814 -0.536,-1.254 -0.062,-0.22 -0.103,-0.445 -0.102,-0.658 -0.004,-0.206 0.07,-0.42 0.169,-0.487 0.286,-0.222 0.774,-0.025 1.162,0.179 0.4,0.222 0.767,0.508 1.102,0.805 0.665,0.604 1.191,1.279 1.557,1.907 0.363,0.628 0.548,1.228 0.533,1.654 -0.007,0.211 -0.056,0.379 -0.127,0.47 -0.065,0.093 -0.119,0.128 -0.115,0.13 -0.002,-0.004 -0.049,0.04 -0.155,0.08 -0.105,0.046 -0.279,0.054 -0.487,0.012"
         style="fill:#d3d3d3;fill-opacity:1;fill-rule:nonzero;stroke:none;stroke-width:0.1"
         id="path98" /><path
         d="m 293.192,393.982 c -0.41,-0.459 -0.805,-1.27 -1.063,-2.292 -0.254,-1.021 -0.402,-2.257 -0.355,-3.564 0.03,-0.653 0.099,-1.329 0.267,-1.984 0.08,-0.328 0.2,-0.647 0.361,-0.931 0.154,-0.277 0.412,-0.525 0.641,-0.537 0.088,0.001 0.186,-0.004 0.227,0.024 0.052,0.008 0.118,0.045 0.184,0.082 0.128,0.075 0.247,0.186 0.354,0.309 0.214,0.248 0.387,0.542 0.536,0.844 0.288,0.613 0.492,1.26 0.65,1.894 0.304,1.274 0.402,2.511 0.357,3.564 -0.051,1.052 -0.28,1.926 -0.596,2.454 -0.156,0.265 -0.342,0.436 -0.495,0.499 -0.148,0.071 -0.244,0.066 -0.241,0.074 0.002,-0.009 -0.091,0.012 -0.249,-0.034 -0.161,-0.037 -0.375,-0.171 -0.578,-0.402"
         style="fill:#d3d3d3;fill-opacity:1;fill-rule:nonzero;stroke:none;stroke-width:0.1"
         id="path100" /><path
         d="m 238.498,410.775 c 0.022,0.064 0.042,0.129 0.063,0.193 0.02,-0.025 0.038,-0.051 0.059,-0.075 0.097,-0.1 0.202,-0.198 0.31,-0.302 0.109,-0.101 0.24,-0.178 0.366,-0.271 0.064,-0.045 0.128,-0.093 0.197,-0.133 0.071,-0.033 0.143,-0.067 0.216,-0.101 0.147,-0.065 0.294,-0.144 0.449,-0.2 0.157,-0.048 0.316,-0.095 0.479,-0.137 0.081,-0.02 0.162,-0.045 0.244,-0.062 l 0.249,-0.033 0.5,-0.064 c 0.333,-0.024 0.664,0.003 0.99,0.003 0.327,0.003 0.637,0.083 0.941,0.119 0.255,0.027 0.492,0.089 0.72,0.153 0.055,-0.206 0.108,-0.437 0.149,-0.674 0.068,-0.372 0.11,-0.753 0.128,-1.04 0.02,-0.287 0.019,-0.48 0.019,-0.48 0,0 0.05,0.186 0.104,0.473 0.054,0.286 0.111,0.672 0.141,1.065 0.022,0.281 0.03,0.564 0.026,0.814 0.112,0.033 0.222,0.066 0.326,0.098 0.229,0.077 0.433,0.17 0.614,0.245 0.182,0.075 0.338,0.147 0.466,0.205 0.256,0.119 0.399,0.193 0.399,0.193 0,0 -0.163,-0.011 -0.443,-0.043 -0.279,-0.03 -0.673,-0.089 -1.14,-0.162 -0.236,-0.021 -0.491,-0.046 -0.757,-0.082 -0.266,-0.036 -0.546,-0.069 -0.836,-0.08 -0.288,-0.014 -0.588,-0.046 -0.887,-0.048 -0.299,0.01 -0.606,-0.006 -0.905,0.022 l -0.446,0.045 -0.222,0.022 c -0.072,0.013 -0.142,0.033 -0.213,0.049 -0.141,0.035 -0.282,0.064 -0.422,0.092 -0.137,0.035 -0.263,0.092 -0.394,0.136 l -0.192,0.069 -0.176,0.091 c -0.114,0.063 -0.238,0.11 -0.34,0.182 -0.101,0.072 -0.198,0.146 -0.298,0.212 -0.095,0.071 -0.173,0.156 -0.258,0.229 -0.088,0.071 -0.148,0.159 -0.217,0.236 -0.07,0.077 -0.134,0.152 -0.183,0.23 -0.109,0.152 -0.189,0.295 -0.256,0.416 -0.124,0.244 -0.174,0.4 -0.174,0.4 0,0 -0.016,-0.161 0.026,-0.448 0.029,-0.141 0.062,-0.316 0.14,-0.505 0.002,-0.007 0.005,-0.014 0.008,-0.02 0.01,-0.101 0.019,-0.207 0.021,-0.321 0.008,-0.193 -0.003,-0.402 -0.022,-0.611 -0.037,-0.421 -0.132,-0.843 -0.223,-1.155 -0.089,-0.313 -0.175,-0.515 -0.175,-0.515 0,0 0.134,0.174 0.302,0.46 0.169,0.285 0.374,0.682 0.527,1.11"
         style="fill:#d3d3d3;fill-opacity:1;fill-rule:nonzero;stroke:none;stroke-width:0.1"
         id="path102" /><path
         d="m 238.45,413.077 0.025,-0.075 0.024,-0.061 0.006,-0.011 0.011,-0.023 0.023,-0.044 0.095,-0.179 c 0.059,-0.123 0.134,-0.234 0.219,-0.338 0.083,-0.104 0.16,-0.217 0.258,-0.303 0.366,-0.389 0.815,-0.648 1.265,-0.844 0.915,-0.374 1.861,-0.458 2.76,-0.421 0.908,0.036 1.752,0.233 2.572,0.505 0.215,0.065 0.385,0.141 0.57,0.212 0.098,0.041 0.164,0.06 0.289,0.119 l 0.274,0.132 c 0.183,0.085 0.359,0.179 0.529,0.278 0.173,0.096 0.342,0.192 0.501,0.3 0.65,0.408 1.208,0.885 1.661,1.38 0.92,0.986 1.336,2.119 1.32,2.903 -0.008,0.39 -0.101,0.694 -0.177,0.875 -0.086,0.181 -0.132,0.277 -0.132,0.277 0,0 0.022,-0.104 0.065,-0.3 0.036,-0.198 0.037,-0.479 -0.017,-0.83 -0.067,-0.35 -0.233,-0.75 -0.493,-1.162 -0.265,-0.411 -0.635,-0.828 -1.094,-1.22 -0.462,-0.39 -1.015,-0.749 -1.627,-1.071 -0.151,-0.084 -0.312,-0.156 -0.474,-0.228 -0.161,-0.075 -0.326,-0.145 -0.498,-0.206 l -0.003,-0.001 c -1.108,0.126 -2.782,0.553 -3.484,2.374 -0.511,1.326 0.669,2.951 0.868,3.576 0.247,0.112 0.486,0.21 0.715,0.293 0.476,0.169 0.904,0.294 1.263,0.375 0.717,0.164 1.148,0.196 1.148,0.196 0,0 -0.107,0.012 -0.306,0.034 -0.2,0.018 -0.497,0.045 -0.875,0.031 -0.751,-0.018 -1.859,-0.159 -3.087,-0.643 -0.614,-0.244 -1.268,-0.563 -1.899,-1.011 -0.632,-0.443 -1.262,-0.999 -1.76,-1.74 -0.236,-0.378 -0.469,-0.783 -0.592,-1.263 -0.125,-0.484 -0.193,-0.966 -0.041,-1.579 0.032,-0.118 0.066,-0.204 0.098,-0.307"
         style="fill:#d3d3d3;fill-opacity:1;fill-rule:nonzero;stroke:none;stroke-width:0.1"
         id="path104" /><path
         d="m 227.625,392.732 c -0.008,0.161 -0.012,0.247 -0.012,0.247 0,0 -0.055,-0.342 -0.19,-0.924 -0.135,-0.58 -0.353,-1.409 -0.762,-2.314 -0.209,-0.446 -0.473,-0.917 -0.818,-1.311 -0.126,-0.14 -0.266,-0.265 -0.41,-0.359 -0.038,0.423 -0.378,1.11 -0.754,2.294 -0.583,1.839 -0.564,3.64 -0.115,5.451 0.417,1.676 0.382,2.293 0.205,2.45 0.22,0.197 0.459,0.322 0.703,0.33 0.368,0.003 0.668,-0.154 0.881,-0.352 0.212,-0.192 0.349,-0.386 0.433,-0.521 0.084,-0.136 0.119,-0.216 0.119,-0.216 0,0 -0.017,0.085 -0.072,0.239 -0.058,0.151 -0.143,0.38 -0.339,0.63 -0.098,0.123 -0.219,0.256 -0.388,0.365 -0.158,0.111 -0.395,0.202 -0.614,0.228 -0.244,0.028 -0.516,-0.017 -0.762,-0.131 -0.247,-0.113 -0.47,-0.285 -0.669,-0.484 -0.396,-0.403 -0.718,-0.91 -0.973,-1.474 -0.255,-0.564 -0.467,-1.179 -0.608,-1.832 -0.14,-0.648 -0.247,-1.343 -0.277,-2.035 -0.031,-0.699 -0.012,-1.413 0.077,-2.127 0.101,-0.711 0.266,-1.421 0.554,-2.101 0.144,-0.339 0.323,-0.671 0.57,-0.974 0.244,-0.298 0.563,-0.589 0.995,-0.729 0.066,-0.022 0.136,-0.03 0.205,-0.042 0.177,-0.1 0.388,-0.244 0.58,-0.425 0.217,-0.199 0.409,-0.435 0.532,-0.629 0.126,-0.192 0.188,-0.336 0.188,-0.336 0,0 -0.013,0.156 -0.076,0.386 -0.059,0.23 -0.174,0.532 -0.334,0.819 -0.043,0.079 -0.09,0.156 -0.14,0.231 0.11,0.034 0.214,0.078 0.305,0.132 0.344,0.2 0.587,0.462 0.785,0.723 0.393,0.528 0.609,1.078 0.774,1.586 0.32,1.019 0.388,1.896 0.41,2.501 0.013,0.303 0.001,0.542 -0.003,0.704"
         style="fill:#d3d3d3;fill-opacity:1;fill-rule:nonzero;stroke:none;stroke-width:0.1"
         id="path106" /><path
         d="m 243.486,385.2 c -0.009,0.073 -0.019,0.153 -0.029,0.24 -0.003,0.089 -0.005,0.184 -0.008,0.287 -0.004,0.205 -0.018,0.441 0.018,0.691 0.012,0.127 0.025,0.259 0.038,0.395 0.022,0.135 0.056,0.273 0.085,0.416 0.047,0.289 0.157,0.579 0.255,0.884 0.131,0.29 0.24,0.606 0.422,0.89 0.159,0.298 0.364,0.572 0.565,0.85 0.226,0.256 0.444,0.522 0.702,0.74 0.238,0.239 0.519,0.419 0.776,0.609 0.276,0.161 0.533,0.335 0.807,0.441 0.134,0.059 0.264,0.116 0.39,0.171 0.13,0.045 0.258,0.081 0.379,0.119 0.239,0.085 0.469,0.124 0.672,0.157 0.1,0.018 0.195,0.035 0.282,0.05 0.088,0.007 0.169,0.013 0.243,0.019 0.292,0.02 0.458,0.025 0.458,0.025 0,0 -0.163,-0.043 -0.446,-0.105 -0.07,-0.016 -0.148,-0.033 -0.233,-0.052 -0.082,-0.027 -0.172,-0.057 -0.267,-0.088 -0.191,-0.061 -0.405,-0.13 -0.628,-0.233 -0.113,-0.049 -0.231,-0.095 -0.35,-0.151 -0.116,-0.061 -0.235,-0.125 -0.359,-0.191 -0.125,-0.061 -0.247,-0.134 -0.367,-0.219 -0.121,-0.081 -0.245,-0.163 -0.372,-0.246 -0.236,-0.19 -0.486,-0.377 -0.709,-0.603 -0.24,-0.207 -0.44,-0.462 -0.651,-0.704 -0.192,-0.258 -0.389,-0.513 -0.542,-0.792 -0.174,-0.266 -0.296,-0.555 -0.431,-0.826 -0.101,-0.285 -0.23,-0.551 -0.295,-0.823 -0.038,-0.134 -0.076,-0.265 -0.112,-0.391 -0.026,-0.13 -0.051,-0.254 -0.075,-0.374 -0.056,-0.24 -0.075,-0.462 -0.099,-0.661 -0.012,-0.1 -0.023,-0.193 -0.033,-0.279 -0.002,-0.088 -0.004,-0.169 -0.005,-0.241 -0.007,-0.291 -0.017,-0.458 -0.017,-0.458 0,0 -0.027,0.165 -0.064,0.453 z m 12.053,-5.052 c 0.618,0.742 1.014,1.536 1.242,2.263 0.226,0.728 0.317,1.382 0.316,1.916 0.022,0.263 -0.012,0.507 -0.026,0.711 -0.01,0.207 -0.044,0.373 -0.07,0.51 -0.054,0.273 -0.083,0.419 -0.083,0.419 0,0 -0.013,-0.148 -0.038,-0.426 -0.01,-0.138 -0.02,-0.311 -0.063,-0.503 -0.042,-0.195 -0.061,-0.413 -0.136,-0.657 -0.108,-0.49 -0.339,-1.054 -0.644,-1.655 -0.319,-0.597 -0.789,-1.201 -1.379,-1.745 -0.597,-0.538 -1.342,-0.997 -2.189,-1.268 -0.216,-0.055 -0.424,-0.14 -0.65,-0.172 -0.062,-0.012 -0.125,-0.024 -0.188,-0.036 -1.06,0.908 -3.799,2.454 -4.211,4.804 -0.764,4.363 1.292,6.423 2.455,7.322 0.053,0.007 0.104,0.014 0.147,0.016 0.18,0.021 0.368,0.026 0.557,0.036 0.372,0.009 0.729,-0.015 1.064,-0.062 0.667,-0.105 1.248,-0.281 1.708,-0.482 0.459,-0.201 0.815,-0.394 1.046,-0.543 0.232,-0.152 0.356,-0.232 0.356,-0.232 0,0 -0.09,0.117 -0.278,0.325 -0.192,0.204 -0.481,0.504 -0.914,0.816 -0.429,0.316 -0.998,0.657 -1.722,0.904 -0.362,0.121 -0.758,0.226 -1.188,0.296 -0.213,0.033 -0.437,0.055 -0.678,0.064 -0.126,0.008 -0.221,0.004 -0.332,0.007 -0.063,-0.001 -0.09,0.004 -0.182,-0.002 l -0.179,-0.013 c -0.962,-0.045 -2.02,-0.306 -3.013,-0.861 -0.994,-0.546 -1.92,-1.377 -2.589,-2.442 -0.355,-0.52 -0.604,-1.116 -0.824,-1.727 -0.079,-0.314 -0.192,-0.625 -0.238,-0.951 l -0.079,-0.489 c -0.021,-0.166 -0.026,-0.348 -0.037,-0.523 -0.03,-0.382 -0.006,-0.644 0.002,-0.939 l 0.004,-0.109 0.005,-0.079 0.004,-0.032 0.008,-0.062 0.034,-0.249 c 0.026,-0.165 0.046,-0.332 0.079,-0.497 0.153,-0.654 0.34,-1.311 0.654,-1.913 0.588,-1.223 1.526,-2.259 2.619,-3.013 0.559,-0.359 1.141,-0.68 1.764,-0.877 0.303,-0.121 0.623,-0.182 0.933,-0.262 0.317,-0.062 0.626,-0.1 0.951,-0.129 0.167,-0.005 0.333,-0.01 0.498,-0.015 0.081,-10e-4 0.17,-0.005 0.243,-0.003 l 0.203,0.016 c 0.135,0.011 0.269,0.021 0.403,0.032 l 0.05,0.004 0.059,0.005 0.014,0.002 0.028,0.005 0.112,0.02 0.222,0.041 c 0.148,0.031 0.295,0.051 0.439,0.089 0.142,0.042 0.283,0.084 0.424,0.125 0.284,0.072 0.545,0.201 0.807,0.308 1.041,0.463 1.87,1.169 2.48,1.912"
         style="fill:#d3d3d3;fill-opacity:1;fill-rule:nonzero;stroke:none;stroke-width:0.1"
         id="path108" /><path
         d="m 278.474,388.696 c -0.092,-0.144 -0.192,-0.309 -0.3,-0.492 -0.116,-0.18 -0.266,-0.37 -0.413,-0.577 -0.173,-0.192 -0.337,-0.413 -0.543,-0.618 -0.402,-0.422 -0.921,-0.82 -1.513,-1.163 -0.595,-0.339 -1.288,-0.597 -2.03,-0.695 -0.742,-0.102 -1.526,-0.038 -2.281,0.208 l -0.284,0.094 -0.272,0.122 -0.328,0.146 -0.235,0.146 c -0.156,0.081 -0.321,0.207 -0.487,0.332 -0.173,0.112 -0.319,0.265 -0.478,0.399 -0.611,0.57 -1.116,1.287 -1.462,2.084 -0.359,0.79 -0.562,1.655 -0.626,2.516 -0.056,0.864 0.029,1.722 0.25,2.532 l 0.092,0.339 0.101,0.268 0.096,0.268 0.126,0.274 c 0.08,0.185 0.166,0.364 0.271,0.53 0.096,0.171 0.194,0.34 0.309,0.493 0.434,0.634 0.958,1.16 1.511,1.562 0.55,0.411 1.138,0.674 1.683,0.851 0.548,0.181 1.059,0.236 1.487,0.27 0.426,0.001 0.776,0.005 1.007,-0.037 0.238,-0.025 0.365,-0.038 0.365,-0.038 0,0 -0.115,0.054 -0.332,0.157 -0.217,0.109 -0.552,0.232 -1,0.343 -0.449,0.085 -1.02,0.187 -1.678,0.113 -0.654,-0.056 -1.413,-0.21 -2.16,-0.583 -0.749,-0.363 -1.498,-0.907 -2.145,-1.626 -0.172,-0.173 -0.318,-0.369 -0.464,-0.57 -0.155,-0.196 -0.29,-0.407 -0.418,-0.627 l -0.198,-0.331 -0.173,-0.369 -0.173,-0.376 -0.123,-0.332 c -0.359,-0.987 -0.553,-2.091 -0.515,-3.208 0.027,-1.119 0.285,-2.25 0.748,-3.299 0.47,-1.045 1.155,-2.01 2.033,-2.754 0.225,-0.179 0.433,-0.375 0.68,-0.522 0.238,-0.156 0.473,-0.31 0.756,-0.442 l 0.406,-0.198 0.34,-0.127 0.169,-0.061 0.084,-0.03 0.042,-0.015 0.062,-0.022 0.013,-0.003 0.025,-0.007 0.402,-0.097 c 1.068,-0.252 2.158,-0.209 3.109,0.051 0.955,0.259 1.767,0.726 2.405,1.255 0.637,0.534 1.115,1.12 1.451,1.68 0.172,0.276 0.308,0.55 0.426,0.801 0.099,0.263 0.198,0.495 0.268,0.714 0.064,0.223 0.117,0.42 0.159,0.591 0.038,0.17 0.052,0.316 0.073,0.434 0.034,0.237 0.052,0.364 0.052,0.364 0,0 -0.059,-0.114 -0.169,-0.326 -0.055,-0.106 -0.114,-0.243 -0.201,-0.392"
         style="fill:#d3d3d3;fill-opacity:1;fill-rule:nonzero;stroke:none;stroke-width:0.1"
         id="path110" /><path
         d="m 282.169,414.389 c -0.148,0.208 -0.288,0.353 -0.383,0.443 -0.097,0.091 -0.148,0.139 -0.148,0.139 0,0 0.031,-0.063 0.09,-0.182 0.066,-0.118 0.138,-0.295 0.22,-0.517 0.087,-0.222 0.148,-0.506 0.182,-0.816 0.028,-0.311 -0.008,-0.659 -0.137,-0.977 -0.115,-0.284 -0.332,-0.518 -0.606,-0.695 -0.625,0.298 -2.095,0.646 -2.964,1.596 -1.489,1.626 -1.428,2.603 -1.256,3.095 0.633,0.204 1.248,0.184 1.678,0.141 0.239,-0.028 0.43,-0.058 0.559,-0.085 0.13,-0.026 0.199,-0.04 0.199,-0.04 0,0 -0.06,0.038 -0.173,0.108 -0.116,0.065 -0.287,0.166 -0.522,0.26 -0.234,0.096 -0.529,0.2 -0.887,0.258 -0.355,0.059 -0.787,0.087 -1.242,-0.01 -0.081,-0.018 -0.161,-0.043 -0.24,-0.067 -0.047,-0.01 -0.17,-0.035 -0.344,-0.058 -0.223,-0.032 -0.526,-0.054 -0.834,-0.039 -0.307,0.013 -0.618,0.06 -0.848,0.117 -0.23,0.054 -0.379,0.115 -0.379,0.115 0,0 0.123,-0.103 0.333,-0.229 0.208,-0.126 0.502,-0.273 0.815,-0.387 0.079,-0.03 0.16,-0.057 0.24,-0.082 -0.047,-0.044 -0.093,-0.089 -0.136,-0.14 -0.417,-0.441 -0.638,-1.108 -0.603,-1.753 0.026,-0.318 0.079,-0.642 0.192,-0.939 0.099,-0.305 0.245,-0.582 0.43,-0.871 0.086,-0.135 0.163,-0.23 0.245,-0.347 0.126,-0.159 0.211,-0.248 0.321,-0.374 0.219,-0.224 0.452,-0.435 0.701,-0.623 0.504,-0.371 1.062,-0.662 1.65,-0.848 0.585,-0.19 1.201,-0.266 1.803,-0.229 0.306,0.032 0.588,0.065 0.894,0.178 l 0.226,0.083 0.166,0.084 0.082,0.042 0.021,0.011 0.037,0.018 0.012,0.008 0.047,0.03 0.184,0.12 c 0.479,0.34 0.799,0.857 0.891,1.346 0.106,0.49 0.032,0.934 -0.085,1.284 -0.118,0.353 -0.278,0.627 -0.431,0.832"
         style="fill:#d3d3d3;fill-opacity:1;fill-rule:nonzero;stroke:none;stroke-width:0.1"
         id="path112" /><path
         d="m 235.873,394.951 c 0.415,-0.043 0.761,0.087 1.042,0.246 0.278,0.166 0.496,0.364 0.66,0.56 0.161,0.2 0.289,0.381 0.376,0.542 0.089,0.159 0.149,0.29 0.183,0.381 0.036,0.091 0.055,0.139 0.055,0.139 0,0 -0.021,-0.048 -0.059,-0.137 -0.037,-0.09 -0.101,-0.219 -0.194,-0.374 -0.091,-0.157 -0.223,-0.336 -0.402,-0.512 -0.178,-0.175 -0.404,-0.355 -0.685,-0.467 -0.273,-0.116 -0.615,-0.169 -0.91,-0.083 -0.324,0.083 -0.575,0.304 -0.74,0.596 -0.162,0.294 -0.235,0.65 -0.234,1.012 0.004,0.182 0.018,0.365 0.053,0.547 0.014,0.094 0.038,0.179 0.061,0.263 0.018,0.082 0.064,0.191 0.094,0.286 0.116,0.33 0.317,0.671 0.547,0.945 0.236,0.275 0.522,0.499 0.838,0.616 0.155,0.059 0.324,0.085 0.477,0.083 0.038,-0.003 0.072,0 0.114,-0.005 l 0.136,-0.028 c 0.061,-0.017 0.151,-0.042 0.217,-0.078 0.293,-0.134 0.508,-0.393 0.642,-0.66 0.141,-0.269 0.194,-0.552 0.216,-0.801 0.02,-0.251 0.004,-0.472 -0.03,-0.65 -0.031,-0.179 -0.066,-0.318 -0.097,-0.41 -0.029,-0.093 -0.044,-0.143 -0.044,-0.143 0,0 0.017,0.049 0.049,0.141 0.033,0.092 0.073,0.23 0.109,0.408 0.039,0.179 0.06,0.4 0.068,0.656 0.003,0.256 -0.033,0.548 -0.136,0.855 -0.106,0.303 -0.294,0.631 -0.623,0.862 -0.083,0.061 -0.165,0.102 -0.274,0.151 -0.081,0.034 -0.171,0.067 -0.291,0.09 -0.218,0.039 -0.44,0.044 -0.66,-0.005 -0.439,-0.091 -0.845,-0.332 -1.167,-0.654 -0.334,-0.321 -0.559,-0.713 -0.74,-1.159 -0.031,-0.104 -0.064,-0.188 -0.092,-0.308 -0.029,-0.117 -0.055,-0.234 -0.07,-0.346 -0.038,-0.226 -0.045,-0.456 -0.025,-0.684 0.035,-0.454 0.184,-0.902 0.459,-1.258 0.269,-0.356 0.693,-0.588 1.077,-0.617"
         style="fill:#d3d3d3;fill-opacity:1;fill-rule:nonzero;stroke:none;stroke-width:0.1"
         id="path114" /><path
         d="m 260.404,402.794 c 0,0 -0.022,-0.067 -0.064,-0.192 -0.033,-0.125 -0.115,-0.3 -0.217,-0.51 -0.117,-0.205 -0.265,-0.446 -0.485,-0.675 -0.218,-0.229 -0.487,-0.46 -0.816,-0.651 -0.33,-0.189 -0.713,-0.339 -1.128,-0.439 -0.422,-0.098 -0.863,-0.123 -1.318,-0.098 -0.483,0.03 -0.933,0.148 -1.376,0.325 -0.437,0.184 -0.848,0.438 -1.186,0.762 -0.342,0.318 -0.612,0.705 -0.767,1.12 -0.037,0.104 -0.077,0.207 -0.097,0.315 l -0.04,0.158 -0.02,0.141 c -0.023,0.078 -0.017,0.232 -0.019,0.36 -0.011,0.078 0.018,0.205 0.022,0.305 0.061,0.422 0.22,0.823 0.454,1.164 0.236,0.337 0.524,0.63 0.833,0.854 0.312,0.219 0.629,0.389 0.927,0.514 0.301,0.114 0.577,0.199 0.809,0.249 0.23,0.045 0.422,0.083 0.554,0.09 0.131,0.017 0.201,0.027 0.201,0.027 0,0 -0.069,0.015 -0.198,0.044 -0.128,0.031 -0.317,0.065 -0.572,0.082 -0.252,0.015 -0.561,0.016 -0.916,-0.039 -0.353,-0.058 -0.753,-0.162 -1.163,-0.36 -0.41,-0.195 -0.833,-0.483 -1.193,-0.891 -0.36,-0.402 -0.673,-0.925 -0.799,-1.53 -0.024,-0.158 -0.066,-0.287 -0.072,-0.475 -0.001,-0.017 -0.002,-0.034 -0.003,-0.051 -0.018,-0.041 -0.033,-0.08 -0.053,-0.122 -0.073,-0.146 -0.159,-0.303 -0.258,-0.454 -0.39,-0.613 -0.923,-1.147 -0.923,-1.147 0,0 0.65,0.371 1.221,0.893 0.015,0.013 0.028,0.029 0.042,0.042 l 0.016,-0.097 c 0.022,-0.161 0.074,-0.315 0.122,-0.47 0.198,-0.622 0.581,-1.173 1.044,-1.615 0.469,-0.439 1.022,-0.775 1.604,-0.984 0.576,-0.218 1.199,-0.297 1.756,-0.294 0.584,-0.002 1.153,0.118 1.64,0.303 0.497,0.182 0.926,0.448 1.272,0.745 0.351,0.292 0.602,0.634 0.783,0.949 0.19,0.311 0.272,0.622 0.332,0.867 0.05,0.251 0.063,0.448 0.057,0.582 -0.004,0.132 -0.006,0.203 -0.006,0.203"
         style="fill:#d3d3d3;fill-opacity:1;fill-rule:nonzero;stroke:none;stroke-width:0.1"
         id="path116" /><path
         d="m 253.042,423.657 c 1.879,0.518 -1.45,0.462 -2.308,1.198 -0.392,0.336 3.042,1.777 1.196,1.153 -1.872,-0.632 -2.64,-1.41 -2.571,-2.272 0.046,-0.583 1.803,-0.598 3.683,-0.079"
         style="fill:#d3d3d3;fill-opacity:1;fill-rule:nonzero;stroke:none;stroke-width:0.1"
         id="path118" /><path
         d="m 230.373,378.95 c -0.667,0.584 -1.071,1.319 -1.119,2.286 -0.056,1.106 0.166,1.527 -0.537,1.256 -0.842,-0.324 -0.811,-1.929 -0.02,-3.153 0.487,-0.754 1.164,-1.262 1.799,-1.418 0,0 1.328,-0.242 -0.123,1.029"
         style="fill:#d3d3d3;fill-opacity:1;fill-rule:nonzero;stroke:none;stroke-width:0.1"
         id="path120" /><path
         d="m 232.581,411.51 c -0.095,0.144 -0.208,0.255 -0.366,0.376 -0.066,0.043 -0.119,0.087 -0.198,0.128 -0.086,0.04 -0.175,0.081 -0.265,0.116 -0.346,0.114 -0.718,0.124 -1.072,0.07 -0.717,-0.106 -1.373,-0.446 -1.954,-0.871 -0.591,-0.429 -1.078,-0.958 -1.528,-1.559 -0.096,-0.146 -0.19,-0.281 -0.285,-0.438 -0.091,-0.162 -0.194,-0.322 -0.271,-0.485 -0.172,-0.32 -0.311,-0.658 -0.419,-1.002 -0.216,-0.688 -0.33,-1.418 -0.2,-2.132 0.062,-0.354 0.191,-0.703 0.41,-0.994 0.226,-0.294 0.527,-0.491 0.848,-0.585 0.336,-0.097 0.649,-0.096 0.94,-0.038 0.29,0.054 0.557,0.145 0.795,0.261 0.959,0.463 1.564,1.106 1.975,1.541 0.199,0.228 0.349,0.411 0.443,0.543 0.096,0.13 0.147,0.199 0.147,0.199 0,0 -0.053,-0.068 -0.152,-0.195 -0.097,-0.13 -0.252,-0.309 -0.455,-0.531 -0.21,-0.215 -0.466,-0.479 -0.809,-0.719 -0.338,-0.244 -0.741,-0.499 -1.221,-0.66 -0.464,-0.167 -1.052,-0.246 -1.516,-0.037 -0.236,0.102 -0.446,0.286 -0.571,0.508 -0.13,0.228 -0.187,0.503 -0.207,0.788 -0.022,0.285 0.008,0.586 0.075,0.885 0.056,0.299 0.152,0.6 0.266,0.895 0.122,0.293 0.254,0.585 0.411,0.868 0.073,0.147 0.162,0.273 0.242,0.41 0.085,0.136 0.194,0.281 0.288,0.422 0.357,0.516 0.82,1.003 1.293,1.417 0.243,0.204 0.498,0.389 0.763,0.54 0.262,0.159 0.538,0.283 0.815,0.355 0.276,0.073 0.556,0.105 0.814,0.055 l 0.169,-0.044 c 0.062,-0.02 0.136,-0.065 0.202,-0.096 0.088,-0.053 0.21,-0.137 0.289,-0.233 0.357,-0.385 0.463,-0.959 0.455,-1.455 0.001,-0.507 -0.112,-0.97 -0.234,-1.368 -0.119,-0.402 -0.287,-0.729 -0.423,-0.997 -0.145,-0.264 -0.266,-0.468 -0.358,-0.601 -0.088,-0.134 -0.136,-0.207 -0.136,-0.207 0,0 0.049,0.071 0.141,0.204 0.096,0.131 0.221,0.332 0.373,0.593 0.281,0.529 0.696,1.308 0.827,2.365 0.033,0.263 0.033,0.544 -0.009,0.836 -0.036,0.292 -0.142,0.597 -0.332,0.872"
         style="fill:#d3d3d3;fill-opacity:1;fill-rule:nonzero;stroke:none;stroke-width:0.1"
         id="path122" /><path
         d="m 259.726,369.268 c -0.121,-0.156 -0.288,-0.329 -0.516,-0.476 -0.226,-0.147 -0.505,-0.272 -0.823,-0.357 -0.318,-0.083 -0.675,-0.121 -1.05,-0.108 -0.364,0.015 -0.77,0.092 -1.151,0.219 -0.384,0.129 -0.751,0.333 -1.078,0.584 -0.316,0.261 -0.596,0.582 -0.735,0.948 -0.081,0.174 -0.12,0.376 -0.128,0.545 0.001,0.044 -0.007,0.075 -0.002,0.129 l 0.02,0.173 c 0.013,0.061 0.034,0.175 0.068,0.254 0.127,0.348 0.387,0.649 0.708,0.863 0.323,0.212 0.692,0.351 1.057,0.426 0.369,0.073 0.723,0.09 1.057,0.068 0.678,-0.045 1.219,-0.242 1.58,-0.422 0.361,-0.181 0.547,-0.332 0.547,-0.332 0,0 -0.039,0.044 -0.113,0.126 -0.077,0.081 -0.19,0.2 -0.358,0.327 -0.166,0.128 -0.38,0.272 -0.648,0.398 -0.266,0.126 -0.589,0.247 -0.945,0.311 -0.361,0.072 -0.775,0.106 -1.202,0.055 -0.428,-0.05 -0.887,-0.165 -1.31,-0.419 -0.418,-0.251 -0.826,-0.631 -1.023,-1.153 -0.054,-0.134 -0.083,-0.248 -0.115,-0.414 l -0.024,-0.173 c -0.006,-0.061 -0.004,-0.147 -0.005,-0.22 0.006,-0.295 0.062,-0.561 0.169,-0.816 0.207,-0.51 0.577,-0.909 0.974,-1.224 0.405,-0.31 0.865,-0.51 1.319,-0.641 0.458,-0.13 0.902,-0.171 1.342,-0.15 0.43,0.018 0.832,0.112 1.178,0.253 0.349,0.137 0.64,0.329 0.863,0.533 0.228,0.201 0.371,0.429 0.466,0.618 0.096,0.191 0.132,0.355 0.15,0.464 0.016,0.11 0.025,0.168 0.025,0.168 0,0 -0.022,-0.054 -0.062,-0.157 -0.04,-0.1 -0.116,-0.243 -0.235,-0.4"
         style="fill:#d3d3d3;fill-opacity:1;fill-rule:nonzero;stroke:none;stroke-width:0.1"
         id="path124" /><path
         d="m 276.473,389.84 c -0.031,-0.106 -0.063,-0.221 -0.098,-0.292 -0.069,-0.162 -0.124,-0.325 -0.221,-0.495 -0.078,-0.173 -0.175,-0.333 -0.277,-0.49 -0.091,-0.165 -0.22,-0.297 -0.326,-0.449 -0.127,-0.131 -0.239,-0.278 -0.375,-0.397 -0.528,-0.487 -1.142,-0.863 -1.791,-1.023 -0.644,-0.164 -1.299,-0.169 -1.892,-0.039 l -0.111,0.022 c -0.013,0 -0.073,0.02 -0.106,0.029 -0.079,0.023 -0.163,0.046 -0.223,0.069 -0.13,0.041 -0.263,0.1 -0.395,0.152 -0.26,0.112 -0.497,0.247 -0.711,0.389 -0.427,0.29 -0.767,0.607 -1.021,0.894 -0.252,0.29 -0.436,0.538 -0.55,0.715 -0.114,0.179 -0.175,0.274 -0.175,0.274 0,0 0.027,-0.11 0.091,-0.315 0.068,-0.202 0.172,-0.502 0.369,-0.859 0.194,-0.356 0.47,-0.781 0.89,-1.189 0.209,-0.204 0.448,-0.408 0.725,-0.595 0.139,-0.092 0.285,-0.18 0.453,-0.263 0.086,-0.046 0.156,-0.076 0.232,-0.112 0.044,-0.019 0.061,-0.03 0.127,-0.056 l 0.131,-0.046 c 0.691,-0.271 1.535,-0.398 2.406,-0.26 0.874,0.121 1.754,0.519 2.5,1.128 0.191,0.148 0.359,0.323 0.534,0.493 0.154,0.189 0.332,0.364 0.466,0.571 0.299,0.399 0.531,0.824 0.737,1.327 0.059,0.13 0.088,0.229 0.124,0.334 l 0.106,0.317 0.017,0.056 0.005,0.023 0.011,0.046 0.022,0.092 0.043,0.184 c 0.026,0.123 0.061,0.245 0.074,0.371 0.031,0.251 0.076,0.502 0.078,0.756 l 0.015,0.381 -0.017,0.381 c -0.058,1.015 -0.362,2.014 -0.865,2.886 -0.491,0.878 -1.228,1.605 -2.058,2.102 -0.21,0.121 -0.466,0.245 -0.672,0.334 l -0.291,0.104 -0.182,0.062 -0.171,0.041 c -0.226,0.056 -0.45,0.105 -0.677,0.123 -0.225,0.034 -0.45,0.033 -0.67,0.031 -0.885,-0.005 -1.687,-0.291 -2.321,-0.67 -0.643,-0.375 -1.12,-0.86 -1.472,-1.322 -0.345,-0.47 -0.564,-0.922 -0.706,-1.303 -0.144,-0.383 -0.216,-0.694 -0.248,-0.901 -0.035,-0.21 -0.054,-0.322 -0.054,-0.322 0,0 0.049,0.102 0.142,0.294 0.083,0.198 0.242,0.462 0.446,0.783 0.21,0.322 0.51,0.678 0.881,1.036 0.386,0.346 0.868,0.671 1.429,0.905 0.563,0.23 1.212,0.351 1.875,0.292 0.166,-0.018 0.333,-0.032 0.498,-0.078 0.167,-0.029 0.329,-0.086 0.492,-0.145 l 0.103,-0.035 10e-4,-10e-4 0.018,-0.008 0.034,-0.016 0.07,-0.033 0.282,-0.127 c 0.165,-0.091 0.28,-0.163 0.428,-0.26 0.582,-0.415 1.098,-0.975 1.448,-1.654 0.352,-0.675 0.584,-1.439 0.618,-2.219 l 0.017,-0.293 -0.01,-0.292 c 0.003,-0.196 -0.034,-0.388 -0.053,-0.581 -0.007,-0.097 -0.036,-0.191 -0.054,-0.286 l -0.029,-0.143 -0.014,-0.072 -0.007,-0.035 -0.004,-0.018 c 0.002,0.006 -0.001,-0.004 -0.002,-0.007 l -0.089,-0.296"
         style="fill:#d3d3d3;fill-opacity:1;fill-rule:nonzero;stroke:none;stroke-width:0.1"
         id="path126" /><path
         d="m 244.512,368.912 c -0.127,0.283 -0.269,0.473 -0.352,0.613 -0.087,0.138 -0.133,0.211 -0.133,0.211 0,0 0.028,-0.082 0.079,-0.236 0.05,-0.154 0.134,-0.382 0.203,-0.67 0.081,-0.283 0.151,-0.639 0.196,-1.04 0.008,-0.101 0.018,-0.204 0.027,-0.31 0.003,-0.107 -0.003,-0.216 -0.004,-0.327 0.001,-0.111 -0.004,-0.223 -0.023,-0.337 -0.018,-0.112 -0.016,-0.232 -0.051,-0.344 -0.093,-0.461 -0.308,-0.922 -0.66,-1.265 -0.353,-0.345 -0.845,-0.55 -1.394,-0.612 -0.134,-0.029 -0.282,-0.008 -0.423,-0.017 l -0.084,-10e-4 -0.123,0.012 -0.247,0.025 c -0.151,0.024 -0.276,0.054 -0.419,0.083 -0.146,0.044 -0.295,0.073 -0.442,0.124 -0.588,0.192 -1.165,0.486 -1.702,0.843 -0.543,0.349 -1.052,0.761 -1.506,1.213 -0.45,0.455 -0.871,0.93 -1.211,1.437 -0.079,0.124 -0.174,0.262 -0.238,0.371 -0.079,0.137 -0.156,0.273 -0.233,0.408 -0.064,0.126 -0.128,0.251 -0.19,0.375 -0.056,0.131 -0.111,0.26 -0.166,0.388 -0.197,0.519 -0.327,1.03 -0.371,1.509 -0.04,0.478 -10e-4,0.921 0.111,1.294 0.109,0.375 0.292,0.676 0.484,0.89 0.049,0.054 0.095,0.105 0.138,0.153 0.049,0.043 0.096,0.082 0.139,0.119 0.085,0.079 0.164,0.138 0.234,0.176 0.137,0.087 0.211,0.132 0.211,0.132 0,0 -0.083,-0.027 -0.238,-0.078 -0.08,-0.022 -0.174,-0.061 -0.28,-0.12 -0.054,-0.027 -0.112,-0.058 -0.174,-0.089 -0.057,-0.042 -0.117,-0.086 -0.18,-0.133 -0.252,-0.188 -0.533,-0.48 -0.725,-0.891 -0.203,-0.404 -0.335,-0.911 -0.354,-1.464 -0.025,-0.554 0.048,-1.156 0.223,-1.759 0.048,-0.15 0.097,-0.302 0.146,-0.456 0.061,-0.154 0.123,-0.309 0.185,-0.467 0.064,-0.145 0.133,-0.284 0.203,-0.427 0.087,-0.17 0.168,-0.299 0.255,-0.452 0.353,-0.582 0.77,-1.155 1.271,-1.664 0.498,-0.513 1.054,-0.985 1.664,-1.39 0.616,-0.393 1.283,-0.72 1.988,-0.935 0.176,-0.056 0.359,-0.093 0.537,-0.137 0.187,-0.029 0.391,-0.06 0.569,-0.076 l 0.249,-0.011 0.123,-0.005 c 0.092,-0.002 0.106,0.005 0.162,0.006 0.185,0.019 0.367,0.009 0.55,0.054 0.728,0.11 1.419,0.485 1.864,1.018 0.457,0.53 0.642,1.174 0.679,1.731 0.034,0.562 -0.034,1.066 -0.161,1.484 -0.114,0.422 -0.265,0.768 -0.406,1.044"
         style="fill:#d3d3d3;fill-opacity:1;fill-rule:nonzero;stroke:none;stroke-width:0.1"
         id="path128" /><path
         d="m 242.507,366.221 c -0.273,-0.316 -0.692,-0.496 -1.118,-0.563 -0.438,-0.065 -0.848,-0.031 -1.228,0.041 -0.373,0.074 -0.7,0.178 -0.965,0.277 -0.263,0.103 -0.471,0.194 -0.61,0.261 -0.14,0.068 -0.214,0.104 -0.214,0.104 0,0 0.06,-0.058 0.172,-0.166 0.117,-0.102 0.288,-0.259 0.531,-0.426 0.242,-0.168 0.549,-0.365 0.94,-0.524 0.382,-0.162 0.874,-0.31 1.419,-0.31 0.544,-0.008 1.221,0.13 1.754,0.619 0.271,0.234 0.471,0.55 0.623,0.886 0.138,0.341 0.206,0.709 0.218,1.073 0.009,0.182 -0.007,0.362 -0.019,0.545 -0.031,0.175 -0.049,0.36 -0.096,0.532 -0.047,0.173 -0.082,0.347 -0.152,0.524 -0.064,0.175 -0.132,0.362 -0.2,0.495 -0.286,0.639 -0.691,1.249 -1.165,1.782 -0.479,0.531 -1.031,0.997 -1.64,1.361 -0.607,0.365 -1.271,0.633 -1.961,0.75 -0.347,0.059 -0.694,0.077 -1.05,0.04 -0.179,-0.029 -0.403,-0.054 -0.52,-0.102 l -0.206,-0.064 -0.013,-0.004 -0.041,-0.012 -0.007,-0.003 -0.03,-0.014 -0.06,-0.027 -0.118,-0.054 c -0.638,-0.289 -1.075,-0.89 -1.21,-1.442 -0.159,-0.556 -0.111,-1.065 -0.019,-1.48 0.094,-0.417 0.237,-0.754 0.376,-1.016 0.135,-0.265 0.267,-0.458 0.358,-0.581 0.093,-0.125 0.143,-0.191 0.143,-0.191 0,0 -0.027,0.078 -0.077,0.225 -0.057,0.147 -0.116,0.364 -0.184,0.636 -0.069,0.273 -0.113,0.612 -0.126,0.987 -0.006,0.374 0.054,0.793 0.225,1.168 0.085,0.188 0.206,0.358 0.36,0.492 0.147,0.14 0.329,0.246 0.535,0.316 0.445,0.146 0.911,0.133 1.437,0.003 1.034,-0.264 2.073,-0.964 2.862,-1.852 0.401,-0.444 0.732,-0.936 0.999,-1.464 0.083,-0.153 0.123,-0.27 0.174,-0.393 0.058,-0.117 0.092,-0.256 0.137,-0.385 0.046,-0.131 0.061,-0.261 0.095,-0.391 0.013,-0.128 0.04,-0.258 0.043,-0.382 0.016,-0.252 -0.019,-0.487 -0.072,-0.706 -0.069,-0.209 -0.157,-0.411 -0.3,-0.565"
         style="fill:#d3d3d3;fill-opacity:1;fill-rule:nonzero;stroke:none;stroke-width:0.1"
         id="path130" /><path
         d="m 268.413,412.149 c 0.153,-0.293 0.398,-0.622 0.676,-0.894 0.573,-0.567 1.248,-0.914 1.248,-0.914 0,0 -0.124,0.143 -0.281,0.374 -0.158,0.231 -0.347,0.549 -0.485,0.876 -0.139,0.328 -0.215,0.658 -0.23,0.888 -0.007,0.103 -0.003,0.184 0.002,0.244 1.464,1.24 -2.527,-0.077 -4.703,1.414 -4.542,3.113 -0.783,5.41 -2.708,4.296 -0.541,-0.313 -0.94,-0.711 -1.2,-1.156 -0.007,-0.007 -0.011,-0.013 -0.018,-0.02 -0.207,-0.213 -0.514,-0.481 -0.857,-0.716 -0.34,-0.238 -0.713,-0.443 -1.003,-0.579 -0.29,-0.138 -0.495,-0.208 -0.495,-0.208 0,0 0.217,-0.003 0.544,0.031 0.327,0.032 0.764,0.102 1.198,0.221 0.095,0.025 0.189,0.053 0.282,0.083 -0.046,-1.021 0.495,-2.125 1.66,-3.025 1.87,-1.444 4.536,-1.739 6.37,-0.915"
         style="fill:#d3d3d3;fill-opacity:1;fill-rule:nonzero;stroke:none;stroke-width:0.1"
         id="path132" /></g></g></svg>
